<svg width="174" height="34" viewBox="0 0 174 34" fill="none" xmlns="http://www.w3.org/2000/svg">
<g clip-path="url(#clip0_840_574)">
<rect x="5.49414" y="5.66675" width="18.3158" height="22.6667" fill="white"/>
<path d="M15.4568 18.0023C16.5296 17.7709 17.5739 17.4222 18.5708 16.9626V18.965C18.5708 20.4565 18.1452 21.6292 17.2941 22.4831C16.4429 23.3369 15.272 23.7632 13.7814 23.7618C12.8762 23.7618 12.1842 23.549 11.7053 23.1235C11.4627 22.8686 11.2742 22.5672 11.1511 22.2373C11.028 21.9075 10.9729 21.5561 10.9891 21.2043C11.0007 20.5751 11.1955 19.963 11.5496 19.4432C11.9648 19.0273 12.6665 18.6718 13.6257 18.4036L15.4568 18.0023Z" fill="#F37027"/>
<path d="M14.7752 2.2041C12.835 2.20383 10.9138 2.58635 9.12116 3.3298C7.32856 4.07324 5.69973 5.16305 4.3277 6.53701C2.95566 7.91097 1.86729 9.54218 1.12474 11.3374C0.382188 13.1327 -1.91579e-08 15.0569 0 17.0001C0.001101 20.9241 1.55826 24.687 4.32904 27.4612C7.09982 30.2355 10.8573 31.794 14.7752 31.794C16.7157 31.7943 18.6373 31.4117 20.4301 30.6682C22.223 29.9246 23.852 28.8346 25.2243 27.4605C26.5965 26.0863 27.685 24.4549 28.4277 22.6594C29.1703 20.8639 29.5526 18.9394 29.5526 16.9959C29.5509 13.072 27.9932 9.30932 25.2221 6.53544C22.4509 3.76155 18.6932 2.20355 14.7752 2.2041ZM23.7604 19.1979C23.7604 21.3333 23.3722 22.9967 22.5999 24.1881C21.8276 25.3795 20.9121 26.2632 19.847 26.8038C18.7442 27.3828 17.5416 27.7469 16.3032 27.8767C15.2003 28.0029 14.0916 28.0723 12.9815 28.0846C11.1809 28.1208 9.41667 27.5738 7.95127 26.5252C6.51603 25.4856 5.79772 23.7667 5.79633 21.3686C5.79633 19.1299 6.44821 17.5303 7.75197 16.5697C9.05573 15.6091 10.7166 14.9694 12.7345 14.6506C13.0581 14.643 13.3802 14.6025 13.6957 14.5299C14.1173 14.438 14.5435 14.3686 14.9725 14.322C17.3129 14.0018 18.4838 13.3087 18.4852 12.2428C18.4852 11.4422 18.0699 10.9245 17.2395 10.6833C16.4989 10.4567 15.7302 10.3356 14.9559 10.3236C14.2766 10.3124 13.6006 10.4208 12.9587 10.6438C12.6743 10.7443 12.4137 10.9028 12.1936 11.1093C11.9735 11.3158 11.7986 11.5659 11.6799 11.8436H6.35271C6.53585 10.2435 7.33872 8.77937 8.58862 7.76611C10.0252 6.53935 12.0743 5.92598 14.7358 5.92598C17.7198 5.92598 19.9557 6.43194 21.4435 7.44384C22.9867 8.51258 23.759 10.0055 23.7604 11.9226V19.1979Z" fill="#F37027"/>
<path d="M49.1243 25.6249C48.0631 26.1858 46.9047 26.5387 45.7113 26.6645C44.6538 26.7839 43.5908 26.8484 42.5267 26.8579C40.7933 26.8902 39.0959 26.3607 37.6874 25.3483C36.3033 24.3489 35.6113 22.6966 35.6113 20.3914C35.6113 18.2387 36.2341 16.7021 37.4798 15.7817C38.7254 14.8612 40.324 14.2465 42.2754 13.9374C42.5859 13.9303 42.8948 13.8913 43.1972 13.8209C43.5543 13.744 43.9633 13.6816 44.4242 13.6296C46.6746 13.3219 47.7998 12.6559 47.7998 11.6315C47.7998 10.8622 47.4033 10.3624 46.6102 10.1323C45.9014 9.91496 45.1654 9.79878 44.4242 9.78718C43.7717 9.7774 43.1226 9.88153 42.5059 10.0949C42.2325 10.1906 41.9821 10.3425 41.7707 10.5409C41.5594 10.7392 41.3919 10.9797 41.2789 11.2468H36.1594C36.3395 9.71206 37.1114 8.30855 38.3102 7.33573C39.6942 6.15887 41.6637 5.56975 44.2186 5.56836C47.0836 5.56836 49.2323 6.05352 50.6648 7.02384C52.1471 8.05099 52.8882 9.48567 52.8882 11.3279V18.3204C52.8882 20.3706 52.5173 21.9716 51.7755 23.1235C51.136 24.1838 50.2192 25.0488 49.1243 25.6249ZM47.8974 16.1726C46.9396 16.6143 45.9364 16.9496 44.9058 17.1727L43.1412 17.5574C42.2194 17.8138 41.5544 18.1465 41.1461 18.5554C40.8072 19.0549 40.6204 19.6421 40.6084 20.2458C40.5926 20.5841 40.6458 20.9221 40.7646 21.2392C40.8835 21.5563 41.0655 21.8458 41.2997 22.0901C41.7578 22.506 42.4228 22.7139 43.2948 22.7139C44.7245 22.7139 45.8497 22.3036 46.6704 21.483C47.4912 20.6624 47.9002 19.5354 47.8974 18.1021V16.1726Z" fill="white"/>
<path d="M69.139 20.1687H72.9797C72.415 22.3214 71.341 23.9612 69.7576 25.0882C68.1701 26.2678 66.1751 26.857 63.7724 26.8556C60.8562 26.8556 58.5802 25.9074 56.9443 24.0111C55.3056 22.1675 54.4869 19.5297 54.4883 16.0975C54.4883 12.8192 55.2813 10.2548 56.8674 8.40425C58.5034 6.51074 60.7794 5.56259 63.6956 5.55981C66.764 5.55981 69.1424 6.48232 70.8309 8.32732C71.7632 9.47913 72.4429 10.8145 72.826 12.2467H67.4511C67.2551 11.8252 66.9961 11.436 66.683 11.0927C66.0187 10.3774 65.0727 10.0191 63.845 10.0178C63.3356 9.99868 62.8277 10.0842 62.3524 10.2691C61.8772 10.4539 61.4448 10.7342 61.0818 11.0927C60.1614 12.1171 59.7012 13.8075 59.7012 16.164C59.7012 18.5205 60.1614 20.1839 61.0818 21.1542C61.7462 21.9735 62.744 22.3831 64.0755 22.3831C64.8514 22.4065 65.6194 22.2205 66.2989 21.8446C66.4565 21.7891 66.5987 21.6972 66.7141 21.5763L67.1294 21.1605C67.309 20.9263 67.5184 20.7166 67.7522 20.5367C68.0622 20.2927 68.5245 20.1701 69.139 20.1687Z" fill="white"/>
<path d="M84.2225 26.4711C82.3939 26.5715 80.5605 26.5458 78.7355 26.3941C76.7646 26.2403 75.7799 24.9851 75.7813 22.6286V0.0354004H78.5445C78.8754 0.0368316 79.2025 0.105775 79.5059 0.238047C79.8093 0.370318 80.0826 0.563133 80.3091 0.804715C80.5558 1.04346 80.751 1.33027 80.8827 1.64746C81.0145 1.96465 81.08 2.3055 81.0752 2.64901V6.10682H84.2225V7.1818C84.2338 7.53223 84.1712 7.88111 84.0389 8.2057C83.9065 8.53028 83.7073 8.82327 83.4543 9.0656C83.2105 9.3027 82.9223 9.48923 82.6063 9.61447C82.2903 9.73972 81.9527 9.80121 81.6129 9.79542H81.0752V21.169C81.0752 22.0395 81.5866 22.4747 82.6094 22.4747H84.2225V26.4711Z" fill="white"/>
<path d="M87.0371 6.02979H89.7962C90.4871 6.03307 91.1487 6.30955 91.6371 6.79905C92.1254 7.28855 92.401 7.95145 92.4037 8.64342V26.471H87.0371V6.02979Z" fill="white"/>
<path d="M100.145 31.3884C100.142 32.0803 99.8666 32.7432 99.3782 33.2327C98.8899 33.7222 98.2282 33.9987 97.5373 34.002H94.9277V14.8728C94.9277 11.2882 95.9768 8.84226 98.075 7.5351C100.118 6.24251 102.487 5.56218 104.903 5.57438C106.228 5.58411 107.54 5.83128 108.777 6.3042C109.983 6.72205 111.057 7.45151 111.891 8.41879C113.426 10.4176 114.193 12.9821 114.193 16.112C114.193 19.339 113.426 21.9513 111.891 23.9488C110.358 25.8963 108.388 26.8667 105.983 26.8597C104.82 26.8841 103.667 26.6475 102.607 26.1673C101.567 25.6396 100.711 24.8089 100.151 23.7845L100.145 31.3884ZM108.895 16.3262C108.895 14.3287 108.511 12.7922 107.743 11.7165C106.975 10.6408 105.875 10.103 104.444 10.103C103.06 10.103 101.986 10.6408 101.222 11.7165C100.507 12.6868 100.148 14.2234 100.147 16.3262C100.147 18.2752 100.531 19.7355 101.299 20.7072C102.065 21.7815 103.164 22.3193 104.598 22.3207C105.216 22.3393 105.828 22.2012 106.378 21.9191C106.928 21.6369 107.397 21.2201 107.743 20.7072C108.511 19.6329 108.895 18.1726 108.895 16.3262Z" fill="white"/>
<path d="M129.515 25.6247C128.453 26.1857 127.294 26.5385 126.1 26.6644C125.042 26.7837 123.979 26.8483 122.915 26.8577C121.185 26.8918 119.49 26.366 118.082 25.3586C116.698 24.3592 116.006 22.7068 116.006 20.4016C116.006 18.2489 116.633 16.7124 117.887 15.7919C119.141 14.8715 120.739 14.2568 122.68 13.9476C122.991 13.9407 123.3 13.9017 123.602 13.8312C123.959 13.7543 124.37 13.6919 124.829 13.6399C127.08 13.3322 128.205 12.6661 128.207 11.6417C128.207 10.8724 127.808 10.3734 127.017 10.1426C126.308 9.92526 125.571 9.80906 124.829 9.79743C124.177 9.78766 123.528 9.89179 122.911 10.1052C122.637 10.2008 122.387 10.3528 122.176 10.5511C121.964 10.7495 121.797 10.99 121.684 11.2571H116.548C116.725 9.71944 117.496 8.31243 118.696 7.33768C120.08 6.16082 122.049 5.5717 124.603 5.57031C127.468 5.57031 129.616 6.05547 131.049 7.02579C132.531 8.05294 133.273 9.48762 133.274 11.3298V18.3224C133.274 20.3725 132.904 21.9736 132.162 23.1255C131.522 24.1836 130.607 25.0475 129.515 25.6247ZM128.286 16.1724C127.328 16.6145 126.325 16.9499 125.294 17.1726L123.529 17.5572C122.61 17.8137 121.945 18.1463 121.534 18.5553C121.196 19.0547 121.009 19.642 120.997 20.2457C120.981 20.584 121.034 20.922 121.153 21.2391C121.272 21.5562 121.454 21.8457 121.688 22.09C122.149 22.5058 122.814 22.7138 123.683 22.7138C125.113 22.7138 126.238 22.3035 127.059 21.4829C127.879 20.6623 128.288 19.5353 128.286 18.102V16.1724Z" fill="white"/>
<path d="M149.674 20.1687H153.511C152.946 22.3214 151.872 23.9612 150.287 25.0882C148.701 26.2678 146.706 26.857 144.304 26.8556C141.387 26.8556 139.111 25.9074 137.473 24.0111C135.837 22.1675 135.02 19.5297 135.02 16.0975C135.02 12.8192 135.812 10.2548 137.397 8.40425C139.035 6.51074 141.312 5.56259 144.227 5.55981C147.295 5.55981 149.674 6.48232 151.362 8.32732C152.294 9.47913 152.974 10.8145 153.357 12.2467H147.987C147.791 11.8252 147.532 11.436 147.218 11.0927C146.554 10.3774 145.608 10.0191 144.38 10.0178C143.871 9.99868 143.363 10.0842 142.888 10.2691C142.413 10.4539 141.98 10.7342 141.617 11.0927C140.698 12.1171 140.238 13.8075 140.237 16.164C140.235 18.5205 140.695 20.1839 141.617 21.1542C142.282 21.9735 143.279 22.3831 144.609 22.3831C145.385 22.4068 146.154 22.2208 146.834 21.8446C146.992 21.7891 147.134 21.6972 147.25 21.5763L147.665 21.1605C147.842 20.9273 148.047 20.7177 148.277 20.5367C148.596 20.2927 149.061 20.1701 149.674 20.1687Z" fill="white"/>
<path d="M169.856 20.1687H173.693C173.129 22.3214 172.055 23.9612 170.471 25.0882C168.884 26.2678 166.889 26.857 164.485 26.8556C161.571 26.8556 159.294 25.9074 157.657 24.0111C156.02 22.1675 155.201 19.5297 155.201 16.0975C155.201 12.8192 155.994 10.2548 157.58 8.40425C159.216 6.51074 161.492 5.56259 164.408 5.55981C167.48 5.55981 169.858 6.48232 171.544 8.32732C173.183 10.2236 174.001 12.8615 174 16.241V17.0872C174.011 17.2701 173.985 17.4534 173.923 17.6257H160.649C160.701 19.2143 161.085 20.3925 161.801 21.1605C162.465 21.9797 163.462 22.3893 164.793 22.3893C165.569 22.4127 166.338 22.2267 167.018 21.8508C167.176 21.7957 167.318 21.7037 167.433 21.5826L167.848 21.1667C167.9 21.0129 168.091 20.8091 168.424 20.5429C168.756 20.2768 169.242 20.1687 169.856 20.1687ZM160.649 14.1763H168.478C168.374 12.7901 168.016 11.765 167.404 11.101C166.737 10.3858 165.79 10.0275 164.564 10.0261C164.055 10.0073 163.548 10.093 163.073 10.2778C162.598 10.4627 162.166 10.7428 161.803 11.101C161.083 11.8205 160.699 12.8455 160.649 14.1763Z" fill="white"/>
<path d="M87.0371 0H89.7962C90.4871 0.00328452 91.1487 0.279765 91.6371 0.769264C92.1254 1.25876 92.401 1.92166 92.4037 2.61364V4.22714H87.0371V0Z" fill="#F37027"/>
</g>
<defs>
<clipPath id="clip0_840_574">
<rect width="174" height="34" fill="white"/>
</clipPath>
</defs>
</svg>
