<svg width="1920" height="758" viewBox="0 0 1920 758" fill="none" xmlns="http://www.w3.org/2000/svg">
<g clip-path="url(#clip0_1_316)">
<rect width="1920" height="758" fill="#FA7223"/>
<g clip-path="url(#clip1_1_316)">
<path d="M-14.43 645.685C-14.43 645.685 52.0972 609.054 166.911 619.415C176.109 620.246 185.228 621.799 194.182 624.059C207.093 627.317 232.124 631.982 259.963 628.536C292.507 624.352 322.155 607.704 342.66 582.101C368.596 549.967 444.459 469.35 530.078 503.081C530.078 503.081 607.949 536.076 724.455 676.809C724.455 676.809 765.604 613.026 823.741 644.571C828.521 647.2 833.05 650.26 837.272 653.713C852.926 666.385 913.576 715.636 951.865 749.041H1068.35C1068.35 749.041 1219.43 602.087 1410.03 622.01C1410.03 622.01 1551.14 637.268 1656.73 755.893L1669.82 740.015C1669.82 740.015 1788.5 572.517 1995.96 625.478V797H-30L-14.43 645.685Z" fill="white" fill-opacity="0.1"/>
</g>
<path d="M650.469 433.281L638.094 471H628.125L645.031 425.5H651.375L650.469 433.281ZM660.75 471L648.344 433.281L647.344 425.5H653.75L670.75 471H660.75ZM660.188 454.062V461.406H636.156V454.062H660.188ZM688.375 464.594C689.479 464.594 690.458 464.385 691.312 463.969C692.167 463.531 692.833 462.927 693.312 462.156C693.812 461.365 694.073 460.438 694.094 459.375H702.562C702.542 461.75 701.906 463.865 700.656 465.719C699.406 467.552 697.729 469 695.625 470.062C693.521 471.104 691.167 471.625 688.562 471.625C685.938 471.625 683.646 471.188 681.688 470.312C679.75 469.438 678.135 468.229 676.844 466.688C675.552 465.125 674.583 463.312 673.938 461.25C673.292 459.167 672.969 456.938 672.969 454.562V453.656C672.969 451.26 673.292 449.031 673.938 446.969C674.583 444.885 675.552 443.073 676.844 441.531C678.135 439.969 679.75 438.75 681.688 437.875C683.625 437 685.896 436.562 688.5 436.562C691.271 436.562 693.698 437.094 695.781 438.156C697.885 439.219 699.531 440.74 700.719 442.719C701.927 444.677 702.542 447 702.562 449.688H694.094C694.073 448.562 693.833 447.542 693.375 446.625C692.938 445.708 692.292 444.979 691.438 444.438C690.604 443.875 689.573 443.594 688.344 443.594C687.031 443.594 685.958 443.875 685.125 444.438C684.292 444.979 683.646 445.729 683.188 446.688C682.729 447.625 682.406 448.698 682.219 449.906C682.052 451.094 681.969 452.344 681.969 453.656V454.562C681.969 455.875 682.052 457.135 682.219 458.344C682.385 459.552 682.698 460.625 683.156 461.562C683.635 462.5 684.292 463.24 685.125 463.781C685.958 464.323 687.042 464.594 688.375 464.594ZM724.344 437.188V443.562H704.656V437.188H724.344ZM709.531 428.844H718.531V460.812C718.531 461.792 718.656 462.542 718.906 463.062C719.177 463.583 719.573 463.948 720.094 464.156C720.615 464.344 721.271 464.438 722.062 464.438C722.625 464.438 723.125 464.417 723.562 464.375C724.021 464.312 724.406 464.25 724.719 464.188L724.75 470.812C723.979 471.062 723.146 471.26 722.25 471.406C721.354 471.552 720.365 471.625 719.281 471.625C717.302 471.625 715.573 471.302 714.094 470.656C712.635 469.99 711.51 468.927 710.719 467.469C709.927 466.01 709.531 464.094 709.531 461.719V428.844ZM738.969 437.188V471H729.938V437.188H738.969ZM729.375 428.375C729.375 427.062 729.833 425.979 730.75 425.125C731.667 424.271 732.896 423.844 734.438 423.844C735.958 423.844 737.177 424.271 738.094 425.125C739.031 425.979 739.5 427.062 739.5 428.375C739.5 429.688 739.031 430.771 738.094 431.625C737.177 432.479 735.958 432.906 734.438 432.906C732.896 432.906 731.667 432.479 730.75 431.625C729.833 430.771 729.375 429.688 729.375 428.375ZM755.406 443.688V484H746.406V437.188H754.75L755.406 443.688ZM776.812 453.719V454.375C776.812 456.833 776.521 459.115 775.938 461.219C775.375 463.323 774.542 465.156 773.438 466.719C772.333 468.26 770.958 469.469 769.312 470.344C767.688 471.198 765.812 471.625 763.688 471.625C761.625 471.625 759.833 471.208 758.312 470.375C756.792 469.542 755.51 468.375 754.469 466.875C753.448 465.354 752.625 463.594 752 461.594C751.375 459.594 750.896 457.448 750.562 455.156V453.438C750.896 450.979 751.375 448.729 752 446.688C752.625 444.625 753.448 442.844 754.469 441.344C755.51 439.823 756.781 438.646 758.281 437.812C759.802 436.979 761.583 436.562 763.625 436.562C765.771 436.562 767.656 436.969 769.281 437.781C770.927 438.594 772.302 439.76 773.406 441.281C774.531 442.802 775.375 444.615 775.938 446.719C776.521 448.823 776.812 451.156 776.812 453.719ZM767.781 454.375V453.719C767.781 452.281 767.656 450.958 767.406 449.75C767.177 448.521 766.802 447.448 766.281 446.531C765.781 445.615 765.115 444.906 764.281 444.406C763.469 443.885 762.479 443.625 761.312 443.625C760.083 443.625 759.031 443.823 758.156 444.219C757.302 444.615 756.604 445.188 756.062 445.938C755.521 446.688 755.115 447.583 754.844 448.625C754.573 449.667 754.406 450.844 754.344 452.156V456.5C754.448 458.042 754.74 459.427 755.219 460.656C755.698 461.865 756.438 462.823 757.438 463.531C758.438 464.24 759.75 464.594 761.375 464.594C762.562 464.594 763.562 464.333 764.375 463.812C765.188 463.271 765.844 462.531 766.344 461.594C766.865 460.656 767.229 459.573 767.438 458.344C767.667 457.115 767.781 455.792 767.781 454.375ZM800.656 463.375V448.312C800.656 447.229 800.479 446.302 800.125 445.531C799.771 444.74 799.219 444.125 798.469 443.688C797.74 443.25 796.792 443.031 795.625 443.031C794.625 443.031 793.76 443.208 793.031 443.562C792.302 443.896 791.74 444.385 791.344 445.031C790.948 445.656 790.75 446.396 790.75 447.25H781.75C781.75 445.812 782.083 444.448 782.75 443.156C783.417 441.865 784.385 440.729 785.656 439.75C786.927 438.75 788.438 437.969 790.188 437.406C791.958 436.844 793.938 436.562 796.125 436.562C798.75 436.562 801.083 437 803.125 437.875C805.167 438.75 806.771 440.062 807.938 441.812C809.125 443.562 809.719 445.75 809.719 448.375V462.844C809.719 464.698 809.833 466.219 810.062 467.406C810.292 468.573 810.625 469.594 811.062 470.469V471H801.969C801.531 470.083 801.198 468.938 800.969 467.562C800.76 466.167 800.656 464.771 800.656 463.375ZM801.844 450.406L801.906 455.5H796.875C795.688 455.5 794.656 455.635 793.781 455.906C792.906 456.177 792.188 456.562 791.625 457.062C791.062 457.542 790.646 458.104 790.375 458.75C790.125 459.396 790 460.104 790 460.875C790 461.646 790.177 462.344 790.531 462.969C790.885 463.573 791.396 464.052 792.062 464.406C792.729 464.74 793.51 464.906 794.406 464.906C795.76 464.906 796.938 464.635 797.938 464.094C798.938 463.552 799.708 462.885 800.25 462.094C800.812 461.302 801.104 460.552 801.125 459.844L803.5 463.656C803.167 464.51 802.708 465.396 802.125 466.312C801.562 467.229 800.844 468.094 799.969 468.906C799.094 469.698 798.042 470.354 796.812 470.875C795.583 471.375 794.125 471.625 792.438 471.625C790.292 471.625 788.344 471.198 786.594 470.344C784.865 469.469 783.49 468.271 782.469 466.75C781.469 465.208 780.969 463.458 780.969 461.5C780.969 459.729 781.302 458.156 781.969 456.781C782.635 455.406 783.615 454.25 784.906 453.312C786.219 452.354 787.854 451.635 789.812 451.156C791.771 450.656 794.042 450.406 796.625 450.406H801.844ZM830.625 464.594C831.729 464.594 832.708 464.385 833.562 463.969C834.417 463.531 835.083 462.927 835.562 462.156C836.062 461.365 836.323 460.438 836.344 459.375H844.812C844.792 461.75 844.156 463.865 842.906 465.719C841.656 467.552 839.979 469 837.875 470.062C835.771 471.104 833.417 471.625 830.812 471.625C828.188 471.625 825.896 471.188 823.938 470.312C822 469.438 820.385 468.229 819.094 466.688C817.802 465.125 816.833 463.312 816.188 461.25C815.542 459.167 815.219 456.938 815.219 454.562V453.656C815.219 451.26 815.542 449.031 816.188 446.969C816.833 444.885 817.802 443.073 819.094 441.531C820.385 439.969 822 438.75 823.938 437.875C825.875 437 828.146 436.562 830.75 436.562C833.521 436.562 835.948 437.094 838.031 438.156C840.135 439.219 841.781 440.74 842.969 442.719C844.177 444.677 844.792 447 844.812 449.688H836.344C836.323 448.562 836.083 447.542 835.625 446.625C835.188 445.708 834.542 444.979 833.688 444.438C832.854 443.875 831.823 443.594 830.594 443.594C829.281 443.594 828.208 443.875 827.375 444.438C826.542 444.979 825.896 445.729 825.438 446.688C824.979 447.625 824.656 448.698 824.469 449.906C824.302 451.094 824.219 452.344 824.219 453.656V454.562C824.219 455.875 824.302 457.135 824.469 458.344C824.635 459.552 824.948 460.625 825.406 461.562C825.885 462.5 826.542 463.24 827.375 463.781C828.208 464.323 829.292 464.594 830.625 464.594ZM865.594 471.625C862.969 471.625 860.615 471.208 858.531 470.375C856.448 469.521 854.677 468.344 853.219 466.844C851.781 465.344 850.677 463.604 849.906 461.625C849.135 459.625 848.75 457.5 848.75 455.25V454C848.75 451.438 849.115 449.094 849.844 446.969C850.573 444.844 851.615 443 852.969 441.438C854.344 439.875 856.01 438.677 857.969 437.844C859.927 436.99 862.135 436.562 864.594 436.562C866.99 436.562 869.115 436.958 870.969 437.75C872.823 438.542 874.375 439.667 875.625 441.125C876.896 442.583 877.854 444.333 878.5 446.375C879.146 448.396 879.469 450.646 879.469 453.125V456.875H852.594V450.875H870.625V450.188C870.625 448.938 870.396 447.823 869.938 446.844C869.5 445.844 868.833 445.052 867.938 444.469C867.042 443.885 865.896 443.594 864.5 443.594C863.312 443.594 862.292 443.854 861.438 444.375C860.583 444.896 859.885 445.625 859.344 446.562C858.823 447.5 858.427 448.604 858.156 449.875C857.906 451.125 857.781 452.5 857.781 454V455.25C857.781 456.604 857.969 457.854 858.344 459C858.74 460.146 859.292 461.135 860 461.969C860.729 462.802 861.604 463.448 862.625 463.906C863.667 464.365 864.844 464.594 866.156 464.594C867.781 464.594 869.292 464.281 870.688 463.656C872.104 463.01 873.323 462.042 874.344 460.75L878.719 465.5C878.01 466.521 877.042 467.5 875.812 468.438C874.604 469.375 873.146 470.146 871.438 470.75C869.729 471.333 867.781 471.625 865.594 471.625ZM919.75 425.5V471H910.406V425.5H919.75ZM933.75 425.5V432.844H896.625V425.5H933.75ZM931.656 454.438V453.781C931.656 451.302 932.01 449.021 932.719 446.938C933.427 444.833 934.458 443.01 935.812 441.469C937.167 439.927 938.833 438.729 940.812 437.875C942.792 437 945.062 436.562 947.625 436.562C950.188 436.562 952.469 437 954.469 437.875C956.469 438.729 958.146 439.927 959.5 441.469C960.875 443.01 961.917 444.833 962.625 446.938C963.333 449.021 963.688 451.302 963.688 453.781V454.438C963.688 456.896 963.333 459.177 962.625 461.281C961.917 463.365 960.875 465.188 959.5 466.75C958.146 468.292 956.479 469.49 954.5 470.344C952.521 471.198 950.25 471.625 947.688 471.625C945.125 471.625 942.844 471.198 940.844 470.344C938.865 469.49 937.188 468.292 935.812 466.75C934.458 465.188 933.427 463.365 932.719 461.281C932.01 459.177 931.656 456.896 931.656 454.438ZM940.656 453.781V454.438C940.656 455.854 940.781 457.177 941.031 458.406C941.281 459.635 941.677 460.719 942.219 461.656C942.781 462.573 943.51 463.292 944.406 463.812C945.302 464.333 946.396 464.594 947.688 464.594C948.938 464.594 950.01 464.333 950.906 463.812C951.802 463.292 952.521 462.573 953.062 461.656C953.604 460.719 954 459.635 954.25 458.406C954.521 457.177 954.656 455.854 954.656 454.438V453.781C954.656 452.406 954.521 451.115 954.25 449.906C954 448.677 953.594 447.594 953.031 446.656C952.49 445.698 951.771 444.948 950.875 444.406C949.979 443.865 948.896 443.594 947.625 443.594C946.354 443.594 945.271 443.865 944.375 444.406C943.5 444.948 942.781 445.698 942.219 446.656C941.677 447.594 941.281 448.677 941.031 449.906C940.781 451.115 940.656 452.406 940.656 453.781ZM985.781 437.188V443.562H966.094V437.188H985.781ZM970.969 428.844H979.969V460.812C979.969 461.792 980.094 462.542 980.344 463.062C980.615 463.583 981.01 463.948 981.531 464.156C982.052 464.344 982.708 464.438 983.5 464.438C984.062 464.438 984.562 464.417 985 464.375C985.458 464.312 985.844 464.25 986.156 464.188L986.188 470.812C985.417 471.062 984.583 471.26 983.688 471.406C982.792 471.552 981.802 471.625 980.719 471.625C978.74 471.625 977.01 471.302 975.531 470.656C974.073 469.99 972.948 468.927 972.156 467.469C971.365 466.01 970.969 464.094 970.969 461.719V428.844ZM1009.16 463.375V448.312C1009.16 447.229 1008.98 446.302 1008.62 445.531C1008.27 444.74 1007.72 444.125 1006.97 443.688C1006.24 443.25 1005.29 443.031 1004.12 443.031C1003.12 443.031 1002.26 443.208 1001.53 443.562C1000.8 443.896 1000.24 444.385 999.844 445.031C999.448 445.656 999.25 446.396 999.25 447.25H990.25C990.25 445.812 990.583 444.448 991.25 443.156C991.917 441.865 992.885 440.729 994.156 439.75C995.427 438.75 996.938 437.969 998.688 437.406C1000.46 436.844 1002.44 436.562 1004.62 436.562C1007.25 436.562 1009.58 437 1011.62 437.875C1013.67 438.75 1015.27 440.062 1016.44 441.812C1017.62 443.562 1018.22 445.75 1018.22 448.375V462.844C1018.22 464.698 1018.33 466.219 1018.56 467.406C1018.79 468.573 1019.12 469.594 1019.56 470.469V471H1010.47C1010.03 470.083 1009.7 468.938 1009.47 467.562C1009.26 466.167 1009.16 464.771 1009.16 463.375ZM1010.34 450.406L1010.41 455.5H1005.38C1004.19 455.5 1003.16 455.635 1002.28 455.906C1001.41 456.177 1000.69 456.562 1000.12 457.062C999.562 457.542 999.146 458.104 998.875 458.75C998.625 459.396 998.5 460.104 998.5 460.875C998.5 461.646 998.677 462.344 999.031 462.969C999.385 463.573 999.896 464.052 1000.56 464.406C1001.23 464.74 1002.01 464.906 1002.91 464.906C1004.26 464.906 1005.44 464.635 1006.44 464.094C1007.44 463.552 1008.21 462.885 1008.75 462.094C1009.31 461.302 1009.6 460.552 1009.62 459.844L1012 463.656C1011.67 464.51 1011.21 465.396 1010.62 466.312C1010.06 467.229 1009.34 468.094 1008.47 468.906C1007.59 469.698 1006.54 470.354 1005.31 470.875C1004.08 471.375 1002.62 471.625 1000.94 471.625C998.792 471.625 996.844 471.198 995.094 470.344C993.365 469.469 991.99 468.271 990.969 466.75C989.969 465.208 989.469 463.458 989.469 461.5C989.469 459.729 989.802 458.156 990.469 456.781C991.135 455.406 992.115 454.25 993.406 453.312C994.719 452.354 996.354 451.635 998.312 451.156C1000.27 450.656 1002.54 450.406 1005.12 450.406H1010.34ZM1034.66 423V471H1025.62V423H1034.66ZM1082.28 459.094C1082.28 458.281 1082.16 457.552 1081.91 456.906C1081.68 456.24 1081.24 455.635 1080.59 455.094C1079.95 454.531 1079.04 453.979 1077.88 453.438C1076.71 452.896 1075.2 452.333 1073.34 451.75C1071.28 451.083 1069.32 450.333 1067.47 449.5C1065.64 448.667 1064.01 447.698 1062.59 446.594C1061.2 445.469 1060.09 444.167 1059.28 442.688C1058.49 441.208 1058.09 439.49 1058.09 437.531C1058.09 435.635 1058.51 433.917 1059.34 432.375C1060.18 430.812 1061.34 429.479 1062.84 428.375C1064.34 427.25 1066.11 426.385 1068.16 425.781C1070.22 425.177 1072.48 424.875 1074.94 424.875C1078.29 424.875 1081.22 425.479 1083.72 426.688C1086.22 427.896 1088.16 429.552 1089.53 431.656C1090.93 433.76 1091.62 436.167 1091.62 438.875H1082.31C1082.31 437.542 1082.03 436.375 1081.47 435.375C1080.93 434.354 1080.09 433.552 1078.97 432.969C1077.86 432.385 1076.47 432.094 1074.78 432.094C1073.16 432.094 1071.8 432.344 1070.72 432.844C1069.64 433.323 1068.82 433.979 1068.28 434.812C1067.74 435.625 1067.47 436.542 1067.47 437.562C1067.47 438.333 1067.66 439.031 1068.03 439.656C1068.43 440.281 1069.01 440.865 1069.78 441.406C1070.55 441.948 1071.5 442.458 1072.62 442.938C1073.75 443.417 1075.05 443.885 1076.53 444.344C1079.01 445.094 1081.19 445.938 1083.06 446.875C1084.96 447.812 1086.54 448.865 1087.81 450.031C1089.08 451.198 1090.04 452.521 1090.69 454C1091.33 455.479 1091.66 457.156 1091.66 459.031C1091.66 461.01 1091.27 462.781 1090.5 464.344C1089.73 465.906 1088.61 467.229 1087.16 468.312C1085.7 469.396 1083.96 470.219 1081.94 470.781C1079.92 471.344 1077.66 471.625 1075.16 471.625C1072.91 471.625 1070.69 471.333 1068.5 470.75C1066.31 470.146 1064.32 469.24 1062.53 468.031C1060.76 466.823 1059.34 465.281 1058.28 463.406C1057.22 461.531 1056.69 459.312 1056.69 456.75H1066.09C1066.09 458.167 1066.31 459.365 1066.75 460.344C1067.19 461.323 1067.8 462.115 1068.59 462.719C1069.41 463.323 1070.36 463.76 1071.47 464.031C1072.59 464.302 1073.82 464.438 1075.16 464.438C1076.78 464.438 1078.11 464.208 1079.16 463.75C1080.22 463.292 1081 462.656 1081.5 461.844C1082.02 461.031 1082.28 460.115 1082.28 459.094ZM1113.03 471.625C1110.41 471.625 1108.05 471.208 1105.97 470.375C1103.89 469.521 1102.11 468.344 1100.66 466.844C1099.22 465.344 1098.11 463.604 1097.34 461.625C1096.57 459.625 1096.19 457.5 1096.19 455.25V454C1096.19 451.438 1096.55 449.094 1097.28 446.969C1098.01 444.844 1099.05 443 1100.41 441.438C1101.78 439.875 1103.45 438.677 1105.41 437.844C1107.36 436.99 1109.57 436.562 1112.03 436.562C1114.43 436.562 1116.55 436.958 1118.41 437.75C1120.26 438.542 1121.81 439.667 1123.06 441.125C1124.33 442.583 1125.29 444.333 1125.94 446.375C1126.58 448.396 1126.91 450.646 1126.91 453.125V456.875H1100.03V450.875H1118.06V450.188C1118.06 448.938 1117.83 447.823 1117.38 446.844C1116.94 445.844 1116.27 445.052 1115.38 444.469C1114.48 443.885 1113.33 443.594 1111.94 443.594C1110.75 443.594 1109.73 443.854 1108.88 444.375C1108.02 444.896 1107.32 445.625 1106.78 446.562C1106.26 447.5 1105.86 448.604 1105.59 449.875C1105.34 451.125 1105.22 452.5 1105.22 454V455.25C1105.22 456.604 1105.41 457.854 1105.78 459C1106.18 460.146 1106.73 461.135 1107.44 461.969C1108.17 462.802 1109.04 463.448 1110.06 463.906C1111.1 464.365 1112.28 464.594 1113.59 464.594C1115.22 464.594 1116.73 464.281 1118.12 463.656C1119.54 463.01 1120.76 462.042 1121.78 460.75L1126.16 465.5C1125.45 466.521 1124.48 467.5 1123.25 468.438C1122.04 469.375 1120.58 470.146 1118.88 470.75C1117.17 471.333 1115.22 471.625 1113.03 471.625ZM1146 464.594C1147.1 464.594 1148.08 464.385 1148.94 463.969C1149.79 463.531 1150.46 462.927 1150.94 462.156C1151.44 461.365 1151.7 460.438 1151.72 459.375H1160.19C1160.17 461.75 1159.53 463.865 1158.28 465.719C1157.03 467.552 1155.35 469 1153.25 470.062C1151.15 471.104 1148.79 471.625 1146.19 471.625C1143.56 471.625 1141.27 471.188 1139.31 470.312C1137.38 469.438 1135.76 468.229 1134.47 466.688C1133.18 465.125 1132.21 463.312 1131.56 461.25C1130.92 459.167 1130.59 456.938 1130.59 454.562V453.656C1130.59 451.26 1130.92 449.031 1131.56 446.969C1132.21 444.885 1133.18 443.073 1134.47 441.531C1135.76 439.969 1137.38 438.75 1139.31 437.875C1141.25 437 1143.52 436.562 1146.12 436.562C1148.9 436.562 1151.32 437.094 1153.41 438.156C1155.51 439.219 1157.16 440.74 1158.34 442.719C1159.55 444.677 1160.17 447 1160.19 449.688H1151.72C1151.7 448.562 1151.46 447.542 1151 446.625C1150.56 445.708 1149.92 444.979 1149.06 444.438C1148.23 443.875 1147.2 443.594 1145.97 443.594C1144.66 443.594 1143.58 443.875 1142.75 444.438C1141.92 444.979 1141.27 445.729 1140.81 446.688C1140.35 447.625 1140.03 448.698 1139.84 449.906C1139.68 451.094 1139.59 452.344 1139.59 453.656V454.562C1139.59 455.875 1139.68 457.135 1139.84 458.344C1140.01 459.552 1140.32 460.625 1140.78 461.562C1141.26 462.5 1141.92 463.24 1142.75 463.781C1143.58 464.323 1144.67 464.594 1146 464.594ZM1185.41 462.906V437.188H1194.41V471H1185.94L1185.41 462.906ZM1186.41 455.969L1189.06 455.906C1189.06 458.156 1188.8 460.25 1188.28 462.188C1187.76 464.104 1186.98 465.771 1185.94 467.188C1184.9 468.583 1183.58 469.677 1182 470.469C1180.42 471.24 1178.55 471.625 1176.41 471.625C1174.76 471.625 1173.24 471.396 1171.84 470.938C1170.47 470.458 1169.28 469.719 1168.28 468.719C1167.3 467.698 1166.53 466.396 1165.97 464.812C1165.43 463.208 1165.16 461.281 1165.16 459.031V437.188H1174.16V459.094C1174.16 460.094 1174.27 460.938 1174.5 461.625C1174.75 462.312 1175.09 462.875 1175.53 463.312C1175.97 463.75 1176.48 464.062 1177.06 464.25C1177.67 464.438 1178.33 464.531 1179.06 464.531C1180.92 464.531 1182.38 464.156 1183.44 463.406C1184.52 462.656 1185.28 461.635 1185.72 460.344C1186.18 459.031 1186.41 457.573 1186.41 455.969ZM1210.28 444.562V471H1201.28V437.188H1209.75L1210.28 444.562ZM1220.47 436.969L1220.31 445.312C1219.88 445.25 1219.34 445.198 1218.72 445.156C1218.11 445.094 1217.56 445.062 1217.06 445.062C1215.79 445.062 1214.69 445.229 1213.75 445.562C1212.83 445.875 1212.06 446.344 1211.44 446.969C1210.83 447.594 1210.38 448.354 1210.06 449.25C1209.77 450.146 1209.6 451.167 1209.56 452.312L1207.75 451.75C1207.75 449.562 1207.97 447.552 1208.41 445.719C1208.84 443.865 1209.48 442.25 1210.31 440.875C1211.17 439.5 1212.21 438.438 1213.44 437.688C1214.67 436.938 1216.07 436.562 1217.66 436.562C1218.16 436.562 1218.67 436.604 1219.19 436.688C1219.71 436.75 1220.14 436.844 1220.47 436.969ZM1234.22 437.188V471H1225.19V437.188H1234.22ZM1224.62 428.375C1224.62 427.062 1225.08 425.979 1226 425.125C1226.92 424.271 1228.15 423.844 1229.69 423.844C1231.21 423.844 1232.43 424.271 1233.34 425.125C1234.28 425.979 1234.75 427.062 1234.75 428.375C1234.75 429.688 1234.28 430.771 1233.34 431.625C1232.43 432.479 1231.21 432.906 1229.69 432.906C1228.15 432.906 1226.92 432.479 1226 431.625C1225.08 430.771 1224.62 429.688 1224.62 428.375ZM1258.22 437.188V443.562H1238.53V437.188H1258.22ZM1243.41 428.844H1252.41V460.812C1252.41 461.792 1252.53 462.542 1252.78 463.062C1253.05 463.583 1253.45 463.948 1253.97 464.156C1254.49 464.344 1255.15 464.438 1255.94 464.438C1256.5 464.438 1257 464.417 1257.44 464.375C1257.9 464.312 1258.28 464.25 1258.59 464.188L1258.62 470.812C1257.85 471.062 1257.02 471.26 1256.12 471.406C1255.23 471.552 1254.24 471.625 1253.16 471.625C1251.18 471.625 1249.45 471.302 1247.97 470.656C1246.51 469.99 1245.39 468.927 1244.59 467.469C1243.8 466.01 1243.41 464.094 1243.41 461.719V428.844ZM1273.38 467.188L1282.34 437.188H1292L1278.41 476.094C1278.11 476.948 1277.72 477.865 1277.22 478.844C1276.74 479.823 1276.08 480.75 1275.25 481.625C1274.44 482.521 1273.41 483.25 1272.16 483.812C1270.93 484.375 1269.42 484.656 1267.62 484.656C1266.77 484.656 1266.07 484.604 1265.53 484.5C1264.99 484.396 1264.34 484.25 1263.59 484.062V477.469C1263.82 477.469 1264.06 477.469 1264.31 477.469C1264.56 477.49 1264.8 477.5 1265.03 477.5C1266.22 477.5 1267.19 477.365 1267.94 477.094C1268.69 476.823 1269.29 476.406 1269.75 475.844C1270.21 475.302 1270.57 474.594 1270.84 473.719L1273.38 467.188ZM1269.62 437.188L1276.97 461.688L1278.25 471.219L1272.12 471.875L1259.97 437.188H1269.62Z" fill="white"/>
<g clip-path="url(#clip2_1_316)">
<path d="M141 386H397C397 386 387.348 340.639 339.159 339.036C339.159 339.036 307.021 336.892 282.909 367.859C282.909 367.859 212.759 331.56 141 386Z" fill="white" fill-opacity="0.1"/>
</g>
<g clip-path="url(#clip3_1_316)">
<path d="M1386 505.993H1819C1819 505.993 1802.67 404.662 1721.17 401.081C1721.17 401.081 1666.81 396.292 1626.03 465.469C1626.03 465.469 1507.37 384.38 1386 505.993Z" fill="white" fill-opacity="0.1"/>
</g>
</g>
<defs>
<clipPath id="clip0_1_316">
<rect width="1920" height="758" fill="white"/>
</clipPath>
<clipPath id="clip1_1_316">
<rect width="2026" height="302" fill="white" transform="translate(-30 495)"/>
</clipPath>
<clipPath id="clip2_1_316">
<rect width="256" height="47" fill="white" transform="translate(141 339)"/>
</clipPath>
<clipPath id="clip3_1_316">
<rect width="433" height="104.993" fill="white" transform="translate(1386 401)"/>
</clipPath>
</defs>
</svg>
