<svg width="1076" height="191" viewBox="0 0 1076 191" fill="none" xmlns="http://www.w3.org/2000/svg">
<path d="M665.065 175.917C673.681 176.74 682.298 177.597 690.916 178.289C714.068 180.101 737.946 184.78 759.645 171.403C767.535 166.527 763.407 149.658 755.336 149.922C754.013 149.955 752.714 150.021 751.391 150.054C752.767 144.156 750.846 136.743 745.706 134.964C749.964 135.063 754.22 135.129 758.476 135.228C769.482 135.524 769.482 112.495 758.476 112.198C657.096 109.398 555.717 111.506 454.441 118.524C445.356 119.15 442.164 138.852 452.157 141.158C467.755 144.75 483.354 148.11 499.005 151.273C497.266 153.019 496.176 155.556 495.761 158.258C494.775 158.356 493.814 158.422 492.828 158.521C482.005 159.707 481.667 181.913 492.828 181.551C550.24 179.673 607.653 177.795 665.091 175.917H665.065Z" fill="#31BF5C"/>
<path d="M267.936 71.416C266.208 70.136 264.864 68.312 263.904 65.944C263.008 63.512 262.592 61.272 262.656 59.224C262.592 55.256 262.912 51.16 263.616 46.936C264.384 42.712 265.376 38.776 266.592 35.128C267.424 32.824 268.32 30.488 269.28 28.12C270.24 25.752 271.232 23.512 272.256 21.4C273.28 19.224 274.272 17.4 275.232 15.928C277.216 12.536 279.232 9.816 281.28 7.768C283.392 5.72 284.992 4.376 286.08 3.736C287.872 2.84 290.016 2.168 292.512 1.72C295.008 1.208 297.44 1.208 299.808 1.72C301.472 2.168 303.104 2.808 304.704 3.64C306.368 4.472 307.808 5.496 309.024 6.712C309.728 7.352 310.272 8.024 310.656 8.72799C311.04 9.432 311.232 10.168 311.232 10.936C311.232 11.896 310.784 12.824 309.888 13.72C308.992 14.616 308 15.224 306.912 15.544C305.824 15.864 304.992 15.672 304.416 14.968C303.584 13.688 302.784 12.728 302.016 12.088C301.248 11.384 300.448 10.872 299.616 10.552C298.912 10.104 297.952 9.88 296.736 9.88C295.584 9.88 294.336 10.104 292.992 10.552C291.648 10.936 290.368 11.64 289.152 12.664C288.704 13.048 288.096 13.592 287.328 14.296C286.624 15 285.856 15.864 285.024 16.888C284.256 17.848 283.552 18.904 282.912 20.056C281.12 23 279.584 26.008 278.304 29.08C277.088 32.088 276 35.384 275.04 38.968C274.592 40.44 274.112 42.264 273.6 44.44C273.088 46.552 272.608 48.664 272.16 50.776C271.776 52.888 271.52 54.744 271.392 56.344C271.2 58.584 271.264 60.344 271.584 61.624C271.904 62.904 272.576 63.768 273.6 64.216C274.624 64.6 276.064 64.568 277.92 64.12C279.584 63.736 281.248 63.096 282.912 62.2C284.64 61.24 286.304 60.056 287.904 58.648C289.504 57.176 290.944 55.448 292.224 53.464C293.376 51.288 294.304 49.304 295.008 47.512C295.776 45.72 296.16 44.312 296.16 43.288C296.224 42.2 295.68 41.688 294.528 41.752C291.904 41.816 289.792 41.72 288.192 41.464C286.656 41.208 285.6 40.568 285.024 39.544C284.192 39.352 283.744 38.648 283.68 37.432C283.68 36.216 284.288 35.224 285.504 34.456C286.592 33.88 288.096 33.528 290.016 33.4C291.936 33.272 293.888 33.336 295.872 33.592C297.92 33.784 299.552 34.232 300.768 34.936C302.176 35.64 303.136 36.696 303.648 38.104C304.224 39.448 304.512 40.888 304.512 42.424C304.576 43.96 304.48 45.4 304.224 46.744C303.648 48.984 302.848 51.16 301.824 53.272C300.864 55.384 299.552 57.528 297.888 59.704C296.928 61.048 295.616 62.456 293.952 63.928C292.288 65.4 290.528 66.712 288.672 67.864C286.88 69.08 285.184 70.04 283.584 70.744C281.024 71.896 278.336 72.728 275.52 73.24C272.768 73.752 270.24 73.144 267.936 71.416ZM328.237 65.08C326.317 66.168 324.269 66.808 322.093 67C319.981 67.128 317.997 66.84 316.141 66.136C314.285 65.368 312.781 64.248 311.629 62.776C310.989 61.944 310.381 60.632 309.805 58.84C309.229 56.984 309.133 54.488 309.517 51.352C309.901 48.408 310.797 45.432 312.205 42.424C313.677 39.416 315.469 36.76 317.581 34.456C319.693 32.152 321.997 30.584 324.493 29.752C325.389 29.432 326.285 29.208 327.181 29.08C328.141 28.888 329.389 28.856 330.925 28.984C332.397 29.176 333.709 29.56 334.861 30.136C336.013 30.648 336.845 31.224 337.357 31.864C338.381 32.888 339.053 33.88 339.373 34.84C339.693 35.8 339.821 36.728 339.757 37.624C339.437 39.672 338.509 41.88 336.973 44.248C335.501 46.616 333.421 48.376 330.733 49.528C329.645 49.976 328.365 50.264 326.893 50.392C325.421 50.52 323.405 50.328 320.845 49.816C319.309 49.496 318.285 49.656 317.773 50.296C317.325 50.936 317.133 52.184 317.197 54.04C317.325 55.192 317.581 56.216 317.965 57.112C318.413 57.944 319.213 58.52 320.365 58.84C321.837 59.096 322.893 59.128 323.533 58.936C324.173 58.68 324.973 58.328 325.933 57.88C326.445 57.56 326.925 57.208 327.373 56.824C327.885 56.44 328.365 56.056 328.813 55.672C329.325 55.288 329.741 55 330.061 54.808C330.381 54.552 330.701 54.392 331.021 54.328C331.341 54.264 331.661 54.232 331.981 54.232C332.685 54.296 333.357 54.68 333.997 55.384C334.637 56.088 335.053 56.76 335.245 57.4C335.245 57.912 334.925 58.648 334.285 59.608C333.645 60.504 332.781 61.464 331.693 62.488C330.669 63.448 329.517 64.312 328.237 65.08ZM326.989 43.672C327.437 43.48 328.077 43.032 328.909 42.328C329.805 41.624 330.605 40.888 331.309 40.12C332.013 39.288 332.365 38.648 332.365 38.2C332.365 37.496 331.885 36.888 330.925 36.376C330.029 35.864 328.845 35.768 327.373 36.088C326.861 36.216 326.253 36.568 325.549 37.144C324.845 37.72 324.141 38.392 323.437 39.16C322.733 39.864 322.125 40.568 321.613 41.272C321.101 41.912 320.749 42.424 320.557 42.808C320.813 43.128 321.325 43.384 322.093 43.576C322.861 43.768 323.693 43.864 324.589 43.864C325.549 43.864 326.349 43.8 326.989 43.672ZM348.588 67.096C347.884 66.968 347.116 66.552 346.284 65.848C345.452 65.08 344.684 64.248 343.98 63.352C343.34 62.392 342.924 61.592 342.732 60.952C342.732 60.824 342.636 60.664 342.444 60.472C342.316 60.28 342.252 60.184 342.252 60.184C341.996 59.992 341.836 59.16 341.772 57.688C341.772 56.152 341.868 54.456 342.06 52.6C342.252 50.744 342.476 49.272 342.732 48.184C343.052 47.16 343.532 45.784 344.172 44.056C344.812 42.264 345.356 40.664 345.804 39.256L348.396 33.688L344.556 32.632C344.108 32.504 343.724 32.248 343.404 31.864C343.148 31.48 343.02 31.16 343.02 30.904C343.02 30.392 343.308 29.656 343.884 28.696C344.46 27.736 344.876 27.256 345.132 27.256C345.452 27.32 346.028 27.352 346.86 27.352C347.756 27.352 348.62 27.32 349.452 27.256C350.284 27.192 350.796 27.128 350.988 27.064C351.244 26.936 351.5 26.776 351.756 26.584C352.012 26.328 352.204 25.976 352.332 25.528C352.652 24.824 352.94 24.28 353.196 23.896C353.452 23.512 353.804 22.936 354.252 22.168C354.7 21.336 355.052 20.632 355.308 20.056C355.628 19.48 356.108 18.68 356.748 17.656C357.068 17.208 357.42 16.664 357.804 16.024C358.188 15.384 358.668 14.84 359.244 14.392C359.82 13.88 360.748 13.528 362.028 13.336C363.372 13.08 364.524 13.368 365.484 14.2C365.996 14.84 366.284 15.448 366.348 16.024C366.412 16.6 366.156 17.336 365.58 18.232C365.068 19.32 364.46 20.312 363.756 21.208C363.116 22.04 362.508 23 361.932 24.088C360.908 25.496 360.716 26.296 361.356 26.488C361.996 26.68 363.788 26.552 366.732 26.104C368.588 25.784 369.932 25.976 370.764 26.68C371.596 27.384 372.076 28.28 372.204 29.368C372.396 30.904 372.236 31.832 371.724 32.152C371.212 32.472 369.74 32.632 367.308 32.632C365.772 32.888 364.46 33.048 363.372 33.112C362.284 33.112 361.484 33.112 360.972 33.112C360.14 33.176 359.596 33.208 359.34 33.208C359.084 33.208 358.7 33.272 358.188 33.4C357.676 33.528 357.292 33.752 357.036 34.072C356.844 34.328 356.62 34.712 356.364 35.224C356.108 35.48 355.724 36.152 355.212 37.24C354.7 38.328 354.06 39.512 353.292 40.792C352.396 43.48 351.628 46.072 350.988 48.568C350.412 51 349.9 53.432 349.452 55.864C349.26 57.08 349.292 57.976 349.548 58.552C349.868 59.064 350.7 59.384 352.044 59.512C352.748 59.576 353.772 59.576 355.116 59.512C356.46 59.384 357.58 59.192 358.476 58.936C359.18 58.616 359.916 58.296 360.684 57.976C361.452 57.592 362.156 57.208 362.796 56.824C363.372 56.504 363.948 56.184 364.524 55.864C365.1 55.48 365.388 55.288 365.388 55.288C365.708 54.776 366.156 54.872 366.732 55.576C367.372 56.216 367.82 56.92 368.076 57.688C368.076 58.456 367.916 59.384 367.596 60.472C367.276 61.496 366.092 62.584 364.044 63.736C361.164 65.528 358.284 66.616 355.404 67C352.524 67.384 350.252 67.416 348.588 67.096ZM393.059 70.168C391.907 69.528 391.267 68.824 391.139 68.056C391.075 67.288 391.523 65.944 392.483 64.024C393.443 62.104 394.947 59.128 396.995 55.096C398.531 52.216 399.555 49.976 400.067 48.376C400.643 46.712 400.963 45.528 401.027 44.824C401.091 44.12 401.123 43.672 401.123 43.48C400.995 42.904 401.059 42.456 401.315 42.136C401.571 41.752 401.987 41.432 402.563 41.176C402.883 40.856 403.619 40.28 404.771 39.448C405.923 38.616 406.819 37.624 407.459 36.472C408.035 35.128 408.675 33.752 409.379 32.344C410.147 30.936 411.139 29.176 412.355 27.064C413.571 24.888 415.203 22.072 417.251 18.616C418.531 16.376 420.035 13.848 421.763 11.032C423.555 8.216 425.315 5.656 427.043 3.352C427.747 2.456 428.483 1.752 429.251 1.23999C430.019 0.727997 430.691 0.471998 431.267 0.471998C432.675 0.471998 434.083 0.855997 435.491 1.62399C436.899 2.328 438.147 3.224 439.235 4.31199C440.323 5.4 441.059 6.424 441.443 7.384C441.763 7.896 441.891 8.984 441.827 10.648C441.763 12.312 441.635 14.328 441.443 16.696C441.251 19.064 441.027 21.592 440.771 24.28C440.579 26.904 440.291 30.008 439.907 33.592C439.523 37.176 439.139 40.92 438.755 44.824C438.435 48.728 438.179 52.504 437.987 56.152C437.795 59.736 437.795 62.872 437.987 65.56C438.051 66.136 438.051 66.68 437.987 67.192C437.923 67.704 437.891 68.12 437.891 68.44C437.507 68.824 436.675 68.984 435.395 68.92C434.115 68.92 432.867 68.728 431.651 68.344C430.435 67.96 429.763 67.48 429.635 66.904C429.443 66.712 429.315 66.552 429.251 66.424C429.187 66.296 429.187 65.688 429.251 64.6C429.315 63.448 429.411 61.368 429.539 58.36L430.019 43.672L428.771 43.768C428.195 43.768 427.139 43.832 425.603 43.96C424.131 44.088 422.499 44.28 420.707 44.536C418.979 44.728 417.379 44.952 415.907 45.208C414.435 45.4 413.411 45.592 412.835 45.784C412.259 45.784 411.555 46.168 410.723 46.936C409.955 47.704 409.219 48.696 408.515 49.912C408.259 50.808 407.779 51.768 407.075 52.792C406.435 53.752 406.115 54.392 406.115 54.712C405.667 55.032 405.283 55.416 404.963 55.864C404.707 56.312 404.579 56.536 404.579 56.536C404.579 56.92 404.291 57.88 403.715 59.416C403.139 60.888 402.435 62.552 401.603 64.408C400.771 66.2 399.907 67.768 399.011 69.112L396.419 72.76L393.059 70.168ZM416.003 37.144C416.003 37.144 416.355 37.08 417.059 36.952C417.763 36.824 418.595 36.696 419.555 36.568C420.579 36.376 421.475 36.28 422.243 36.28C423.715 35.896 424.931 35.608 425.891 35.416C426.915 35.224 427.747 35.128 428.387 35.128C429.027 35.064 429.539 35.128 429.923 35.32C430.179 35.64 430.403 35.832 430.595 35.896C430.851 35.96 430.979 35.992 430.979 35.992C431.043 35.864 431.171 35.192 431.363 33.976C431.555 32.76 431.779 31.256 432.035 29.464C432.291 27.672 432.547 25.816 432.803 23.896C433.059 21.912 433.283 20.088 433.475 18.424C433.667 16.696 433.795 15.352 433.859 14.392C433.923 13.176 433.891 12.088 433.763 11.128C433.635 10.104 433.571 9.592 433.571 9.592C433.187 9.592 432.451 10.296 431.363 11.704C430.339 13.048 429.123 14.872 427.715 17.176C426.371 19.416 425.027 21.848 423.683 24.472C423.043 25.688 422.435 26.648 421.859 27.352C421.347 28.056 420.931 28.408 420.611 28.408C420.483 28.536 420.131 29.048 419.555 29.944C419.043 30.776 418.467 31.736 417.827 32.824C417.251 33.848 416.739 34.808 416.291 35.704C415.907 36.536 415.811 37.016 416.003 37.144ZM454.282 66.232C452.874 66.232 451.818 66.168 451.114 66.04C450.474 65.912 449.994 65.72 449.674 65.464C449.354 65.208 448.938 64.856 448.426 64.408C448.17 63.896 447.722 63.256 447.082 62.488C446.442 61.656 445.994 61.112 445.738 60.856C445.482 59.896 445.386 58.584 445.45 56.92C445.578 55.256 445.866 53.464 446.314 51.544C446.762 49.624 447.306 47.896 447.946 46.36C448.202 45.848 448.426 45.336 448.618 44.824C448.81 44.312 448.906 44.056 448.906 44.056C448.906 43.736 449.29 42.968 450.058 41.752C450.89 40.536 451.786 39.256 452.746 37.912C453.77 36.568 454.602 35.608 455.242 35.032C455.69 34.52 456.362 33.976 457.258 33.4C458.218 32.824 459.05 32.408 459.754 32.152C460.458 31.896 461.418 31.576 462.634 31.192C463.85 30.744 464.938 30.52 465.898 30.52C466.794 30.52 467.754 30.712 468.778 31.096C469.802 31.48 470.666 32.152 471.37 33.112C472.522 34.264 473.258 35.64 473.578 37.24C473.898 38.84 473.93 40.216 473.674 41.368C473.354 42.648 472.714 43.704 471.754 44.536C470.794 45.304 469.77 45.72 468.682 45.784C467.594 45.784 466.634 45.336 465.802 44.44C465.546 43.928 465.418 43.512 465.418 43.192C465.418 42.808 465.546 42.264 465.802 41.56C466.058 40.664 466.186 39.864 466.186 39.16C466.186 38.456 465.898 38.104 465.322 38.104C464.49 38.104 463.818 38.36 463.306 38.872C462.794 39.32 462.026 40.088 461.002 41.176C460.554 41.688 459.978 42.424 459.274 43.384C458.57 44.344 457.866 45.4 457.162 46.552C456.522 47.64 455.946 48.76 455.434 49.912C454.73 52.024 454.282 53.4 454.09 54.04C453.962 54.616 453.898 54.904 453.898 54.904C453.898 55.16 453.866 55.416 453.802 55.672C453.738 55.864 453.706 56.088 453.706 56.344C453.706 57.112 454.154 57.72 455.05 58.168C455.754 58.616 456.33 58.84 456.778 58.84C457.29 58.776 458.25 58.424 459.658 57.784C460.682 57.272 461.642 56.6 462.538 55.768C463.498 54.936 464.49 54.2 465.514 53.56C466.218 53.112 466.762 52.728 467.146 52.408C467.594 52.088 467.818 52.056 467.818 52.312C467.818 52.568 467.914 52.696 468.106 52.696C468.298 52.696 468.522 52.568 468.778 52.312C469.162 51.8 469.642 51.608 470.218 51.736C470.794 51.8 471.306 51.96 471.754 52.216C472.266 52.472 472.522 52.696 472.522 52.888C472.394 53.464 472.522 53.944 472.906 54.328C472.906 54.584 472.81 54.936 472.618 55.384C472.49 55.768 472.298 56.088 472.042 56.344C471.722 56.792 471.242 57.432 470.602 58.264C470.026 59.096 469.482 59.832 468.97 60.472C468.458 61.112 468.202 61.432 468.202 61.432C467.946 61.368 467.69 61.432 467.434 61.624C467.242 61.816 467.018 62.04 466.762 62.296C466.25 62.744 465.77 63.096 465.322 63.352C464.874 63.544 464.522 63.64 464.266 63.64C463.818 63.896 463.466 64.056 463.21 64.12C463.018 64.184 462.922 64.344 462.922 64.6C462.282 65.24 461.13 65.688 459.466 65.944C457.802 66.136 456.074 66.232 454.282 66.232ZM489.356 72.76C486.22 72.696 484.204 71.8 483.308 70.072C482.476 68.408 482.252 66.296 482.636 63.736C483.02 62.52 483.244 61.432 483.308 60.472C483.436 59.448 483.724 58.808 484.172 58.552C484.172 58.552 484.204 58.456 484.268 58.264C484.396 58.072 484.364 57.88 484.172 57.688C484.172 56.856 484.46 55.704 485.036 54.232C485.164 53.848 485.324 53.4 485.516 52.888C485.772 52.312 485.9 52.024 485.9 52.024C485.58 51.512 485.58 51.096 485.9 50.776C486.22 50.456 486.54 50.168 486.86 49.912C487.244 49.592 487.276 49.24 486.956 48.856C486.828 48.6 486.988 48.024 487.436 47.128C487.884 46.168 488.396 45.176 488.972 44.152C489.548 43.128 489.932 42.328 490.124 41.752C490.124 41.624 490.284 41.176 490.604 40.408C490.924 39.64 491.308 38.744 491.756 37.72C492.204 36.696 492.62 35.768 493.004 34.936C493.452 34.104 493.74 33.56 493.868 33.304C494.508 32.984 494.252 32.76 493.1 32.632C491.948 32.504 490.732 32.472 489.452 32.536C487.468 32.472 485.868 32.376 484.652 32.248C483.5 32.12 482.54 31.832 481.772 31.384C481.004 30.488 480.908 29.432 481.484 28.216C482.06 26.936 482.988 26.264 484.268 26.2C485.1 26.136 485.74 26.104 486.188 26.104C486.7 26.104 487.34 26.072 488.108 26.008C488.94 25.88 490.22 25.72 491.948 25.528L496.844 25.144L497.132 23.512C497.644 22.68 497.996 22.136 498.188 21.88C498.38 21.624 498.508 21.368 498.572 21.112C498.636 20.792 498.732 20.248 498.86 19.48C498.86 19.48 499.148 18.968 499.724 17.944C500.3 16.856 500.652 15.736 500.78 14.584C501.548 13.304 502.22 12.152 502.796 11.128C503.372 10.04 503.724 9.368 503.852 9.112C504.94 7.512 505.996 6.648 507.02 6.51999C508.108 6.392 509.132 6.648 510.092 7.288C510.668 7.608 511.212 8.024 511.724 8.536C512.236 8.984 512.556 9.592 512.684 10.36C512.812 11.064 512.524 11.992 511.82 13.144C511.692 13.4 511.5 13.88 511.244 14.584C510.988 15.224 510.796 15.768 510.668 16.216C510.284 16.664 509.804 17.4 509.228 18.424C508.716 19.384 508.364 20.376 508.172 21.4C507.66 22.488 507.34 23.16 507.212 23.416C507.084 23.672 506.892 23.8 506.636 23.8C506.764 24.44 507.148 24.76 507.788 24.76C508.428 24.696 509.484 24.632 510.956 24.568C512.172 24.44 513.004 24.312 513.452 24.184C513.964 23.992 514.54 24.056 515.18 24.376C515.5 24.824 515.66 25.496 515.66 26.392C515.724 27.224 515.628 28.056 515.372 28.888C515.116 29.656 514.764 30.136 514.316 30.328C513.996 30.328 513.324 30.52 512.3 30.904C511.34 31.224 510.124 31.416 508.652 31.48L503.564 31.96L501.932 35.224C501.484 36.056 501.1 36.824 500.78 37.528C500.46 38.168 500.236 38.552 500.108 38.68C500.108 39.064 499.884 39.64 499.436 40.408C499.052 41.176 498.636 42.008 498.188 42.904C497.804 43.992 497.356 44.984 496.844 45.88C496.396 46.776 496.172 47.224 496.172 47.224C495.916 47.224 495.788 47.416 495.788 47.8C496.108 48.568 496.012 49.144 495.5 49.528C495.18 49.72 494.892 50.008 494.636 50.392C494.444 50.712 494.348 50.872 494.348 50.872C494.604 51.128 494.636 51.448 494.444 51.832C494.316 52.216 494.124 52.632 493.868 53.08C493.868 53.592 493.708 54.328 493.388 55.288C493.132 56.248 492.844 57.144 492.524 57.976C492.588 59.128 492.652 59.864 492.716 60.184C492.78 60.504 492.94 60.632 493.196 60.568C493.516 60.632 493.964 60.632 494.54 60.568C495.116 60.504 495.532 60.472 495.788 60.472C496.748 60.024 496.3 62.264 494.444 67.192C493.42 68.792 492.396 70.104 491.372 71.128C490.348 72.216 489.676 72.76 489.356 72.76ZM519.025 66.904C517.489 66.904 516.145 66.104 514.993 64.504C513.905 62.84 513.233 60.856 512.977 58.552C513.041 58.04 513.105 57.304 513.169 56.344C513.297 55.384 513.425 54.392 513.553 53.368C513.809 52.152 514.161 50.584 514.609 48.664C515.057 46.744 515.537 44.824 516.049 42.904C516.561 40.92 517.009 39.224 517.393 37.816C517.777 36.344 518.001 35.48 518.065 35.224C518.449 34.328 519.313 34.104 520.657 34.552C522.001 35 523.153 35.96 524.113 37.432C524.497 37.944 524.721 38.552 524.785 39.256C524.913 39.96 524.817 40.984 524.497 42.328C524.241 43.672 523.729 45.656 522.961 48.28C522.257 50.84 521.713 52.92 521.329 54.52C521.009 56.056 520.881 57.688 520.945 59.416C520.689 62.36 520.433 64.376 520.177 65.464C519.921 66.488 519.537 66.968 519.025 66.904ZM527.857 27.064C527.601 27.256 527.345 27.352 527.089 27.352C526.897 27.288 526.545 27.096 526.033 26.776C525.585 26.712 525.009 26.424 524.305 25.912C523.665 25.336 523.089 24.76 522.577 24.184C522.129 23.608 521.905 23.256 521.905 23.128C521.841 22.488 521.873 21.464 522.001 20.056C522.193 18.648 522.545 17.336 523.057 16.12C523.633 14.84 524.401 14.168 525.361 14.104C525.617 14.104 526.161 14.232 526.993 14.488C527.889 14.744 528.817 15.064 529.777 15.448C530.289 16.408 530.769 17.656 531.217 19.192C531.665 20.728 531.697 22.232 531.313 23.704C530.993 25.112 529.841 26.232 527.857 27.064ZM527.309 89.368C527.053 89.368 526.669 89.368 526.157 89.368C525.709 89.432 525.325 89.176 525.005 88.6C524.749 88.28 524.365 87.64 523.853 86.68C523.341 85.784 523.245 84.504 523.565 82.84C523.885 81.752 524.141 80.664 524.333 79.576C524.525 78.552 524.621 77.784 524.621 77.272C524.621 77.016 524.685 76.504 524.813 75.736C525.005 75.032 525.101 74.52 525.101 74.2C525.421 73.688 525.677 72.984 525.869 72.088C526.061 71.192 526.157 70.392 526.157 69.688C526.157 68.92 526.541 68.216 527.309 67.576C527.309 67.064 527.405 66.424 527.597 65.656C527.853 64.888 527.981 64.376 527.981 64.12C528.173 63.224 528.589 61.656 529.229 59.416C529.933 57.112 530.765 54.52 531.725 51.64C532.749 48.76 533.741 45.944 534.701 43.192C535.661 40.44 536.525 38.104 537.293 36.184C538.061 34.392 538.701 32.728 539.213 31.192C539.725 29.656 539.981 28.568 539.981 27.928C539.981 27.672 540.045 27.48 540.173 27.352C540.301 27.16 540.589 26.808 541.037 26.296C541.677 25.656 542.509 25.432 543.533 25.624C544.621 25.752 545.517 26.072 546.221 26.584C546.733 27.416 547.085 28.184 547.277 28.888C547.533 29.528 547.533 30.552 547.277 31.96C547.277 32.92 547.053 33.816 546.605 34.648C546.157 35.416 545.741 36.056 545.357 36.568C545.037 37.016 544.941 37.208 545.069 37.144C547.885 35.416 550.413 34.488 552.653 34.36C554.957 34.168 556.877 34.552 558.413 35.512C560.013 36.408 561.229 37.656 562.061 39.256C562.893 40.856 563.309 42.584 563.309 44.44C563.309 45.208 563.053 46.232 562.541 47.512C562.029 48.792 561.453 50.008 560.813 51.16C560.173 52.248 559.661 52.984 559.277 53.368C559.021 53.368 558.765 53.592 558.509 54.04C558.253 54.424 557.997 54.872 557.741 55.384C557.229 56.024 556.365 56.76 555.149 57.592C553.997 58.36 552.813 59 551.597 59.512C550.381 59.96 549.517 60.088 549.005 59.896C549.005 59.896 548.909 59.96 548.717 60.088C548.589 60.216 548.525 60.44 548.525 60.76C548.525 60.888 548.077 61.144 547.181 61.528C546.285 61.912 545.229 62.264 544.013 62.584C542.797 62.904 541.677 63.064 540.653 63.064C539.309 63.064 538.349 62.808 537.773 62.296C537.645 62.424 537.485 62.616 537.293 62.872C537.165 63.128 537.101 63.352 537.101 63.544C537.101 63.928 536.941 64.536 536.621 65.368C536.365 66.2 536.045 66.936 535.661 67.576C535.277 68.28 534.925 68.632 534.605 68.632C534.605 68.632 534.541 68.728 534.413 68.92C534.285 69.112 534.349 69.368 534.605 69.688C534.605 69.688 534.573 70.04 534.509 70.744C534.509 71.512 534.349 72.152 534.029 72.664C534.029 73.176 533.933 73.944 533.741 74.968C533.549 75.992 533.325 76.76 533.069 77.272C533.069 78.04 532.941 78.776 532.685 79.48C532.493 80.248 532.269 80.632 532.013 80.632C531.757 80.696 531.597 81.08 531.533 81.784C531.469 82.552 531.437 83.096 531.437 83.416C531.373 85.016 530.861 86.392 529.901 87.544C528.941 88.76 528.077 89.368 527.309 89.368ZM539.597 55.768C540.109 55.768 541.037 55.544 542.381 55.096C543.725 54.648 545.133 54.104 546.605 53.464C548.077 52.76 549.229 52.056 550.061 51.352C551.725 49.88 553.005 48.44 553.901 47.032C554.861 45.624 554.797 44.056 553.709 42.328C553.197 41.432 552.365 41.08 551.213 41.272C550.125 41.4 548.909 41.912 547.565 42.808C546.221 43.704 544.845 44.824 543.437 46.168C542.669 47 541.965 47.96 541.325 49.048C540.685 50.136 540.141 51.192 539.693 52.216C539.309 53.24 539.085 54.104 539.021 54.808C538.957 55.448 539.149 55.768 539.597 55.768ZM572.998 65.272C572.23 65.464 571.366 65.24 570.406 64.6C569.446 63.96 568.582 63.16 567.814 62.2C567.046 61.24 566.566 60.376 566.374 59.608C566.118 58.264 566.182 56.632 566.566 54.712C567.014 52.728 567.75 50.648 568.774 48.472C569.798 46.232 571.078 44.056 572.614 41.944C574.15 39.768 575.878 37.816 577.798 36.088C579.718 34.36 581.798 33.016 584.038 32.056C584.998 31.544 585.67 31.224 586.054 31.096C586.438 30.904 586.822 30.904 587.206 31.096C587.59 31.224 588.262 31.544 589.222 32.056C590.118 32.312 591.014 32.632 591.91 33.016C592.87 33.336 593.702 33.976 594.406 34.936C594.918 35.896 595.302 36.856 595.558 37.816C595.814 38.776 596.038 39.864 596.23 41.08C596.742 42.68 596.934 43.736 596.806 44.248C596.678 44.696 596.486 45.048 596.23 45.304C595.718 45.944 595.59 46.264 595.846 46.264C595.846 46.264 595.814 46.392 595.75 46.648C595.75 46.84 595.622 47.16 595.366 47.608C594.918 49.016 594.566 50.36 594.31 51.64C594.118 52.856 594.15 53.944 594.406 54.904C594.918 56.312 595.59 57.144 596.422 57.4C597.318 57.656 598.47 57.08 599.878 55.672C600.582 55.16 601.382 54.84 602.278 54.712C603.174 54.52 603.622 54.68 603.622 55.192C603.622 55.192 603.718 55.288 603.91 55.48C604.102 55.608 604.326 55.672 604.582 55.672C604.902 55.672 605.03 55.992 604.966 56.632C604.902 57.208 604.774 57.88 604.582 58.648C604.39 59.416 604.134 60.056 603.814 60.568C602.854 61.528 602.374 62.168 602.374 62.488C602.374 62.488 602.246 62.616 601.99 62.872C601.798 63.064 601.446 63.384 600.934 63.832C599.782 64.536 598.31 64.888 596.518 64.888C594.79 64.888 593.446 64.536 592.486 63.832C591.526 63.128 590.566 62.264 589.606 61.24C588.71 60.216 588.134 59.256 587.878 58.36L587.398 57.4L584.614 59.224C583.91 59.928 583.398 60.472 583.078 60.856C582.758 61.176 582.47 61.464 582.214 61.72C582.022 61.976 581.798 62.2 581.542 62.392C581.35 62.584 581.126 62.68 580.87 62.68C580.614 62.68 580.39 62.68 580.198 62.68C580.006 62.68 579.91 62.68 579.91 62.68C579.91 62.936 579.462 63.288 578.566 63.736C577.67 64.12 576.678 64.472 575.59 64.792C574.502 65.112 573.638 65.272 572.998 65.272ZM575.014 57.208C575.398 57.208 575.974 56.984 576.742 56.536C577.574 56.024 578.47 55.416 579.43 54.712C580.39 54.008 581.254 53.304 582.022 52.6C582.854 51.896 583.462 51.32 583.846 50.872C584.102 50.616 584.39 50.2 584.71 49.624C585.094 49.048 585.51 48.536 585.958 48.088C587.43 46.424 588.358 45.112 588.742 44.152C589.126 43.128 588.966 42.04 588.262 40.888C588.006 40.184 587.686 39.8 587.302 39.736C586.918 39.672 586.118 39.896 584.902 40.408C584.134 40.856 583.302 41.592 582.406 42.616C581.51 43.64 580.582 44.792 579.622 46.072C578.726 47.352 577.894 48.664 577.126 50.008C576.358 51.352 575.718 52.568 575.206 53.656C574.758 54.744 574.534 55.608 574.534 56.248C574.534 56.504 574.598 56.728 574.726 56.92C574.918 57.112 575.014 57.208 575.014 57.208ZM616.001 66.232C614.593 66.232 613.537 66.168 612.833 66.04C612.193 65.912 611.713 65.72 611.393 65.464C611.073 65.208 610.657 64.856 610.145 64.408C609.889 63.896 609.441 63.256 608.801 62.488C608.161 61.656 607.713 61.112 607.457 60.856C607.201 59.896 607.105 58.584 607.169 56.92C607.297 55.256 607.585 53.464 608.033 51.544C608.481 49.624 609.025 47.896 609.665 46.36C609.921 45.848 610.145 45.336 610.337 44.824C610.529 44.312 610.625 44.056 610.625 44.056C610.625 43.736 611.009 42.968 611.777 41.752C612.609 40.536 613.505 39.256 614.465 37.912C615.489 36.568 616.321 35.608 616.961 35.032C617.409 34.52 618.081 33.976 618.977 33.4C619.937 32.824 620.769 32.408 621.473 32.152C622.177 31.896 623.137 31.576 624.353 31.192C625.569 30.744 626.657 30.52 627.617 30.52C628.513 30.52 629.473 30.712 630.497 31.096C631.521 31.48 632.385 32.152 633.089 33.112C634.241 34.264 634.977 35.64 635.297 37.24C635.617 38.84 635.649 40.216 635.393 41.368C635.073 42.648 634.433 43.704 633.473 44.536C632.513 45.304 631.489 45.72 630.401 45.784C629.313 45.784 628.353 45.336 627.521 44.44C627.265 43.928 627.137 43.512 627.137 43.192C627.137 42.808 627.265 42.264 627.521 41.56C627.777 40.664 627.905 39.864 627.905 39.16C627.905 38.456 627.617 38.104 627.041 38.104C626.209 38.104 625.537 38.36 625.025 38.872C624.513 39.32 623.745 40.088 622.721 41.176C622.273 41.688 621.697 42.424 620.993 43.384C620.289 44.344 619.585 45.4 618.881 46.552C618.241 47.64 617.665 48.76 617.153 49.912C616.449 52.024 616.001 53.4 615.809 54.04C615.681 54.616 615.617 54.904 615.617 54.904C615.617 55.16 615.585 55.416 615.521 55.672C615.457 55.864 615.425 56.088 615.425 56.344C615.425 57.112 615.873 57.72 616.769 58.168C617.473 58.616 618.049 58.84 618.497 58.84C619.009 58.776 619.969 58.424 621.377 57.784C622.401 57.272 623.361 56.6 624.257 55.768C625.217 54.936 626.209 54.2 627.233 53.56C627.937 53.112 628.481 52.728 628.865 52.408C629.313 52.088 629.537 52.056 629.537 52.312C629.537 52.568 629.633 52.696 629.825 52.696C630.017 52.696 630.241 52.568 630.497 52.312C630.881 51.8 631.361 51.608 631.937 51.736C632.513 51.8 633.025 51.96 633.473 52.216C633.985 52.472 634.241 52.696 634.241 52.888C634.113 53.464 634.241 53.944 634.625 54.328C634.625 54.584 634.529 54.936 634.337 55.384C634.209 55.768 634.017 56.088 633.761 56.344C633.441 56.792 632.961 57.432 632.321 58.264C631.745 59.096 631.201 59.832 630.689 60.472C630.177 61.112 629.921 61.432 629.921 61.432C629.665 61.368 629.409 61.432 629.153 61.624C628.961 61.816 628.737 62.04 628.481 62.296C627.969 62.744 627.489 63.096 627.041 63.352C626.593 63.544 626.241 63.64 625.985 63.64C625.537 63.896 625.185 64.056 624.929 64.12C624.737 64.184 624.641 64.344 624.641 64.6C624.001 65.24 622.849 65.688 621.185 65.944C619.521 66.136 617.793 66.232 616.001 66.232ZM660.675 65.08C658.755 66.168 656.707 66.808 654.531 67C652.419 67.128 650.435 66.84 648.579 66.136C646.723 65.368 645.219 64.248 644.067 62.776C643.427 61.944 642.819 60.632 642.243 58.84C641.667 56.984 641.571 54.488 641.955 51.352C642.339 48.408 643.235 45.432 644.643 42.424C646.115 39.416 647.907 36.76 650.019 34.456C652.131 32.152 654.435 30.584 656.931 29.752C657.827 29.432 658.723 29.208 659.619 29.08C660.579 28.888 661.827 28.856 663.363 28.984C664.835 29.176 666.147 29.56 667.299 30.136C668.451 30.648 669.283 31.224 669.795 31.864C670.819 32.888 671.491 33.88 671.811 34.84C672.131 35.8 672.259 36.728 672.195 37.624C671.875 39.672 670.947 41.88 669.411 44.248C667.939 46.616 665.859 48.376 663.171 49.528C662.083 49.976 660.803 50.264 659.331 50.392C657.859 50.52 655.843 50.328 653.283 49.816C651.747 49.496 650.723 49.656 650.211 50.296C649.763 50.936 649.571 52.184 649.635 54.04C649.763 55.192 650.019 56.216 650.403 57.112C650.851 57.944 651.651 58.52 652.803 58.84C654.275 59.096 655.331 59.128 655.971 58.936C656.611 58.68 657.411 58.328 658.371 57.88C658.883 57.56 659.363 57.208 659.811 56.824C660.323 56.44 660.803 56.056 661.251 55.672C661.763 55.288 662.179 55 662.499 54.808C662.819 54.552 663.139 54.392 663.459 54.328C663.779 54.264 664.099 54.232 664.419 54.232C665.123 54.296 665.795 54.68 666.435 55.384C667.075 56.088 667.491 56.76 667.683 57.4C667.683 57.912 667.363 58.648 666.723 59.608C666.083 60.504 665.219 61.464 664.131 62.488C663.107 63.448 661.955 64.312 660.675 65.08ZM659.427 43.672C659.875 43.48 660.515 43.032 661.347 42.328C662.243 41.624 663.043 40.888 663.747 40.12C664.451 39.288 664.803 38.648 664.803 38.2C664.803 37.496 664.323 36.888 663.363 36.376C662.467 35.864 661.283 35.768 659.811 36.088C659.299 36.216 658.691 36.568 657.987 37.144C657.283 37.72 656.579 38.392 655.875 39.16C655.171 39.864 654.563 40.568 654.051 41.272C653.539 41.912 653.187 42.424 652.995 42.808C653.251 43.128 653.763 43.384 654.531 43.576C655.299 43.768 656.131 43.864 657.027 43.864C657.987 43.864 658.787 43.8 659.427 43.672ZM737.779 38.104C737.395 38.36 736.595 38.68 735.379 39.064C734.227 39.384 732.243 39.704 729.427 40.024C728.595 40.088 727.411 40.152 725.875 40.216C724.339 40.28 722.675 40.344 720.883 40.408C719.155 40.472 717.555 40.504 716.083 40.504C714.675 40.44 713.683 40.344 713.107 40.216C713.107 40.216 712.947 40.376 712.627 40.696C712.371 41.016 712.243 41.432 712.243 41.944C711.795 42.712 711.251 43.864 710.611 45.4C709.971 46.872 709.267 48.504 708.499 50.296C707.795 52.088 707.123 53.88 706.483 55.672C705.843 57.4 705.299 58.936 704.851 60.28C704.467 61.56 704.275 62.456 704.275 62.968C703.699 64.504 703.347 65.816 703.219 66.904C703.091 67.992 702.867 68.632 702.547 68.824C702.355 69.784 701.747 70.264 700.723 70.264C699.763 70.264 699.027 69.976 698.515 69.4C697.107 68.696 696.147 67.8 695.635 66.712C695.123 65.56 695.091 64.28 695.539 62.872C695.731 62.04 696.051 60.824 696.499 59.224C697.011 57.56 697.555 55.736 698.131 53.752C698.771 51.768 699.411 49.848 700.051 47.992C700.755 46.072 701.427 44.504 702.067 43.288C702.771 42.072 703.219 40.984 703.411 40.024C703.603 39 703.859 38.072 704.179 37.24C704.115 36.536 704.115 36.088 704.179 35.896C704.243 35.64 704.499 35.224 704.947 34.648C705.267 34.392 705.651 33.944 706.099 33.304C706.611 32.6 707.187 31.544 707.827 30.136C708.019 29.496 708.307 28.632 708.691 27.544C709.139 26.392 709.555 25.24 709.939 24.088C710.323 22.872 710.675 21.848 710.995 21.016C711.315 20.184 711.475 19.736 711.475 19.672C711.603 19.416 711.795 18.936 712.051 18.232C712.307 17.464 712.499 16.856 712.627 16.408C712.883 15.512 713.075 14.776 713.203 14.2C713.395 13.624 713.363 13.336 713.107 13.336C712.595 13.464 711.571 13.56 710.035 13.624C709.267 13.752 708.691 13.848 708.307 13.912C707.987 13.912 707.699 13.944 707.443 14.008C706.803 14.072 706.227 14.008 705.715 13.816C705.203 13.624 704.947 13.24 704.947 12.664C705.075 11.64 705.427 10.584 706.003 9.496C706.643 8.408 707.443 7.832 708.403 7.768C708.851 7.64 709.331 7.544 709.843 7.48C710.419 7.352 711.187 7.16 712.147 6.904C713.363 6.64799 714.419 6.584 715.315 6.712C716.275 6.776 716.947 6.872 717.331 7C717.651 6.808 717.907 6.616 718.099 6.424C718.355 6.168 718.515 5.91199 718.579 5.65599C718.899 4.504 719.475 3.64 720.307 3.064C721.139 2.424 722.003 2.10399 722.899 2.10399C723.859 2.04 724.627 2.296 725.203 2.872C725.779 3.384 725.939 4.248 725.683 5.464C725.747 5.656 725.811 5.816 725.875 5.944C726.003 6.072 726.483 6.072 727.315 5.944C728.211 5.752 729.747 5.432 731.923 4.984C733.075 4.856 734.515 4.728 736.243 4.6C738.035 4.472 739.443 4.568 740.467 4.888C741.555 4.696 742.515 4.632 743.347 4.696C744.243 4.696 744.851 4.568 745.171 4.31199C746.515 4.568 747.475 4.76 748.051 4.888C748.691 4.952 749.203 5.144 749.587 5.464C749.843 5.72 749.939 5.976 749.875 6.232C749.811 6.424 749.779 6.51999 749.779 6.51999C749.523 6.392 749.491 6.392 749.683 6.51999C749.875 6.584 750.131 6.744 750.451 7C750.899 7.192 751.123 7.608 751.123 8.248C751.187 8.824 751.155 9.432 751.027 10.072C750.963 10.648 750.899 11.032 750.835 11.224C750.771 11.8 750.451 12.152 749.875 12.28C749.299 12.344 747.859 12.344 745.555 12.28C742.803 11.896 740.243 11.768 737.875 11.896C735.571 11.96 732.659 12.248 729.139 12.76C727.731 12.824 726.515 13.016 725.491 13.336C724.531 13.592 724.051 13.72 724.051 13.72C723.795 13.72 723.347 14.168 722.707 15.064C722.067 15.896 721.459 17.144 720.883 18.808C720.627 19.256 720.179 20.184 719.539 21.592C718.963 23 718.355 24.536 717.715 26.2C717.075 27.8 716.499 29.24 715.987 30.52C715.475 31.736 715.155 32.408 715.027 32.536C715.923 32.792 717.299 32.92 719.155 32.92C721.075 32.92 723.187 32.856 725.491 32.728C727.795 32.536 729.971 32.344 732.019 32.152C732.979 31.96 733.971 31.8 734.995 31.672C736.019 31.544 736.723 31.512 737.107 31.576C737.875 31.64 738.451 32.152 738.835 33.112C739.219 34.008 739.347 34.968 739.219 35.992C739.091 36.952 738.611 37.656 737.779 38.104ZM749.423 66.232C748.079 66.488 747.055 66.424 746.351 66.04C745.711 65.592 745.039 65.048 744.335 64.408C743.311 63.896 742.383 63.192 741.551 62.296C740.719 61.336 740.079 60.344 739.631 59.32C739.183 58.296 738.991 57.496 739.055 56.92C739.247 54.68 739.759 52.248 740.591 49.624C741.487 47 742.607 44.44 743.951 41.944C745.359 39.448 746.927 37.24 748.655 35.32C750.447 33.336 752.367 31.896 754.415 31C755.695 30.488 757.071 30.296 758.543 30.424C760.015 30.552 761.007 31.16 761.519 32.248C762.479 34.104 762.255 35.288 760.847 35.8C760.655 35.8 760.431 35.896 760.175 36.088C759.919 36.216 759.791 36.408 759.791 36.664C760.047 36.792 760.751 36.824 761.903 36.76C763.055 36.632 764.207 36.44 765.359 36.184C766.575 35.864 767.375 35.544 767.759 35.224C768.143 35.032 768.431 34.936 768.623 34.936C768.815 34.936 769.295 35 770.063 35.128C771.151 35.448 771.695 35.832 771.695 36.28C771.695 36.536 771.791 36.952 771.983 37.528C772.175 38.04 772.399 38.296 772.655 38.296C773.103 38.36 773.199 38.808 772.943 39.64C772.751 40.472 772.015 41.336 770.735 42.232C769.519 43 768.751 43.512 768.431 43.768C768.175 43.96 768.143 44.408 768.335 45.112C768.847 46.328 768.815 47.8 768.239 49.528C767.663 51.256 766.703 53.048 765.359 54.904C764.015 56.76 762.415 58.52 760.559 60.184C758.767 61.784 756.879 63.16 754.895 64.312C752.975 65.4 751.151 66.04 749.423 66.232ZM749.711 58.168C749.967 58.168 750.415 58.04 751.055 57.784C751.695 57.464 752.207 57.208 752.591 57.016C752.847 56.76 753.167 56.472 753.551 56.152C753.999 55.768 754.351 55.544 754.607 55.48C754.863 55.48 755.023 55.384 755.087 55.192C755.151 54.936 755.375 54.456 755.759 53.752C756.143 52.984 756.911 51.864 758.063 50.392C759.343 48.984 760.175 47.864 760.559 47.032C760.943 46.136 760.975 45.176 760.655 44.152C760.591 43.896 760.399 43.736 760.079 43.672C759.823 43.608 759.471 43.448 759.023 43.192C758.383 43.192 757.935 43.352 757.679 43.672C757.487 43.928 757.039 43.768 756.335 43.192L754.799 41.272L753.167 42.904C752.143 43.928 751.215 45.208 750.383 46.744C749.615 48.28 749.007 49.848 748.559 51.448C748.111 53.048 747.823 54.456 747.695 55.672C747.631 56.632 747.791 57.272 748.175 57.592C748.559 57.912 749.071 58.104 749.711 58.168ZM777.964 65.56C777.516 65.56 776.908 65.24 776.14 64.6C775.436 63.96 775.02 63.384 774.892 62.872C774.7 62.36 774.7 61.624 774.892 60.664C775.148 59.64 775.5 58.456 775.948 57.112C776.46 55 776.812 53.464 777.004 52.504C777.196 51.544 777.388 50.712 777.58 50.008C777.772 49.304 778.028 48.28 778.348 46.936C778.732 46.104 779.02 45.304 779.212 44.536C779.468 43.704 779.724 42.872 779.98 42.04C780.3 41.208 780.652 40.376 781.036 39.544C781.484 37.88 782.028 36.312 782.668 34.84C783.372 33.304 784.044 32.024 784.684 31C784.812 30.808 785.1 30.456 785.548 29.944C785.996 29.432 786.348 29.176 786.604 29.176C787.116 28.664 787.82 28.504 788.716 28.696C789.612 28.824 790.38 29.144 791.02 29.656C791.788 30.488 792.204 31.48 792.268 32.632C792.396 33.72 791.948 35.256 790.924 37.24C790.156 39.224 789.42 40.792 788.716 41.944C788.076 43.032 787.436 44.312 786.796 45.784C787.5 44.76 788.364 43.704 789.388 42.616C790.412 41.528 791.212 40.664 791.788 40.024C792.62 39.128 793.388 38.424 794.092 37.912C794.86 37.336 795.884 36.632 797.164 35.8C798.252 35.032 799.34 34.328 800.428 33.688C801.58 33.048 802.956 32.856 804.556 33.112C805.196 33.048 805.868 33.368 806.572 34.072C807.34 34.776 807.916 35.704 808.3 36.856C808.748 37.944 808.748 39.128 808.3 40.408C806.828 40.088 805.516 40.152 804.364 40.6C803.212 40.984 802.22 41.464 801.388 42.04C800.62 42.616 800.012 43.064 799.564 43.384C798.924 43.768 798.188 44.28 797.356 44.92C796.524 45.496 795.628 46.168 794.668 46.936C793.708 47.64 792.684 48.44 791.596 49.336C790.06 50.616 788.908 51.736 788.14 52.696C787.372 53.656 786.764 54.68 786.316 55.768C785.932 56.728 785.452 57.88 784.876 59.224C784.3 60.568 783.756 61.784 783.244 62.872C782.732 63.896 782.316 64.536 781.996 64.792C781.676 65.432 781.004 65.784 779.98 65.848C779.02 65.912 778.348 65.816 777.964 65.56ZM366.294 168.168C365.142 167.528 364.502 166.824 364.374 166.056C364.31 165.288 364.758 163.944 365.718 162.024C366.678 160.104 368.182 157.128 370.23 153.096C371.766 150.216 372.79 147.976 373.302 146.376C373.878 144.712 374.198 143.528 374.262 142.824C374.326 142.12 374.358 141.672 374.358 141.48C374.23 140.904 374.294 140.456 374.549 140.136C374.806 139.752 375.222 139.432 375.798 139.176C376.118 138.856 376.854 138.28 378.006 137.448C379.158 136.616 380.054 135.624 380.694 134.472C381.27 133.128 381.91 131.752 382.614 130.344C383.382 128.936 384.374 127.176 385.59 125.064C386.806 122.888 388.438 120.072 390.486 116.616C391.766 114.376 393.27 111.848 394.998 109.032C396.79 106.216 398.55 103.656 400.278 101.352C400.982 100.456 401.718 99.752 402.486 99.24C403.254 98.728 403.926 98.472 404.502 98.472C405.91 98.472 407.318 98.856 408.726 99.624C410.134 100.328 411.382 101.224 412.47 102.312C413.558 103.4 414.294 104.424 414.677 105.384C414.998 105.896 415.126 106.984 415.062 108.648C414.998 110.312 414.87 112.328 414.677 114.696C414.486 117.064 414.262 119.592 414.006 122.28C413.814 124.904 413.526 128.008 413.142 131.592C412.758 135.176 412.374 138.92 411.99 142.824C411.67 146.728 411.414 150.504 411.222 154.152C411.03 157.736 411.03 160.872 411.222 163.56C411.286 164.136 411.286 164.68 411.222 165.192C411.158 165.704 411.125 166.12 411.125 166.44C410.742 166.824 409.91 166.984 408.63 166.92C407.35 166.92 406.102 166.728 404.886 166.344C403.67 165.96 402.998 165.48 402.87 164.904C402.678 164.712 402.55 164.552 402.486 164.424C402.422 164.296 402.422 163.688 402.486 162.6C402.55 161.448 402.646 159.368 402.774 156.36L403.254 141.672L402.006 141.768C401.43 141.768 400.374 141.832 398.838 141.96C397.366 142.088 395.734 142.28 393.942 142.536C392.214 142.728 390.614 142.952 389.142 143.208C387.67 143.4 386.646 143.592 386.07 143.784C385.494 143.784 384.79 144.168 383.958 144.936C383.19 145.704 382.454 146.696 381.75 147.912C381.494 148.808 381.014 149.768 380.31 150.792C379.67 151.752 379.35 152.392 379.35 152.712C378.902 153.032 378.518 153.416 378.198 153.864C377.942 154.312 377.814 154.536 377.814 154.536C377.814 154.92 377.526 155.88 376.95 157.416C376.374 158.888 375.67 160.552 374.838 162.408C374.006 164.2 373.142 165.768 372.246 167.112L369.654 170.76L366.294 168.168ZM389.238 135.144C389.238 135.144 389.59 135.08 390.294 134.952C390.998 134.824 391.83 134.696 392.79 134.568C393.814 134.376 394.71 134.28 395.478 134.28C396.95 133.896 398.166 133.608 399.126 133.416C400.15 133.224 400.982 133.128 401.622 133.128C402.262 133.064 402.774 133.128 403.158 133.32C403.414 133.64 403.638 133.832 403.83 133.896C404.086 133.96 404.214 133.992 404.214 133.992C404.278 133.864 404.406 133.192 404.598 131.976C404.79 130.76 405.014 129.256 405.27 127.464C405.526 125.672 405.782 123.816 406.038 121.896C406.294 119.912 406.518 118.088 406.71 116.424C406.902 114.696 407.03 113.352 407.094 112.392C407.158 111.176 407.126 110.088 406.998 109.128C406.87 108.104 406.806 107.592 406.806 107.592C406.422 107.592 405.686 108.296 404.598 109.704C403.574 111.048 402.358 112.872 400.95 115.176C399.606 117.416 398.262 119.848 396.918 122.472C396.278 123.688 395.67 124.648 395.094 125.352C394.582 126.056 394.166 126.408 393.846 126.408C393.718 126.536 393.366 127.048 392.79 127.944C392.278 128.776 391.702 129.736 391.062 130.824C390.486 131.848 389.974 132.808 389.526 133.704C389.142 134.536 389.046 135.016 389.238 135.144ZM451.059 162.696C449.651 162.568 448.467 162.28 447.507 161.832C446.611 161.32 445.875 160.328 445.299 158.856C445.043 157.832 444.915 156.776 444.915 155.688C444.979 154.536 445.075 153.448 445.203 152.424C445.331 151.336 445.395 150.408 445.395 149.64C445.395 149.512 445.395 149.256 445.395 148.872C445.395 148.488 445.395 148.136 445.395 147.816C445.267 146.856 445.011 146.28 444.627 146.088C444.307 145.832 443.731 145.864 442.899 146.184C441.555 146.824 440.083 147.688 438.483 148.776C436.947 149.8 435.315 151.016 433.587 152.424C431.923 153.768 430.195 155.208 428.403 156.744C426.995 158.28 425.939 159.528 425.235 160.488C424.595 161.448 423.923 161.928 423.219 161.928C422.707 162.184 422.163 162.12 421.587 161.736C421.011 161.352 420.403 160.904 419.763 160.392C419.315 159.88 418.771 159.24 418.131 158.472C417.555 157.64 417.203 157.096 417.075 156.84C417.075 155.816 417.139 154.888 417.267 154.056C417.459 153.224 417.715 152.36 418.035 151.464C418.419 150.568 418.867 149.544 419.379 148.392C419.635 147.944 419.859 147.496 420.051 147.048C420.307 146.536 420.595 145.992 420.915 145.416C421.171 144.52 421.523 143.496 421.971 142.344C422.483 141.192 422.963 140.104 423.411 139.08C424.115 137.416 424.659 135.976 425.043 134.76C425.427 133.544 425.747 132.232 426.003 130.824C425.939 130.696 425.971 130.504 426.099 130.248C426.227 129.992 426.419 129.832 426.675 129.768H426.771H426.867C427.315 129.448 428.147 129.416 429.363 129.672C430.643 129.864 431.603 130.216 432.243 130.728C433.587 131.88 434.227 133.384 434.163 135.24C434.099 137.096 433.139 139.528 431.283 142.536C430.835 143.56 430.355 144.52 429.843 145.416C429.395 146.248 429.171 146.824 429.171 147.144C429.171 147.144 429.427 146.952 429.939 146.568C430.451 146.184 431.059 145.736 431.763 145.224C432.467 144.648 433.075 144.2 433.587 143.88C433.907 143.56 434.611 142.984 435.699 142.152C436.787 141.256 437.971 140.328 439.251 139.368C440.531 138.408 441.555 137.672 442.323 137.16C443.027 136.648 443.923 136.136 445.011 135.624C446.099 135.048 446.771 134.76 447.027 134.76C447.667 134.76 448.435 134.984 449.331 135.432C450.291 135.88 451.155 136.424 451.923 137.064C452.755 137.64 453.235 138.184 453.363 138.696C453.363 138.952 453.331 139.304 453.267 139.752C453.203 140.136 453.171 140.488 453.171 140.808C453.107 141.832 453.075 143.08 453.075 144.552C453.139 145.96 453.171 147.4 453.171 148.872C453.171 150.28 453.043 151.56 452.787 152.712C452.787 152.712 452.819 152.776 452.883 152.904C452.947 152.968 453.011 153.096 453.075 153.288C453.011 153.352 452.979 153.48 452.979 153.672C453.043 153.8 453.075 153.864 453.075 153.864C453.203 154.312 453.331 154.76 453.459 155.208C453.651 155.656 453.875 156.168 454.131 156.744C454.387 157.256 454.675 157.928 454.995 158.76C454.931 159.592 454.451 160.424 453.555 161.256C452.723 162.024 451.891 162.504 451.059 162.696ZM459.122 189.672C457.714 189.928 456.754 189.96 456.242 189.768C455.73 189.576 455.026 189.256 454.13 188.808C453.426 188.296 452.914 187.912 452.594 187.656C452.274 187.4 452.05 187.144 451.922 186.888C451.282 185.544 451.186 184.552 451.634 183.912C452.082 183.272 452.722 182.856 453.554 182.664C454.45 182.536 455.218 182.472 455.858 182.472C456.306 182.728 457.042 182.856 458.066 182.856C459.154 182.856 459.826 182.728 460.082 182.472C460.082 182.472 460.37 182.28 460.946 181.896C461.586 181.576 462.418 181.32 463.442 181.128C465.426 180.168 466.994 179.176 468.146 178.152C469.298 177.192 470.578 175.528 471.986 173.16C472.562 172.264 473.17 171.208 473.81 169.992C474.45 168.84 474.898 167.688 475.154 166.536C475.666 165.256 476.242 163.528 476.882 161.352C477.586 159.176 478.194 157.032 478.706 154.92C479.218 152.744 479.506 151.112 479.57 150.024C479.954 146.44 480.69 142.984 481.778 139.656C482.866 136.264 483.73 132.68 484.37 128.904C484.754 128.008 485.042 127.496 485.234 127.368C485.426 127.176 485.842 127.08 486.482 127.08C487.186 127.08 488.018 127.304 488.978 127.752C489.938 128.136 490.642 128.68 491.09 129.384C491.73 130.6 492.018 132.04 491.954 133.704C491.954 135.304 491.538 136.712 490.706 137.928C490.066 138.824 489.49 140.232 488.978 142.152C488.53 144.008 488.082 146.344 487.634 149.16C487.314 150.568 486.962 152.232 486.578 154.152C486.258 156.008 485.906 158.088 485.522 160.392C485.266 161.032 484.914 162.024 484.466 163.368C484.018 164.648 483.73 165.672 483.602 166.44C483.538 166.696 483.346 167.208 483.026 167.976C482.706 168.744 482.386 169.48 482.066 170.184C481.746 170.952 481.522 171.464 481.394 171.72C478.322 177.928 474.77 182.408 470.738 185.16C466.77 187.912 462.898 189.416 459.122 189.672ZM467.186 162.504C466.482 162.504 465.746 162.12 464.978 161.352C464.274 160.584 463.794 159.976 463.538 159.528C463.282 158.888 462.802 158.28 462.098 157.704C461.394 157.128 460.786 156.424 460.274 155.592C459.762 154.76 459.634 153.736 459.89 152.52C460.146 151.688 460.53 150.44 461.042 148.776C461.554 147.048 462.162 145.16 462.866 143.112C463.57 141 464.274 138.92 464.978 136.872C465.746 134.824 466.45 133 467.09 131.4C467.73 129.8 468.274 128.68 468.722 128.04C469.106 127.528 469.714 127.144 470.546 126.888C471.378 126.632 472.21 126.568 473.042 126.696C473.874 126.824 474.482 127.208 474.866 127.848C475.57 128.744 475.954 129.64 476.018 130.536C476.146 131.368 475.698 132.712 474.674 134.568C474.418 135.272 474.098 136.04 473.714 136.872C473.33 137.64 473.138 138.152 473.138 138.408C473.074 138.536 472.946 138.984 472.754 139.752C472.626 140.456 472.466 141.128 472.274 141.768C472.082 142.408 471.89 142.728 471.698 142.728C471.442 142.984 471.154 143.656 470.834 144.744C470.578 145.832 470.322 147.048 470.066 148.392C469.874 149.672 469.746 150.824 469.682 151.848C469.618 152.808 469.714 153.288 469.97 153.288C471.954 153.288 473.874 152.68 475.73 151.464C477.586 150.184 479.602 148.072 481.778 145.128L482.642 154.152C481.746 154.6 480.914 155.08 480.146 155.592C479.378 156.04 478.674 156.584 478.034 157.224C477.842 157.48 477.394 157.832 476.69 158.28C475.986 158.728 475.282 159.144 474.578 159.528C473.938 159.848 473.522 160.008 473.33 160.008C473.33 160.008 473.234 160.04 473.042 160.104C472.914 160.104 472.85 160.232 472.85 160.488C472.85 160.616 472.434 160.872 471.602 161.256C470.77 161.576 469.906 161.864 469.01 162.12C468.114 162.376 467.506 162.504 467.186 162.504ZM528.915 175.176C527.699 175.368 526.227 175.336 524.499 175.08C522.771 174.888 520.915 174.536 518.931 174.024C517.907 173.704 517.171 173.32 516.723 172.872C516.339 172.424 515.667 171.592 514.707 170.376C514.067 169.416 513.651 168.328 513.459 167.112C513.331 165.896 513.491 164.808 513.939 163.848C514.451 162.888 515.283 162.312 516.435 162.12C516.947 161.992 517.555 162.12 518.259 162.504C519.027 162.824 519.827 163.24 520.659 163.752C522.003 164.52 523.443 165.288 524.979 166.056C526.515 166.888 527.923 167.208 529.203 167.016C530.099 166.824 531.155 166.696 532.371 166.632C533.651 166.632 534.867 166.536 536.019 166.344C537.235 166.152 538.195 165.8 538.899 165.288C542.291 162.984 544.819 161.16 546.483 159.816C548.147 158.408 548.979 157.704 548.979 157.704C549.107 157.448 549.331 157.256 549.651 157.128C550.035 156.936 550.483 156.744 550.995 156.552C551.379 156.168 551.987 155.56 552.819 154.728C553.651 153.832 554.451 152.968 555.219 152.136C556.051 151.304 556.563 150.824 556.755 150.696C556.883 150.12 557.011 149.672 557.139 149.352C557.267 148.968 557.331 148.584 557.331 148.2C557.843 147.688 558.515 146.632 559.347 145.032C560.243 143.368 561.139 141.544 562.035 139.56C562.931 137.512 563.571 135.656 563.955 133.992C564.787 130.472 565.075 127.272 564.819 124.392C564.563 121.512 563.827 118.92 562.611 116.616C561.395 114.312 559.763 112.296 557.715 110.568C557.011 109.992 556.051 109.384 554.835 108.744C553.619 108.04 552.371 107.4 551.091 106.824C549.811 106.184 548.659 105.704 547.635 105.384C546.675 105.064 546.099 104.936 545.907 105C545.651 105.064 545.139 106.056 544.371 107.976C543.667 109.832 542.771 112.232 541.683 115.176C540.659 118.12 539.539 121.288 538.323 124.68C537.171 128.008 536.051 131.176 534.963 134.184C534.643 135.4 534.227 136.68 533.715 138.024C533.267 139.368 532.883 140.552 532.562 141.576C532.243 142.536 532.083 143.176 532.083 143.496C531.379 144.584 530.643 146.248 529.875 148.488C529.107 150.728 528.467 153.928 527.955 158.088C527.379 160.264 526.963 162.088 526.707 163.56C526.451 164.968 526.195 165.64 525.939 165.576C525.939 165.576 525.907 165.864 525.843 166.44C525.779 167.08 525.651 167.496 525.459 167.688C525.459 168.072 525.075 168.328 524.307 168.456C523.539 168.584 522.643 168.424 521.619 167.976C520.595 167.528 519.635 166.664 518.739 165.384C518.547 164.68 518.387 163.656 518.259 162.312C518.195 160.904 518.419 159.272 518.931 157.416C519.251 156.2 519.699 154.632 520.275 152.712C520.851 150.792 521.491 148.808 522.195 146.76C522.899 144.712 523.539 142.824 524.115 141.096C524.755 139.368 525.203 138.088 525.459 137.256C525.907 136.168 526.547 134.12 527.379 131.112C527.891 129.448 528.403 127.784 528.915 126.12C529.491 124.456 530.035 122.984 530.547 121.704C531.059 120.36 531.411 119.496 531.603 119.112C531.923 118.28 532.307 116.936 532.755 115.08C533.267 113.16 534.035 110.984 535.059 108.552L535.731 105.384L534.675 104.904C533.907 105.16 533.299 105.256 532.851 105.192C532.467 105.064 532.211 104.968 532.083 104.904C531.699 105.032 531.187 104.936 530.547 104.616C529.971 104.232 529.427 103.752 528.915 103.176C528.467 102.6 528.179 102.12 528.051 101.736C527.923 101.48 527.827 101.16 527.763 100.776C527.763 100.328 527.763 100.104 527.763 100.104C527.827 99.72 528.371 99.336 529.395 98.952C530.419 98.504 531.731 98.088 533.331 97.704C534.995 97.32 536.755 97.032 538.611 96.84C540.467 96.648 542.195 96.616 543.795 96.744C545.459 96.872 547.507 97.256 549.939 97.896C552.371 98.536 554.451 99.176 556.179 99.816C558.227 100.584 560.434 101.896 562.802 103.752C565.171 105.608 567.315 107.816 569.235 110.376C571.219 112.936 572.531 115.624 573.171 118.44C573.363 119.208 573.555 120.296 573.747 121.704C573.939 123.112 574.035 124.488 574.035 125.832C574.099 127.112 573.971 127.944 573.651 128.328C573.523 128.584 573.427 128.904 573.363 129.288C573.363 129.608 573.491 129.832 573.747 129.96C573.683 130.152 573.459 130.888 573.075 132.168C572.691 133.384 572.339 134.44 572.019 135.336C571.891 137 571.443 138.92 570.675 141.096C569.971 143.272 569.171 145.352 568.275 147.336C567.443 149.256 566.707 150.76 566.067 151.848C565.811 151.848 565.555 151.912 565.299 152.04C565.107 152.104 565.139 152.168 565.395 152.232C565.395 152.552 565.043 153.16 564.339 154.056C564.083 154.248 563.667 154.728 563.091 155.496C562.579 156.2 562.163 156.68 561.843 156.936C561.779 157.384 561.587 157.768 561.267 158.088C560.947 158.344 560.659 158.472 560.403 158.472C560.403 158.472 560.339 158.472 560.211 158.472C560.147 158.472 560.115 158.6 560.115 158.856C559.603 159.624 558.739 160.616 557.523 161.832C556.307 163.048 554.931 164.296 553.395 165.576C551.859 166.856 550.323 168.04 548.787 169.128C547.251 170.216 545.843 171.016 544.563 171.528C543.923 171.976 543.251 172.328 542.547 172.584C541.843 172.904 541.171 173.224 540.531 173.544C540.211 173.8 539.283 174.024 537.747 174.216C536.211 174.408 534.579 174.568 532.851 174.696C531.187 174.824 529.875 174.984 528.915 175.176ZM593.972 163.08C592.052 164.168 590.004 164.808 587.828 165C585.716 165.128 583.732 164.84 581.876 164.136C580.02 163.368 578.516 162.248 577.364 160.776C576.724 159.944 576.116 158.632 575.54 156.84C574.964 154.984 574.868 152.488 575.252 149.352C575.636 146.408 576.532 143.432 577.94 140.424C579.412 137.416 581.204 134.76 583.316 132.456C585.428 130.152 587.732 128.584 590.228 127.752C591.124 127.432 592.02 127.208 592.916 127.08C593.876 126.888 595.124 126.856 596.66 126.984C598.132 127.176 599.444 127.56 600.596 128.136C601.748 128.648 602.58 129.224 603.092 129.864C604.116 130.888 604.788 131.88 605.108 132.84C605.428 133.8 605.556 134.728 605.492 135.624C605.172 137.672 604.244 139.88 602.708 142.248C601.236 144.616 599.156 146.376 596.468 147.528C595.38 147.976 594.1 148.264 592.628 148.392C591.156 148.52 589.14 148.328 586.58 147.816C585.044 147.496 584.02 147.656 583.508 148.296C583.06 148.936 582.868 150.184 582.932 152.04C583.06 153.192 583.316 154.216 583.7 155.112C584.148 155.944 584.948 156.52 586.1 156.84C587.572 157.096 588.628 157.128 589.268 156.936C589.908 156.68 590.708 156.328 591.668 155.88C592.18 155.56 592.66 155.208 593.108 154.824C593.62 154.44 594.1 154.056 594.548 153.672C595.06 153.288 595.476 153 595.796 152.808C596.116 152.552 596.436 152.392 596.756 152.328C597.076 152.264 597.396 152.232 597.716 152.232C598.42 152.296 599.092 152.68 599.732 153.384C600.372 154.088 600.788 154.76 600.98 155.4C600.98 155.912 600.66 156.648 600.02 157.608C599.38 158.504 598.516 159.464 597.428 160.488C596.404 161.448 595.252 162.312 593.972 163.08ZM592.724 141.672C593.172 141.48 593.812 141.032 594.644 140.328C595.54 139.624 596.34 138.888 597.044 138.12C597.748 137.288 598.1 136.648 598.1 136.2C598.1 135.496 597.62 134.888 596.66 134.376C595.764 133.864 594.58 133.768 593.108 134.088C592.596 134.216 591.988 134.568 591.284 135.144C590.58 135.72 589.876 136.392 589.172 137.16C588.468 137.864 587.86 138.568 587.348 139.272C586.836 139.912 586.484 140.424 586.292 140.808C586.548 141.128 587.06 141.384 587.828 141.576C588.596 141.768 589.428 141.864 590.324 141.864C591.284 141.864 592.084 141.8 592.724 141.672ZM617.49 163.368C616.978 163.432 616.018 163.144 614.61 162.504C613.202 161.864 612.114 161.128 611.346 160.296C610.898 159.592 610.482 158.44 610.098 156.84C609.714 155.176 609.426 153.352 609.234 151.368C609.042 149.384 608.946 147.592 608.946 145.992C609.01 144.392 609.17 142.632 609.426 140.712C609.746 138.728 610.034 136.904 610.29 135.24C610.61 133.576 610.834 132.456 610.962 131.88C611.538 131.24 612.274 130.696 613.17 130.248C614.066 129.736 614.898 129.416 615.666 129.288C616.498 129.16 617.106 129.384 617.49 129.96C618.386 130.408 618.93 131.368 619.122 132.84C619.378 134.248 619.218 135.592 618.642 136.872C618.642 137.192 618.578 137.64 618.45 138.216C618.322 138.728 618.194 139.208 618.066 139.656C617.554 140.552 617.266 141.352 617.202 142.056C617.202 142.696 617.298 143.432 617.49 144.264C617.682 145.096 617.522 145.864 617.01 146.568V146.472C616.946 146.92 616.85 147.496 616.722 148.2C616.658 148.904 616.626 149.608 616.626 150.312C616.69 150.952 616.882 151.496 617.202 151.944C617.266 152.52 617.49 152.904 617.874 153.096C618.258 153.288 618.93 152.968 619.89 152.136C620.658 151.368 621.426 150.504 622.194 149.544C623.026 148.52 623.762 147.528 624.402 146.568C625.042 145.544 625.522 144.68 625.842 143.976C626.226 143.208 626.354 142.696 626.226 142.44C625.97 141.928 626.098 141.512 626.61 141.192C627.186 140.808 627.666 140.456 628.05 140.136C628.37 139.752 628.562 139.368 628.626 138.984C628.69 138.536 628.85 138.088 629.106 137.64C629.426 137.32 629.682 136.872 629.874 136.296C629.682 135.848 629.81 135.464 630.258 135.144C630.77 134.76 631.09 134.376 631.218 133.992C631.41 132.904 631.89 132.136 632.658 131.688C633.426 131.176 634.258 130.984 635.154 131.112C636.05 131.176 636.786 131.496 637.362 132.072C638.002 132.648 638.29 133.48 638.226 134.568C638.162 135.336 637.874 136.456 637.362 137.928C636.85 139.4 636.178 140.968 635.346 142.632C634.578 144.296 633.714 145.8 632.754 147.144C632.434 147.656 632.146 148.168 631.89 148.68C631.634 149.192 631.218 149.864 630.642 150.696C630.13 151.528 629.234 152.744 627.954 154.344C627.442 154.856 626.93 155.4 626.418 155.976C625.906 156.488 625.394 156.968 624.882 157.416C623.666 158.824 622.354 160.168 620.946 161.448C619.538 162.664 618.386 163.304 617.49 163.368ZM646.104 164.904C644.568 164.904 643.224 164.104 642.072 162.504C640.984 160.84 640.312 158.856 640.056 156.552C640.12 156.04 640.184 155.304 640.248 154.344C640.376 153.384 640.504 152.392 640.632 151.368C640.888 150.152 641.24 148.584 641.688 146.664C642.135 144.744 642.615 142.824 643.128 140.904C643.64 138.92 644.088 137.224 644.472 135.816C644.856 134.344 645.08 133.48 645.144 133.224C645.528 132.328 646.392 132.104 647.736 132.552C649.08 133 650.232 133.96 651.192 135.432C651.576 135.944 651.8 136.552 651.864 137.256C651.992 137.96 651.896 138.984 651.576 140.328C651.32 141.672 650.808 143.656 650.04 146.28C649.336 148.84 648.792 150.92 648.408 152.52C648.088 154.056 647.96 155.688 648.024 157.416C647.768 160.36 647.512 162.376 647.256 163.464C647 164.488 646.616 164.968 646.104 164.904ZM654.936 125.064C654.68 125.256 654.424 125.352 654.168 125.352C653.976 125.288 653.624 125.096 653.112 124.776C652.664 124.712 652.088 124.424 651.384 123.912C650.744 123.336 650.168 122.76 649.656 122.184C649.208 121.608 648.984 121.256 648.984 121.128C648.92 120.488 648.952 119.464 649.08 118.056C649.272 116.648 649.624 115.336 650.136 114.12C650.712 112.84 651.48 112.168 652.44 112.104C652.696 112.104 653.24 112.232 654.072 112.488C654.968 112.744 655.896 113.064 656.856 113.448C657.368 114.408 657.848 115.656 658.296 117.192C658.744 118.728 658.776 120.232 658.392 121.704C658.072 123.112 656.92 124.232 654.936 125.064ZM669.747 165.384C667.891 165.704 666.035 165.544 664.179 164.904C662.387 164.264 660.883 163.24 659.667 161.832C658.515 160.36 657.939 158.6 657.939 156.552C657.747 154.632 657.907 152.36 658.419 149.736C658.995 147.048 659.827 144.36 660.915 141.672C662.067 138.984 663.379 136.712 664.851 134.856C666.131 133.32 667.411 131.912 668.691 130.632C669.971 129.352 671.123 128.488 672.147 128.04C673.043 127.656 674.131 127.368 675.411 127.176C676.755 126.92 677.683 126.792 678.195 126.792C679.219 127.048 680.339 127.464 681.555 128.04C682.835 128.616 683.475 129.288 683.475 130.056C683.475 130.056 683.539 130.152 683.667 130.344C683.859 130.472 683.955 130.536 683.955 130.536C684.339 130.536 684.755 131.016 685.203 131.976C685.715 132.872 686.099 133.928 686.355 135.144C686.611 136.296 686.547 137.224 686.163 137.928C685.907 139.144 685.395 140.328 684.627 141.48C683.923 142.632 683.315 143.208 682.803 143.208C682.547 143.208 682.291 143.24 682.035 143.304C681.843 143.304 681.747 143.464 681.747 143.784C681.747 144.104 681.395 144.264 680.691 144.264C680.051 144.264 679.379 144.136 678.675 143.88C677.971 143.624 677.523 143.24 677.331 142.728C677.331 142.408 677.395 141.992 677.523 141.48C677.651 140.968 677.843 140.104 678.099 138.888C678.483 137.096 678.515 135.912 678.195 135.336C677.875 134.696 677.075 134.632 675.795 135.144C674.195 136.04 672.883 137.096 671.859 138.312C670.835 139.464 669.907 141.096 669.075 143.208C668.307 145.32 667.443 148.264 666.483 152.04C666.099 153.512 666.035 154.664 666.291 155.496C666.611 156.328 666.867 156.776 667.059 156.84C667.955 157.096 668.915 157.16 669.939 157.032C671.027 156.84 671.923 156.552 672.627 156.168C673.651 155.656 674.547 155.112 675.315 154.536C676.147 153.896 677.043 153.224 678.003 152.52C678.323 152.328 678.611 151.976 678.867 151.464C679.123 150.888 679.507 150.472 680.019 150.216C680.531 149.448 681.171 149.064 681.939 149.064C682.771 149 683.571 148.968 684.339 148.968C684.851 149.096 685.395 149.416 685.971 149.928C686.547 150.44 686.963 150.952 687.219 151.464C687.539 151.912 687.507 152.232 687.123 152.424C686.867 152.424 686.707 152.52 686.643 152.712C686.643 152.84 686.643 152.904 686.643 152.904C686.771 153.16 686.483 153.736 685.779 154.632C685.139 155.528 684.307 156.488 683.283 157.512C682.259 158.536 681.267 159.432 680.307 160.2C679.411 160.904 678.771 161.256 678.387 161.256C677.747 161.256 677.427 161.448 677.427 161.832C677.427 161.96 676.947 162.28 675.987 162.792C675.091 163.304 674.035 163.816 672.819 164.328C671.667 164.84 670.643 165.192 669.747 165.384ZM699.532 164.136C697.036 163.112 695.308 161.448 694.348 159.144C693.388 156.84 693.132 153.768 693.58 149.928C693.708 147.944 693.644 146.632 693.388 145.992C693.132 145.288 692.652 144.616 691.948 143.976C691.756 143.72 691.308 143.304 690.604 142.728C689.9 142.088 689.58 141.608 689.644 141.288C689.58 140.84 689.676 140.296 689.932 139.656C690.188 138.952 690.412 138.568 690.604 138.504C691.052 138.312 691.5 138.088 691.948 137.832C692.46 137.576 692.844 137.512 693.1 137.64C693.356 137.64 693.74 137.8 694.252 138.12C694.828 138.44 695.116 138.728 695.116 138.984C695.372 139.432 695.756 139.24 696.268 138.408C696.844 137.576 697.452 136.52 698.092 135.24C698.732 134.216 699.532 133.256 700.492 132.36C701.452 131.464 702.412 130.664 703.372 129.96C704.396 129.192 705.26 128.616 705.964 128.232C706.284 128.104 706.892 127.912 707.788 127.656C708.748 127.4 709.74 127.208 710.764 127.08C711.788 126.888 712.556 126.824 713.068 126.888C714.22 126.952 715.436 127.432 716.716 128.328C717.996 129.224 718.988 130.056 719.692 130.824C720.524 131.4 721.068 132.296 721.324 133.512C721.644 134.664 721.772 135.88 721.708 137.16C721.644 138.44 721.388 139.528 720.94 140.424C720.748 141.064 720.076 141.96 718.924 143.112C717.772 144.264 716.492 145.384 715.084 146.472C713.74 147.496 712.588 148.2 711.628 148.584C710.796 148.776 709.804 148.936 708.652 149.064C707.5 149.128 706.412 149.128 705.388 149.064C704.428 148.936 703.756 148.776 703.372 148.584C702.924 148.328 702.54 148.424 702.22 148.872C701.964 149.256 701.74 150.344 701.548 152.136C701.484 152.84 701.484 153.448 701.548 153.96C701.676 154.472 701.804 154.856 701.932 155.112C702.38 155.88 702.828 156.456 703.276 156.84C703.724 157.16 704.556 157.256 705.772 157.128C706.988 157 708.204 156.264 709.42 154.92C710.7 153.512 711.852 152.392 712.876 151.56C713.132 151.112 713.676 150.824 714.508 150.696C715.404 150.504 716.46 150.568 717.676 150.888C718.38 151.336 718.7 152.04 718.636 153C718.636 153.96 718.124 155.368 717.1 157.224C716.908 157.672 716.364 158.344 715.468 159.24C714.636 160.072 713.708 160.936 712.684 161.832C711.724 162.664 710.924 163.272 710.284 163.656C708.364 164.68 706.476 165.16 704.62 165.096C702.764 165.032 701.068 164.712 699.532 164.136ZM706.636 142.536C707.596 142.28 708.396 142.024 709.036 141.768C709.74 141.512 710.412 141.096 711.052 140.52C711.692 139.944 712.428 139.08 713.26 137.928C713.516 137.224 713.644 136.616 713.644 136.104C713.708 135.592 713.676 135.272 713.548 135.144C713.036 134.632 712.46 134.472 711.82 134.664C711.244 134.792 710.604 135.112 709.9 135.624C709.452 135.816 708.812 136.232 707.98 136.872C707.212 137.448 706.444 138.12 705.676 138.888C704.972 139.592 704.396 140.264 703.948 140.904C703.564 141.48 703.5 141.832 703.756 141.96C703.628 142.216 703.98 142.376 704.812 142.44C705.708 142.504 706.316 142.536 706.636 142.536Z" fill="#111827"/>
</svg>
