<svg width="80" height="80" viewBox="0 0 80 80" fill="none" xmlns="http://www.w3.org/2000/svg">
<path d="M74.5023 32.4433L66.0023 28.0562C65.8742 27.9903 65.7345 27.9502 65.5909 27.9382C65.4474 27.9263 65.3029 27.9427 65.1657 27.9866C65.0285 28.0305 64.9013 28.101 64.7914 28.1941C64.6814 28.2871 64.5909 28.4009 64.5249 28.5289C64.459 28.657 64.4189 28.7968 64.4069 28.9403C64.395 29.0839 64.4114 29.2283 64.4553 29.3655C64.4992 29.5027 64.5697 29.6299 64.6627 29.7399C64.7558 29.8498 64.8696 29.9403 64.9976 30.0063L71.9676 33.6037L40 58.3535L8.03229 33.6037L15.2765 29.8648C15.4045 29.7989 15.5183 29.7083 15.6114 29.5984C15.7044 29.4884 15.7749 29.3612 15.8188 29.224C15.8627 29.0869 15.8792 28.9424 15.8672 28.7988C15.8553 28.6553 15.8152 28.5155 15.7492 28.3875C15.6832 28.2594 15.5927 28.1456 15.4827 28.0526C15.3728 27.9595 15.2456 27.889 15.1084 27.8451C14.9712 27.8012 14.8267 27.7848 14.6832 27.7967C14.5397 27.8087 14.3999 27.8488 14.2718 27.9148L5.49765 32.4433C5.31858 32.5356 5.16838 32.6754 5.06352 32.8474C4.95866 33.0194 4.90319 33.2169 4.9032 33.4184V72.9022C4.9032 73.1931 5.01875 73.4721 5.22444 73.6778C5.43012 73.8834 5.70909 73.999 5.99997 73.999H74C74.2908 73.999 74.5698 73.8834 74.7755 73.6778C74.9812 73.4721 75.0967 73.1931 75.0967 72.9022V33.4184C75.0967 33.2169 75.0413 33.0194 74.9364 32.8474C74.8316 32.6754 74.6813 32.5356 74.5023 32.4433ZM49.4629 53.8019L72.9032 35.6547V70.7515L49.4629 53.8019ZM40 60.8377C40.243 60.8383 40.4793 60.7576 40.6712 60.6085L47.6554 55.2025L70.612 71.8055H9.38791L32.3445 55.2025L39.3287 60.6085C39.5207 60.7576 39.7569 60.8383 40 60.8377ZM7.09675 70.7547V35.658L30.537 53.8019L7.09675 70.7547Z" fill="#FA7223"/>
<path d="M18.0645 40C18.3554 40 18.6344 39.8844 18.8401 39.6788C19.0458 39.4731 19.1613 39.1941 19.1613 38.9032V8.19355H50.9678V15.871C50.9678 16.1618 51.0833 16.4408 51.289 16.6465C51.4947 16.8522 51.7737 16.9677 52.0645 16.9677H60.8387V38.9032C60.8387 39.1941 60.9543 39.4731 61.16 39.6788C61.3657 39.8844 61.6446 40 61.9355 40C62.2264 40 62.5054 39.8844 62.711 39.6788C62.9167 39.4731 63.0323 39.1941 63.0323 38.9032V15.871C63.0323 15.7162 62.9996 15.5632 62.9363 15.422C62.8729 15.2808 62.7804 15.1546 62.6649 15.0517L52.7939 6.27748C52.593 6.0987 52.3335 5.99995 52.0645 6H18.0645C17.7737 6 17.4947 6.11555 17.289 6.32124C17.0833 6.52692 16.9678 6.80589 16.9678 7.09677V38.9032C16.9678 39.1941 17.0833 39.4731 17.289 39.6788C17.4947 39.8844 17.7737 40 18.0645 40ZM53.1613 9.53929L59.051 14.7742H53.1613V9.53929Z" fill="#FA7223"/>
<path d="M40 16.9688C36.7461 16.9688 33.5654 17.9336 30.8599 19.7413C28.1545 21.5491 26.0458 24.1185 24.8007 27.1246C23.5555 30.1307 23.2297 33.4386 23.8645 36.6299C24.4992 39.8212 26.0661 42.7526 28.3669 45.0534C30.6677 47.3542 33.5991 48.9211 36.7904 49.5559C39.9817 50.1906 43.2896 49.8648 46.2957 48.6197C49.3019 47.3745 51.8712 45.2658 53.679 42.5604C55.4867 39.8549 56.4516 36.6742 56.4516 33.4204C56.4466 29.0586 54.7118 24.877 51.6275 21.7928C48.5433 18.7086 44.3617 16.9737 40 16.9688ZM40 47.6784C37.18 47.6784 34.4233 46.8422 32.0786 45.2755C29.7339 43.7088 27.9064 41.482 26.8272 38.8767C25.7481 36.2714 25.4657 33.4045 26.0159 30.6387C26.566 27.873 27.924 25.3324 29.918 23.3384C31.912 21.3444 34.4526 19.9864 37.2183 19.4363C39.9841 18.8861 42.851 19.1685 45.4563 20.2476C48.0616 21.3268 50.2884 23.1543 51.8551 25.499C53.4218 27.8437 54.258 30.6004 54.258 33.4204C54.2537 37.2005 52.7501 40.8246 50.0771 43.4975C47.4042 46.1705 43.7801 47.6741 40 47.6784Z" fill="#FA7223"/>
<path d="M47.6774 30.1297H46.5807V26.8393C46.5789 25.3855 46.0006 23.9916 44.9726 22.9636C43.9445 21.9355 42.5507 21.3572 41.0968 21.3555H38.9032C37.4494 21.3572 36.0555 21.9355 35.0275 22.9636C33.9994 23.9916 33.4211 25.3855 33.4194 26.8393V30.1297H32.3226C32.0317 30.1297 31.7528 30.2452 31.5471 30.4509C31.3414 30.6566 31.2258 30.9356 31.2258 31.2264V42.1942C31.2258 42.4851 31.3414 42.764 31.5471 42.9697C31.7528 43.1754 32.0317 43.2909 32.3226 43.2909H47.6774C47.9683 43.2909 48.2473 43.1754 48.453 42.9697C48.6587 42.764 48.7742 42.4851 48.7742 42.1942V31.2264C48.7742 30.9356 48.6587 30.6566 48.453 30.4509C48.2473 30.2452 47.9683 30.1297 47.6774 30.1297ZM35.6129 26.8393C35.6129 25.9667 35.9596 25.1298 36.5766 24.5127C37.1937 23.8957 38.0306 23.549 38.9032 23.549H41.0968C41.9694 23.549 42.8063 23.8957 43.4234 24.5127C44.0405 25.1298 44.3871 25.9667 44.3871 26.8393V30.1297H35.6129V26.8393ZM46.5807 41.0974H33.4194V32.3232H46.5807V41.0974Z" fill="#FA7223"/>
<path d="M41.0967 34.5156H38.9032C38.6123 34.5156 38.3333 34.6312 38.1276 34.8369C37.9219 35.0425 37.8064 35.3215 37.8064 35.6124C37.8064 35.9033 37.9219 36.1823 38.1276 36.3879C38.3333 36.5936 38.6123 36.7092 38.9032 36.7092V38.9027C38.9032 39.1936 39.0187 39.4726 39.2244 39.6783C39.4301 39.8839 39.7091 39.9995 39.9999 39.9995C40.2908 39.9995 40.5698 39.8839 40.7755 39.6783C40.9812 39.4726 41.0967 39.1936 41.0967 38.9027V36.7092C41.3876 36.7092 41.6666 36.5936 41.8723 36.3879C42.0779 36.1823 42.1935 35.9033 42.1935 35.6124C42.1935 35.3215 42.0779 35.0425 41.8723 34.8369C41.6666 34.6312 41.3876 34.5156 41.0967 34.5156Z" fill="#FA7223"/>
</svg>
