<svg width="40" height="40" viewBox="0 0 40 40" fill="none" xmlns="http://www.w3.org/2000/svg">
<rect width="40" height="40" rx="6" fill="#F37027"/>
<rect x="10.6348" y="8.55151" width="18.7854" height="23.2479" fill="white"/>
<path d="M20.8526 21.2032C21.953 20.9659 23.0241 20.6083 24.0466 20.137V22.1906C24.0466 23.7204 23.61 24.9231 22.737 25.7989C21.864 26.6747 20.6631 27.1119 19.1343 27.1105C18.2059 27.1105 17.4962 26.8922 17.005 26.4558C16.7562 26.1944 16.5628 25.8852 16.4366 25.5469C16.3103 25.2086 16.2538 24.8482 16.2704 24.4874C16.2823 23.8421 16.4821 23.2143 16.8453 22.6811C17.2712 22.2546 17.9909 21.8899 18.9746 21.6148L20.8526 21.2032Z" fill="#F37027"/>
<path d="M20.1541 5C18.1641 4.99972 16.1936 5.39205 14.355 6.15456C12.5165 6.91707 10.8459 8.03482 9.43866 9.44401C8.03145 10.8532 6.91517 12.5262 6.15358 14.3675C5.39199 16.2088 5 18.1823 5 20.1754C5.00113 24.2 6.59822 28.0593 9.44004 30.9047C12.2819 33.7502 16.1357 35.3486 20.1541 35.3486C22.1443 35.3489 24.1152 34.9565 25.954 34.1939C27.7928 33.4313 29.4636 32.3134 30.871 30.904C32.2785 29.4946 33.3949 27.8213 34.1566 25.9798C34.9183 24.1382 35.3103 22.1644 35.3103 20.1711C35.3086 16.1465 33.711 12.2874 30.8688 9.4424C28.0266 6.59738 24.1725 4.99943 20.1541 5ZM29.3696 22.4295C29.3696 24.6197 28.9715 26.3257 28.1794 27.5477C27.3873 28.7697 26.4483 29.676 25.3559 30.2305C24.2248 30.8243 22.9914 31.1977 21.7213 31.3309C20.59 31.4603 19.4529 31.5314 18.3144 31.5441C16.4676 31.5812 14.6581 31.0202 13.1552 29.9447C11.6831 28.8784 10.9464 27.1155 10.945 24.6559C10.945 22.3598 11.6136 20.7192 12.9507 19.7339C14.2879 18.7487 15.9914 18.0926 18.061 17.7656C18.393 17.7578 18.7233 17.7163 19.0469 17.6419C19.4793 17.5476 19.9164 17.4764 20.3564 17.4286C22.7568 17.1002 23.9577 16.3894 23.9591 15.2961C23.9591 14.475 23.5333 13.944 22.6816 13.6966C21.922 13.4642 21.1335 13.34 20.3394 13.3277C19.6426 13.3162 18.9493 13.4273 18.291 13.6561C17.9993 13.7592 17.732 13.9218 17.5063 14.1336C17.2805 14.3454 17.1011 14.6018 16.9793 14.8866H11.5156C11.7034 13.2456 12.5269 11.7439 13.8088 10.7046C15.2823 9.44641 17.3839 8.81731 20.1136 8.81731C23.1741 8.81731 25.4674 9.33624 26.9934 10.3741C28.5761 11.4702 29.3682 13.0014 29.3696 14.9677V22.4295Z" fill="#F37027"/>
</svg>
