<svg width="80" height="80" viewBox="0 0 80 80" fill="none" xmlns="http://www.w3.org/2000/svg">
<path d="M54.1687 20.4125C51.9386 18.4016 49.3045 16.8904 46.443 15.98C43.5814 15.0697 40.5584 14.7811 37.5763 15.1338C33.075 15.6478 28.8562 17.5878 25.536 20.6702C22.2159 23.7527 19.9685 27.8162 19.1222 32.2669C18.2759 36.7176 18.875 41.3223 20.8321 45.4083C22.7892 49.4943 26.0016 52.8473 30 54.9775V67.5C30.0007 68.1628 30.2643 68.7983 30.733 69.267C31.2017 69.7357 31.8372 69.9993 32.5 70H35V72.5C35.0007 73.1628 35.2643 73.7983 35.733 74.267C36.2017 74.7357 36.8372 74.9993 37.5 75H42.5C43.1628 74.9993 43.7983 74.7357 44.267 74.267C44.7357 73.7983 44.9993 73.1628 45 72.5V70H47.5C48.1628 69.9993 48.7983 69.7357 49.267 69.267C49.7357 68.7983 49.9993 68.1628 50 67.5V54.9788C53.017 53.3719 55.6014 51.0604 57.5334 48.2406C59.4655 45.4208 60.6882 42.1762 61.0974 38.7826C61.5067 35.389 61.0905 31.9468 59.8842 28.7485C58.6779 25.5502 56.7172 22.6905 54.1687 20.4125ZM47.5 60V62.5H32.5V60H47.5ZM42.5025 72.5H37.5V70H42.5L42.5025 72.5ZM43.75 67.5H32.5V65H47.5V67.5H43.75ZM48.2025 53.09C47.9918 53.1925 47.8141 53.3523 47.6899 53.551C47.5656 53.7497 47.4998 53.9794 47.5 54.2137V57.5H41.25V51.7675L44.6338 48.3838C44.8615 48.148 44.9874 47.8322 44.9846 47.5045C44.9817 47.1768 44.8503 46.8632 44.6185 46.6315C44.3868 46.3997 44.0732 46.2683 43.7455 46.2654C43.4178 46.2626 43.102 46.3885 42.8662 46.6162L40 49.4825L37.1338 46.6162C36.898 46.3885 36.5822 46.2626 36.2545 46.2654C35.9268 46.2683 35.6132 46.3997 35.3815 46.6315C35.1497 46.8632 35.0183 47.1768 35.0154 47.5045C35.0126 47.8322 35.1386 48.148 35.3662 48.3838L38.75 51.7675V57.5H32.5V54.2125C32.5 53.9785 32.4343 53.7492 32.3103 53.5507C32.1863 53.3522 32.0091 53.1926 31.7987 53.09C28.1501 51.3178 25.1751 48.4094 23.3207 44.8018C21.4663 41.1942 20.8326 37.0823 21.5149 33.0838C22.1972 29.0853 24.1586 25.4162 27.1044 22.6277C30.0502 19.8393 33.8214 18.082 37.8512 17.62C38.5735 17.5394 39.2996 17.4989 40.0262 17.4987C44.6333 17.4853 49.0802 19.188 52.5 22.275C54.7927 24.3242 56.5455 26.9064 57.6039 29.7935C58.6623 32.6806 58.9937 35.7839 58.5687 38.8294C58.1437 41.8748 56.9755 44.7689 55.1672 47.256C53.3589 49.743 50.9661 51.7467 48.2 53.09H48.2025ZM40 12.5C40.3315 12.5 40.6495 12.3683 40.8839 12.1339C41.1183 11.8995 41.25 11.5815 41.25 11.25V6.25C41.25 5.91848 41.1183 5.60054 40.8839 5.36612C40.6495 5.1317 40.3315 5 40 5C39.6685 5 39.3505 5.1317 39.1161 5.36612C38.8817 5.60054 38.75 5.91848 38.75 6.25V11.25C38.75 11.5815 38.8817 11.8995 39.1161 12.1339C39.3505 12.3683 39.6685 12.5 40 12.5ZM21.4375 19.4562C21.5536 19.5724 21.6914 19.6645 21.843 19.7274C21.9947 19.7903 22.1572 19.8227 22.3214 19.8228C22.4856 19.8228 22.6482 19.7905 22.7999 19.7278C22.9516 19.665 23.0895 19.5729 23.2056 19.4569C23.3218 19.3408 23.4139 19.203 23.4768 19.0514C23.5397 18.8997 23.5721 18.7371 23.5721 18.5729C23.5722 18.4088 23.5399 18.2462 23.4771 18.0945C23.4144 17.9427 23.3223 17.8049 23.2063 17.6888L19.67 14.1525C19.5547 14.0331 19.4168 13.9379 19.2643 13.8724C19.1118 13.8069 18.9477 13.7724 18.7818 13.7709C18.6158 13.7695 18.4512 13.8011 18.2976 13.864C18.1439 13.9268 18.0044 14.0196 17.887 14.137C17.7696 14.2544 17.6768 14.3939 17.614 14.5476C17.5511 14.7012 17.5195 14.8658 17.5209 15.0318C17.5224 15.1977 17.5569 15.3618 17.6224 15.5143C17.6879 15.6668 17.7831 15.8047 17.9025 15.92L21.4375 19.4562ZM15 35H10C9.66848 35 9.35054 35.1317 9.11612 35.3661C8.8817 35.6005 8.75 35.9185 8.75 36.25C8.75 36.5815 8.8817 36.8995 9.11612 37.1339C9.35054 37.3683 9.66848 37.5 10 37.5H15C15.3315 37.5 15.6495 37.3683 15.8839 37.1339C16.1183 36.8995 16.25 36.5815 16.25 36.25C16.25 35.9185 16.1183 35.6005 15.8839 35.3661C15.6495 35.1317 15.3315 35 15 35Z" fill="#FA7223"/>
<path d="M21.4375 53.0424L17.9025 56.5786C17.7831 56.694 17.6879 56.8319 17.6224 56.9844C17.5568 57.1369 17.5224 57.3009 17.5209 57.4669C17.5195 57.6329 17.5511 57.7975 17.614 57.9511C17.6768 58.1047 17.7696 58.2443 17.887 58.3616C18.0044 58.479 18.1439 58.5718 18.2975 58.6347C18.4512 58.6975 18.6158 58.7291 18.7817 58.7277C18.9477 58.7263 19.1117 58.6918 19.2642 58.6263C19.4167 58.5608 19.5547 58.4655 19.67 58.3461L23.2062 54.8099C23.4339 54.5741 23.5599 54.2584 23.5571 53.9306C23.5542 53.6029 23.4228 53.2894 23.191 53.0576C22.9592 52.8259 22.6457 52.6944 22.318 52.6916C21.9902 52.6887 21.6732 52.8147 21.4375 53.0424ZM60.33 14.1511L56.7937 17.6874C56.6743 17.8027 56.5791 17.9406 56.5136 18.0931C56.4481 18.2456 56.4136 18.4097 56.4122 18.5756C56.4107 18.7416 56.4424 18.9062 56.5052 19.0598C56.5681 19.2135 56.6609 19.353 56.7782 19.4704C56.8956 19.5878 57.0352 19.6806 57.1888 19.7434C57.3424 19.8063 57.507 19.8379 57.673 19.8365C57.839 19.835 58.003 19.8005 58.1555 19.735C58.308 19.6695 58.4459 19.5743 58.5612 19.4549L62.0975 15.9186C62.2169 15.8033 62.3121 15.6654 62.3776 15.5129C62.4431 15.3604 62.4776 15.1964 62.479 15.0304C62.4805 14.8644 62.4489 14.6998 62.386 14.5462C62.3232 14.3926 62.2303 14.253 62.113 14.1356C61.9956 14.0183 61.856 13.9255 61.7024 13.8626C61.5488 13.7998 61.3842 13.7681 61.2182 13.7696C61.0523 13.771 60.8882 13.8055 60.7357 13.871C60.5832 13.9365 60.4453 14.0318 60.33 14.1511ZM58.5625 53.0424C58.3281 52.8078 58.0101 52.676 57.6786 52.6759C57.347 52.6758 57.0289 52.8074 56.7944 53.0418C56.5598 53.2762 56.428 53.5941 56.4279 53.9257C56.4277 54.2573 56.5593 54.5753 56.7937 54.8099L60.33 58.3461C60.5657 58.5738 60.8815 58.6998 61.2092 58.697C61.537 58.6941 61.8505 58.5627 62.0823 58.3309C62.314 58.0992 62.4455 57.7856 62.4483 57.4579C62.4512 57.1301 62.3252 56.8144 62.0975 56.5786L58.5625 53.0424ZM70 34.9986H65C64.6685 34.9986 64.3505 35.1303 64.1161 35.3648C63.8817 35.5992 63.75 35.9171 63.75 36.2486C63.75 36.5802 63.8817 36.8981 64.1161 37.1325C64.3505 37.3669 64.6685 37.4986 65 37.4986H70C70.3315 37.4986 70.6494 37.3669 70.8839 37.1325C71.1183 36.8981 71.25 36.5802 71.25 36.2486C71.25 35.9171 71.1183 35.5992 70.8839 35.3648C70.6494 35.1303 70.3315 34.9986 70 34.9986Z" fill="#FA7223"/>
</svg>
