<svg width="651" height="98" viewBox="0 0 651 98" fill="none" xmlns="http://www.w3.org/2000/svg">
<path d="M532.376 80.2C540.992 81.0236 549.608 81.8801 558.226 82.5721C581.378 84.3841 605.257 89.0627 626.956 75.6864C634.846 70.8103 630.718 53.9415 622.647 54.2051C621.324 54.2382 620.025 54.3041 618.702 54.3371C620.078 48.4395 618.156 41.0267 613.017 39.2476C617.274 39.3464 621.53 39.4123 625.787 39.5112C636.792 39.8076 636.792 16.7779 625.787 16.4814C524.407 13.6809 423.027 15.7896 321.751 22.8072C312.667 23.4333 309.475 43.1351 319.467 45.4415C335.066 49.0327 350.665 52.3932 366.316 55.5561C364.577 57.3023 363.487 59.8391 363.071 62.5408C362.085 62.6395 361.125 62.7053 360.138 62.8041C349.315 63.9903 348.978 86.1964 360.138 85.8339C417.551 83.9561 474.963 82.078 532.401 80.2H532.376Z" fill="#31BF5C"/>
<path d="M31.5904 77.168C30.4384 76.528 29.7984 75.824 29.6704 75.056C29.6064 74.288 30.0544 72.944 31.0144 71.024C31.9744 69.104 33.4784 66.128 35.5264 62.096C37.0624 59.216 38.0864 56.976 38.5984 55.376C39.1744 53.712 39.4944 52.528 39.5584 51.824C39.6224 51.12 39.6544 50.672 39.6544 50.48C39.5264 49.904 39.5904 49.456 39.8464 49.136C40.1024 48.752 40.5184 48.432 41.0944 48.176C41.4144 47.856 42.1504 47.28 43.3024 46.448C44.4544 45.616 45.3504 44.624 45.9904 43.472C46.5664 42.128 47.2064 40.752 47.9104 39.344C48.6784 37.936 49.6704 36.176 50.8864 34.064C52.1024 31.888 53.7344 29.072 55.7824 25.616C57.0624 23.376 58.5664 20.848 60.2944 18.032C62.0864 15.216 63.8464 12.656 65.5744 10.352C66.2784 9.456 67.0144 8.752 67.7824 8.23999C68.5504 7.728 69.2224 7.472 69.7984 7.472C71.2064 7.472 72.6144 7.856 74.0224 8.62399C75.4304 9.328 76.6784 10.224 77.7664 11.312C78.8544 12.4 79.5904 13.424 79.9744 14.384C80.2944 14.896 80.4224 15.984 80.3584 17.648C80.2944 19.312 80.1664 21.328 79.9744 23.696C79.7824 26.064 79.5584 28.592 79.3024 31.28C79.1104 33.904 78.8224 37.008 78.4384 40.592C78.0544 44.176 77.6704 47.92 77.2864 51.824C76.9664 55.728 76.7104 59.504 76.5184 63.152C76.3264 66.736 76.3264 69.872 76.5184 72.56C76.5824 73.136 76.5824 73.68 76.5184 74.192C76.4544 74.704 76.4224 75.12 76.4224 75.44C76.0384 75.824 75.2064 75.984 73.9264 75.92C72.6464 75.92 71.3984 75.728 70.1824 75.344C68.9664 74.96 68.2944 74.48 68.1664 73.904C67.9744 73.712 67.8464 73.552 67.7824 73.424C67.7184 73.296 67.7184 72.688 67.7824 71.6C67.8464 70.448 67.9424 68.368 68.0704 65.36L68.5504 50.672L67.3024 50.768C66.7264 50.768 65.6704 50.832 64.1344 50.96C62.6624 51.088 61.0304 51.28 59.2384 51.536C57.5104 51.728 55.9104 51.952 54.4384 52.208C52.9664 52.4 51.9424 52.592 51.3664 52.784C50.7904 52.784 50.0864 53.168 49.2544 53.936C48.4864 54.704 47.7504 55.696 47.0464 56.912C46.7904 57.808 46.3104 58.768 45.6064 59.792C44.9664 60.752 44.6464 61.392 44.6464 61.712C44.1984 62.032 43.8144 62.416 43.4944 62.864C43.2384 63.312 43.1104 63.536 43.1104 63.536C43.1104 63.92 42.8224 64.88 42.2464 66.416C41.6704 67.888 40.9664 69.552 40.1344 71.408C39.3024 73.2 38.4384 74.768 37.5424 76.112L34.9504 79.76L31.5904 77.168ZM54.5344 44.144C54.5344 44.144 54.8864 44.08 55.5904 43.952C56.2944 43.824 57.1264 43.696 58.0864 43.568C59.1104 43.376 60.0064 43.28 60.7744 43.28C62.2464 42.896 63.4624 42.608 64.4224 42.416C65.4464 42.224 66.2784 42.128 66.9184 42.128C67.5584 42.064 68.0704 42.128 68.4544 42.32C68.7104 42.64 68.9344 42.832 69.1264 42.896C69.3824 42.96 69.5104 42.992 69.5104 42.992C69.5744 42.864 69.7024 42.192 69.8944 40.976C70.0864 39.76 70.3104 38.256 70.5664 36.464C70.8224 34.672 71.0784 32.816 71.3344 30.896C71.5904 28.912 71.8144 27.088 72.0064 25.424C72.1984 23.696 72.3264 22.352 72.3904 21.392C72.4544 20.176 72.4224 19.088 72.2944 18.128C72.1664 17.104 72.1024 16.592 72.1024 16.592C71.7184 16.592 70.9824 17.296 69.8944 18.704C68.8704 20.048 67.6544 21.872 66.2464 24.176C64.9024 26.416 63.5584 28.848 62.2144 31.472C61.5744 32.688 60.9664 33.648 60.3904 34.352C59.8784 35.056 59.4624 35.408 59.1424 35.408C59.0144 35.536 58.6624 36.048 58.0864 36.944C57.5744 37.776 56.9984 38.736 56.3584 39.824C55.7824 40.848 55.2704 41.808 54.8224 42.704C54.4384 43.536 54.3424 44.016 54.5344 44.144ZM95.9816 74.384C94.1256 74.704 92.2696 74.544 90.4136 73.904C88.6216 73.264 87.1176 72.24 85.9016 70.832C84.7496 69.36 84.1736 67.6 84.1736 65.552C83.9816 63.632 84.1416 61.36 84.6536 58.736C85.2296 56.048 86.0616 53.36 87.1496 50.672C88.3016 47.984 89.6136 45.712 91.0856 43.856C92.3656 42.32 93.6456 40.912 94.9256 39.632C96.2056 38.352 97.3576 37.488 98.3816 37.04C99.2776 36.656 100.366 36.368 101.646 36.176C102.99 35.92 103.918 35.792 104.43 35.792C105.454 36.048 106.574 36.464 107.79 37.04C109.07 37.616 109.71 38.288 109.71 39.056C109.71 39.056 109.774 39.152 109.902 39.344C110.094 39.472 110.19 39.536 110.19 39.536C110.574 39.536 110.99 40.016 111.438 40.976C111.95 41.872 112.334 42.928 112.59 44.144C112.846 45.296 112.782 46.224 112.398 46.928C112.142 48.144 111.63 49.328 110.862 50.48C110.158 51.632 109.55 52.208 109.038 52.208C108.782 52.208 108.526 52.24 108.27 52.304C108.078 52.304 107.982 52.464 107.982 52.784C107.982 53.104 107.63 53.264 106.926 53.264C106.286 53.264 105.614 53.136 104.91 52.88C104.206 52.624 103.758 52.24 103.566 51.728C103.566 51.408 103.63 50.992 103.758 50.48C103.886 49.968 104.078 49.104 104.334 47.888C104.718 46.096 104.75 44.912 104.43 44.336C104.11 43.696 103.31 43.632 102.03 44.144C100.43 45.04 99.1176 46.096 98.0936 47.312C97.0696 48.464 96.1416 50.096 95.3096 52.208C94.5416 54.32 93.6776 57.264 92.7176 61.04C92.3336 62.512 92.2696 63.664 92.5256 64.496C92.8456 65.328 93.1016 65.776 93.2936 65.84C94.1896 66.096 95.1496 66.16 96.1736 66.032C97.2616 65.84 98.1576 65.552 98.8616 65.168C99.8856 64.656 100.782 64.112 101.55 63.536C102.382 62.896 103.278 62.224 104.238 61.52C104.558 61.328 104.846 60.976 105.102 60.464C105.358 59.888 105.742 59.472 106.254 59.216C106.766 58.448 107.406 58.064 108.174 58.064C109.006 58 109.806 57.968 110.574 57.968C111.086 58.096 111.63 58.416 112.206 58.928C112.782 59.44 113.198 59.952 113.454 60.464C113.774 60.912 113.742 61.232 113.358 61.424C113.102 61.424 112.942 61.52 112.878 61.712C112.878 61.84 112.878 61.904 112.878 61.904C113.006 62.16 112.718 62.736 112.014 63.632C111.374 64.528 110.542 65.488 109.518 66.512C108.494 67.536 107.502 68.432 106.542 69.2C105.646 69.904 105.006 70.256 104.622 70.256C103.982 70.256 103.662 70.448 103.662 70.832C103.662 70.96 103.182 71.28 102.222 71.792C101.326 72.304 100.27 72.816 99.0536 73.328C97.9016 73.84 96.8776 74.192 95.9816 74.384ZM131.814 74.576C130.918 74.32 130.022 73.872 129.126 73.232C128.23 72.592 127.302 71.856 126.342 71.024C125.574 70 125.03 69.072 124.71 68.24C124.39 67.344 124.198 66.32 124.134 65.168C124.134 63.952 124.134 62.416 124.134 60.56C124.134 59.792 124.262 58.704 124.518 57.296C124.838 55.888 125.158 54.416 125.478 52.88C125.862 51.344 126.214 50 126.534 48.848C126.854 47.632 127.046 46.832 127.11 46.448C127.302 45.616 126.982 45.136 126.15 45.008C125.318 44.88 124.39 44.848 123.366 44.912C122.406 44.912 121.766 44.816 121.446 44.624C121.19 44.56 121.062 44.24 121.062 43.664C121.062 43.024 121.062 42.704 121.062 42.704C121.062 42.448 120.934 42.288 120.678 42.224C120.422 42.096 120.198 41.872 120.006 41.552C119.878 41.296 120.038 40.816 120.486 40.112C120.934 39.408 121.51 38.992 122.214 38.864C122.79 38.736 123.654 38.64 124.806 38.576C125.958 38.448 127.11 38.224 128.262 37.904C129.478 37.52 130.406 36.944 131.046 36.176C131.622 34.768 132.262 33.264 132.966 31.664C133.67 30 134.342 28.56 134.982 27.344C135.622 26.064 136.07 25.264 136.326 24.944C137.414 24.368 138.534 24.144 139.686 24.272C140.838 24.336 141.734 24.88 142.374 25.904C142.694 26.352 142.95 26.672 143.142 26.864C143.398 27.056 143.494 27.344 143.43 27.728C143.43 28.112 143.174 28.816 142.662 29.84C142.214 30.8 141.446 32.304 140.358 34.352C140.038 34.992 139.75 35.568 139.494 36.08C139.238 36.528 139.11 36.752 139.11 36.752C139.366 36.816 139.75 36.848 140.262 36.848C140.774 36.848 141.414 36.816 142.182 36.752C142.886 36.624 143.654 36.528 144.486 36.464C145.318 36.336 146.054 36.336 146.694 36.464C148.166 36.464 149.254 36.88 149.958 37.712C150.662 38.544 151.046 39.6 151.11 40.88C151.238 41.584 150.982 42.192 150.342 42.704C149.702 43.216 148.518 43.472 146.79 43.472C146.214 43.472 145.382 43.504 144.294 43.568C143.206 43.632 142.086 43.696 140.934 43.76C139.782 43.824 138.79 43.92 137.958 44.048C137.19 44.112 136.806 44.208 136.806 44.336C136.614 44.464 136.294 44.976 135.846 45.872C135.462 46.704 135.046 47.728 134.598 48.944C134.214 50.16 133.862 51.312 133.542 52.4C133.094 54.576 132.774 56.688 132.582 58.736C132.39 60.784 132.358 62.576 132.486 64.112C132.678 65.584 133.062 66.64 133.638 67.28C134.214 67.856 135.078 67.856 136.23 67.28C137.446 66.64 138.566 65.904 139.59 65.072C140.742 64.112 141.734 63.824 142.566 64.208C143.398 64.528 143.91 65.232 144.102 66.32C144.358 67.344 144.07 68.464 143.238 69.68C142.47 70.896 141.382 71.92 139.974 72.752C138.566 73.584 137.126 74.16 135.654 74.48C134.182 74.864 132.902 74.896 131.814 74.576ZM151.404 72.368C150.892 71.856 150.508 71.088 150.252 70.064C150.06 69.04 149.996 68.048 150.06 67.088C150.124 66.064 150.284 65.296 150.54 64.784C150.54 64.272 150.604 63.888 150.732 63.632C150.924 63.312 150.988 63.024 150.924 62.768C150.86 62.512 150.924 62.064 151.116 61.424C151.308 60.784 151.5 60.176 151.692 59.6C152.14 58.576 152.652 57.264 153.228 55.664C153.804 54 154.38 52.336 154.956 50.672C155.532 48.944 156.012 47.472 156.396 46.256C156.78 44.976 157.004 44.208 157.068 43.952C157.068 43.184 157.58 42.768 158.604 42.704C159.372 42.448 160.3 42.768 161.388 43.664C162.476 44.56 163.34 45.52 163.98 46.544C164.492 47.056 164.684 47.728 164.556 48.56C164.428 49.392 164.012 50.576 163.308 52.112C163.052 52.624 162.732 53.488 162.348 54.704C162.028 55.856 161.804 56.816 161.676 57.584C161.42 58.096 161.1 58.832 160.716 59.792C160.396 60.688 160.108 61.552 159.852 62.384C159.724 62.704 159.596 63.312 159.468 64.208C159.34 65.04 159.18 65.904 158.988 66.8C158.796 67.696 158.54 68.4 158.22 68.912C157.644 71.536 156.62 73.072 155.148 73.52C153.74 73.968 152.492 73.584 151.404 72.368ZM161.772 33.872C161.068 33.36 160.524 32.752 160.14 32.048C159.82 31.28 159.628 30.608 159.564 30.032C159.564 29.456 159.628 29.104 159.756 28.976C160.396 28.272 160.94 27.344 161.388 26.192C161.9 25.04 162.444 23.984 163.02 23.024C163.148 22.832 163.308 22.576 163.5 22.256C163.756 21.872 164.012 21.648 164.268 21.584C165.036 21.072 166.092 21.104 167.436 21.68C168.844 22.256 169.868 23.056 170.508 24.08C171.084 25.296 171.244 26.544 170.988 27.824C170.796 29.104 170.124 30.448 168.972 31.856C168.012 33.136 166.796 33.968 165.324 34.352C163.852 34.672 162.668 34.512 161.772 33.872ZM165.831 97.328C165.383 97.136 164.679 96.656 163.719 95.888C162.823 95.12 161.991 94.288 161.223 93.392C160.519 92.56 160.167 91.952 160.167 91.568C160.167 91.184 160.327 90.16 160.647 88.496C160.967 86.896 161.383 84.912 161.895 82.544C162.471 80.24 163.079 77.872 163.719 75.44C164.423 73.072 165.127 70.96 165.831 69.104C165.959 68.784 166.375 67.728 167.079 65.936C167.847 64.08 168.583 61.84 169.287 59.216C169.799 57.552 170.471 55.664 171.303 53.552C172.135 51.44 172.999 49.328 173.895 47.216C174.791 45.04 175.527 43.12 176.103 41.456C176.679 39.792 177.319 38.128 178.023 36.464C178.727 34.736 179.111 33.744 179.175 33.488C179.303 33.104 179.655 32.784 180.231 32.528C180.871 32.208 181.511 31.952 182.151 31.76C182.791 31.504 183.207 31.344 183.399 31.28C184.551 30.96 185.543 31.44 186.375 32.72C186.695 33.296 186.759 34.096 186.567 35.12C186.439 36.08 186.119 37.136 185.607 38.288L184.935 40.208L188.391 39.44C188.967 39.44 189.767 39.472 190.791 39.536C191.815 39.6 192.807 39.664 193.767 39.728C194.791 39.792 195.495 39.888 195.879 40.016C197.415 40.08 198.471 40.368 199.047 40.88C199.687 41.392 200.231 42.064 200.679 42.896C200.999 43.216 201.383 43.664 201.831 44.24C202.279 44.752 202.535 45.264 202.599 45.776C202.855 46.864 202.759 48.144 202.311 49.616C201.927 51.088 201.319 52.592 200.487 54.128C199.719 55.6 198.791 56.976 197.703 58.256C196.679 59.472 195.687 60.4 194.727 61.04C194.087 61.296 193.511 61.584 192.999 61.904C192.487 62.16 192.231 62.288 192.231 62.288C192.167 62.608 191.495 63.152 190.215 63.92C188.999 64.688 187.559 65.424 185.895 66.128C184.295 66.768 182.855 67.184 181.575 67.376C181.127 67.44 180.487 67.504 179.655 67.568C178.823 67.632 178.183 67.536 177.735 67.28C177.031 67.152 176.551 67.088 176.295 67.088C176.039 67.088 175.911 67.216 175.911 67.472C175.847 67.6 175.399 68.624 174.567 70.544C173.735 72.464 172.871 75.12 171.975 78.512C170.759 82.224 169.767 85.264 168.999 87.632C168.231 90.064 167.623 91.952 167.175 93.296C166.791 94.64 166.503 95.6 166.311 96.176C166.119 96.816 165.959 97.2 165.831 97.328ZM178.215 59.024C178.407 59.408 179.079 59.536 180.231 59.408C181.383 59.216 182.695 58.832 184.167 58.256C185.639 57.68 186.951 57.008 188.103 56.24C189.319 55.408 190.023 54.544 190.215 53.648C191.623 52.048 192.615 50.896 193.191 50.192C193.767 49.424 193.735 48.816 193.095 48.368C192.391 47.344 191.367 46.864 190.023 46.928C188.743 46.992 186.695 47.792 183.879 49.328C182.791 49.712 182.055 50.064 181.671 50.384C181.287 50.64 180.967 51.056 180.711 51.632C180.519 52.208 180.135 53.136 179.559 54.416C178.983 55.824 178.599 56.88 178.407 57.584C178.215 58.288 178.151 58.768 178.215 59.024ZM214.785 72.656C214.273 72.784 213.601 72.848 212.769 72.848C211.937 72.784 211.201 72.688 210.561 72.56C209.985 72.368 209.697 72.176 209.697 71.984C209.697 71.664 209.537 71.504 209.217 71.504C209.217 71.504 208.865 71.248 208.161 70.736C207.457 70.16 206.817 69.744 206.241 69.488C205.665 68.592 205.281 67.568 205.089 66.416C204.961 65.2 205.345 63.088 206.241 60.08C206.305 58.032 206.881 55.888 207.969 53.648C209.057 51.344 210.433 49.104 212.097 46.928C213.761 44.752 215.489 42.832 217.281 41.168C219.073 39.44 220.673 38.16 222.081 37.328C222.977 36.432 224.161 35.952 225.633 35.888C227.169 35.824 228.513 36.112 229.665 36.752C230.305 37.072 231.009 37.712 231.777 38.672C232.545 39.632 233.281 40.656 233.985 41.744C234.689 42.768 235.233 43.696 235.617 44.528C235.809 45.232 235.969 45.872 236.097 46.448C236.289 46.96 236.417 47.6 236.481 48.368C236.545 49.136 236.481 50.288 236.289 51.824C235.969 52.976 235.681 54.16 235.425 55.376C235.233 56.528 235.137 57.712 235.137 58.928C235.009 60.144 235.137 61.008 235.521 61.52C235.969 62.032 236.609 62.064 237.441 61.616C238.209 61.232 239.009 61.2 239.841 61.52C240.673 61.776 241.249 62.288 241.569 63.056C241.953 63.76 241.857 64.688 241.281 65.84C240.897 66.672 240.289 67.472 239.457 68.24C238.625 69.008 237.697 69.648 236.673 70.16C235.649 70.608 234.657 70.832 233.697 70.832C232.993 70.832 232.289 70.576 231.585 70.064C230.881 69.488 230.241 68.72 229.665 67.76C229.089 66.8 228.609 65.744 228.225 64.592L227.649 62.384L224.193 65.552C223.361 66.448 222.529 67.28 221.697 68.048C220.929 68.752 220.449 69.264 220.257 69.584C219.937 70.16 219.297 70.672 218.337 71.12C217.441 71.568 216.257 72.08 214.785 72.656ZM217.377 63.44C218.465 62.8 219.393 62.032 220.161 61.136C220.993 60.24 221.793 59.248 222.561 58.16C223.329 57.008 224.161 55.792 225.057 54.512C226.145 53.04 226.913 51.856 227.361 50.96C227.873 50.064 228.257 49.104 228.513 48.08C228.257 47.376 227.905 46.64 227.457 45.872C227.009 45.04 226.561 44.592 226.113 44.528C225.217 44.528 224.129 45.072 222.849 46.16C221.633 47.248 220.289 48.816 218.817 50.864C218.561 51.184 218.241 51.696 217.857 52.4C217.473 53.104 217.089 53.776 216.705 54.416C216.385 54.992 216.161 55.376 216.033 55.568C215.841 55.824 215.553 56.432 215.169 57.392C214.849 58.288 214.561 59.216 214.305 60.176C214.049 61.072 213.921 61.712 213.921 62.096C213.921 62.48 213.953 62.896 214.017 63.344C214.145 63.792 214.465 64.08 214.977 64.208C215.489 64.336 216.289 64.08 217.377 63.44ZM257.232 74.384C255.376 74.704 253.52 74.544 251.664 73.904C249.872 73.264 248.368 72.24 247.152 70.832C246 69.36 245.424 67.6 245.424 65.552C245.232 63.632 245.392 61.36 245.904 58.736C246.48 56.048 247.312 53.36 248.4 50.672C249.552 47.984 250.864 45.712 252.336 43.856C253.616 42.32 254.896 40.912 256.176 39.632C257.456 38.352 258.608 37.488 259.632 37.04C260.528 36.656 261.616 36.368 262.896 36.176C264.24 35.92 265.168 35.792 265.68 35.792C266.704 36.048 267.824 36.464 269.04 37.04C270.32 37.616 270.96 38.288 270.96 39.056C270.96 39.056 271.024 39.152 271.152 39.344C271.344 39.472 271.44 39.536 271.44 39.536C271.824 39.536 272.24 40.016 272.688 40.976C273.2 41.872 273.584 42.928 273.84 44.144C274.096 45.296 274.032 46.224 273.648 46.928C273.392 48.144 272.88 49.328 272.112 50.48C271.408 51.632 270.8 52.208 270.288 52.208C270.032 52.208 269.776 52.24 269.52 52.304C269.328 52.304 269.232 52.464 269.232 52.784C269.232 53.104 268.88 53.264 268.176 53.264C267.536 53.264 266.864 53.136 266.16 52.88C265.456 52.624 265.008 52.24 264.816 51.728C264.816 51.408 264.88 50.992 265.008 50.48C265.136 49.968 265.328 49.104 265.584 47.888C265.968 46.096 266 44.912 265.68 44.336C265.36 43.696 264.56 43.632 263.28 44.144C261.68 45.04 260.368 46.096 259.344 47.312C258.32 48.464 257.392 50.096 256.56 52.208C255.792 54.32 254.928 57.264 253.968 61.04C253.584 62.512 253.52 63.664 253.776 64.496C254.096 65.328 254.352 65.776 254.544 65.84C255.44 66.096 256.4 66.16 257.424 66.032C258.512 65.84 259.408 65.552 260.112 65.168C261.136 64.656 262.032 64.112 262.8 63.536C263.632 62.896 264.528 62.224 265.488 61.52C265.808 61.328 266.096 60.976 266.352 60.464C266.608 59.888 266.992 59.472 267.504 59.216C268.016 58.448 268.656 58.064 269.424 58.064C270.256 58 271.056 57.968 271.824 57.968C272.336 58.096 272.88 58.416 273.456 58.928C274.032 59.44 274.448 59.952 274.704 60.464C275.024 60.912 274.992 61.232 274.608 61.424C274.352 61.424 274.192 61.52 274.128 61.712C274.128 61.84 274.128 61.904 274.128 61.904C274.256 62.16 273.968 62.736 273.264 63.632C272.624 64.528 271.792 65.488 270.768 66.512C269.744 67.536 268.752 68.432 267.792 69.2C266.896 69.904 266.256 70.256 265.872 70.256C265.232 70.256 264.912 70.448 264.912 70.832C264.912 70.96 264.432 71.28 263.472 71.792C262.576 72.304 261.52 72.816 260.304 73.328C259.152 73.84 258.128 74.192 257.232 74.384ZM287.016 73.136C284.52 72.112 282.792 70.448 281.832 68.144C280.872 65.84 280.616 62.768 281.064 58.928C281.192 56.944 281.128 55.632 280.872 54.992C280.616 54.288 280.136 53.616 279.432 52.976C279.24 52.72 278.792 52.304 278.088 51.728C277.384 51.088 277.064 50.608 277.128 50.288C277.064 49.84 277.16 49.296 277.416 48.656C277.672 47.952 277.896 47.568 278.088 47.504C278.536 47.312 278.984 47.088 279.432 46.832C279.944 46.576 280.328 46.512 280.584 46.64C280.84 46.64 281.224 46.8 281.736 47.12C282.312 47.44 282.6 47.728 282.6 47.984C282.856 48.432 283.24 48.24 283.752 47.408C284.328 46.576 284.936 45.52 285.576 44.24C286.216 43.216 287.016 42.256 287.976 41.36C288.936 40.464 289.896 39.664 290.856 38.96C291.88 38.192 292.744 37.616 293.448 37.232C293.768 37.104 294.376 36.912 295.272 36.656C296.232 36.4 297.224 36.208 298.248 36.08C299.272 35.888 300.04 35.824 300.552 35.888C301.704 35.952 302.92 36.432 304.2 37.328C305.48 38.224 306.472 39.056 307.176 39.824C308.008 40.4 308.552 41.296 308.808 42.512C309.128 43.664 309.256 44.88 309.192 46.16C309.128 47.44 308.872 48.528 308.424 49.424C308.232 50.064 307.56 50.96 306.408 52.112C305.256 53.264 303.976 54.384 302.568 55.472C301.224 56.496 300.072 57.2 299.112 57.584C298.28 57.776 297.288 57.936 296.136 58.064C294.984 58.128 293.896 58.128 292.872 58.064C291.912 57.936 291.24 57.776 290.856 57.584C290.408 57.328 290.024 57.424 289.704 57.872C289.448 58.256 289.224 59.344 289.032 61.136C288.968 61.84 288.968 62.448 289.032 62.96C289.16 63.472 289.288 63.856 289.416 64.112C289.864 64.88 290.312 65.456 290.76 65.84C291.208 66.16 292.04 66.256 293.256 66.128C294.472 66 295.688 65.264 296.904 63.92C298.184 62.512 299.336 61.392 300.36 60.56C300.616 60.112 301.16 59.824 301.992 59.696C302.888 59.504 303.944 59.568 305.16 59.888C305.864 60.336 306.184 61.04 306.12 62C306.12 62.96 305.608 64.368 304.584 66.224C304.392 66.672 303.848 67.344 302.952 68.24C302.12 69.072 301.192 69.936 300.168 70.832C299.208 71.664 298.408 72.272 297.768 72.656C295.848 73.68 293.96 74.16 292.104 74.096C290.248 74.032 288.552 73.712 287.016 73.136ZM294.12 51.536C295.08 51.28 295.88 51.024 296.52 50.768C297.224 50.512 297.896 50.096 298.536 49.52C299.176 48.944 299.912 48.08 300.744 46.928C301 46.224 301.128 45.616 301.128 45.104C301.192 44.592 301.16 44.272 301.032 44.144C300.52 43.632 299.944 43.472 299.304 43.664C298.728 43.792 298.088 44.112 297.384 44.624C296.936 44.816 296.296 45.232 295.464 45.872C294.696 46.448 293.928 47.12 293.16 47.888C292.456 48.592 291.88 49.264 291.432 49.904C291.048 50.48 290.984 50.832 291.24 50.96C291.112 51.216 291.464 51.376 292.296 51.44C293.192 51.504 293.8 51.536 294.12 51.536ZM332.153 77.168C331.001 76.528 330.361 75.824 330.233 75.056C330.169 74.288 330.617 72.944 331.577 71.024C332.537 69.104 334.041 66.128 336.089 62.096C337.625 59.216 338.649 56.976 339.161 55.376C339.737 53.712 340.057 52.528 340.121 51.824C340.185 51.12 340.217 50.672 340.217 50.48C340.089 49.904 340.153 49.456 340.409 49.136C340.665 48.752 341.081 48.432 341.657 48.176C341.977 47.856 342.713 47.28 343.865 46.448C345.017 45.616 345.913 44.624 346.553 43.472C347.129 42.128 347.769 40.752 348.473 39.344C349.241 37.936 350.233 36.176 351.449 34.064C352.665 31.888 354.297 29.072 356.345 25.616C357.625 23.376 359.129 20.848 360.857 18.032C362.649 15.216 364.409 12.656 366.137 10.352C366.841 9.456 367.577 8.752 368.345 8.23999C369.113 7.728 369.785 7.472 370.361 7.472C371.769 7.472 373.177 7.856 374.585 8.62399C375.993 9.328 377.241 10.224 378.329 11.312C379.417 12.4 380.153 13.424 380.537 14.384C380.857 14.896 380.985 15.984 380.921 17.648C380.857 19.312 380.729 21.328 380.537 23.696C380.345 26.064 380.121 28.592 379.865 31.28C379.673 33.904 379.385 37.008 379.001 40.592C378.617 44.176 378.233 47.92 377.849 51.824C377.529 55.728 377.273 59.504 377.081 63.152C376.889 66.736 376.889 69.872 377.081 72.56C377.145 73.136 377.145 73.68 377.081 74.192C377.017 74.704 376.985 75.12 376.985 75.44C376.601 75.824 375.769 75.984 374.489 75.92C373.209 75.92 371.961 75.728 370.745 75.344C369.529 74.96 368.857 74.48 368.729 73.904C368.537 73.712 368.409 73.552 368.345 73.424C368.281 73.296 368.281 72.688 368.345 71.6C368.409 70.448 368.505 68.368 368.633 65.36L369.113 50.672L367.865 50.768C367.289 50.768 366.233 50.832 364.697 50.96C363.225 51.088 361.593 51.28 359.801 51.536C358.073 51.728 356.473 51.952 355.001 52.208C353.529 52.4 352.505 52.592 351.929 52.784C351.353 52.784 350.649 53.168 349.817 53.936C349.049 54.704 348.313 55.696 347.609 56.912C347.353 57.808 346.873 58.768 346.169 59.792C345.529 60.752 345.209 61.392 345.209 61.712C344.761 62.032 344.377 62.416 344.057 62.864C343.801 63.312 343.673 63.536 343.673 63.536C343.673 63.92 343.385 64.88 342.809 66.416C342.233 67.888 341.529 69.552 340.697 71.408C339.865 73.2 339.001 74.768 338.105 76.112L335.513 79.76L332.153 77.168ZM355.097 44.144C355.097 44.144 355.449 44.08 356.153 43.952C356.857 43.824 357.689 43.696 358.649 43.568C359.673 43.376 360.569 43.28 361.337 43.28C362.809 42.896 364.025 42.608 364.985 42.416C366.009 42.224 366.841 42.128 367.481 42.128C368.121 42.064 368.633 42.128 369.017 42.32C369.273 42.64 369.497 42.832 369.689 42.896C369.945 42.96 370.073 42.992 370.073 42.992C370.137 42.864 370.265 42.192 370.457 40.976C370.649 39.76 370.873 38.256 371.129 36.464C371.385 34.672 371.641 32.816 371.897 30.896C372.153 28.912 372.377 27.088 372.569 25.424C372.761 23.696 372.889 22.352 372.953 21.392C373.017 20.176 372.985 19.088 372.857 18.128C372.729 17.104 372.665 16.592 372.665 16.592C372.281 16.592 371.545 17.296 370.457 18.704C369.433 20.048 368.217 21.872 366.809 24.176C365.465 26.416 364.121 28.848 362.777 31.472C362.137 32.688 361.529 33.648 360.953 34.352C360.441 35.056 360.025 35.408 359.705 35.408C359.577 35.536 359.225 36.048 358.649 36.944C358.137 37.776 357.561 38.736 356.921 39.824C356.345 40.848 355.833 41.808 355.385 42.704C355.001 43.536 354.905 44.016 355.097 44.144ZM415.552 73.616C414.592 73.616 413.664 73.328 412.768 72.752C411.872 72.112 411.136 71.248 410.56 70.16C409.984 69.008 409.696 67.664 409.696 66.128C409.696 65.168 409.856 63.824 410.176 62.096C410.56 60.304 411.104 58.064 411.808 55.376C411.936 54.48 412.032 53.904 412.096 53.648C412.224 53.392 412.288 53.136 412.288 52.88C412.288 52.752 412.256 52.656 412.192 52.592C412.192 52.464 412.128 52.4 412 52.4C411.488 52.4 410.784 52.752 409.888 53.456C409.056 54.096 408.096 54.864 407.008 55.76C406.816 55.888 406.592 56.048 406.336 56.24C406.144 56.432 405.92 56.624 405.664 56.816C405.472 57.008 405.248 57.2 404.992 57.392C404.352 57.776 403.36 58.512 402.016 59.6C400.736 60.688 399.392 61.84 397.984 63.056C396.64 64.272 395.456 65.296 394.432 66.128C393.92 66.512 393.472 66.832 393.088 67.088C392.768 67.344 392.544 67.472 392.416 67.472C392.288 67.472 391.776 67.312 390.88 66.992C390.048 66.608 389.216 66.096 388.384 65.456C387.616 64.752 387.232 63.952 387.232 63.056C387.232 62.48 387.456 61.328 387.904 59.6C388.416 57.872 389.12 55.824 390.016 53.456C390.912 51.088 391.936 48.688 393.088 46.256C393.344 45.68 393.536 44.912 393.664 43.952C393.792 42.992 393.92 42.064 394.048 41.168C394.24 40.208 394.56 39.504 395.008 39.056C395.2 38.736 395.424 38.512 395.68 38.384C396 38.192 396.32 38.096 396.64 38.096C397.28 38.096 397.888 38.256 398.464 38.576C399.04 38.832 399.584 39.28 400.096 39.92C401.056 40.944 401.568 42.16 401.632 43.568C401.76 44.912 401.664 46.224 401.344 47.504C401.024 48.784 400.672 49.84 400.288 50.672C399.904 51.44 399.712 51.76 399.712 51.632C399.968 51.504 400.32 51.184 400.768 50.672C401.28 50.16 402.144 49.552 403.36 48.848C405.024 47.568 406.304 46.672 407.2 46.16C408.096 45.584 408.768 45.168 409.216 44.912C409.728 44.656 410.176 44.368 410.56 44.048C410.88 43.792 411.104 43.632 411.232 43.568C411.424 43.504 411.52 43.472 411.52 43.472C411.712 43.472 412.032 43.344 412.48 43.088C412.992 42.832 413.472 42.704 413.92 42.704C414.56 42.704 415.232 42.864 415.936 43.184C416.64 43.44 417.248 43.824 417.76 44.336C418.272 44.784 418.528 45.264 418.528 45.776C418.528 45.968 418.592 46.128 418.72 46.256C418.848 46.384 418.976 46.544 419.104 46.736C419.424 47.12 419.776 47.664 420.16 48.368C420.608 49.008 420.832 50.064 420.832 51.536C420.832 52.56 420.608 54.064 420.16 56.048C419.712 58.032 419.232 59.984 418.72 61.904C418.208 63.888 417.952 65.488 417.952 66.704C418.016 67.856 418.144 68.752 418.336 69.392C418.528 69.968 418.624 70.448 418.624 70.832C418.624 71.344 418.368 71.952 417.856 72.656C417.344 73.296 416.576 73.616 415.552 73.616ZM437.919 79.76C434.783 79.696 432.767 78.8 431.871 77.072C431.039 75.408 430.815 73.296 431.199 70.736C431.583 69.52 431.807 68.432 431.871 67.472C431.999 66.448 432.287 65.808 432.735 65.552C432.735 65.552 432.767 65.456 432.831 65.264C432.959 65.072 432.927 64.88 432.735 64.688C432.735 63.856 433.023 62.704 433.599 61.232C433.727 60.848 433.887 60.4 434.079 59.888C434.335 59.312 434.463 59.024 434.463 59.024C434.143 58.512 434.143 58.096 434.463 57.776C434.783 57.456 435.103 57.168 435.423 56.912C435.807 56.592 435.839 56.24 435.519 55.856C435.391 55.6 435.551 55.024 435.999 54.128C436.447 53.168 436.959 52.176 437.535 51.152C438.111 50.128 438.495 49.328 438.687 48.752C438.687 48.624 438.847 48.176 439.167 47.408C439.487 46.64 439.871 45.744 440.319 44.72C440.767 43.696 441.183 42.768 441.567 41.936C442.015 41.104 442.303 40.56 442.431 40.304C443.071 39.984 442.815 39.76 441.663 39.632C440.511 39.504 439.295 39.472 438.015 39.536C436.031 39.472 434.431 39.376 433.215 39.248C432.063 39.12 431.103 38.832 430.335 38.384C429.567 37.488 429.471 36.432 430.047 35.216C430.623 33.936 431.551 33.264 432.831 33.2C433.663 33.136 434.303 33.104 434.751 33.104C435.263 33.104 435.903 33.072 436.671 33.008C437.503 32.88 438.783 32.72 440.511 32.528L445.407 32.144L445.695 30.512C446.207 29.68 446.559 29.136 446.751 28.88C446.943 28.624 447.071 28.368 447.135 28.112C447.199 27.792 447.295 27.248 447.423 26.48C447.423 26.48 447.711 25.968 448.287 24.944C448.863 23.856 449.215 22.736 449.343 21.584C450.111 20.304 450.783 19.152 451.359 18.128C451.935 17.04 452.287 16.368 452.415 16.112C453.503 14.512 454.559 13.648 455.583 13.52C456.671 13.392 457.695 13.648 458.655 14.288C459.231 14.608 459.775 15.024 460.287 15.536C460.799 15.984 461.119 16.592 461.247 17.36C461.375 18.064 461.087 18.992 460.383 20.144C460.255 20.4 460.063 20.88 459.807 21.584C459.551 22.224 459.359 22.768 459.231 23.216C458.847 23.664 458.367 24.4 457.791 25.424C457.279 26.384 456.927 27.376 456.735 28.4C456.223 29.488 455.903 30.16 455.775 30.416C455.647 30.672 455.455 30.8 455.199 30.8C455.327 31.44 455.711 31.76 456.351 31.76C456.991 31.696 458.047 31.632 459.519 31.568C460.735 31.44 461.567 31.312 462.015 31.184C462.527 30.992 463.103 31.056 463.743 31.376C464.063 31.824 464.223 32.496 464.223 33.392C464.287 34.224 464.191 35.056 463.935 35.888C463.679 36.656 463.327 37.136 462.879 37.328C462.559 37.328 461.887 37.52 460.863 37.904C459.903 38.224 458.687 38.416 457.215 38.48L452.127 38.96L450.495 42.224C450.047 43.056 449.663 43.824 449.343 44.528C449.023 45.168 448.799 45.552 448.671 45.68C448.671 46.064 448.447 46.64 447.999 47.408C447.615 48.176 447.199 49.008 446.751 49.904C446.367 50.992 445.919 51.984 445.407 52.88C444.959 53.776 444.735 54.224 444.735 54.224C444.479 54.224 444.351 54.416 444.351 54.8C444.671 55.568 444.575 56.144 444.063 56.528C443.743 56.72 443.455 57.008 443.199 57.392C443.007 57.712 442.911 57.872 442.911 57.872C443.167 58.128 443.199 58.448 443.007 58.832C442.879 59.216 442.687 59.632 442.431 60.08C442.431 60.592 442.271 61.328 441.951 62.288C441.695 63.248 441.407 64.144 441.087 64.976C441.151 66.128 441.215 66.864 441.279 67.184C441.343 67.504 441.503 67.632 441.759 67.568C442.079 67.632 442.527 67.632 443.103 67.568C443.679 67.504 444.095 67.472 444.351 67.472C445.311 67.024 444.863 69.264 443.007 74.192C441.983 75.792 440.959 77.104 439.935 78.128C438.911 79.216 438.239 79.76 437.919 79.76ZM461.06 72.368C460.548 71.856 460.164 71.088 459.908 70.064C459.716 69.04 459.652 68.048 459.716 67.088C459.78 66.064 459.94 65.296 460.196 64.784C460.196 64.272 460.26 63.888 460.388 63.632C460.58 63.312 460.644 63.024 460.58 62.768C460.516 62.512 460.58 62.064 460.772 61.424C460.964 60.784 461.156 60.176 461.348 59.6C461.796 58.576 462.308 57.264 462.884 55.664C463.46 54 464.036 52.336 464.612 50.672C465.188 48.944 465.668 47.472 466.052 46.256C466.436 44.976 466.66 44.208 466.724 43.952C466.724 43.184 467.236 42.768 468.26 42.704C469.028 42.448 469.956 42.768 471.044 43.664C472.132 44.56 472.996 45.52 473.636 46.544C474.148 47.056 474.34 47.728 474.212 48.56C474.084 49.392 473.668 50.576 472.964 52.112C472.708 52.624 472.388 53.488 472.004 54.704C471.684 55.856 471.46 56.816 471.332 57.584C471.076 58.096 470.756 58.832 470.372 59.792C470.052 60.688 469.764 61.552 469.508 62.384C469.38 62.704 469.252 63.312 469.124 64.208C468.996 65.04 468.836 65.904 468.644 66.8C468.452 67.696 468.196 68.4 467.876 68.912C467.3 71.536 466.276 73.072 464.804 73.52C463.396 73.968 462.148 73.584 461.06 72.368ZM471.428 33.872C470.724 33.36 470.18 32.752 469.796 32.048C469.476 31.28 469.284 30.608 469.22 30.032C469.22 29.456 469.284 29.104 469.412 28.976C470.052 28.272 470.596 27.344 471.044 26.192C471.556 25.04 472.1 23.984 472.676 23.024C472.804 22.832 472.964 22.576 473.156 22.256C473.412 21.872 473.668 21.648 473.924 21.584C474.692 21.072 475.748 21.104 477.092 21.68C478.5 22.256 479.524 23.056 480.164 24.08C480.74 25.296 480.9 26.544 480.644 27.824C480.452 29.104 479.78 30.448 478.628 31.856C477.668 33.136 476.452 33.968 474.98 34.352C473.508 34.672 472.324 34.512 471.428 33.872ZM488.137 68.912C487.689 68.528 487.081 67.376 486.313 65.456C485.609 63.536 484.905 61.296 484.201 58.736C483.561 56.176 483.049 53.808 482.665 51.632C482.409 50.352 482.121 49.264 481.801 48.368C481.545 47.472 481.321 46.736 481.129 46.16C480.809 45.008 480.905 43.792 481.417 42.512C481.993 41.232 482.665 40.368 483.433 39.92C483.753 39.728 484.329 39.6 485.161 39.536C486.057 39.408 486.633 39.376 486.889 39.44C487.657 39.696 488.361 40.88 489.001 42.992C489.641 45.04 490.217 47.76 490.729 51.152C490.985 53.136 491.177 54.608 491.305 55.568C491.497 56.464 491.593 57.04 491.593 57.296C491.849 57.808 492.009 58.448 492.073 59.216C492.201 59.92 492.521 60.016 493.033 59.504C493.289 59.248 493.673 58.8 494.185 58.16C494.761 57.52 495.433 56.688 496.201 55.664C497.545 53.872 498.601 52.4 499.369 51.248C500.201 50.032 501.129 48.784 502.153 47.504C502.601 46.864 503.209 46.16 503.977 45.392C504.745 44.624 505.513 43.92 506.281 43.28C507.049 42.576 507.689 42.16 508.201 42.032C509.737 41.776 510.665 42.352 510.985 43.76C511.369 45.104 510.921 46.672 509.641 48.464C509.129 49.232 508.713 49.968 508.393 50.672C508.137 51.312 507.881 51.76 507.625 52.016C507.113 53.04 506.313 54.352 505.225 55.952C504.137 57.488 503.081 58.928 502.057 60.272C501.033 61.552 500.329 62.384 499.945 62.768C499.689 63.024 499.113 63.504 498.217 64.208C497.385 64.912 496.585 65.808 495.817 66.896C494.281 68.368 492.809 69.264 491.401 69.584C489.993 69.904 488.905 69.68 488.137 68.912ZM519.15 73.904C517.614 73.904 516.27 73.104 515.118 71.504C514.03 69.84 513.358 67.856 513.102 65.552C513.166 65.04 513.23 64.304 513.294 63.344C513.422 62.384 513.55 61.392 513.678 60.368C513.934 59.152 514.286 57.584 514.734 55.664C515.182 53.744 515.662 51.824 516.174 49.904C516.686 47.92 517.134 46.224 517.518 44.816C517.902 43.344 518.126 42.48 518.19 42.224C518.574 41.328 519.438 41.104 520.782 41.552C522.126 42 523.278 42.96 524.238 44.432C524.622 44.944 524.846 45.552 524.91 46.256C525.038 46.96 524.942 47.984 524.622 49.328C524.366 50.672 523.854 52.656 523.086 55.28C522.382 57.84 521.838 59.92 521.454 61.52C521.134 63.056 521.006 64.688 521.07 66.416C520.814 69.36 520.558 71.376 520.302 72.464C520.046 73.488 519.662 73.968 519.15 73.904ZM527.982 34.064C527.726 34.256 527.47 34.352 527.214 34.352C527.022 34.288 526.67 34.096 526.158 33.776C525.71 33.712 525.134 33.424 524.43 32.912C523.79 32.336 523.214 31.76 522.702 31.184C522.254 30.608 522.03 30.256 522.03 30.128C521.966 29.488 521.998 28.464 522.126 27.056C522.318 25.648 522.67 24.336 523.182 23.12C523.758 21.84 524.526 21.168 525.486 21.104C525.742 21.104 526.286 21.232 527.118 21.488C528.014 21.744 528.942 22.064 529.902 22.448C530.414 23.408 530.894 24.656 531.342 26.192C531.79 27.728 531.822 29.232 531.438 30.704C531.118 32.112 529.966 33.232 527.982 34.064ZM538.858 71.984C538.666 72.048 538.25 72.016 537.61 71.888C537.034 71.76 536.426 71.6 535.786 71.408C535.21 71.216 534.858 71.056 534.73 70.928C534.474 70.672 534.122 70.224 533.674 69.584C533.226 68.88 532.97 67.952 532.906 66.8C532.906 65.648 533.45 64.272 534.538 62.672C534.858 62.032 535.242 61.072 535.69 59.792C536.138 58.512 536.586 57.168 537.034 55.76C537.546 54.288 537.994 52.976 538.378 51.824C538.826 50.672 539.146 49.872 539.338 49.424C539.466 48.336 539.402 47.568 539.146 47.12C538.954 46.608 538.41 46.32 537.514 46.256C536.874 46.256 536.362 46.032 535.978 45.584C535.658 45.136 535.498 44.336 535.498 43.184C535.626 42.288 535.85 41.52 536.17 40.88C536.554 40.176 537.066 39.6 537.706 39.152C538.346 38.832 539.146 38.608 540.106 38.48C541.13 38.352 542.122 38.32 543.082 38.384C544.042 38.448 544.714 38.672 545.098 39.056C545.546 39.312 545.898 39.888 546.154 40.784C546.474 41.616 546.73 42.48 546.922 43.376C547.114 44.272 547.242 44.944 547.306 45.392C547.946 44.88 548.65 44.176 549.418 43.28C550.25 42.32 551.082 41.424 551.914 40.592C552.938 39.888 554.154 39.184 555.562 38.48C556.97 37.712 557.994 37.328 558.634 37.328C559.338 37.328 560.202 37.68 561.226 38.384C562.25 39.024 562.89 39.6 563.146 40.112C563.786 41.2 564.234 42.352 564.49 43.568C564.81 44.72 564.618 45.744 563.914 46.64C563.274 47.472 562.378 48.304 561.226 49.136C560.074 49.904 558.634 50.128 556.906 49.808C556.522 49.68 556.106 49.2 555.658 48.368C555.274 47.536 555.05 46.928 554.986 46.544C554.986 46.352 554.698 46.544 554.122 47.12C553.61 47.632 552.97 48.272 552.202 49.04C551.498 49.808 550.826 50.512 550.186 51.152C549.098 52.496 547.946 54.32 546.73 56.624C545.514 58.928 544.074 61.712 542.41 64.976C541.642 66.576 541.002 68.112 540.49 69.584C539.978 70.992 539.434 71.792 538.858 71.984ZM572.492 70.64C571.276 69.552 570.22 68.432 569.324 67.28C568.428 66.064 567.82 64.208 567.5 61.712C567.372 60.56 567.5 58.96 567.884 56.912C568.268 54.864 568.844 52.72 569.612 50.48C570.38 48.176 571.212 46.064 572.108 44.144C573.004 42.224 573.9 40.816 574.796 39.92C575.564 38.96 576.524 38.192 577.676 37.616C578.892 37.04 580.14 37.04 581.42 37.616C582.124 38.448 582.476 39.6 582.476 41.072C582.54 42.48 582.188 43.792 581.42 45.008C580.14 46.736 579.02 48.912 578.06 51.536C577.164 54.096 576.556 56.4 576.236 58.448C575.788 59.92 575.596 61.072 575.66 61.904C575.724 62.672 576.172 63.152 577.004 63.344C578.22 63.664 579.468 63.312 580.748 62.288C582.092 61.264 583.372 59.76 584.588 57.776C585.868 55.792 586.988 53.52 587.948 50.96C588.332 50.064 588.62 49.008 588.812 47.792C589.068 46.576 589.324 45.68 589.58 45.104C589.9 43.824 590.444 42.832 591.212 42.128C592.044 41.36 592.908 40.88 593.804 40.688C594.7 40.496 595.372 40.592 595.82 40.976C596.396 41.232 597.004 41.648 597.644 42.224C598.284 42.8 598.54 43.824 598.412 45.296C598.412 47.664 597.9 49.68 596.876 51.344C595.852 53.008 594.988 54.768 594.284 56.624C593.708 57.968 592.78 59.536 591.5 61.328C590.22 63.12 588.844 64.752 587.372 66.224C585.964 67.696 584.652 68.688 583.436 69.2C581.644 70.352 579.82 71.056 577.964 71.312C576.108 71.504 574.284 71.28 572.492 70.64ZM610.807 74.672C607.415 74.672 604.919 73.584 603.319 71.408C602.871 70.384 602.647 69.36 602.647 68.336C602.711 67.248 602.967 66.48 603.415 66.032C603.863 65.52 604.407 65.616 605.047 66.32C605.879 66.832 607.063 67.088 608.599 67.088C609.367 67.088 610.039 67.088 610.615 67.088C611.255 67.024 611.991 66.96 612.823 66.896C614.295 66.768 615.223 66.32 615.607 65.552C616.055 64.784 615.959 64.144 615.319 63.632H615.415C613.687 63.184 611.991 62.544 610.327 61.712C608.663 60.88 607.255 59.952 606.103 58.928C604.951 57.84 604.279 56.816 604.087 55.856C603.575 53.744 603.703 51.568 604.471 49.328C605.239 47.088 606.359 45.136 607.831 43.472C608.407 43.088 609.207 42.544 610.231 41.84C611.255 41.072 611.991 40.656 612.439 40.592V40.688C613.655 39.408 615.031 38.384 616.567 37.616C618.103 36.784 619.895 36.016 621.943 35.312L623.479 35.12C624.247 34.992 624.919 34.928 625.495 34.928C625.431 34.928 625.591 34.992 625.975 35.12C626.359 35.248 626.679 35.344 626.935 35.408C627.319 35.6 627.703 35.696 628.087 35.696C628.983 35.824 629.847 36.304 630.679 37.136C631.575 37.904 632.279 38.832 632.791 39.92C633.367 40.944 633.591 41.904 633.463 42.8C633.271 44.272 632.727 45.744 631.831 47.216C630.935 48.624 629.975 49.424 628.951 49.616C629.079 49.552 628.951 49.424 628.567 49.232C628.183 49.04 627.831 48.848 627.511 48.656L627.127 48.848C627.127 48.848 627.095 48.752 627.031 48.56C627.031 48.368 626.967 48.144 626.839 47.888C626.583 47.44 626.391 46.96 626.263 46.448C626.199 45.936 626.199 45.36 626.263 44.72C626.391 44.016 626.423 43.6 626.359 43.472C626.295 43.344 625.911 43.248 625.207 43.184C624.375 42.992 623.319 43.088 622.039 43.472C620.759 43.792 619.575 44.368 618.487 45.2C617.207 46.032 616.247 46.704 615.607 47.216C615.031 47.728 614.583 48.24 614.263 48.752C613.943 49.2 613.591 49.872 613.207 50.768C612.951 51.216 612.727 51.632 612.535 52.016C612.343 52.336 612.247 52.656 612.247 52.976C612.247 53.616 612.791 54.288 613.879 54.992C614.967 55.632 616.599 56.4 618.775 57.296C620.503 58 621.623 58.96 622.135 60.176C622.711 61.392 623.223 62.544 623.671 63.632C623.799 63.888 623.927 64.368 624.055 65.072C624.247 65.712 624.279 66.096 624.151 66.224C624.279 66.352 624.343 66.48 624.343 66.608V66.512C624.855 67.472 624.759 68.496 624.055 69.584C623.415 70.608 622.391 71.568 620.983 72.464C619.575 73.296 617.975 73.904 616.183 74.288H616.279C615.319 74.416 614.359 74.512 613.399 74.576C612.503 74.64 611.639 74.672 610.807 74.672Z" fill="#111827"/>
</svg>
