<svg width="1076" height="185" viewBox="0 0 1076 185" fill="none" xmlns="http://www.w3.org/2000/svg">
<path d="M665.065 172.917C673.681 173.74 682.298 174.597 690.916 175.289C714.068 177.101 737.946 181.78 759.645 168.403C767.535 163.527 763.407 146.658 755.336 146.922C754.013 146.955 752.714 147.021 751.391 147.054C752.767 141.156 750.846 133.743 745.706 131.964C749.964 132.063 754.22 132.129 758.476 132.228C769.482 132.524 769.482 109.495 758.476 109.198C657.096 106.398 555.717 108.506 454.441 115.524C445.356 116.15 442.164 135.852 452.157 138.158C467.755 141.75 483.354 145.11 499.005 148.273C497.266 150.019 496.176 152.556 495.761 155.258C494.775 155.356 493.814 155.422 492.828 155.521C482.005 156.707 481.667 178.913 492.828 178.551C550.24 176.673 607.653 174.795 665.091 172.917H665.065Z" fill="#31BF5C"/>
<path d="M293.694 69.952C292.862 70.016 292.094 69.824 291.39 69.376C290.75 68.992 290.302 68.48 290.046 67.84C289.79 67.52 289.374 66.816 288.798 65.728C288.222 64.704 287.87 63.808 287.742 63.04C287.55 60.992 287.422 59.008 287.358 57.088C287.358 55.168 287.454 52.48 287.646 49.024C287.838 46.208 288.222 43.712 288.798 41.536C289.374 39.296 289.95 37.408 290.526 35.872C291.102 34.272 291.55 33.088 291.87 32.32C292.19 31.488 292.254 31.072 292.062 31.072C291.806 31.072 291.518 31.328 291.198 31.84C290.942 32.288 290.622 32.896 290.238 33.664C289.918 34.432 289.534 35.264 289.086 36.16C288.702 37.056 288.286 37.92 287.838 38.752C286.942 40.736 285.886 42.848 284.67 45.088C283.518 47.264 282.334 49.376 281.118 51.424C279.902 53.472 278.846 55.264 277.95 56.8C277.374 57.44 276.702 58.368 275.934 59.584C275.166 60.736 274.334 61.952 273.438 63.232C272.542 64.512 271.614 65.568 270.654 66.4C269.246 67.744 267.806 68.544 266.334 68.8C264.862 69.12 263.486 68.96 262.206 68.32C261.566 68.256 260.894 67.904 260.19 67.264C259.486 66.688 258.91 65.952 258.462 65.056C258.078 64.16 257.982 63.328 258.174 62.56C258.11 61.664 258.11 60.288 258.174 58.432C258.302 56.512 258.494 54.432 258.75 52.192C259.006 49.888 259.262 47.68 259.518 45.568C259.838 43.456 260.126 41.696 260.382 40.288C260.958 36.192 261.726 32 262.686 27.712C263.71 23.424 264.638 19.104 265.47 14.752C265.982 13.472 266.43 12.032 266.814 10.432C267.262 8.768 267.71 7.232 268.158 5.824C268.222 4.416 268.734 3.552 269.694 3.232C270.654 2.848 271.678 2.78399 272.766 3.04C273.918 3.296 274.718 3.744 275.166 4.384C275.806 5.024 276.414 6.016 276.99 7.36C277.566 8.704 277.406 10.4 276.51 12.448C275.23 15.584 273.982 19.424 272.766 23.968C271.614 28.448 270.558 33.888 269.598 40.288C269.342 41.824 269.054 43.552 268.734 45.472C268.478 47.328 268.222 49.12 267.966 50.848C267.774 52.576 267.614 54.016 267.486 55.168C267.422 56.256 267.454 56.832 267.582 56.896C268.094 57.024 268.638 56.736 269.214 56.032C269.854 55.328 270.526 54.208 271.23 52.672C273.854 48.32 276.318 44 278.622 39.712C280.99 35.424 283.358 30.944 285.726 26.272C286.814 24.416 287.902 22.4 288.99 20.224C290.142 17.984 291.23 15.936 292.254 14.08C293.342 12.16 294.398 10.304 295.422 8.512C296.446 6.72 297.342 5.216 298.11 4C298.878 2.72 299.454 2.016 299.838 1.888C301.566 1.888 302.846 2.336 303.678 3.232C304.574 4.128 305.278 5.216 305.79 6.496C305.918 6.816 305.982 7.36 305.982 8.128C306.046 8.896 305.95 9.568 305.694 10.144C305.63 10.592 305.342 11.52 304.83 12.928C304.382 14.336 303.966 15.904 303.582 17.632C302.942 19.36 302.366 21.088 301.854 22.816C301.406 24.48 301.086 25.856 300.894 26.944C300.382 29.696 299.742 32.704 298.974 35.968C298.206 39.232 297.534 42.496 296.958 45.76C296.446 48.96 296.158 51.808 296.094 54.304C296.03 56.096 296.03 57.28 296.094 57.856C296.222 58.368 296.414 58.912 296.67 59.488C296.798 60 297.086 60.128 297.534 59.872C297.982 59.616 298.43 59.168 298.878 58.528C299.774 57.184 300.446 56.032 300.894 55.072C301.406 54.112 301.918 53.088 302.43 52C302.942 50.848 303.646 49.408 304.542 47.68C306.142 44.736 307.774 41.504 309.438 37.984C311.166 34.464 312.798 30.976 314.334 27.52C315.934 24.064 317.31 20.992 318.462 18.304C319.678 14.848 320.702 12.064 321.534 9.952C322.366 7.776 323.134 6.112 323.838 4.96C324.542 3.808 325.214 3.04 325.854 2.65599C326.174 2.4 326.846 2.272 327.87 2.272C328.958 2.272 329.79 2.528 330.366 3.04C330.622 3.296 331.07 3.712 331.71 4.288C332.35 4.864 332.638 5.536 332.574 6.304C332.254 7.328 331.646 8.992 330.75 11.296C329.918 13.6 328.926 16.16 327.774 18.976C326.686 21.728 325.598 24.384 324.51 26.944C323.486 29.44 322.622 31.424 321.918 32.896C321.214 34.24 320.542 35.392 319.902 36.352C319.262 37.312 318.942 38.048 318.942 38.56C318.942 38.816 318.622 39.616 317.982 40.96C317.342 42.24 316.51 43.808 315.486 45.664C314.526 47.52 313.47 49.44 312.318 51.424C311.166 53.408 310.078 55.232 309.054 56.896C308.03 58.56 307.166 59.84 306.462 60.736C304.862 62.72 303.134 64.384 301.278 65.728C299.486 67.136 297.886 68.192 296.478 68.896C295.07 69.6 294.142 69.952 293.694 69.952ZM343.566 62.08C341.646 63.168 339.598 63.808 337.422 64C335.31 64.128 333.326 63.84 331.47 63.136C329.614 62.368 328.11 61.248 326.958 59.776C326.318 58.944 325.71 57.632 325.134 55.84C324.558 53.984 324.462 51.488 324.846 48.352C325.23 45.408 326.126 42.432 327.534 39.424C329.006 36.416 330.798 33.76 332.91 31.456C335.022 29.152 337.326 27.584 339.822 26.752C340.718 26.432 341.614 26.208 342.51 26.08C343.47 25.888 344.718 25.856 346.254 25.984C347.726 26.176 349.038 26.56 350.19 27.136C351.342 27.648 352.174 28.224 352.686 28.864C353.71 29.888 354.382 30.88 354.702 31.84C355.022 32.8 355.15 33.728 355.086 34.624C354.766 36.672 353.838 38.88 352.302 41.248C350.83 43.616 348.75 45.376 346.062 46.528C344.974 46.976 343.694 47.264 342.222 47.392C340.75 47.52 338.734 47.328 336.174 46.816C334.638 46.496 333.614 46.656 333.102 47.296C332.654 47.936 332.462 49.184 332.526 51.04C332.654 52.192 332.91 53.216 333.294 54.112C333.742 54.944 334.542 55.52 335.694 55.84C337.166 56.096 338.222 56.128 338.862 55.936C339.502 55.68 340.302 55.328 341.262 54.88C341.774 54.56 342.254 54.208 342.702 53.824C343.214 53.44 343.694 53.056 344.142 52.672C344.654 52.288 345.07 52 345.39 51.808C345.71 51.552 346.03 51.392 346.35 51.328C346.67 51.264 346.99 51.232 347.31 51.232C348.014 51.296 348.686 51.68 349.326 52.384C349.966 53.088 350.382 53.76 350.574 54.4C350.574 54.912 350.254 55.648 349.614 56.608C348.974 57.504 348.11 58.464 347.022 59.488C345.998 60.448 344.846 61.312 343.566 62.08ZM342.318 40.672C342.766 40.48 343.406 40.032 344.238 39.328C345.134 38.624 345.934 37.888 346.638 37.12C347.342 36.288 347.694 35.648 347.694 35.2C347.694 34.496 347.214 33.888 346.254 33.376C345.358 32.864 344.174 32.768 342.702 33.088C342.19 33.216 341.582 33.568 340.878 34.144C340.174 34.72 339.47 35.392 338.766 36.16C338.062 36.864 337.454 37.568 336.942 38.272C336.43 38.912 336.078 39.424 335.886 39.808C336.142 40.128 336.654 40.384 337.422 40.576C338.19 40.768 339.022 40.864 339.918 40.864C340.878 40.864 341.678 40.8 342.318 40.672ZM376.606 86.368C376.35 86.368 375.966 86.368 375.454 86.368C375.006 86.432 374.622 86.176 374.302 85.6C374.046 85.28 373.662 84.64 373.15 83.68C372.638 82.784 372.542 81.504 372.862 79.84C373.182 78.752 373.438 77.664 373.63 76.576C373.822 75.552 373.918 74.784 373.918 74.272C373.918 74.016 373.982 73.504 374.11 72.736C374.302 72.032 374.398 71.52 374.398 71.2C374.718 70.688 374.974 69.984 375.166 69.088C375.358 68.192 375.454 67.392 375.454 66.688C375.454 65.92 375.838 65.216 376.606 64.576C376.606 64.064 376.702 63.424 376.894 62.656C377.15 61.888 377.278 61.376 377.278 61.12C377.47 60.224 377.886 58.656 378.526 56.416C379.23 54.112 380.062 51.52 381.022 48.64C382.046 45.76 383.038 42.944 383.998 40.192C384.958 37.44 385.822 35.104 386.59 33.184C387.358 31.392 387.998 29.728 388.51 28.192C389.022 26.656 389.278 25.568 389.278 24.928C389.278 24.672 389.342 24.48 389.47 24.352C389.598 24.16 389.886 23.808 390.334 23.296C390.974 22.656 391.806 22.432 392.83 22.624C393.918 22.752 394.814 23.072 395.518 23.584C396.03 24.416 396.382 25.184 396.574 25.888C396.83 26.528 396.83 27.552 396.574 28.96C396.574 29.92 396.35 30.816 395.902 31.648C395.454 32.416 395.038 33.056 394.654 33.568C394.334 34.016 394.238 34.208 394.366 34.144C397.182 32.416 399.71 31.488 401.95 31.36C404.254 31.168 406.174 31.552 407.71 32.512C409.31 33.408 410.526 34.656 411.358 36.256C412.19 37.856 412.606 39.584 412.606 41.44C412.606 42.208 412.35 43.232 411.838 44.512C411.326 45.792 410.75 47.008 410.11 48.16C409.47 49.248 408.958 49.984 408.574 50.368C408.318 50.368 408.062 50.592 407.806 51.04C407.55 51.424 407.294 51.872 407.038 52.384C406.526 53.024 405.662 53.76 404.446 54.592C403.294 55.36 402.11 56 400.894 56.512C399.678 56.96 398.814 57.088 398.302 56.896C398.302 56.896 398.206 56.96 398.014 57.088C397.886 57.216 397.822 57.44 397.822 57.76C397.822 57.888 397.374 58.144 396.478 58.528C395.582 58.912 394.526 59.264 393.31 59.584C392.094 59.904 390.974 60.064 389.95 60.064C388.606 60.064 387.646 59.808 387.07 59.296C386.942 59.424 386.782 59.616 386.59 59.872C386.462 60.128 386.398 60.352 386.398 60.544C386.398 60.928 386.238 61.536 385.918 62.368C385.662 63.2 385.342 63.936 384.958 64.576C384.574 65.28 384.222 65.632 383.902 65.632C383.902 65.632 383.838 65.728 383.71 65.92C383.582 66.112 383.646 66.368 383.902 66.688C383.902 66.688 383.87 67.04 383.806 67.744C383.806 68.512 383.646 69.152 383.326 69.664C383.326 70.176 383.23 70.944 383.038 71.968C382.846 72.992 382.622 73.76 382.366 74.272C382.366 75.04 382.238 75.776 381.982 76.48C381.79 77.248 381.566 77.632 381.31 77.632C381.054 77.696 380.894 78.08 380.83 78.784C380.766 79.552 380.734 80.096 380.734 80.416C380.67 82.016 380.158 83.392 379.198 84.544C378.238 85.76 377.374 86.368 376.606 86.368ZM388.894 52.768C389.406 52.768 390.334 52.544 391.678 52.096C393.022 51.648 394.43 51.104 395.902 50.464C397.374 49.76 398.526 49.056 399.358 48.352C401.022 46.88 402.302 45.44 403.198 44.032C404.158 42.624 404.094 41.056 403.006 39.328C402.494 38.432 401.662 38.08 400.51 38.272C399.422 38.4 398.206 38.912 396.862 39.808C395.518 40.704 394.142 41.824 392.734 43.168C391.966 44 391.262 44.96 390.622 46.048C389.982 47.136 389.438 48.192 388.99 49.216C388.606 50.24 388.382 51.104 388.318 51.808C388.254 52.448 388.446 52.768 388.894 52.768ZM424.311 61.984C424.119 62.048 423.703 62.016 423.063 61.888C422.487 61.76 421.879 61.6 421.239 61.408C420.663 61.216 420.311 61.056 420.183 60.928C419.927 60.672 419.575 60.224 419.127 59.584C418.679 58.88 418.423 57.952 418.359 56.8C418.359 55.648 418.903 54.272 419.991 52.672C420.311 52.032 420.695 51.072 421.143 49.792C421.591 48.512 422.039 47.168 422.487 45.76C422.999 44.288 423.447 42.976 423.831 41.824C424.279 40.672 424.599 39.872 424.791 39.424C424.919 38.336 424.855 37.568 424.599 37.12C424.407 36.608 423.863 36.32 422.967 36.256C422.327 36.256 421.815 36.032 421.431 35.584C421.111 35.136 420.951 34.336 420.951 33.184C421.079 32.288 421.303 31.52 421.623 30.88C422.007 30.176 422.519 29.6 423.159 29.152C423.799 28.832 424.599 28.608 425.559 28.48C426.583 28.352 427.575 28.32 428.535 28.384C429.495 28.448 430.167 28.672 430.551 29.056C430.999 29.312 431.351 29.888 431.607 30.784C431.927 31.616 432.183 32.48 432.375 33.376C432.567 34.272 432.695 34.944 432.759 35.392C433.399 34.88 434.103 34.176 434.871 33.28C435.703 32.32 436.535 31.424 437.367 30.592C438.391 29.888 439.607 29.184 441.015 28.48C442.423 27.712 443.447 27.328 444.087 27.328C444.791 27.328 445.655 27.68 446.679 28.384C447.703 29.024 448.343 29.6 448.599 30.112C449.239 31.2 449.687 32.352 449.943 33.568C450.263 34.72 450.071 35.744 449.367 36.64C448.727 37.472 447.831 38.304 446.679 39.136C445.527 39.904 444.087 40.128 442.359 39.808C441.975 39.68 441.559 39.2 441.111 38.368C440.727 37.536 440.503 36.928 440.439 36.544C440.439 36.352 440.151 36.544 439.575 37.12C439.063 37.632 438.423 38.272 437.655 39.04C436.951 39.808 436.279 40.512 435.639 41.152C434.551 42.496 433.399 44.32 432.183 46.624C430.967 48.928 429.527 51.712 427.863 54.976C427.095 56.576 426.455 58.112 425.943 59.584C425.431 60.992 424.887 61.792 424.311 61.984ZM460.345 63.232C459.001 63.488 457.977 63.424 457.273 63.04C456.633 62.592 455.961 62.048 455.257 61.408C454.233 60.896 453.305 60.192 452.473 59.296C451.641 58.336 451.001 57.344 450.553 56.32C450.105 55.296 449.913 54.496 449.977 53.92C450.169 51.68 450.681 49.248 451.513 46.624C452.409 44 453.529 41.44 454.873 38.944C456.281 36.448 457.849 34.24 459.577 32.32C461.369 30.336 463.289 28.896 465.337 28C466.617 27.488 467.993 27.296 469.465 27.424C470.937 27.552 471.929 28.16 472.441 29.248C473.401 31.104 473.177 32.288 471.769 32.8C471.577 32.8 471.353 32.896 471.097 33.088C470.841 33.216 470.713 33.408 470.713 33.664C470.969 33.792 471.673 33.824 472.825 33.76C473.977 33.632 475.129 33.44 476.281 33.184C477.497 32.864 478.297 32.544 478.681 32.224C479.065 32.032 479.353 31.936 479.545 31.936C479.737 31.936 480.217 32 480.985 32.128C482.073 32.448 482.617 32.832 482.617 33.28C482.617 33.536 482.713 33.952 482.905 34.528C483.097 35.04 483.321 35.296 483.577 35.296C484.025 35.36 484.121 35.808 483.865 36.64C483.673 37.472 482.937 38.336 481.657 39.232C480.441 40 479.673 40.512 479.353 40.768C479.097 40.96 479.065 41.408 479.257 42.112C479.769 43.328 479.737 44.8 479.161 46.528C478.585 48.256 477.625 50.048 476.281 51.904C474.937 53.76 473.337 55.52 471.481 57.184C469.689 58.784 467.801 60.16 465.817 61.312C463.897 62.4 462.073 63.04 460.345 63.232ZM460.633 55.168C460.889 55.168 461.337 55.04 461.977 54.784C462.617 54.464 463.129 54.208 463.513 54.016C463.769 53.76 464.089 53.472 464.473 53.152C464.921 52.768 465.273 52.544 465.529 52.48C465.785 52.48 465.945 52.384 466.009 52.192C466.073 51.936 466.297 51.456 466.681 50.752C467.065 49.984 467.833 48.864 468.985 47.392C470.265 45.984 471.097 44.864 471.481 44.032C471.865 43.136 471.897 42.176 471.577 41.152C471.513 40.896 471.321 40.736 471.001 40.672C470.745 40.608 470.393 40.448 469.945 40.192C469.305 40.192 468.857 40.352 468.601 40.672C468.409 40.928 467.961 40.768 467.257 40.192L465.721 38.272L464.089 39.904C463.065 40.928 462.137 42.208 461.305 43.744C460.537 45.28 459.929 46.848 459.481 48.448C459.033 50.048 458.745 51.456 458.617 52.672C458.553 53.632 458.713 54.272 459.097 54.592C459.481 54.912 459.993 55.104 460.633 55.168ZM494.934 69.76C491.798 69.696 489.782 68.8 488.886 67.072C488.054 65.408 487.83 63.296 488.214 60.736C488.598 59.52 488.822 58.432 488.886 57.472C489.014 56.448 489.302 55.808 489.75 55.552C489.75 55.552 489.782 55.456 489.846 55.264C489.974 55.072 489.942 54.88 489.75 54.688C489.75 53.856 490.038 52.704 490.614 51.232C490.742 50.848 490.902 50.4 491.094 49.888C491.35 49.312 491.478 49.024 491.478 49.024C491.158 48.512 491.158 48.096 491.478 47.776C491.798 47.456 492.118 47.168 492.438 46.912C492.822 46.592 492.854 46.24 492.534 45.856C492.406 45.6 492.566 45.024 493.014 44.128C493.462 43.168 493.974 42.176 494.55 41.152C495.126 40.128 495.51 39.328 495.702 38.752C495.702 38.624 495.862 38.176 496.182 37.408C496.502 36.64 496.886 35.744 497.334 34.72C497.782 33.696 498.198 32.768 498.582 31.936C499.03 31.104 499.318 30.56 499.446 30.304C500.086 29.984 499.83 29.76 498.678 29.632C497.526 29.504 496.31 29.472 495.03 29.536C493.046 29.472 491.446 29.376 490.23 29.248C489.078 29.12 488.118 28.832 487.35 28.384C486.582 27.488 486.486 26.432 487.062 25.216C487.638 23.936 488.566 23.264 489.846 23.2C490.678 23.136 491.318 23.104 491.766 23.104C492.278 23.104 492.918 23.072 493.686 23.008C494.518 22.88 495.798 22.72 497.526 22.528L502.422 22.144L502.71 20.512C503.222 19.68 503.574 19.136 503.766 18.88C503.958 18.624 504.086 18.368 504.15 18.112C504.214 17.792 504.31 17.248 504.438 16.48C504.438 16.48 504.726 15.968 505.302 14.944C505.878 13.856 506.23 12.736 506.358 11.584C507.126 10.304 507.798 9.152 508.374 8.128C508.95 7.04 509.302 6.368 509.43 6.112C510.518 4.512 511.574 3.648 512.598 3.51999C513.686 3.392 514.71 3.648 515.67 4.288C516.246 4.608 516.79 5.024 517.302 5.536C517.814 5.984 518.134 6.592 518.262 7.36C518.39 8.064 518.102 8.99199 517.398 10.144C517.27 10.4 517.078 10.88 516.822 11.584C516.566 12.224 516.374 12.768 516.246 13.216C515.862 13.664 515.382 14.4 514.806 15.424C514.294 16.384 513.942 17.376 513.75 18.4C513.238 19.488 512.918 20.16 512.79 20.416C512.662 20.672 512.47 20.8 512.214 20.8C512.342 21.44 512.726 21.76 513.366 21.76C514.006 21.696 515.062 21.632 516.534 21.568C517.75 21.44 518.582 21.312 519.03 21.184C519.542 20.992 520.118 21.056 520.758 21.376C521.078 21.824 521.238 22.496 521.238 23.392C521.302 24.224 521.206 25.056 520.95 25.888C520.694 26.656 520.342 27.136 519.894 27.328C519.574 27.328 518.902 27.52 517.878 27.904C516.918 28.224 515.702 28.416 514.23 28.48L509.142 28.96L507.51 32.224C507.062 33.056 506.678 33.824 506.358 34.528C506.038 35.168 505.814 35.552 505.686 35.68C505.686 36.064 505.462 36.64 505.014 37.408C504.63 38.176 504.214 39.008 503.766 39.904C503.382 40.992 502.934 41.984 502.422 42.88C501.974 43.776 501.75 44.224 501.75 44.224C501.494 44.224 501.366 44.416 501.366 44.8C501.686 45.568 501.59 46.144 501.078 46.528C500.758 46.72 500.47 47.008 500.214 47.392C500.022 47.712 499.926 47.872 499.926 47.872C500.182 48.128 500.214 48.448 500.022 48.832C499.894 49.216 499.702 49.632 499.446 50.08C499.446 50.592 499.286 51.328 498.966 52.288C498.71 53.248 498.422 54.144 498.102 54.976C498.166 56.128 498.23 56.864 498.294 57.184C498.358 57.504 498.518 57.632 498.774 57.568C499.094 57.632 499.542 57.632 500.118 57.568C500.694 57.504 501.11 57.472 501.366 57.472C502.326 57.024 501.878 59.264 500.022 64.192C498.998 65.792 497.974 67.104 496.95 68.128C495.926 69.216 495.254 69.76 494.934 69.76ZM524.22 63.136C521.724 62.112 519.996 60.448 519.036 58.144C518.076 55.84 517.82 52.768 518.268 48.928C518.396 46.944 518.332 45.632 518.076 44.992C517.82 44.288 517.34 43.616 516.636 42.976C516.444 42.72 515.996 42.304 515.292 41.728C514.588 41.088 514.268 40.608 514.332 40.288C514.268 39.84 514.364 39.296 514.62 38.656C514.876 37.952 515.1 37.568 515.292 37.504C515.74 37.312 516.188 37.088 516.636 36.832C517.148 36.576 517.532 36.512 517.788 36.64C518.044 36.64 518.428 36.8 518.94 37.12C519.516 37.44 519.804 37.728 519.804 37.984C520.06 38.432 520.444 38.24 520.956 37.408C521.532 36.576 522.14 35.52 522.78 34.24C523.42 33.216 524.22 32.256 525.18 31.36C526.14 30.464 527.1 29.664 528.06 28.96C529.084 28.192 529.948 27.616 530.652 27.232C530.972 27.104 531.58 26.912 532.476 26.656C533.436 26.4 534.428 26.208 535.452 26.08C536.476 25.888 537.244 25.824 537.756 25.888C538.908 25.952 540.124 26.432 541.404 27.328C542.684 28.224 543.676 29.056 544.38 29.824C545.212 30.4 545.756 31.296 546.012 32.512C546.332 33.664 546.46 34.88 546.396 36.16C546.332 37.44 546.076 38.528 545.628 39.424C545.436 40.064 544.764 40.96 543.612 42.112C542.46 43.264 541.18 44.384 539.772 45.472C538.428 46.496 537.276 47.2 536.316 47.584C535.484 47.776 534.492 47.936 533.34 48.064C532.188 48.128 531.1 48.128 530.076 48.064C529.116 47.936 528.444 47.776 528.06 47.584C527.612 47.328 527.228 47.424 526.908 47.872C526.652 48.256 526.428 49.344 526.236 51.136C526.172 51.84 526.172 52.448 526.236 52.96C526.364 53.472 526.492 53.856 526.62 54.112C527.068 54.88 527.516 55.456 527.964 55.84C528.412 56.16 529.244 56.256 530.46 56.128C531.676 56 532.892 55.264 534.108 53.92C535.388 52.512 536.54 51.392 537.564 50.56C537.82 50.112 538.364 49.824 539.196 49.696C540.092 49.504 541.148 49.568 542.364 49.888C543.068 50.336 543.388 51.04 543.324 52C543.324 52.96 542.812 54.368 541.788 56.224C541.596 56.672 541.052 57.344 540.156 58.24C539.324 59.072 538.396 59.936 537.372 60.832C536.412 61.664 535.612 62.272 534.972 62.656C533.052 63.68 531.164 64.16 529.308 64.096C527.452 64.032 525.756 63.712 524.22 63.136ZM531.324 41.536C532.284 41.28 533.084 41.024 533.724 40.768C534.428 40.512 535.1 40.096 535.74 39.52C536.38 38.944 537.116 38.08 537.948 36.928C538.204 36.224 538.332 35.616 538.332 35.104C538.396 34.592 538.364 34.272 538.236 34.144C537.724 33.632 537.148 33.472 536.508 33.664C535.932 33.792 535.292 34.112 534.588 34.624C534.14 34.816 533.5 35.232 532.668 35.872C531.9 36.448 531.132 37.12 530.364 37.888C529.66 38.592 529.084 39.264 528.636 39.904C528.252 40.48 528.188 40.832 528.444 40.96C528.316 41.216 528.668 41.376 529.5 41.44C530.396 41.504 531.004 41.536 531.324 41.536ZM561.466 64.384C559.61 64.704 557.754 64.544 555.898 63.904C554.106 63.264 552.602 62.24 551.386 60.832C550.234 59.36 549.658 57.6 549.658 55.552C549.466 53.632 549.626 51.36 550.138 48.736C550.714 46.048 551.546 43.36 552.634 40.672C553.786 37.984 555.098 35.712 556.57 33.856C557.85 32.32 559.13 30.912 560.41 29.632C561.69 28.352 562.842 27.488 563.866 27.04C564.762 26.656 565.85 26.368 567.13 26.176C568.474 25.92 569.402 25.792 569.914 25.792C570.938 26.048 572.058 26.464 573.274 27.04C574.554 27.616 575.194 28.288 575.194 29.056C575.194 29.056 575.258 29.152 575.386 29.344C575.578 29.472 575.674 29.536 575.674 29.536C576.058 29.536 576.474 30.016 576.922 30.976C577.434 31.872 577.818 32.928 578.074 34.144C578.33 35.296 578.266 36.224 577.882 36.928C577.626 38.144 577.114 39.328 576.346 40.48C575.642 41.632 575.034 42.208 574.522 42.208C574.266 42.208 574.01 42.24 573.754 42.304C573.562 42.304 573.466 42.464 573.466 42.784C573.466 43.104 573.114 43.264 572.41 43.264C571.77 43.264 571.098 43.136 570.394 42.88C569.69 42.624 569.242 42.24 569.05 41.728C569.05 41.408 569.114 40.992 569.242 40.48C569.37 39.968 569.562 39.104 569.818 37.888C570.202 36.096 570.234 34.912 569.914 34.336C569.594 33.696 568.794 33.632 567.514 34.144C565.914 35.04 564.602 36.096 563.578 37.312C562.554 38.464 561.626 40.096 560.794 42.208C560.026 44.32 559.162 47.264 558.202 51.04C557.818 52.512 557.754 53.664 558.01 54.496C558.33 55.328 558.586 55.776 558.778 55.84C559.674 56.096 560.634 56.16 561.658 56.032C562.746 55.84 563.642 55.552 564.346 55.168C565.37 54.656 566.266 54.112 567.034 53.536C567.866 52.896 568.762 52.224 569.722 51.52C570.042 51.328 570.33 50.976 570.586 50.464C570.842 49.888 571.226 49.472 571.738 49.216C572.25 48.448 572.89 48.064 573.658 48.064C574.49 48 575.29 47.968 576.058 47.968C576.57 48.096 577.114 48.416 577.69 48.928C578.266 49.44 578.682 49.952 578.938 50.464C579.258 50.912 579.226 51.232 578.842 51.424C578.586 51.424 578.426 51.52 578.362 51.712C578.362 51.84 578.362 51.904 578.362 51.904C578.49 52.16 578.202 52.736 577.498 53.632C576.858 54.528 576.026 55.488 575.002 56.512C573.978 57.536 572.986 58.432 572.026 59.2C571.13 59.904 570.49 60.256 570.106 60.256C569.466 60.256 569.146 60.448 569.146 60.832C569.146 60.96 568.666 61.28 567.706 61.792C566.81 62.304 565.754 62.816 564.538 63.328C563.386 63.84 562.362 64.192 561.466 64.384ZM597.299 64.576C596.403 64.32 595.507 63.872 594.611 63.232C593.715 62.592 592.787 61.856 591.827 61.024C591.059 60 590.515 59.072 590.195 58.24C589.875 57.344 589.683 56.32 589.619 55.168C589.619 53.952 589.619 52.416 589.619 50.56C589.619 49.792 589.747 48.704 590.003 47.296C590.323 45.888 590.643 44.416 590.963 42.88C591.347 41.344 591.699 40 592.019 38.848C592.339 37.632 592.531 36.832 592.595 36.448C592.787 35.616 592.467 35.136 591.635 35.008C590.803 34.88 589.875 34.848 588.851 34.912C587.891 34.912 587.251 34.816 586.931 34.624C586.675 34.56 586.547 34.24 586.547 33.664C586.547 33.024 586.547 32.704 586.547 32.704C586.547 32.448 586.419 32.288 586.163 32.224C585.907 32.096 585.683 31.872 585.491 31.552C585.363 31.296 585.523 30.816 585.971 30.112C586.419 29.408 586.995 28.992 587.699 28.864C588.275 28.736 589.139 28.64 590.291 28.576C591.443 28.448 592.595 28.224 593.747 27.904C594.963 27.52 595.891 26.944 596.531 26.176C597.107 24.768 597.747 23.264 598.451 21.664C599.155 20 599.827 18.56 600.467 17.344C601.107 16.064 601.555 15.264 601.811 14.944C602.899 14.368 604.019 14.144 605.171 14.272C606.323 14.336 607.219 14.88 607.859 15.904C608.179 16.352 608.435 16.672 608.627 16.864C608.883 17.056 608.979 17.344 608.915 17.728C608.915 18.112 608.659 18.816 608.147 19.84C607.699 20.8 606.931 22.304 605.843 24.352C605.523 24.992 605.235 25.568 604.979 26.08C604.723 26.528 604.595 26.752 604.595 26.752C604.851 26.816 605.235 26.848 605.747 26.848C606.259 26.848 606.899 26.816 607.667 26.752C608.371 26.624 609.139 26.528 609.971 26.464C610.803 26.336 611.539 26.336 612.179 26.464C613.651 26.464 614.739 26.88 615.443 27.712C616.147 28.544 616.531 29.6 616.595 30.88C616.723 31.584 616.467 32.192 615.827 32.704C615.187 33.216 614.003 33.472 612.275 33.472C611.699 33.472 610.867 33.504 609.779 33.568C608.691 33.632 607.571 33.696 606.419 33.76C605.267 33.824 604.275 33.92 603.443 34.048C602.675 34.112 602.291 34.208 602.291 34.336C602.099 34.464 601.779 34.976 601.331 35.872C600.947 36.704 600.531 37.728 600.083 38.944C599.699 40.16 599.347 41.312 599.027 42.4C598.579 44.576 598.259 46.688 598.067 48.736C597.875 50.784 597.843 52.576 597.971 54.112C598.163 55.584 598.547 56.64 599.123 57.28C599.699 57.856 600.563 57.856 601.715 57.28C602.931 56.64 604.051 55.904 605.075 55.072C606.227 54.112 607.219 53.824 608.051 54.208C608.883 54.528 609.395 55.232 609.587 56.32C609.843 57.344 609.555 58.464 608.723 59.68C607.955 60.896 606.867 61.92 605.459 62.752C604.051 63.584 602.611 64.16 601.139 64.48C599.667 64.864 598.387 64.896 597.299 64.576ZM666.154 65.824C665.322 66.016 664.49 65.792 663.658 65.152C662.89 64.576 662.346 63.936 662.026 63.232C661.642 62.208 661.386 61.248 661.258 60.352C661.194 59.392 661.13 58.304 661.066 57.088L660.97 53.824L657.034 57.376C654.858 59.424 652.81 60.896 650.89 61.792C649.034 62.624 647.338 63.04 645.802 63.04C645.098 62.912 644.234 62.464 643.21 61.696C642.25 60.864 641.354 59.968 640.522 59.008C639.754 57.984 639.21 57.152 638.89 56.512C638.506 55.616 638.378 54.368 638.506 52.768C638.698 51.168 639.082 49.408 639.658 47.488C640.298 45.568 641.066 43.68 641.962 41.824C642.922 39.968 644.01 38.368 645.226 37.024C647.338 33.824 649.962 31.84 653.098 31.072C656.234 30.24 659.018 30.496 661.45 31.84C662.602 32.416 663.434 32.64 663.946 32.512C664.458 32.384 664.778 31.968 664.906 31.264C665.162 30.24 665.45 29.28 665.77 28.384C666.09 27.488 666.538 26.144 667.114 24.352C668.714 19.488 670.09 15.68 671.242 12.928C672.458 10.176 673.546 7.776 674.506 5.72799C675.21 4.25599 675.914 3.23199 676.618 2.65599C677.322 2.08 677.93 1.824 678.442 1.888C679.146 1.888 680.01 2.144 681.034 2.65599C682.122 3.168 682.826 3.872 683.146 4.768C683.402 5.344 683.498 5.952 683.434 6.592C683.434 7.232 683.242 7.904 682.858 8.608C682.026 10.144 681.034 12.192 679.882 14.752C678.794 17.248 677.674 20 676.522 23.008C675.434 26.016 674.41 28.992 673.45 31.936C672.49 34.88 671.69 37.472 671.05 39.712C670.666 41.12 670.346 42.912 670.09 45.088C669.898 47.264 669.738 49.504 669.61 51.808C669.546 54.048 669.546 56.064 669.61 57.856C669.674 59.584 669.77 60.704 669.898 61.216C670.282 62.496 670.282 63.456 669.898 64.096C669.514 64.736 668.97 65.152 668.266 65.344C667.562 65.6 666.858 65.76 666.154 65.824ZM650.314 54.208C651.21 53.888 652.01 53.504 652.714 53.056C653.418 52.608 654.25 52.032 655.21 51.328C657.13 49.856 658.506 48.576 659.338 47.488C660.234 46.4 660.938 45.056 661.45 43.456C661.77 42.496 661.77 41.664 661.45 40.96C661.194 40.256 660.714 39.584 660.01 38.944C659.306 38.368 658.41 38.144 657.322 38.272C656.234 38.336 654.986 39.008 653.578 40.288C652.042 41.696 650.73 43.328 649.642 45.184C648.554 47.04 647.658 49.696 646.954 53.152C646.826 53.792 647.05 54.24 647.626 54.496C648.202 54.752 649.098 54.656 650.314 54.208ZM678.763 62.368C678.251 61.856 677.867 61.088 677.611 60.064C677.419 59.04 677.355 58.048 677.419 57.088C677.483 56.064 677.643 55.296 677.899 54.784C677.899 54.272 677.963 53.888 678.091 53.632C678.283 53.312 678.347 53.024 678.283 52.768C678.219 52.512 678.283 52.064 678.475 51.424C678.667 50.784 678.859 50.176 679.051 49.6C679.499 48.576 680.011 47.264 680.587 45.664C681.163 44 681.739 42.336 682.315 40.672C682.891 38.944 683.371 37.472 683.755 36.256C684.139 34.976 684.363 34.208 684.427 33.952C684.427 33.184 684.939 32.768 685.963 32.704C686.731 32.448 687.659 32.768 688.747 33.664C689.835 34.56 690.699 35.52 691.339 36.544C691.851 37.056 692.043 37.728 691.915 38.56C691.787 39.392 691.371 40.576 690.667 42.112C690.411 42.624 690.091 43.488 689.707 44.704C689.387 45.856 689.163 46.816 689.035 47.584C688.779 48.096 688.459 48.832 688.075 49.792C687.755 50.688 687.467 51.552 687.211 52.384C687.083 52.704 686.955 53.312 686.827 54.208C686.699 55.04 686.539 55.904 686.347 56.8C686.155 57.696 685.899 58.4 685.579 58.912C685.003 61.536 683.979 63.072 682.507 63.52C681.099 63.968 679.851 63.584 678.763 62.368ZM689.131 23.872C688.427 23.36 687.883 22.752 687.499 22.048C687.179 21.28 686.987 20.608 686.923 20.032C686.923 19.456 686.987 19.104 687.115 18.976C687.755 18.272 688.299 17.344 688.747 16.192C689.259 15.04 689.803 13.984 690.379 13.024C690.507 12.832 690.667 12.576 690.859 12.256C691.115 11.872 691.371 11.648 691.627 11.584C692.395 11.072 693.451 11.104 694.795 11.68C696.203 12.256 697.227 13.056 697.867 14.08C698.443 15.296 698.603 16.544 698.347 17.824C698.155 19.104 697.483 20.448 696.331 21.856C695.371 23.136 694.155 23.968 692.683 24.352C691.211 24.672 690.027 24.512 689.131 23.872ZM705.767 82.624C705.063 82.688 703.975 82.528 702.503 82.144C701.031 81.824 699.591 81.184 698.183 80.224C696.455 78.752 695.271 77.536 694.631 76.576C693.991 75.616 693.639 74.752 693.575 73.984C693.575 73.28 693.607 72.64 693.671 72.064C693.991 70.656 694.663 69.984 695.687 70.048C696.775 70.112 697.607 70.4 698.183 70.912C698.823 71.424 699.495 72.032 700.199 72.736C700.967 73.504 701.703 74.176 702.407 74.752C703.175 75.328 703.815 75.584 704.327 75.52C705.607 75.392 706.663 74.848 707.495 73.888C708.327 72.992 709.159 71.552 709.991 69.568C710.503 68.16 710.887 66.944 711.143 65.92C711.463 64.896 711.783 63.776 712.103 62.56C712.423 61.344 712.807 59.712 713.255 57.664C713.575 56.192 713.799 55.168 713.927 54.592C714.119 53.952 714.215 53.568 714.215 53.44C714.215 53.248 714.183 53.152 714.119 53.152C714.119 53.152 713.895 53.28 713.447 53.536C712.999 53.792 712.359 54.08 711.527 54.4C710.759 54.72 709.895 55.04 708.935 55.36C707.143 55.936 705.351 56.448 703.559 56.896C701.767 57.28 700.391 57.312 699.431 56.992C698.471 56.608 697.703 55.968 697.127 55.072C696.551 54.176 696.167 53.216 695.975 52.192C695.847 51.168 695.815 50.336 695.879 49.696C696.007 49.184 696.295 48.352 696.743 47.2C697.191 46.048 697.703 44.832 698.279 43.552C698.855 42.272 699.399 41.152 699.911 40.192C700.423 39.232 700.839 38.72 701.159 38.656C701.415 38.528 701.639 38.272 701.831 37.888C702.087 37.44 702.215 37.088 702.215 36.832C702.279 36.576 702.535 36.16 702.983 35.584C703.495 35.008 704.935 33.888 707.303 32.224C709.671 29.984 711.815 28.32 713.735 27.232C715.655 26.08 717.415 25.44 719.015 25.312C719.463 25.376 719.879 25.408 720.263 25.408C720.711 25.408 720.935 25.408 720.935 25.408C720.935 25.408 721.287 25.504 721.991 25.696C722.695 25.888 723.399 26.144 724.103 26.464C724.935 26.784 725.831 27.552 726.791 28.768C727.751 29.92 728.583 31.2 729.287 32.608C729.991 34.016 730.375 35.296 730.439 36.448C730.375 37.856 730.055 39.264 729.479 40.672C728.903 42.08 728.359 42.752 727.847 42.688C727.335 42.624 726.759 42.816 726.119 43.264C725.543 43.648 725.095 44.416 724.775 45.568C724.583 45.824 724.359 46.24 724.103 46.816C723.847 47.328 723.559 47.84 723.239 48.352C723.175 48.672 723.015 49.472 722.759 50.752C722.503 51.968 722.183 53.344 721.799 54.88C721.479 56.352 721.191 57.728 720.935 59.008C720.679 60.224 720.519 61.024 720.455 61.408C720.391 61.664 720.231 62.272 719.975 63.232C719.719 64.128 719.399 65.152 719.015 66.304C718.695 67.456 718.343 68.512 717.959 69.472C717.703 71.328 717.191 72.928 716.423 74.272C715.655 75.68 714.823 76.928 713.927 78.016C712.455 79.616 710.983 80.736 709.511 81.376C708.103 82.08 706.855 82.496 705.767 82.624ZM703.943 49.024C704.135 49.536 704.647 49.728 705.479 49.6C706.375 49.472 707.591 49.184 709.127 48.736C710.983 47.968 712.359 47.36 713.255 46.912C714.215 46.464 714.951 45.888 715.463 45.184C715.847 44.672 716.199 44.16 716.519 43.648C716.903 43.136 717.255 42.688 717.575 42.304C717.703 42.176 717.895 41.952 718.151 41.632C718.471 41.312 718.727 41.024 718.919 40.768C719.303 40.512 719.623 40.288 719.879 40.096C720.199 39.84 720.487 39.616 720.743 39.424C721.063 39.296 721.351 39.008 721.607 38.56C721.863 38.048 721.927 37.536 721.799 37.024C721.735 36.576 721.447 35.968 720.935 35.2C720.423 34.368 719.719 33.728 718.823 33.28C717.991 32.768 716.999 33.12 715.847 34.336C714.759 35.552 712.999 37.184 710.567 39.232C709.159 40.768 707.911 42.208 706.823 43.552C705.735 44.832 704.935 45.952 704.423 46.912C703.911 47.808 703.751 48.512 703.943 49.024ZM739.104 63.904C737.568 63.904 736.224 63.104 735.072 61.504C733.984 59.84 733.312 57.856 733.056 55.552C733.12 55.04 733.184 54.304 733.248 53.344C733.376 52.384 733.504 51.392 733.632 50.368C733.888 49.152 734.24 47.584 734.688 45.664C735.135 43.744 735.615 41.824 736.128 39.904C736.64 37.92 737.088 36.224 737.472 34.816C737.856 33.344 738.08 32.48 738.144 32.224C738.528 31.328 739.392 31.104 740.736 31.552C742.08 32 743.232 32.96 744.192 34.432C744.576 34.944 744.8 35.552 744.864 36.256C744.992 36.96 744.896 37.984 744.576 39.328C744.32 40.672 743.808 42.656 743.04 45.28C742.336 47.84 741.792 49.92 741.408 51.52C741.088 53.056 740.96 54.688 741.024 56.416C740.768 59.36 740.512 61.376 740.256 62.464C740 63.488 739.616 63.968 739.104 63.904ZM747.936 24.064C747.68 24.256 747.424 24.352 747.168 24.352C746.976 24.288 746.624 24.096 746.112 23.776C745.664 23.712 745.088 23.424 744.384 22.912C743.744 22.336 743.168 21.76 742.656 21.184C742.208 20.608 741.984 20.256 741.984 20.128C741.92 19.488 741.952 18.464 742.08 17.056C742.272 15.648 742.624 14.336 743.136 13.12C743.712 11.84 744.48 11.168 745.44 11.104C745.696 11.104 746.24 11.232 747.072 11.488C747.968 11.744 748.896 12.064 749.856 12.448C750.368 13.408 750.848 14.656 751.296 16.192C751.744 17.728 751.776 19.232 751.392 20.704C751.072 22.112 749.92 23.232 747.936 24.064ZM760.059 69.76C756.923 69.696 754.907 68.8 754.011 67.072C753.179 65.408 752.955 63.296 753.339 60.736C753.723 59.52 753.947 58.432 754.011 57.472C754.139 56.448 754.427 55.808 754.875 55.552C754.875 55.552 754.907 55.456 754.971 55.264C755.099 55.072 755.067 54.88 754.875 54.688C754.875 53.856 755.163 52.704 755.739 51.232C755.867 50.848 756.027 50.4 756.219 49.888C756.475 49.312 756.603 49.024 756.603 49.024C756.283 48.512 756.283 48.096 756.603 47.776C756.923 47.456 757.243 47.168 757.563 46.912C757.947 46.592 757.979 46.24 757.659 45.856C757.531 45.6 757.691 45.024 758.139 44.128C758.587 43.168 759.099 42.176 759.675 41.152C760.251 40.128 760.635 39.328 760.827 38.752C760.827 38.624 760.987 38.176 761.307 37.408C761.627 36.64 762.011 35.744 762.459 34.72C762.907 33.696 763.323 32.768 763.707 31.936C764.155 31.104 764.443 30.56 764.571 30.304C765.211 29.984 764.955 29.76 763.803 29.632C762.651 29.504 761.435 29.472 760.155 29.536C758.171 29.472 756.571 29.376 755.355 29.248C754.203 29.12 753.243 28.832 752.475 28.384C751.707 27.488 751.611 26.432 752.187 25.216C752.763 23.936 753.691 23.264 754.971 23.2C755.803 23.136 756.443 23.104 756.891 23.104C757.403 23.104 758.043 23.072 758.811 23.008C759.643 22.88 760.923 22.72 762.651 22.528L767.547 22.144L767.835 20.512C768.347 19.68 768.699 19.136 768.891 18.88C769.083 18.624 769.211 18.368 769.275 18.112C769.339 17.792 769.435 17.248 769.563 16.48C769.563 16.48 769.851 15.968 770.427 14.944C771.003 13.856 771.355 12.736 771.483 11.584C772.251 10.304 772.923 9.152 773.499 8.128C774.075 7.04 774.427 6.368 774.555 6.112C775.643 4.512 776.699 3.648 777.723 3.51999C778.811 3.392 779.835 3.648 780.795 4.288C781.371 4.608 781.915 5.024 782.427 5.536C782.939 5.984 783.259 6.592 783.387 7.36C783.515 8.064 783.227 8.99199 782.523 10.144C782.395 10.4 782.203 10.88 781.947 11.584C781.691 12.224 781.499 12.768 781.371 13.216C780.987 13.664 780.507 14.4 779.931 15.424C779.419 16.384 779.067 17.376 778.875 18.4C778.363 19.488 778.043 20.16 777.915 20.416C777.787 20.672 777.595 20.8 777.339 20.8C777.467 21.44 777.851 21.76 778.491 21.76C779.131 21.696 780.187 21.632 781.659 21.568C782.875 21.44 783.707 21.312 784.155 21.184C784.667 20.992 785.243 21.056 785.883 21.376C786.203 21.824 786.363 22.496 786.363 23.392C786.427 24.224 786.331 25.056 786.075 25.888C785.819 26.656 785.467 27.136 785.019 27.328C784.699 27.328 784.027 27.52 783.003 27.904C782.043 28.224 780.827 28.416 779.355 28.48L774.267 28.96L772.635 32.224C772.187 33.056 771.803 33.824 771.483 34.528C771.163 35.168 770.939 35.552 770.811 35.68C770.811 36.064 770.587 36.64 770.139 37.408C769.755 38.176 769.339 39.008 768.891 39.904C768.507 40.992 768.059 41.984 767.547 42.88C767.099 43.776 766.875 44.224 766.875 44.224C766.619 44.224 766.491 44.416 766.491 44.8C766.811 45.568 766.715 46.144 766.203 46.528C765.883 46.72 765.595 47.008 765.339 47.392C765.147 47.712 765.051 47.872 765.051 47.872C765.307 48.128 765.339 48.448 765.147 48.832C765.019 49.216 764.827 49.632 764.571 50.08C764.571 50.592 764.411 51.328 764.091 52.288C763.835 53.248 763.547 54.144 763.227 54.976C763.291 56.128 763.355 56.864 763.419 57.184C763.483 57.504 763.643 57.632 763.899 57.568C764.219 57.632 764.667 57.632 765.243 57.568C765.819 57.504 766.235 57.472 766.491 57.472C767.451 57.024 767.003 59.264 765.147 64.192C764.123 65.792 763.099 67.104 762.075 68.128C761.051 69.216 760.379 69.76 760.059 69.76ZM788.577 62.272C787.809 62.464 786.944 62.24 785.984 61.6C785.025 60.96 784.161 60.16 783.393 59.2C782.625 58.24 782.145 57.376 781.953 56.608C781.697 55.264 781.761 53.632 782.145 51.712C782.593 49.728 783.329 47.648 784.353 45.472C785.377 43.232 786.657 41.056 788.193 38.944C789.729 36.768 791.457 34.816 793.377 33.088C795.297 31.36 797.377 30.016 799.617 29.056C800.577 28.544 801.249 28.224 801.633 28.096C802.017 27.904 802.401 27.904 802.785 28.096C803.169 28.224 803.841 28.544 804.801 29.056C805.697 29.312 806.593 29.632 807.489 30.016C808.449 30.336 809.281 30.976 809.985 31.936C810.497 32.896 810.881 33.856 811.137 34.816C811.393 35.776 811.617 36.864 811.809 38.08C812.321 39.68 812.513 40.736 812.385 41.248C812.257 41.696 812.065 42.048 811.809 42.304C811.297 42.944 811.169 43.264 811.425 43.264C811.425 43.264 811.393 43.392 811.329 43.648C811.329 43.84 811.201 44.16 810.945 44.608C810.497 46.016 810.145 47.36 809.889 48.64C809.697 49.856 809.729 50.944 809.985 51.904C810.497 53.312 811.169 54.144 812.001 54.4C812.897 54.656 814.049 54.08 815.457 52.672C816.161 52.16 816.961 51.84 817.857 51.712C818.753 51.52 819.201 51.68 819.201 52.192C819.201 52.192 819.297 52.288 819.489 52.48C819.681 52.608 819.905 52.672 820.161 52.672C820.481 52.672 820.609 52.992 820.545 53.632C820.481 54.208 820.353 54.88 820.161 55.648C819.969 56.416 819.713 57.056 819.393 57.568C818.433 58.528 817.953 59.168 817.953 59.488C817.953 59.488 817.825 59.616 817.569 59.872C817.377 60.064 817.025 60.384 816.513 60.832C815.361 61.536 813.889 61.888 812.097 61.888C810.369 61.888 809.025 61.536 808.065 60.832C807.105 60.128 806.145 59.264 805.185 58.24C804.289 57.216 803.713 56.256 803.457 55.36L802.977 54.4L800.193 56.224C799.489 56.928 798.977 57.472 798.656 57.856C798.337 58.176 798.049 58.464 797.793 58.72C797.601 58.976 797.377 59.2 797.121 59.392C796.929 59.584 796.705 59.68 796.449 59.68C796.193 59.68 795.969 59.68 795.777 59.68C795.585 59.68 795.489 59.68 795.489 59.68C795.489 59.936 795.041 60.288 794.145 60.736C793.249 61.12 792.257 61.472 791.169 61.792C790.081 62.112 789.217 62.272 788.577 62.272ZM790.593 54.208C790.977 54.208 791.553 53.984 792.321 53.536C793.153 53.024 794.049 52.416 795.009 51.712C795.969 51.008 796.833 50.304 797.601 49.6C798.433 48.896 799.041 48.32 799.425 47.872C799.681 47.616 799.969 47.2 800.289 46.624C800.673 46.048 801.089 45.536 801.536 45.088C803.009 43.424 803.937 42.112 804.321 41.152C804.705 40.128 804.545 39.04 803.841 37.888C803.585 37.184 803.265 36.8 802.881 36.736C802.497 36.672 801.697 36.896 800.481 37.408C799.713 37.856 798.881 38.592 797.984 39.616C797.089 40.64 796.161 41.792 795.201 43.072C794.305 44.352 793.473 45.664 792.705 47.008C791.937 48.352 791.297 49.568 790.785 50.656C790.337 51.744 790.113 52.608 790.113 53.248C790.113 53.504 790.177 53.728 790.305 53.92C790.497 54.112 790.593 54.208 790.593 54.208ZM827.163 65.056C825.947 65.376 824.859 65.024 823.899 64C822.939 63.04 822.267 61.6 821.883 59.68C821.499 57.76 821.563 55.616 822.075 53.248C822.395 52.48 822.651 51.744 822.843 51.04C823.035 50.272 823.131 49.664 823.131 49.216C823.259 48.576 823.515 47.648 823.899 46.432C824.283 45.152 824.699 43.84 825.147 42.496C825.595 41.152 826.011 39.968 826.395 38.944C826.843 37.856 827.131 37.184 827.259 36.928C827.515 36.928 827.739 36.704 827.931 36.256C828.123 35.808 828.219 35.36 828.219 34.912C828.219 34.4 828.315 33.824 828.507 33.184C828.763 32.544 829.019 32.096 829.275 31.84C829.275 31.52 829.339 31.168 829.467 30.784C829.659 30.336 829.755 29.984 829.755 29.728C829.755 29.472 829.819 29.216 829.947 28.96C830.139 28.704 830.235 28.448 830.235 28.192C830.683 27.36 831.259 26.048 831.963 24.256C832.731 22.4 833.531 20.352 834.363 18.112C835.259 15.872 836.091 13.664 836.859 11.488C837.627 9.312 838.235 7.488 838.683 6.016C839.195 4.48 839.451 3.552 839.451 3.232C839.451 2.72 839.643 2.24 840.027 1.792C840.411 1.344 840.859 1.12 841.371 1.12C841.563 0.927996 842.011 0.799995 842.715 0.735996C843.419 0.607998 843.899 0.543999 844.155 0.543999C844.155 0.543999 844.283 0.671999 844.539 0.927999C844.795 1.184 845.179 1.568 845.691 2.08C846.203 2.528 846.683 3.04 847.131 3.616C847.643 4.192 847.899 4.864 847.899 5.632C847.899 6.464 847.771 7.264 847.515 8.032C847.323 8.8 846.939 9.856 846.363 11.2C845.787 12.48 844.891 14.4 843.675 16.96C843.163 18.24 842.619 19.456 842.043 20.608C841.467 21.696 841.179 22.368 841.179 22.624C841.179 22.88 841.051 23.264 840.795 23.776C840.603 24.288 840.379 24.928 840.123 25.696C839.867 26.208 839.515 26.976 839.067 28C838.619 28.96 838.139 30.016 837.627 31.168C837.179 32.256 836.795 33.216 836.475 34.048C836.155 34.816 835.995 35.264 835.995 35.392C835.995 35.648 835.963 35.904 835.899 36.16C835.899 36.416 835.771 36.672 835.515 36.928C835.259 36.928 835.099 37.12 835.035 37.504C835.035 37.824 835.035 37.984 835.035 37.984C835.035 38.624 834.523 40.32 833.499 43.072C832.475 46.592 831.515 49.824 830.619 52.768C829.787 55.712 829.371 58.08 829.371 59.872C829.371 61.408 829.115 62.592 828.603 63.424C828.155 64.256 827.675 64.8 827.163 65.056ZM213.07 170.352C212.238 170.416 211.406 169.904 210.574 168.816C209.742 167.728 209.038 166.288 208.462 164.496C207.95 162.704 207.694 160.752 207.694 158.64C207.438 156.016 207.662 152.816 208.366 149.04C209.07 145.264 210.126 140.848 211.534 135.792C212.046 134.064 212.782 131.952 213.742 129.456C214.702 126.96 215.694 124.496 216.718 122.064C217.806 119.632 218.766 117.584 219.598 115.92C220.43 114.192 220.942 113.232 221.134 113.04C221.518 113.168 221.71 112.88 221.71 112.176C221.71 112.048 221.966 111.568 222.478 110.736C222.99 109.904 223.47 109.008 223.918 108.048C224.75 106.832 225.806 105.552 227.086 104.208C228.43 102.8 229.774 101.52 231.118 100.368C232.526 99.216 233.742 98.448 234.766 98.064C235.726 97.68 236.686 97.488 237.646 97.488C238.862 97.488 240.174 97.904 241.582 98.736C243.054 99.504 244.302 100.496 245.326 101.712C246.414 102.864 246.958 104.048 246.958 105.264C246.958 106.288 246.734 107.28 246.286 108.24C246.094 109.2 245.71 110.288 245.134 111.504C244.558 112.656 243.982 113.744 243.406 114.768C242.894 115.728 242.478 116.432 242.158 116.88C240.302 118.288 238.862 118.832 237.838 118.512C236.814 118.192 236.462 117.808 236.782 117.36C236.782 117.104 236.878 116.56 237.07 115.728C237.262 114.832 237.39 114.16 237.454 113.712C237.454 113.584 237.582 113.2 237.838 112.56C238.158 111.92 238.318 111.28 238.318 110.64C238.894 108.336 239.15 106.832 239.086 106.128C239.086 105.424 238.798 105.072 238.222 105.072C237.902 105.008 237.518 105.072 237.07 105.264C236.622 105.456 236.238 105.712 235.918 106.032C235.662 106.288 235.534 106.576 235.534 106.896C235.534 107.088 235.534 107.216 235.534 107.28C235.342 107.216 234.766 107.76 233.806 108.912C232.91 110 231.886 111.344 230.734 112.944C229.582 114.48 228.622 115.888 227.854 117.168C227.342 118.256 226.766 119.504 226.126 120.912C225.55 122.256 224.718 124.336 223.63 127.152L222.862 129.456L224.398 129.648C224.91 129.712 225.55 129.68 226.318 129.552C227.15 129.36 228.078 129.168 229.102 128.976C231.278 128.656 232.75 128.88 233.518 129.648C234.35 130.352 234.99 131.216 235.438 132.24C236.142 133.776 235.758 134.832 234.286 135.408C232.814 135.92 229.646 136.304 224.782 136.56C223.758 136.432 222.862 136.4 222.094 136.464C221.39 136.464 220.91 136.592 220.654 136.848C220.398 136.976 220.046 137.68 219.598 138.96C219.15 140.176 218.67 141.648 218.158 143.376C217.71 145.04 217.358 146.64 217.102 148.176C216.59 150.16 216.27 152.304 216.142 154.608C216.014 156.848 216.014 158.96 216.142 160.944C216.27 162.864 216.462 164.336 216.718 165.36C217.102 166.896 216.782 168.016 215.758 168.72C214.734 169.488 213.838 170.032 213.07 170.352ZM240.027 160.56C239.579 160.56 238.971 160.24 238.203 159.6C237.499 158.96 237.083 158.384 236.955 157.872C236.763 157.36 236.763 156.624 236.955 155.664C237.211 154.64 237.563 153.456 238.011 152.112C238.523 150 238.875 148.464 239.067 147.504C239.259 146.544 239.451 145.712 239.643 145.008C239.835 144.304 240.091 143.28 240.411 141.936C240.795 141.104 241.083 140.304 241.275 139.536C241.531 138.704 241.787 137.872 242.043 137.04C242.363 136.208 242.715 135.376 243.099 134.544C243.547 132.88 244.091 131.312 244.731 129.84C245.435 128.304 246.107 127.024 246.747 126C246.875 125.808 247.163 125.456 247.611 124.944C248.059 124.432 248.411 124.176 248.667 124.176C249.179 123.664 249.883 123.504 250.779 123.696C251.675 123.824 252.443 124.144 253.083 124.656C253.851 125.488 254.267 126.48 254.331 127.632C254.459 128.72 254.011 130.256 252.987 132.24C252.219 134.224 251.483 135.792 250.779 136.944C250.139 138.032 249.499 139.312 248.859 140.784C249.563 139.76 250.427 138.704 251.451 137.616C252.475 136.528 253.275 135.664 253.851 135.024C254.683 134.128 255.451 133.424 256.155 132.912C256.923 132.336 257.947 131.632 259.227 130.8C260.315 130.032 261.403 129.328 262.491 128.688C263.643 128.048 265.019 127.856 266.619 128.112C267.259 128.048 267.931 128.368 268.635 129.072C269.403 129.776 269.979 130.704 270.363 131.856C270.811 132.944 270.811 134.128 270.363 135.408C268.891 135.088 267.579 135.152 266.427 135.6C265.275 135.984 264.283 136.464 263.451 137.04C262.683 137.616 262.075 138.064 261.627 138.384C260.987 138.768 260.251 139.28 259.419 139.92C258.587 140.496 257.691 141.168 256.731 141.936C255.771 142.64 254.747 143.44 253.659 144.336C252.123 145.616 250.971 146.736 250.203 147.696C249.435 148.656 248.827 149.68 248.379 150.768C247.995 151.728 247.515 152.88 246.939 154.224C246.363 155.568 245.819 156.784 245.307 157.872C244.795 158.896 244.379 159.536 244.059 159.792C243.739 160.432 243.067 160.784 242.043 160.848C241.083 160.912 240.411 160.816 240.027 160.56ZM290.269 160.08C288.349 161.168 286.301 161.808 284.125 162C282.013 162.128 280.029 161.84 278.173 161.136C276.317 160.368 274.813 159.248 273.661 157.776C273.021 156.944 272.413 155.632 271.837 153.84C271.261 151.984 271.165 149.488 271.549 146.352C271.933 143.408 272.829 140.432 274.237 137.424C275.709 134.416 277.501 131.76 279.613 129.456C281.725 127.152 284.029 125.584 286.525 124.752C287.421 124.432 288.317 124.208 289.213 124.08C290.173 123.888 291.421 123.856 292.957 123.984C294.429 124.176 295.741 124.56 296.893 125.136C298.045 125.648 298.877 126.224 299.389 126.864C300.413 127.888 301.085 128.88 301.405 129.84C301.725 130.8 301.853 131.728 301.789 132.624C301.469 134.672 300.541 136.88 299.005 139.248C297.533 141.616 295.453 143.376 292.765 144.528C291.677 144.976 290.397 145.264 288.925 145.392C287.453 145.52 285.437 145.328 282.877 144.816C281.341 144.496 280.317 144.656 279.805 145.296C279.357 145.936 279.165 147.184 279.229 149.04C279.357 150.192 279.613 151.216 279.997 152.112C280.445 152.944 281.245 153.52 282.397 153.84C283.869 154.096 284.925 154.128 285.565 153.936C286.205 153.68 287.005 153.328 287.965 152.88C288.477 152.56 288.957 152.208 289.405 151.824C289.917 151.44 290.397 151.056 290.845 150.672C291.357 150.288 291.773 150 292.093 149.808C292.413 149.552 292.733 149.392 293.053 149.328C293.373 149.264 293.693 149.232 294.013 149.232C294.717 149.296 295.389 149.68 296.029 150.384C296.669 151.088 297.085 151.76 297.277 152.4C297.277 152.912 296.957 153.648 296.317 154.608C295.677 155.504 294.813 156.464 293.725 157.488C292.701 158.448 291.549 159.312 290.269 160.08ZM289.021 138.672C289.469 138.48 290.109 138.032 290.941 137.328C291.837 136.624 292.637 135.888 293.341 135.12C294.045 134.288 294.397 133.648 294.397 133.2C294.397 132.496 293.917 131.888 292.957 131.376C292.061 130.864 290.877 130.768 289.405 131.088C288.893 131.216 288.285 131.568 287.581 132.144C286.877 132.72 286.173 133.392 285.469 134.16C284.765 134.864 284.157 135.568 283.645 136.272C283.133 136.912 282.781 137.424 282.589 137.808C282.845 138.128 283.357 138.384 284.125 138.576C284.893 138.768 285.725 138.864 286.621 138.864C287.581 138.864 288.381 138.8 289.021 138.672ZM313.499 163.728C309.979 163.728 307.259 162.704 305.339 160.656C303.483 158.608 302.555 155.472 302.555 151.248C302.555 148.944 302.971 146.416 303.803 143.664C304.699 140.912 305.851 138.224 307.259 135.6C308.731 132.976 310.331 130.704 312.059 128.784C313.787 126.8 315.515 125.424 317.243 124.656C317.883 124.336 318.555 124.112 319.259 123.984C320.027 123.792 320.763 123.696 321.467 123.696C322.235 123.696 323.067 123.76 323.963 123.888C324.923 123.952 325.819 124.144 326.651 124.464C328.123 124.912 329.403 125.776 330.491 127.056C331.643 128.336 332.219 130.192 332.219 132.624C332.219 133.264 332.155 133.968 332.027 134.736C331.899 135.44 331.675 136.144 331.355 136.848C330.523 138.96 329.243 140.976 327.515 142.896C325.851 144.816 324.091 146.16 322.235 146.928C321.723 147.184 321.211 147.376 320.699 147.504C320.251 147.568 319.771 147.6 319.259 147.6C317.915 147.6 316.699 147.408 315.611 147.024C314.587 146.64 313.627 146.128 312.731 145.488L311.963 144.816L311.483 145.776C311.035 146.992 310.715 148.016 310.523 148.848C310.395 149.68 310.331 150.288 310.331 150.672C310.331 151.44 310.363 152.24 310.427 153.072C310.491 153.84 310.683 154.48 311.003 154.992C311.259 155.312 311.579 155.568 311.963 155.76C312.411 155.952 312.955 156.048 313.595 156.048C313.979 156.048 314.331 156.048 314.651 156.048C315.035 155.984 315.355 155.92 315.611 155.856C316.763 155.6 317.691 155.184 318.395 154.608C319.163 153.968 319.963 153.424 320.795 152.976L321.179 152.784L321.083 152.496C322.171 151.92 322.907 151.568 323.291 151.44C323.675 151.248 323.963 151.088 324.155 150.96C324.411 150.704 324.699 150.576 325.019 150.576C325.915 150.448 326.779 150.704 327.611 151.344C328.507 151.92 328.955 152.656 328.955 153.552C328.955 153.936 328.667 154.544 328.091 155.376C327.579 156.208 326.907 157.04 326.075 157.872C325.307 158.64 324.507 159.248 323.675 159.696C323.483 159.76 323.291 159.856 323.099 159.984C322.907 160.048 322.715 160.144 322.523 160.272H322.619C322.043 161.04 321.467 161.424 320.891 161.424H320.123C319.867 161.872 319.035 162.352 317.627 162.864C316.219 163.44 314.843 163.728 313.499 163.728ZM318.491 140.592C319.067 140.592 319.579 140.496 320.027 140.304C320.539 140.112 321.019 139.888 321.467 139.632C323.003 138.544 323.995 137.136 324.443 135.408C324.891 133.68 324.731 132.368 323.963 131.472C323.835 131.28 323.675 131.152 323.483 131.088C323.291 130.96 323.067 130.896 322.811 130.896C322.107 130.896 321.307 131.12 320.411 131.568C319.579 132.016 318.747 132.656 317.915 133.488C317.083 134.32 316.315 135.312 315.611 136.464L314.363 138.48C314.491 138.416 314.587 138.384 314.651 138.384C314.779 138.32 314.875 138.288 314.939 138.288C315.515 138.288 315.899 138.48 316.091 138.864C316.283 139.248 316.507 139.632 316.763 140.016C317.083 140.4 317.659 140.592 318.491 140.592ZM362.17 163.824C361.338 164.016 360.506 163.792 359.674 163.152C358.906 162.576 358.362 161.936 358.042 161.232C357.658 160.208 357.402 159.248 357.274 158.352C357.21 157.392 357.146 156.304 357.082 155.088L356.986 151.824L353.05 155.376C350.874 157.424 348.826 158.896 346.906 159.792C345.05 160.624 343.354 161.04 341.818 161.04C341.114 160.912 340.25 160.464 339.226 159.696C338.266 158.864 337.37 157.968 336.538 157.008C335.77 155.984 335.226 155.152 334.906 154.512C334.522 153.616 334.394 152.368 334.522 150.768C334.714 149.168 335.098 147.408 335.674 145.488C336.314 143.568 337.082 141.68 337.978 139.824C338.938 137.968 340.026 136.368 341.242 135.024C343.354 131.824 345.978 129.84 349.114 129.072C352.25 128.24 355.034 128.496 357.466 129.84C358.618 130.416 359.45 130.64 359.962 130.512C360.474 130.384 360.794 129.968 360.922 129.264C361.178 128.24 361.466 127.28 361.786 126.384C362.106 125.488 362.554 124.144 363.13 122.352C364.73 117.488 366.106 113.68 367.258 110.928C368.474 108.176 369.562 105.776 370.522 103.728C371.226 102.256 371.93 101.232 372.634 100.656C373.338 100.08 373.946 99.824 374.458 99.888C375.162 99.888 376.026 100.144 377.05 100.656C378.138 101.168 378.842 101.872 379.162 102.768C379.418 103.344 379.514 103.952 379.45 104.592C379.45 105.232 379.258 105.904 378.874 106.608C378.042 108.144 377.05 110.192 375.898 112.752C374.81 115.248 373.69 118 372.538 121.008C371.45 124.016 370.426 126.992 369.466 129.936C368.506 132.88 367.706 135.472 367.066 137.712C366.682 139.12 366.362 140.912 366.106 143.088C365.914 145.264 365.754 147.504 365.626 149.808C365.562 152.048 365.562 154.064 365.626 155.856C365.69 157.584 365.786 158.704 365.914 159.216C366.298 160.496 366.298 161.456 365.914 162.096C365.53 162.736 364.986 163.152 364.282 163.344C363.578 163.6 362.874 163.76 362.17 163.824ZM346.33 152.208C347.226 151.888 348.026 151.504 348.73 151.056C349.434 150.608 350.266 150.032 351.226 149.328C353.146 147.856 354.522 146.576 355.354 145.488C356.25 144.4 356.954 143.056 357.466 141.456C357.786 140.496 357.786 139.664 357.466 138.96C357.21 138.256 356.73 137.584 356.026 136.944C355.322 136.368 354.426 136.144 353.338 136.272C352.25 136.336 351.002 137.008 349.594 138.288C348.058 139.696 346.746 141.328 345.658 143.184C344.57 145.04 343.674 147.696 342.97 151.152C342.842 151.792 343.066 152.24 343.642 152.496C344.218 152.752 345.114 152.656 346.33 152.208ZM383.899 162.864C383.067 162.928 382.395 162.832 381.883 162.576C381.371 162.384 380.731 162.064 379.963 161.616C378.555 160.528 377.371 159.184 376.411 157.584C375.515 155.984 375.099 154.64 375.163 153.552C375.291 152.976 375.291 152.464 375.163 152.016C375.099 151.568 375.067 151.344 375.067 151.344C374.683 151.024 374.555 150.832 374.683 150.768C374.811 150.64 374.907 150.448 374.971 150.192C375.483 150.064 375.547 149.712 375.163 149.136C374.971 148.624 375.067 147.472 375.451 145.68C375.899 143.824 376.475 142.096 377.179 140.496C377.499 139.792 377.947 138.864 378.523 137.712C379.163 136.56 379.867 135.408 380.635 134.256C381.403 133.04 382.107 132.08 382.747 131.376C384.155 129.776 385.403 128.464 386.491 127.44C387.643 126.416 388.923 125.648 390.331 125.136C391.611 124.624 392.891 124.4 394.171 124.464C395.515 124.528 396.699 124.976 397.723 125.808C399.259 126.256 400.635 126.96 401.851 127.92C403.067 128.816 403.899 130.096 404.347 131.76C404.859 133.616 405.019 135.824 404.827 138.384C404.699 140.88 403.611 144.112 401.563 148.08C400.347 150.576 399.131 152.592 397.915 154.128C396.763 155.664 395.355 157.136 393.691 158.544C392.475 159.568 390.907 160.464 388.987 161.232C387.067 162 385.371 162.544 383.899 162.864ZM392.251 148.368C393.083 147.216 393.723 146.096 394.171 145.008C394.683 143.92 395.163 142.416 395.611 140.496C395.803 139.792 395.899 138.928 395.899 137.904C395.963 136.88 395.931 135.952 395.803 135.12C395.739 134.224 395.515 133.744 395.131 133.68C394.299 133.36 393.435 133.36 392.539 133.68C391.707 133.936 390.715 134.704 389.563 135.984C388.539 137.136 387.707 138.224 387.067 139.248C386.491 140.208 385.947 141.392 385.435 142.8C384.987 144.144 384.475 145.904 383.899 148.08C383.387 150.192 383.355 151.888 383.803 153.168C384.315 154.448 385.275 154.8 386.683 154.224C388.091 153.648 389.947 151.696 392.251 148.368ZM411.96 158.448C411.768 158.192 411.352 157.872 410.712 157.488C410.072 157.104 409.752 156.784 409.752 156.528C409.752 156.4 409.72 156.24 409.656 156.048C409.656 155.856 409.528 155.76 409.272 155.76C409.08 155.568 409.176 154.864 409.56 153.648C410.008 152.432 410.584 150.992 411.288 149.328C412.056 147.664 412.856 146.064 413.688 144.528C414.52 142.928 415.224 141.648 415.8 140.688C416.12 140.496 416.312 140.24 416.376 139.92C416.504 139.536 416.504 139.344 416.376 139.344C416.376 139.344 416.536 139.056 416.856 138.48C417.24 137.84 417.528 137.424 417.72 137.232C418.232 136.336 418.616 135.44 418.872 134.544C419.128 133.584 419.192 132.784 419.064 132.144C418.808 131.824 418.52 131.728 418.2 131.856C417.88 131.984 417.72 132.048 417.72 132.048C417.464 132.112 417.08 132.24 416.568 132.432C416.12 132.56 415.704 132.752 415.32 133.008C413.848 134.032 412.76 134.544 412.056 134.544C411.416 134.544 410.776 133.776 410.136 132.24C409.88 131.536 409.784 130.864 409.848 130.224C409.912 129.584 410.168 129.072 410.616 128.688C411.128 128.24 411.768 127.792 412.536 127.344C413.304 126.832 413.816 126.48 414.072 126.288C414.776 125.84 415.768 125.36 417.048 124.848C418.328 124.336 419.096 124.048 419.352 123.984C421.016 123.472 422.424 123.472 423.576 123.984C424.728 124.432 425.592 125.328 426.168 126.672C427.064 127.76 427.512 128.912 427.512 130.128C427.512 131.344 427.064 132.848 426.168 134.64L425.208 136.08C424.888 136.72 424.824 137.04 425.016 137.04C425.272 137.04 425.56 136.816 425.88 136.368C426.072 136.112 426.456 135.728 427.032 135.216C427.608 134.704 427.992 134.448 428.184 134.448C428.184 134.448 428.248 134.416 428.376 134.352C428.568 134.288 428.664 134.032 428.664 133.584C428.856 133.392 429.048 133.2 429.24 133.008C429.496 132.816 429.624 132.72 429.624 132.72C429.88 132.72 430.2 132.592 430.584 132.336C431.032 132.016 431.768 131.44 432.792 130.608C433.496 130.096 434.136 129.84 434.712 129.84C436.184 129.392 437.368 129.872 438.264 131.28C439.224 132.688 439.704 134.512 439.704 136.752L437.688 141.936L441.144 137.712C441.528 137.2 441.912 136.752 442.296 136.368C442.744 135.984 443.128 135.664 443.448 135.408C443.576 134.96 443.768 134.704 444.024 134.64C444.28 134.576 444.408 134.544 444.408 134.544C444.408 134.544 444.472 134.544 444.6 134.544C444.728 134.48 444.792 134.352 444.792 134.16C445.112 133.904 445.464 133.68 445.848 133.488C446.232 133.232 446.488 132.976 446.616 132.72C447.704 132.272 449.016 132.208 450.552 132.528C452.088 132.784 453.176 133.584 453.816 134.928C454.264 135.696 454.68 136.368 455.064 136.944C455.448 137.52 455.64 138.384 455.64 139.536C455.512 140.496 455.384 141.168 455.256 141.552C455.192 141.936 455.128 142.352 455.064 142.8C455 143.184 454.904 143.888 454.776 144.912C454.52 145.424 454.36 145.968 454.296 146.544C454.296 147.12 454.296 147.664 454.296 148.176C454.296 149.008 454.328 149.584 454.392 149.904C454.456 150.16 454.712 150.288 455.16 150.288C456.056 150.096 456.792 149.808 457.368 149.424C458.008 148.976 458.712 148.4 459.48 147.696C460.44 146.8 461.272 146.672 461.976 147.312C462.744 147.888 463.224 148.56 463.416 149.328C463.544 149.584 463.416 150.16 463.032 151.056C462.648 151.952 462.2 152.816 461.688 153.648C461.176 154.48 460.76 154.896 460.44 154.896C460.248 154.896 459.864 155.152 459.288 155.664C458.712 156.176 458.264 156.528 457.944 156.72C457.496 157.168 457.048 157.584 456.6 157.968C456.216 158.352 455.768 158.544 455.256 158.544C455 158.544 454.68 158.64 454.296 158.832C453.976 158.96 453.592 159.024 453.144 159.024C452.504 159.216 451.512 159.12 450.168 158.736C448.888 158.352 448.056 157.456 447.672 156.048C447.416 155.344 447.032 154.448 446.52 153.36C446.072 152.272 445.976 150.928 446.232 149.328C446.488 148.176 446.648 147.12 446.712 146.16C446.776 145.2 446.904 144.528 447.096 144.144C447.096 143.952 447.096 143.504 447.096 142.8C447.096 142.032 447 141.648 446.808 141.648C446.552 141.648 446.072 141.968 445.368 142.608C444.664 143.248 443.832 144.112 442.872 145.2C441.912 146.224 440.92 147.344 439.896 148.56C438.936 149.776 438.072 150.992 437.304 152.208C436.728 152.912 436.216 153.776 435.768 154.8C435.32 155.824 435 156.4 434.808 156.528C434.36 157.04 433.592 157.104 432.504 156.72C431.48 156.336 430.712 155.728 430.2 154.896C430.008 154.512 429.784 154.288 429.528 154.224C429.272 154.096 429.048 153.904 428.856 153.648C428.728 153.328 428.728 152.72 428.856 151.824C429.048 150.928 429.464 149.488 430.104 147.504C430.808 145.328 431.416 143.376 431.928 141.648C432.504 139.856 432.792 138.96 432.792 138.96C432.792 138.704 432.312 138.96 431.352 139.728C430.392 140.432 429.272 141.328 427.992 142.416C427.416 143.12 426.648 144.016 425.688 145.104C424.792 146.192 423.736 147.472 422.52 148.944C421.368 150.416 420.056 152.144 418.584 154.128C416.728 156.752 415.32 158.352 414.36 158.928C413.464 159.504 412.664 159.344 411.96 158.448ZM495.719 173.616C495.335 173.872 494.471 173.552 493.127 172.656C491.783 171.824 490.663 170.896 489.767 169.872C489.319 169.36 489.031 168.816 488.903 168.24C488.775 167.664 488.807 166.576 488.999 164.976C489.255 164.272 489.383 163.6 489.383 162.96C489.447 162.32 489.479 161.872 489.479 161.616C489.479 161.232 489.575 160.336 489.767 158.928C490.023 157.52 490.279 156.048 490.535 154.512C490.791 152.912 491.015 151.696 491.207 150.864C491.207 150.8 491.239 150.576 491.303 150.192C491.431 149.808 491.527 149.52 491.591 149.328C491.719 148.752 491.879 148.048 492.071 147.216C492.263 146.384 492.455 145.264 492.647 143.856C493.159 142.256 493.575 140.688 493.895 139.152C494.279 137.552 494.471 136.464 494.471 135.888C494.471 134.736 494.919 133.904 495.815 133.392C495.879 133.072 496.071 132.592 496.391 131.952C496.711 131.248 496.999 130.672 497.255 130.224C498.535 126.576 499.591 123.664 500.423 121.488C501.255 119.312 502.119 117.424 503.015 115.824C503.399 114.736 503.815 113.616 504.263 112.464C504.775 111.312 505.287 110.416 505.799 109.776C506.247 108.88 507.015 107.792 508.103 106.512C509.255 105.168 510.471 103.888 511.751 102.672C513.031 101.456 514.055 100.56 514.823 99.984C516.231 99.28 517.543 98.704 518.759 98.256C519.975 97.808 521.255 97.584 522.599 97.584C523.815 97.584 524.871 97.872 525.767 98.448C526.727 98.96 528.135 100.048 529.991 101.712C530.631 102.544 530.951 103.344 530.951 104.112C530.951 104.88 530.791 105.52 530.471 106.032C530.023 107.056 529.351 108.336 528.455 109.872C527.559 111.344 526.695 112.688 525.863 113.904C525.031 115.056 524.423 115.664 524.039 115.728C523.271 116.176 522.471 116.304 521.639 116.112C520.807 115.92 520.391 115.344 520.391 114.384C520.391 113.936 520.391 113.52 520.391 113.136C520.455 112.752 520.487 112.56 520.487 112.56C520.679 111.728 520.903 110.992 521.159 110.352C521.479 109.712 521.767 109.168 522.023 108.72C522.535 107.888 522.663 107.088 522.407 106.32C522.215 105.552 521.415 105.232 520.007 105.36C519.815 105.488 519.431 105.808 518.855 106.32C518.343 106.768 517.767 107.312 517.127 107.952C516.551 108.528 516.039 109.104 515.591 109.68C515.143 110.192 514.919 110.544 514.919 110.736C514.919 110.736 514.727 111.088 514.343 111.792C514.023 112.432 513.511 113.168 512.807 114C512.359 114.64 511.975 115.248 511.655 115.824C511.335 116.4 511.175 116.848 511.175 117.168C511.175 117.424 511.143 117.648 511.079 117.84C511.015 118.032 510.855 118.128 510.599 118.128C510.599 118.128 510.471 118.448 510.215 119.088C510.023 119.728 509.671 120.496 509.159 121.392C508.903 122.032 508.615 122.64 508.295 123.216C508.039 123.728 507.783 124.112 507.527 124.368L507.431 124.56C507.431 124.56 507.271 124.944 506.951 125.712C506.695 126.416 506.407 127.152 506.087 127.92C505.767 128.688 505.607 129.136 505.607 129.264C505.607 129.52 505.991 129.648 506.759 129.648C507.527 129.648 508.455 129.552 509.543 129.36C510.631 129.104 511.687 128.848 512.711 128.592C513.607 128.336 514.247 128.208 514.631 128.208C515.015 128.208 515.623 128.336 516.455 128.592C516.967 128.912 517.383 129.488 517.703 130.32C518.023 131.088 518.247 131.888 518.375 132.72C518.567 133.488 518.599 134.064 518.471 134.448C518.407 134.704 517.671 135.056 516.263 135.504C514.919 135.952 513.575 136.304 512.231 136.56C511.079 136.816 509.767 137.104 508.295 137.424C506.887 137.68 505.639 137.968 504.551 138.288C503.463 138.544 502.887 138.8 502.823 139.056C502.567 139.056 502.343 139.216 502.151 139.536C502.023 139.856 501.959 140.144 501.959 140.4C501.959 141.232 501.799 141.904 501.479 142.416C501.351 142.8 501.127 143.6 500.807 144.816C500.551 145.968 500.263 147.248 499.943 148.656C499.687 150 499.431 151.28 499.175 152.496C498.983 153.648 498.887 154.416 498.887 154.8C498.503 155.248 498.279 155.824 498.215 156.528C498.151 157.168 498.119 157.744 498.119 158.256C497.863 158.768 497.703 159.248 497.639 159.696C497.575 160.08 497.543 160.4 497.543 160.656C497.543 160.72 497.543 160.848 497.543 161.04C497.543 161.232 497.511 161.424 497.447 161.616C497.383 162.256 497.287 163.088 497.159 164.112C497.095 165.2 497.063 166.256 497.063 167.28L496.775 170.064C496.711 170.896 496.583 171.6 496.391 172.176C496.263 172.816 496.039 173.296 495.719 173.616ZM526.612 161.328C525.78 161.328 525.108 161.168 524.596 160.848C524.148 160.528 523.572 160.08 522.868 159.504C521.652 158.224 520.66 156.848 519.892 155.376C519.188 153.904 518.932 152.624 519.124 151.536C519.316 151.024 519.38 150.544 519.316 150.096C519.316 149.584 519.316 149.328 519.316 149.328C518.996 149.008 518.9 148.816 519.028 148.752C519.156 148.624 519.284 148.432 519.412 148.176C519.796 148.176 519.924 147.824 519.796 147.12C519.668 146.608 519.86 145.52 520.372 143.856C520.948 142.128 521.716 140.496 522.676 138.96C523.06 138.32 523.636 137.488 524.404 136.464C525.172 135.376 526.004 134.32 526.9 133.296C527.86 132.208 528.724 131.344 529.492 130.704C531.092 129.36 532.564 128.272 533.908 127.44C535.316 126.608 536.724 126.032 538.132 125.712C539.54 125.392 540.98 125.232 542.452 125.232C543.988 125.232 545.236 125.744 546.196 126.768C547.668 127.408 548.692 128.272 549.268 129.36C549.908 130.448 550.324 131.856 550.516 133.584C550.708 135.504 550.516 137.872 549.94 140.688C549.364 143.44 547.796 146.64 545.236 150.288C543.636 152.592 542.068 154.384 540.532 155.664C538.996 156.944 537.3 158.128 535.444 159.216C534.1 160.112 532.66 160.656 531.124 160.848C529.588 161.04 528.084 161.2 526.612 161.328ZM536.404 149.616C537.812 148.4 538.804 147.056 539.38 145.584C540.02 144.112 540.692 142.384 541.396 140.4C541.652 140.016 541.812 139.376 541.876 138.48C542.004 137.584 542.036 136.72 541.972 135.888C541.908 134.992 541.684 134.48 541.3 134.352C540.724 133.904 540.148 133.808 539.572 134.064C538.996 134.256 538.26 134.672 537.364 135.312C535.444 136.912 533.652 138.768 531.988 140.88C530.388 142.928 529.268 145.456 528.628 148.464C528.436 150.064 528.596 151.28 529.108 152.112C529.684 152.88 530.58 153.104 531.796 152.784C533.076 152.4 534.612 151.344 536.404 149.616ZM562.546 159.984C562.354 160.048 561.938 160.016 561.298 159.888C560.722 159.76 560.114 159.6 559.474 159.408C558.898 159.216 558.546 159.056 558.418 158.928C558.162 158.672 557.81 158.224 557.362 157.584C556.914 156.88 556.658 155.952 556.594 154.8C556.594 153.648 557.138 152.272 558.226 150.672C558.546 150.032 558.93 149.072 559.378 147.792C559.826 146.512 560.274 145.168 560.722 143.76C561.234 142.288 561.682 140.976 562.066 139.824C562.514 138.672 562.834 137.872 563.026 137.424C563.154 136.336 563.09 135.568 562.834 135.12C562.642 134.608 562.098 134.32 561.202 134.256C560.562 134.256 560.05 134.032 559.666 133.584C559.346 133.136 559.186 132.336 559.186 131.184C559.314 130.288 559.538 129.52 559.858 128.88C560.242 128.176 560.754 127.6 561.394 127.152C562.034 126.832 562.834 126.608 563.794 126.48C564.818 126.352 565.81 126.32 566.77 126.384C567.73 126.448 568.402 126.672 568.786 127.056C569.234 127.312 569.586 127.888 569.842 128.784C570.162 129.616 570.418 130.48 570.61 131.376C570.802 132.272 570.93 132.944 570.994 133.392C571.634 132.88 572.338 132.176 573.106 131.28C573.938 130.32 574.77 129.424 575.602 128.592C576.626 127.888 577.842 127.184 579.25 126.48C580.658 125.712 581.682 125.328 582.322 125.328C583.026 125.328 583.89 125.68 584.914 126.384C585.938 127.024 586.578 127.6 586.834 128.112C587.474 129.2 587.922 130.352 588.178 131.568C588.498 132.72 588.306 133.744 587.602 134.64C586.962 135.472 586.066 136.304 584.914 137.136C583.762 137.904 582.322 138.128 580.594 137.808C580.21 137.68 579.794 137.2 579.346 136.368C578.962 135.536 578.738 134.928 578.674 134.544C578.674 134.352 578.386 134.544 577.81 135.12C577.298 135.632 576.658 136.272 575.89 137.04C575.186 137.808 574.514 138.512 573.874 139.152C572.786 140.496 571.634 142.32 570.418 144.624C569.202 146.928 567.762 149.712 566.098 152.976C565.33 154.576 564.69 156.112 564.178 157.584C563.666 158.992 563.122 159.792 562.546 159.984ZM631.237 160.08C629.317 161.168 627.269 161.808 625.093 162C622.981 162.128 620.997 161.84 619.141 161.136C617.285 160.368 615.781 159.248 614.629 157.776C613.989 156.944 613.381 155.632 612.805 153.84C612.229 151.984 612.133 149.488 612.517 146.352C612.901 143.408 613.797 140.432 615.205 137.424C616.677 134.416 618.469 131.76 620.581 129.456C622.693 127.152 624.997 125.584 627.493 124.752C628.389 124.432 629.285 124.208 630.181 124.08C631.141 123.888 632.389 123.856 633.925 123.984C635.397 124.176 636.709 124.56 637.861 125.136C639.013 125.648 639.845 126.224 640.357 126.864C641.381 127.888 642.053 128.88 642.373 129.84C642.693 130.8 642.821 131.728 642.757 132.624C642.437 134.672 641.509 136.88 639.973 139.248C638.501 141.616 636.421 143.376 633.733 144.528C632.645 144.976 631.365 145.264 629.893 145.392C628.421 145.52 626.405 145.328 623.845 144.816C622.309 144.496 621.285 144.656 620.773 145.296C620.325 145.936 620.133 147.184 620.197 149.04C620.325 150.192 620.581 151.216 620.965 152.112C621.413 152.944 622.213 153.52 623.365 153.84C624.837 154.096 625.893 154.128 626.533 153.936C627.173 153.68 627.973 153.328 628.933 152.88C629.445 152.56 629.925 152.208 630.373 151.824C630.885 151.44 631.365 151.056 631.813 150.672C632.325 150.288 632.741 150 633.061 149.808C633.381 149.552 633.701 149.392 634.021 149.328C634.341 149.264 634.661 149.232 634.981 149.232C635.685 149.296 636.357 149.68 636.997 150.384C637.637 151.088 638.053 151.76 638.245 152.4C638.245 152.912 637.925 153.648 637.285 154.608C636.645 155.504 635.781 156.464 634.693 157.488C633.669 158.448 632.517 159.312 631.237 160.08ZM629.989 138.672C630.437 138.48 631.077 138.032 631.909 137.328C632.805 136.624 633.605 135.888 634.309 135.12C635.013 134.288 635.365 133.648 635.365 133.2C635.365 132.496 634.885 131.888 633.925 131.376C633.029 130.864 631.845 130.768 630.373 131.088C629.861 131.216 629.253 131.568 628.549 132.144C627.845 132.72 627.141 133.392 626.437 134.16C625.733 134.864 625.125 135.568 624.613 136.272C624.101 136.912 623.749 137.424 623.557 137.808C623.813 138.128 624.325 138.384 625.093 138.576C625.861 138.768 626.693 138.864 627.589 138.864C628.549 138.864 629.349 138.8 629.989 138.672ZM652.356 156.912C651.908 156.528 651.3 155.376 650.532 153.456C649.828 151.536 649.124 149.296 648.42 146.736C647.78 144.176 647.268 141.808 646.884 139.632C646.628 138.352 646.34 137.264 646.02 136.368C645.764 135.472 645.54 134.736 645.348 134.16C645.028 133.008 645.124 131.792 645.636 130.512C646.212 129.232 646.884 128.368 647.652 127.92C647.972 127.728 648.548 127.6 649.38 127.536C650.276 127.408 650.852 127.376 651.108 127.44C651.876 127.696 652.58 128.88 653.22 130.992C653.86 133.04 654.436 135.76 654.948 139.152C655.204 141.136 655.396 142.608 655.524 143.568C655.716 144.464 655.812 145.04 655.812 145.296C656.068 145.808 656.228 146.448 656.292 147.216C656.42 147.92 656.74 148.016 657.252 147.504C657.508 147.248 657.892 146.8 658.404 146.16C658.98 145.52 659.652 144.688 660.42 143.664C661.764 141.872 662.82 140.4 663.588 139.248C664.42 138.032 665.348 136.784 666.372 135.504C666.82 134.864 667.428 134.16 668.196 133.392C668.964 132.624 669.732 131.92 670.5 131.28C671.268 130.576 671.908 130.16 672.42 130.032C673.956 129.776 674.884 130.352 675.204 131.76C675.588 133.104 675.14 134.672 673.86 136.464C673.348 137.232 672.932 137.968 672.612 138.672C672.356 139.312 672.1 139.76 671.844 140.016C671.332 141.04 670.532 142.352 669.444 143.952C668.356 145.488 667.3 146.928 666.276 148.272C665.252 149.552 664.548 150.384 664.164 150.768C663.908 151.024 663.332 151.504 662.436 152.208C661.604 152.912 660.804 153.808 660.036 154.896C658.5 156.368 657.028 157.264 655.62 157.584C654.212 157.904 653.124 157.68 652.356 156.912ZM686.249 163.728C682.729 163.728 680.009 162.704 678.089 160.656C676.233 158.608 675.305 155.472 675.305 151.248C675.305 148.944 675.721 146.416 676.553 143.664C677.449 140.912 678.601 138.224 680.009 135.6C681.481 132.976 683.081 130.704 684.809 128.784C686.537 126.8 688.265 125.424 689.993 124.656C690.633 124.336 691.305 124.112 692.009 123.984C692.777 123.792 693.513 123.696 694.217 123.696C694.985 123.696 695.817 123.76 696.713 123.888C697.673 123.952 698.569 124.144 699.401 124.464C700.873 124.912 702.153 125.776 703.241 127.056C704.393 128.336 704.969 130.192 704.969 132.624C704.969 133.264 704.905 133.968 704.777 134.736C704.649 135.44 704.425 136.144 704.105 136.848C703.273 138.96 701.993 140.976 700.265 142.896C698.601 144.816 696.841 146.16 694.985 146.928C694.473 147.184 693.961 147.376 693.449 147.504C693.001 147.568 692.521 147.6 692.009 147.6C690.665 147.6 689.449 147.408 688.361 147.024C687.337 146.64 686.377 146.128 685.481 145.488L684.713 144.816L684.233 145.776C683.785 146.992 683.465 148.016 683.273 148.848C683.145 149.68 683.081 150.288 683.081 150.672C683.081 151.44 683.113 152.24 683.177 153.072C683.241 153.84 683.433 154.48 683.753 154.992C684.009 155.312 684.329 155.568 684.713 155.76C685.161 155.952 685.705 156.048 686.345 156.048C686.729 156.048 687.081 156.048 687.401 156.048C687.785 155.984 688.105 155.92 688.361 155.856C689.513 155.6 690.441 155.184 691.145 154.608C691.913 153.968 692.713 153.424 693.545 152.976L693.929 152.784L693.833 152.496C694.921 151.92 695.657 151.568 696.041 151.44C696.425 151.248 696.713 151.088 696.905 150.96C697.161 150.704 697.449 150.576 697.769 150.576C698.665 150.448 699.529 150.704 700.361 151.344C701.257 151.92 701.705 152.656 701.705 153.552C701.705 153.936 701.417 154.544 700.841 155.376C700.329 156.208 699.657 157.04 698.825 157.872C698.057 158.64 697.257 159.248 696.425 159.696C696.233 159.76 696.041 159.856 695.849 159.984C695.657 160.048 695.465 160.144 695.273 160.272H695.369C694.793 161.04 694.217 161.424 693.641 161.424H692.873C692.617 161.872 691.785 162.352 690.377 162.864C688.969 163.44 687.593 163.728 686.249 163.728ZM691.241 140.592C691.817 140.592 692.329 140.496 692.777 140.304C693.289 140.112 693.769 139.888 694.217 139.632C695.753 138.544 696.745 137.136 697.193 135.408C697.641 133.68 697.481 132.368 696.713 131.472C696.585 131.28 696.425 131.152 696.233 131.088C696.041 130.96 695.817 130.896 695.561 130.896C694.857 130.896 694.057 131.12 693.161 131.568C692.329 132.016 691.497 132.656 690.665 133.488C689.833 134.32 689.065 135.312 688.361 136.464L687.113 138.48C687.241 138.416 687.337 138.384 687.401 138.384C687.529 138.32 687.625 138.288 687.689 138.288C688.265 138.288 688.649 138.48 688.841 138.864C689.033 139.248 689.257 139.632 689.513 140.016C689.833 140.4 690.409 140.592 691.241 140.592ZM716.296 159.984C716.104 160.048 715.688 160.016 715.048 159.888C714.472 159.76 713.864 159.6 713.224 159.408C712.648 159.216 712.296 159.056 712.168 158.928C711.912 158.672 711.56 158.224 711.112 157.584C710.664 156.88 710.408 155.952 710.344 154.8C710.344 153.648 710.888 152.272 711.976 150.672C712.296 150.032 712.68 149.072 713.128 147.792C713.576 146.512 714.024 145.168 714.472 143.76C714.984 142.288 715.432 140.976 715.816 139.824C716.264 138.672 716.584 137.872 716.776 137.424C716.904 136.336 716.84 135.568 716.584 135.12C716.392 134.608 715.848 134.32 714.952 134.256C714.312 134.256 713.8 134.032 713.416 133.584C713.096 133.136 712.936 132.336 712.936 131.184C713.064 130.288 713.288 129.52 713.608 128.88C713.992 128.176 714.504 127.6 715.144 127.152C715.784 126.832 716.584 126.608 717.544 126.48C718.568 126.352 719.56 126.32 720.52 126.384C721.48 126.448 722.152 126.672 722.536 127.056C722.984 127.312 723.336 127.888 723.592 128.784C723.912 129.616 724.168 130.48 724.36 131.376C724.552 132.272 724.68 132.944 724.744 133.392C725.384 132.88 726.088 132.176 726.856 131.28C727.688 130.32 728.52 129.424 729.352 128.592C730.376 127.888 731.592 127.184 733 126.48C734.408 125.712 735.432 125.328 736.072 125.328C736.776 125.328 737.64 125.68 738.664 126.384C739.688 127.024 740.328 127.6 740.584 128.112C741.224 129.2 741.672 130.352 741.928 131.568C742.248 132.72 742.056 133.744 741.352 134.64C740.712 135.472 739.816 136.304 738.664 137.136C737.512 137.904 736.072 138.128 734.344 137.808C733.96 137.68 733.544 137.2 733.096 136.368C732.712 135.536 732.488 134.928 732.424 134.544C732.424 134.352 732.136 134.544 731.56 135.12C731.048 135.632 730.408 136.272 729.64 137.04C728.936 137.808 728.264 138.512 727.624 139.152C726.536 140.496 725.384 142.32 724.168 144.624C722.952 146.928 721.512 149.712 719.848 152.976C719.08 154.576 718.44 156.112 717.928 157.584C717.416 158.992 716.872 159.792 716.296 159.984ZM748.585 184.848C748.329 184.912 747.945 184.816 747.433 184.56C746.985 184.304 746.601 183.856 746.281 183.216C745.961 182.576 745.865 181.744 745.993 180.72C745.737 179.824 745.769 178.704 746.089 177.36C746.473 176.08 747.273 174.16 748.489 171.6C749.129 170.576 749.705 169.36 750.217 167.952C750.793 166.544 751.433 165.136 752.137 163.728C752.457 163.152 753.001 162.16 753.769 160.752C754.601 159.344 755.497 157.68 756.457 155.76C757.481 153.776 758.409 151.728 759.241 149.616C757.577 151.344 756.137 152.976 754.921 154.512C753.769 155.984 752.713 157.168 751.753 158.064C750.857 158.896 749.897 159.28 748.873 159.216C748.041 159.024 747.049 158.48 745.897 157.584C744.745 156.688 744.009 155.696 743.689 154.608C743.433 153.2 743.337 151.408 743.401 149.232C743.529 147.056 743.945 143.76 744.649 139.344C745.161 137.168 745.385 135.504 745.321 134.352C745.321 133.136 745.161 132.24 744.841 131.664C744.521 131.088 744.105 130.576 743.593 130.128C742.761 129.36 742.697 128.528 743.401 127.632C744.105 126.736 744.905 126.064 745.801 125.616C747.145 125.296 748.201 125.232 748.969 125.424C749.801 125.552 750.633 126.096 751.465 127.056C751.977 127.888 752.489 128.784 753.001 129.744C753.513 130.704 753.769 132.08 753.769 133.872C753.769 134.64 753.737 135.504 753.673 136.464C753.609 137.36 753.545 138.192 753.481 138.96C753.417 139.728 753.353 140.336 753.289 140.784C752.649 143.152 752.073 145.2 751.561 146.928C751.049 148.656 750.953 149.52 751.273 149.52C752.553 148.496 753.641 147.504 754.537 146.544C755.497 145.584 756.521 144.432 757.609 143.088C758.697 141.744 760.041 139.984 761.641 137.808C762.217 136.72 762.793 135.664 763.369 134.64C763.945 133.616 764.425 132.56 764.809 131.472C765.193 130.64 765.705 129.776 766.345 128.88C766.985 127.92 767.433 127.408 767.689 127.344C768.009 127.216 768.457 127.248 769.033 127.44C769.609 127.632 770.153 127.856 770.665 128.112C771.241 128.304 771.529 128.464 771.529 128.592C771.593 128.656 771.913 128.72 772.489 128.784C773.065 128.848 773.641 128.912 774.217 128.976C774.793 128.976 775.081 129.072 775.081 129.264C775.081 129.392 774.889 129.872 774.505 130.704C774.185 131.536 773.801 132.464 773.353 133.488C772.905 134.512 772.489 135.44 772.105 136.272C771.785 137.04 771.657 137.488 771.721 137.616C771.849 137.744 771.753 138.224 771.433 139.056C771.113 139.824 770.729 140.688 770.281 141.648C769.897 142.608 769.545 143.472 769.225 144.24C768.585 146.352 767.849 148.464 767.017 150.576C766.185 152.624 765.193 154.672 764.041 156.72C763.657 157.488 763.081 158.672 762.313 160.272C761.609 161.872 760.905 163.44 760.201 164.976C759.561 166.576 759.049 167.792 758.665 168.624C758.409 169.136 758.025 169.936 757.513 171.024C757.065 172.176 756.553 173.424 755.977 174.768C755.465 176.112 754.953 177.36 754.441 178.512C753.929 179.728 753.545 180.656 753.289 181.296C753.161 182.512 752.873 183.408 752.425 183.984C751.849 184.56 751.049 184.848 750.025 184.848C749.065 184.848 748.585 184.848 748.585 184.848ZM785.336 162.864C784.504 162.928 783.832 162.832 783.32 162.576C782.808 162.384 782.168 162.064 781.4 161.616C779.992 160.528 778.808 159.184 777.848 157.584C776.952 155.984 776.536 154.64 776.6 153.552C776.728 152.976 776.728 152.464 776.6 152.016C776.536 151.568 776.504 151.344 776.504 151.344C776.12 151.024 775.992 150.832 776.12 150.768C776.248 150.64 776.344 150.448 776.408 150.192C776.92 150.064 776.984 149.712 776.6 149.136C776.408 148.624 776.504 147.472 776.888 145.68C777.336 143.824 777.912 142.096 778.616 140.496C778.936 139.792 779.384 138.864 779.96 137.712C780.6 136.56 781.304 135.408 782.072 134.256C782.84 133.04 783.544 132.08 784.184 131.376C785.592 129.776 786.84 128.464 787.928 127.44C789.08 126.416 790.36 125.648 791.768 125.136C793.048 124.624 794.328 124.4 795.608 124.464C796.952 124.528 798.136 124.976 799.16 125.808C800.696 126.256 802.072 126.96 803.288 127.92C804.504 128.816 805.336 130.096 805.784 131.76C806.296 133.616 806.456 135.824 806.264 138.384C806.136 140.88 805.048 144.112 803 148.08C801.784 150.576 800.568 152.592 799.352 154.128C798.2 155.664 796.792 157.136 795.128 158.544C793.912 159.568 792.344 160.464 790.424 161.232C788.504 162 786.808 162.544 785.336 162.864ZM793.688 148.368C794.52 147.216 795.16 146.096 795.608 145.008C796.12 143.92 796.6 142.416 797.048 140.496C797.24 139.792 797.336 138.928 797.336 137.904C797.4 136.88 797.368 135.952 797.24 135.12C797.176 134.224 796.952 133.744 796.568 133.68C795.736 133.36 794.872 133.36 793.976 133.68C793.144 133.936 792.152 134.704 791 135.984C789.976 137.136 789.144 138.224 788.504 139.248C787.928 140.208 787.384 141.392 786.872 142.8C786.424 144.144 785.912 145.904 785.336 148.08C784.824 150.192 784.792 151.888 785.24 153.168C785.752 154.448 786.712 154.8 788.12 154.224C789.528 153.648 791.384 151.696 793.688 148.368ZM843.637 159.696C842.229 159.568 841.045 159.28 840.085 158.832C839.189 158.32 838.453 157.328 837.877 155.856C837.621 154.832 837.493 153.776 837.493 152.688C837.557 151.536 837.653 150.448 837.781 149.424C837.909 148.336 837.973 147.408 837.973 146.64C837.973 146.512 837.973 146.256 837.973 145.872C837.973 145.488 837.973 145.136 837.973 144.816C837.845 143.856 837.589 143.28 837.205 143.088C836.885 142.832 836.309 142.864 835.477 143.184C834.133 143.824 832.661 144.688 831.061 145.776C829.525 146.8 827.893 148.016 826.165 149.424C824.501 150.768 822.773 152.208 820.981 153.744C819.573 155.28 818.517 156.528 817.813 157.488C817.173 158.448 816.501 158.928 815.797 158.928C815.285 159.184 814.741 159.12 814.165 158.736C813.589 158.352 812.981 157.904 812.341 157.392C811.893 156.88 811.349 156.24 810.709 155.472C810.133 154.64 809.781 154.096 809.653 153.84C809.653 152.816 809.717 151.888 809.845 151.056C810.037 150.224 810.293 149.36 810.613 148.464C810.997 147.568 811.445 146.544 811.957 145.392C812.213 144.944 812.437 144.496 812.629 144.048C812.885 143.536 813.173 142.992 813.493 142.416C813.749 141.52 814.101 140.496 814.549 139.344C815.061 138.192 815.541 137.104 815.989 136.08C816.693 134.416 817.237 132.976 817.621 131.76C818.005 130.544 818.325 129.232 818.581 127.824C818.517 127.696 818.549 127.504 818.677 127.248C818.805 126.992 818.997 126.832 819.253 126.768H819.349H819.445C819.893 126.448 820.725 126.416 821.941 126.672C823.221 126.864 824.181 127.216 824.821 127.728C826.165 128.88 826.805 130.384 826.741 132.24C826.677 134.096 825.717 136.528 823.861 139.536C823.413 140.56 822.933 141.52 822.421 142.416C821.973 143.248 821.749 143.824 821.749 144.144C821.749 144.144 822.005 143.952 822.517 143.568C823.029 143.184 823.637 142.736 824.341 142.224C825.045 141.648 825.653 141.2 826.165 140.88C826.485 140.56 827.189 139.984 828.277 139.152C829.365 138.256 830.549 137.328 831.829 136.368C833.109 135.408 834.133 134.672 834.901 134.16C835.605 133.648 836.501 133.136 837.589 132.624C838.677 132.048 839.349 131.76 839.605 131.76C840.245 131.76 841.013 131.984 841.909 132.432C842.869 132.88 843.733 133.424 844.501 134.064C845.333 134.64 845.813 135.184 845.941 135.696C845.941 135.952 845.909 136.304 845.845 136.752C845.781 137.136 845.749 137.488 845.749 137.808C845.685 138.832 845.653 140.08 845.653 141.552C845.717 142.96 845.749 144.4 845.749 145.872C845.749 147.28 845.621 148.56 845.365 149.712C845.365 149.712 845.397 149.776 845.461 149.904C845.525 149.968 845.589 150.096 845.653 150.288C845.589 150.352 845.557 150.48 845.557 150.672C845.621 150.8 845.653 150.864 845.653 150.864C845.781 151.312 845.909 151.76 846.037 152.208C846.229 152.656 846.453 153.168 846.709 153.744C846.965 154.256 847.253 154.928 847.573 155.76C847.509 156.592 847.029 157.424 846.133 158.256C845.301 159.024 844.469 159.504 843.637 159.696ZM873.3 160.08C871.38 161.168 869.332 161.808 867.156 162C865.044 162.128 863.06 161.84 861.204 161.136C859.348 160.368 857.844 159.248 856.692 157.776C856.052 156.944 855.444 155.632 854.868 153.84C854.292 151.984 854.196 149.488 854.58 146.352C854.964 143.408 855.86 140.432 857.268 137.424C858.74 134.416 860.532 131.76 862.644 129.456C864.756 127.152 867.06 125.584 869.556 124.752C870.452 124.432 871.348 124.208 872.244 124.08C873.204 123.888 874.452 123.856 875.988 123.984C877.46 124.176 878.772 124.56 879.924 125.136C881.076 125.648 881.908 126.224 882.42 126.864C883.444 127.888 884.116 128.88 884.436 129.84C884.756 130.8 884.884 131.728 884.82 132.624C884.5 134.672 883.572 136.88 882.036 139.248C880.564 141.616 878.484 143.376 875.796 144.528C874.708 144.976 873.428 145.264 871.956 145.392C870.484 145.52 868.468 145.328 865.908 144.816C864.372 144.496 863.348 144.656 862.836 145.296C862.388 145.936 862.196 147.184 862.26 149.04C862.388 150.192 862.644 151.216 863.028 152.112C863.476 152.944 864.276 153.52 865.428 153.84C866.9 154.096 867.956 154.128 868.596 153.936C869.236 153.68 870.036 153.328 870.996 152.88C871.508 152.56 871.988 152.208 872.436 151.824C872.948 151.44 873.428 151.056 873.876 150.672C874.388 150.288 874.804 150 875.124 149.808C875.444 149.552 875.764 149.392 876.084 149.328C876.404 149.264 876.724 149.232 877.044 149.232C877.748 149.296 878.42 149.68 879.06 150.384C879.7 151.088 880.116 151.76 880.308 152.4C880.308 152.912 879.988 153.648 879.348 154.608C878.708 155.504 877.844 156.464 876.756 157.488C875.732 158.448 874.58 159.312 873.3 160.08ZM872.052 138.672C872.5 138.48 873.14 138.032 873.972 137.328C874.868 136.624 875.668 135.888 876.372 135.12C877.076 134.288 877.428 133.648 877.428 133.2C877.428 132.496 876.948 131.888 875.988 131.376C875.092 130.864 873.908 130.768 872.436 131.088C871.924 131.216 871.316 131.568 870.612 132.144C869.908 132.72 869.204 133.392 868.5 134.16C867.796 134.864 867.188 135.568 866.676 136.272C866.164 136.912 865.812 137.424 865.62 137.808C865.876 138.128 866.388 138.384 867.156 138.576C867.924 138.768 868.756 138.864 869.652 138.864C870.612 138.864 871.412 138.8 872.052 138.672Z" fill="#111827"/>
</svg>
