<svg width="328" height="52" viewBox="0 0 328 52" fill="none" xmlns="http://www.w3.org/2000/svg">
<path d="M72.0514 8.96278H83.9016C83.5958 8.88585 82.7994 8.68254 82.0031 8.4792C82.0673 8.30336 82.1398 8.12752 82.204 7.95717C90.0478 9.23204 97.9235 10.397 105.703 11.8202C109.476 12.5126 113.144 13.5567 116.692 14.6777C123.369 16.7933 125.919 20.9036 127.239 25.5085C127.48 26.3493 127.6 27.2065 127.769 28.0583C129.185 35.037 124.021 38.5595 113.948 42.8621C113.313 43.1313 112.485 43.2081 111.913 43.516C102.807 48.467 91.8092 49.7859 80.8043 51.0058C62.2369 53.061 44.0477 51.9728 26.4619 47.3407C21.2489 45.9668 16.1163 44.3402 11.2895 42.4278C3.95268 39.532 0.742829 34.7459 0.123382 29.1408C-1.02702 18.7166 5.89949 10.5399 19.5515 5.80311C28.5938 2.67089 38.2716 1.17073 48.2875 0.736616C57.9731 0.31899 67.7072 -0.137104 77.3933 0.0387388C87.6905 0.225572 97.8991 1.37405 107.416 4.3469C108.744 4.75902 109.765 5.62177 110.562 6.57242C104.335 5.94047 98.1245 5.26459 91.8901 4.68759C88.7604 4.39636 85.591 4.22052 82.4373 4.1051C67.1926 3.54461 52.1166 4.33041 37.3867 7.17137C32.4231 8.12752 27.5238 9.40238 22.8981 10.9575C11.4423 14.8041 5.22376 22.75 6.53504 31.2565C6.96141 33.9985 8.77954 36.1305 12.3273 37.5207C29.5189 44.2634 48.0057 47.1371 67.7797 46.1976C77.7393 45.7251 87.6263 44.9776 97.0708 42.5707C104.174 40.7576 110.932 38.521 116.652 35.0426C122.91 31.2344 124.149 26.9208 120.28 21.7993C119.556 20.8377 118.196 20.0134 116.869 19.365C111.76 16.8538 105.493 16.0899 99.9344 14.315C91.4554 11.6114 82.3084 11.2872 73.4755 9.86399C72.9526 9.78157 72.4699 9.58373 71.971 9.44085C71.995 9.2815 72.0273 9.12215 72.0514 8.96278Z" fill="#31BF5C"/>
<path d="M11.99 25.44C11.99 23.36 12.44 21.51 13.34 19.89C14.24 18.25 15.49 16.98 17.09 16.08C18.71 15.16 20.54 14.7 22.58 14.7C25.08 14.7 27.22 15.36 29 16.68C30.78 18 31.97 19.8 32.57 22.08H26.93C26.51 21.2 25.91 20.53 25.13 20.07C24.37 19.61 23.5 19.38 22.52 19.38C20.94 19.38 19.66 19.93 18.68 21.03C17.7 22.13 17.21 23.6 17.21 25.44C17.21 27.28 17.7 28.75 18.68 29.85C19.66 30.95 20.94 31.5 22.52 31.5C23.5 31.5 24.37 31.27 25.13 30.81C25.91 30.35 26.51 29.68 26.93 28.8H32.57C31.97 31.08 30.78 32.88 29 34.2C27.22 35.5 25.08 36.15 22.58 36.15C20.54 36.15 18.71 35.7 17.09 34.8C15.49 33.88 14.24 32.61 13.34 30.99C12.44 29.37 11.99 27.52 11.99 25.44ZM43.3316 36.24C41.6916 36.24 40.2116 35.89 38.8916 35.19C37.5916 34.49 36.5616 33.49 35.8016 32.19C35.0616 30.89 34.6916 29.37 34.6916 27.63C34.6916 25.91 35.0716 24.4 35.8316 23.1C36.5916 21.78 37.6316 20.77 38.9516 20.07C40.2716 19.37 41.7516 19.02 43.3916 19.02C45.0316 19.02 46.5116 19.37 47.8316 20.07C49.1516 20.77 50.1916 21.78 50.9516 23.1C51.7116 24.4 52.0916 25.91 52.0916 27.63C52.0916 29.35 51.7016 30.87 50.9216 32.19C50.1616 33.49 49.1116 34.49 47.7716 35.19C46.4516 35.89 44.9716 36.24 43.3316 36.24ZM43.3316 31.8C44.3116 31.8 45.1416 31.44 45.8216 30.72C46.5216 30 46.8716 28.97 46.8716 27.63C46.8716 26.29 46.5316 25.26 45.8516 24.54C45.1916 23.82 44.3716 23.46 43.3916 23.46C42.3916 23.46 41.5616 23.82 40.9016 24.54C40.2416 25.24 39.9116 26.27 39.9116 27.63C39.9116 28.97 40.2316 30 40.8716 30.72C41.5316 31.44 42.3516 31.8 43.3316 31.8ZM65.0131 19.08C66.9731 19.08 68.5331 19.72 69.6931 21C70.8731 22.26 71.4631 24 71.4631 26.22V36H66.3631V26.91C66.3631 25.79 66.0731 24.92 65.4931 24.3C64.9131 23.68 64.1331 23.37 63.1531 23.37C62.1731 23.37 61.3931 23.68 60.8131 24.3C60.2331 24.92 59.9431 25.79 59.9431 26.91V36H54.8131V19.26H59.9431V21.48C60.4631 20.74 61.1631 20.16 62.0431 19.74C62.9231 19.3 63.9131 19.08 65.0131 19.08ZM84.358 31.65V36H81.748C79.888 36 78.438 35.55 77.398 34.65C76.358 33.73 75.838 32.24 75.838 30.18V23.52H73.798V19.26H75.838V15.18H80.968V19.26H84.328V23.52H80.968V30.24C80.968 30.74 81.088 31.1 81.328 31.32C81.568 31.54 81.968 31.65 82.528 31.65H84.358ZM86.1955 27.6C86.1955 25.88 86.5155 24.37 87.1555 23.07C87.8155 21.77 88.7055 20.77 89.8255 20.07C90.9455 19.37 92.1955 19.02 93.5755 19.02C94.7555 19.02 95.7855 19.26 96.6655 19.74C97.5655 20.22 98.2555 20.85 98.7355 21.63V19.26H103.865V36H98.7355V33.63C98.2355 34.41 97.5355 35.04 96.6355 35.52C95.7555 36 94.7255 36.24 93.5455 36.24C92.1855 36.24 90.9455 35.89 89.8255 35.19C88.7055 34.47 87.8155 33.46 87.1555 32.16C86.5155 30.84 86.1955 29.32 86.1955 27.6ZM98.7355 27.63C98.7355 26.35 98.3755 25.34 97.6555 24.6C96.9555 23.86 96.0955 23.49 95.0755 23.49C94.0555 23.49 93.1855 23.86 92.4655 24.6C91.7655 25.32 91.4155 26.32 91.4155 27.6C91.4155 28.88 91.7655 29.9 92.4655 30.66C93.1855 31.4 94.0555 31.77 95.0755 31.77C96.0955 31.77 96.9555 31.4 97.6555 30.66C98.3755 29.92 98.7355 28.91 98.7355 27.63ZM106.557 27.63C106.557 25.89 106.907 24.37 107.607 23.07C108.327 21.77 109.317 20.77 110.577 20.07C111.857 19.37 113.317 19.02 114.957 19.02C117.057 19.02 118.807 19.57 120.207 20.67C121.627 21.77 122.557 23.32 122.997 25.32H117.537C117.077 24.04 116.187 23.4 114.867 23.4C113.927 23.4 113.177 23.77 112.617 24.51C112.057 25.23 111.777 26.27 111.777 27.63C111.777 28.99 112.057 30.04 112.617 30.78C113.177 31.5 113.927 31.86 114.867 31.86C116.187 31.86 117.077 31.22 117.537 29.94H122.997C122.557 31.9 121.627 33.44 120.207 34.56C118.787 35.68 117.037 36.24 114.957 36.24C113.317 36.24 111.857 35.89 110.577 35.19C109.317 34.49 108.327 33.49 107.607 32.19C106.907 30.89 106.557 29.37 106.557 27.63ZM135.071 31.65V36H132.461C130.601 36 129.151 35.55 128.111 34.65C127.071 33.73 126.551 32.24 126.551 30.18V23.52H124.511V19.26H126.551V15.18H131.681V19.26H135.041V23.52H131.681V30.24C131.681 30.74 131.801 31.1 132.041 31.32C132.281 31.54 132.681 31.65 133.241 31.65H135.071ZM149.416 14.94V36H144.286V14.94H149.416ZM163.333 19.08C165.293 19.08 166.853 19.72 168.013 21C169.193 22.26 169.783 24 169.783 26.22V36H164.683V26.91C164.683 25.79 164.393 24.92 163.813 24.3C163.233 23.68 162.453 23.37 161.473 23.37C160.493 23.37 159.713 23.68 159.133 24.3C158.553 24.92 158.263 25.79 158.263 26.91V36H153.133V19.26H158.263V21.48C158.783 20.74 159.483 20.16 160.363 19.74C161.243 19.3 162.233 19.08 163.333 19.08ZM181.748 23.52H178.988V36H173.858V23.52H171.998V19.26H173.858V18.78C173.858 16.72 174.448 15.16 175.628 14.1C176.808 13.02 178.538 12.48 180.818 12.48C181.198 12.48 181.478 12.49 181.658 12.51V16.86C180.678 16.8 179.988 16.94 179.588 17.28C179.188 17.62 178.988 18.23 178.988 19.11V19.26H181.748V23.52ZM191.779 36.24C190.139 36.24 188.659 35.89 187.339 35.19C186.039 34.49 185.009 33.49 184.249 32.19C183.509 30.89 183.139 29.37 183.139 27.63C183.139 25.91 183.519 24.4 184.279 23.1C185.039 21.78 186.079 20.77 187.399 20.07C188.719 19.37 190.199 19.02 191.839 19.02C193.479 19.02 194.959 19.37 196.279 20.07C197.599 20.77 198.639 21.78 199.399 23.1C200.159 24.4 200.539 25.91 200.539 27.63C200.539 29.35 200.149 30.87 199.369 32.19C198.609 33.49 197.559 34.49 196.219 35.19C194.899 35.89 193.419 36.24 191.779 36.24ZM191.779 31.8C192.759 31.8 193.589 31.44 194.269 30.72C194.969 30 195.319 28.97 195.319 27.63C195.319 26.29 194.979 25.26 194.299 24.54C193.639 23.82 192.819 23.46 191.839 23.46C190.839 23.46 190.009 23.82 189.349 24.54C188.689 25.24 188.359 26.27 188.359 27.63C188.359 28.97 188.679 30 189.319 30.72C189.979 31.44 190.799 31.8 191.779 31.8ZM208.39 22.05C208.99 21.13 209.74 20.41 210.64 19.89C211.54 19.35 212.54 19.08 213.64 19.08V24.51H212.23C210.95 24.51 209.99 24.79 209.35 25.35C208.71 25.89 208.39 26.85 208.39 28.23V36H203.26V19.26H208.39V22.05ZM237.452 19.08C239.532 19.08 241.182 19.71 242.402 20.97C243.642 22.23 244.262 23.98 244.262 26.22V36H239.162V26.91C239.162 25.83 238.872 25 238.292 24.42C237.732 23.82 236.952 23.52 235.952 23.52C234.952 23.52 234.162 23.82 233.582 24.42C233.022 25 232.742 25.83 232.742 26.91V36H227.642V26.91C227.642 25.83 227.352 25 226.772 24.42C226.212 23.82 225.432 23.52 224.432 23.52C223.432 23.52 222.642 23.82 222.062 24.42C221.502 25 221.222 25.83 221.222 26.91V36H216.092V19.26H221.222V21.36C221.742 20.66 222.422 20.11 223.262 19.71C224.102 19.29 225.052 19.08 226.112 19.08C227.372 19.08 228.492 19.35 229.472 19.89C230.472 20.43 231.252 21.2 231.812 22.2C232.392 21.28 233.182 20.53 234.182 19.95C235.182 19.37 236.272 19.08 237.452 19.08ZM246.83 27.6C246.83 25.88 247.15 24.37 247.79 23.07C248.45 21.77 249.34 20.77 250.46 20.07C251.58 19.37 252.83 19.02 254.21 19.02C255.39 19.02 256.42 19.26 257.3 19.74C258.2 20.22 258.89 20.85 259.37 21.63V19.26H264.5V36H259.37V33.63C258.87 34.41 258.17 35.04 257.27 35.52C256.39 36 255.36 36.24 254.18 36.24C252.82 36.24 251.58 35.89 250.46 35.19C249.34 34.47 248.45 33.46 247.79 32.16C247.15 30.84 246.83 29.32 246.83 27.6ZM259.37 27.63C259.37 26.35 259.01 25.34 258.29 24.6C257.59 23.86 256.73 23.49 255.71 23.49C254.69 23.49 253.82 23.86 253.1 24.6C252.4 25.32 252.05 26.32 252.05 27.6C252.05 28.88 252.4 29.9 253.1 30.66C253.82 31.4 254.69 31.77 255.71 31.77C256.73 31.77 257.59 31.4 258.29 30.66C259.01 29.92 259.37 28.91 259.37 27.63ZM277.542 31.65V36H274.932C273.072 36 271.622 35.55 270.582 34.65C269.542 33.73 269.022 32.24 269.022 30.18V23.52H266.982V19.26H269.022V15.18H274.152V19.26H277.512V23.52H274.152V30.24C274.152 30.74 274.272 31.1 274.512 31.32C274.752 31.54 275.152 31.65 275.712 31.65H277.542ZM282.979 17.52C282.079 17.52 281.339 17.26 280.759 16.74C280.199 16.2 279.919 15.54 279.919 14.76C279.919 13.96 280.199 13.3 280.759 12.78C281.339 12.24 282.079 11.97 282.979 11.97C283.859 11.97 284.579 12.24 285.139 12.78C285.719 13.3 286.009 13.96 286.009 14.76C286.009 15.54 285.719 16.2 285.139 16.74C284.579 17.26 283.859 17.52 282.979 17.52ZM285.529 19.26V36H280.399V19.26H285.529ZM296.867 36.24C295.227 36.24 293.747 35.89 292.427 35.19C291.127 34.49 290.097 33.49 289.337 32.19C288.597 30.89 288.227 29.37 288.227 27.63C288.227 25.91 288.607 24.4 289.367 23.1C290.127 21.78 291.167 20.77 292.487 20.07C293.807 19.37 295.287 19.02 296.927 19.02C298.567 19.02 300.047 19.37 301.367 20.07C302.687 20.77 303.727 21.78 304.487 23.1C305.247 24.4 305.627 25.91 305.627 27.63C305.627 29.35 305.237 30.87 304.457 32.19C303.697 33.49 302.647 34.49 301.307 35.19C299.987 35.89 298.507 36.24 296.867 36.24ZM296.867 31.8C297.847 31.8 298.677 31.44 299.357 30.72C300.057 30 300.407 28.97 300.407 27.63C300.407 26.29 300.067 25.26 299.387 24.54C298.727 23.82 297.907 23.46 296.927 23.46C295.927 23.46 295.097 23.82 294.437 24.54C293.777 25.24 293.447 26.27 293.447 27.63C293.447 28.97 293.767 30 294.407 30.72C295.067 31.44 295.887 31.8 296.867 31.8ZM318.548 19.08C320.508 19.08 322.068 19.72 323.228 21C324.408 22.26 324.998 24 324.998 26.22V36H319.898V26.91C319.898 25.79 319.608 24.92 319.028 24.3C318.448 23.68 317.668 23.37 316.688 23.37C315.708 23.37 314.928 23.68 314.348 24.3C313.768 24.92 313.478 25.79 313.478 26.91V36H308.348V19.26H313.478V21.48C313.998 20.74 314.698 20.16 315.578 19.74C316.458 19.3 317.448 19.08 318.548 19.08Z" fill="#071D2B"/>
</svg>
