<svg width="24" height="26" viewBox="0 0 24 26" fill="none" xmlns="http://www.w3.org/2000/svg">
<path d="M12.0703 1.76855C10.9297 1.76855 9.85156 1.99512 8.83594 2.44824C7.82031 2.88574 6.93359 3.47949 6.17578 4.22949C5.41797 4.97949 4.82031 5.8623 4.38281 6.87793C3.94531 7.89355 3.72656 8.97168 3.72656 10.1123C3.72656 11.5498 4.11719 13.0889 4.89844 14.7295C5.67969 16.3857 6.54688 17.9287 7.5 19.3584C8.45312 20.7881 9.34375 21.9873 10.1719 22.9561C11 23.9404 11.4531 24.4795 11.5312 24.5732C11.6719 24.7451 11.8555 24.8311 12.082 24.8311C12.3086 24.8311 12.4922 24.7451 12.6328 24.5732C12.7109 24.4795 13.1641 23.9404 13.9922 22.9561C14.8047 21.9873 15.6875 20.7881 16.6406 19.3584C17.5938 17.9287 18.4609 16.3857 19.2422 14.7295C20.0234 13.0889 20.4141 11.5498 20.4141 10.1123C20.4141 8.97168 20.1953 7.89355 19.7578 6.87793C19.3203 5.8623 18.7266 4.97949 17.9766 4.22949C17.2266 3.47949 16.3438 2.88574 15.3281 2.44824C14.3125 1.99512 13.2266 1.76855 12.0703 1.76855ZM12.0703 22.9092C11.4453 22.1748 10.7422 21.2764 9.96094 20.2139C9.16406 19.1514 8.41797 18.0381 7.72266 16.874C7.02734 15.71 6.4375 14.5342 5.95312 13.3467C5.48438 12.1748 5.25 11.1045 5.25 10.1357C5.25 9.18262 5.42969 8.29199 5.78906 7.46387C6.14844 6.63574 6.63672 5.91309 7.25391 5.2959C7.87109 4.67871 8.59375 4.19043 9.42188 3.83105C10.25 3.47168 11.1328 3.29199 12.0703 3.29199C13.0234 3.29199 13.9141 3.47168 14.7422 3.83105C15.5703 4.19043 16.293 4.67871 16.9102 5.2959C17.5273 5.91309 18.0156 6.63574 18.375 7.46387C18.7344 8.29199 18.9141 9.1748 18.9141 10.1123C18.9141 11.0967 18.6797 12.1748 18.2109 13.3467C17.7266 14.5342 17.1367 15.71 16.4414 16.874C15.7461 18.0381 15 19.1514 14.2031 20.2139C13.4219 21.2764 12.7109 22.1748 12.0703 22.9092ZM12.0703 5.91699C10.9141 5.91699 9.92578 6.32715 9.10547 7.14746C8.28516 7.96777 7.875 8.95605 7.875 10.1123C7.875 11.2842 8.28516 12.2803 9.10547 13.1006C9.92578 13.9209 10.9141 14.3311 12.0703 14.3311C13.2422 14.3311 14.2383 13.9209 15.0586 13.1006C15.8789 12.2803 16.2891 11.2842 16.2891 10.1123C16.2891 8.95605 15.8789 7.96777 15.0586 7.14746C14.2383 6.32715 13.2422 5.91699 12.0703 5.91699ZM12.0703 12.8076C11.3359 12.8076 10.7031 12.5459 10.1719 12.0225C9.64062 11.499 9.375 10.8623 9.375 10.1123C9.375 9.37793 9.64062 8.74512 10.1719 8.21387C10.7031 7.68262 11.3359 7.41699 12.0703 7.41699C12.8203 7.41699 13.457 7.68262 13.9805 8.21387C14.5039 8.74512 14.7656 9.37793 14.7656 10.1123C14.7656 10.8623 14.5039 11.499 13.9805 12.0225C13.457 12.5459 12.8203 12.8076 12.0703 12.8076Z" fill="#31BF5C"/>
</svg>
