<svg width="16" height="30" viewBox="0 0 16 30" fill="none" xmlns="http://www.w3.org/2000/svg">
<g clip-path="url(#clip0_1_700)">
<g clip-path="url(#clip1_1_700)">
<path d="M5.08212 14.5912C3.51608 14.5041 2.00804 14.4461 0.5 14.3591C0.761007 12.7924 0.645013 11.0227 1.37003 9.74617C2.84907 7.1351 4.64711 4.66908 6.53216 2.34812C8.38821 0.0851895 9.92526 0.288274 11.3463 2.84133C12.7673 5.36537 14.2464 7.88941 15.2614 10.5875C15.7834 11.9511 15.2904 13.6918 15.2614 15.2584C13.6954 15.1134 12.1003 14.9393 10.5923 14.7943C10.5923 17.8985 10.5343 21.7861 10.5923 25.6447C10.6503 27.7046 10.3893 29.6774 8.01123 29.7644C5.40116 29.8515 4.99511 27.8496 5.02411 25.6447C5.08211 21.8151 5.02411 17.9856 5.02411 14.6202L5.08212 14.5912Z" fill="#FA7223"/>
</g>
</g>
<defs>
<clipPath id="clip0_1_700">
<rect width="15" height="29" fill="white" transform="translate(0.5 0.779297)"/>
</clipPath>
<clipPath id="clip1_1_700">
<rect width="15" height="29" fill="white" transform="translate(0.5 0.779297)"/>
</clipPath>
</defs>
</svg>
