<svg width="16" height="13" viewBox="0 0 16 13" fill="none" xmlns="http://www.w3.org/2000/svg">
<path d="M14.5 0.5C14.9167 0.5 15.2708 0.645833 15.5625 0.9375C15.8542 1.22917 16 1.58333 16 2V11C16 11.4167 15.8542 11.7708 15.5625 12.0625C15.2708 12.3542 14.9167 12.5 14.5 12.5H1.5C1.08333 12.5 0.729167 12.3542 0.4375 12.0625C0.145833 11.7708 0 11.4167 0 11V2C0 1.58333 0.145833 1.22917 0.4375 0.9375C0.729167 0.645833 1.08333 0.5 1.5 0.5H14.5ZM1.5 1.5C1.35417 1.5 1.22917 1.55208 1.125 1.65625C1.04167 1.73958 1 1.85417 1 2V3.28125C1.72917 3.90625 3.30208 5.17708 5.71875 7.09375C5.71875 7.09375 5.86458 7.21875 6.15625 7.46875C6.44792 7.69792 6.66667 7.86458 6.8125 7.96875C6.95833 8.07292 7.14583 8.1875 7.375 8.3125C7.625 8.4375 7.83333 8.5 8 8.5C8.16667 8.5 8.36458 8.4375 8.59375 8.3125C8.84375 8.1875 9.04167 8.07292 9.1875 7.96875C9.33333 7.86458 9.54167 7.69792 9.8125 7.46875C10.1042 7.23958 10.2604 7.11458 10.2812 7.09375C12.6979 5.17708 14.2708 3.90625 15 3.28125V2C15 1.85417 14.9479 1.73958 14.8438 1.65625C14.7604 1.55208 14.6458 1.5 14.5 1.5H1.5ZM14.5 11.5C14.6458 11.5 14.7604 11.4583 14.8438 11.375C14.9479 11.2708 15 11.1458 15 11V4.59375C14.2708 5.17708 12.9062 6.27083 10.9062 7.875C10.8646 7.89583 10.7188 8.01042 10.4688 8.21875C10.2396 8.42708 10.0521 8.58333 9.90625 8.6875C9.76042 8.79167 9.57292 8.91667 9.34375 9.0625C9.11458 9.20833 8.88542 9.32292 8.65625 9.40625C8.42708 9.46875 8.20833 9.5 8 9.5C7.79167 9.5 7.57292 9.46875 7.34375 9.40625C7.11458 9.32292 6.875 9.20833 6.625 9.0625C6.39583 8.91667 6.20833 8.79167 6.0625 8.6875C5.9375 8.58333 5.75 8.42708 5.5 8.21875C5.27083 8.01042 5.13542 7.89583 5.09375 7.875C3.09375 6.27083 1.72917 5.17708 1 4.59375V11C1 11.1458 1.04167 11.2708 1.125 11.375C1.22917 11.4583 1.35417 11.5 1.5 11.5H14.5Z" fill="#31BF5C"/>
</svg>
