<svg width="12" height="16" viewBox="0 0 12 16" fill="none" xmlns="http://www.w3.org/2000/svg">
<path d="M3.875 3.875C4.45833 3.29167 5.16667 3 6 3C6.83333 3 7.54167 3.29167 8.125 3.875C8.70833 4.45833 9 5.16667 9 6C9 6.83333 8.70833 7.54167 8.125 8.125C7.54167 8.70833 6.83333 9 6 9C5.16667 9 4.45833 8.70833 3.875 8.125C3.29167 7.54167 3 6.83333 3 6C3 5.16667 3.29167 4.45833 3.875 3.875ZM4.59375 7.40625C4.98958 7.80208 5.45833 8 6 8C6.54167 8 7.01042 7.80208 7.40625 7.40625C7.80208 7.01042 8 6.54167 8 6C8 5.45833 7.80208 4.98958 7.40625 4.59375C7.01042 4.19792 6.54167 4 6 4C5.45833 4 4.98958 4.19792 4.59375 4.59375C4.19792 4.98958 4 5.45833 4 6C4 6.54167 4.19792 7.01042 4.59375 7.40625ZM1.75 1.75C2.91667 0.583333 4.33333 0 6 0C7.66667 0 9.08333 0.583333 10.25 1.75C11.4167 2.91667 12 4.33333 12 6C12 6.35417 11.9792 6.66667 11.9375 6.9375C11.9167 7.1875 11.8333 7.48958 11.6875 7.84375C11.5625 8.19792 11.4375 8.48958 11.3125 8.71875C11.2083 8.94792 10.9792 9.34375 10.625 9.90625C10.2708 10.4479 9.95833 10.9062 9.6875 11.2812C9.41667 11.6562 8.95833 12.3021 8.3125 13.2188C7.6875 14.1354 7.125 14.9583 6.625 15.6875C6.47917 15.8958 6.27083 16 6 16C5.72917 16 5.52083 15.8958 5.375 15.6875C4.875 14.9583 4.30208 14.1354 3.65625 13.2188C3.03125 12.3021 2.58333 11.6562 2.3125 11.2812C2.04167 10.9062 1.72917 10.4479 1.375 9.90625C1.02083 9.34375 0.78125 8.94792 0.65625 8.71875C0.552083 8.48958 0.427083 8.19792 0.28125 7.84375C0.15625 7.48958 0.0729167 7.1875 0.03125 6.9375C0.0104167 6.66667 0 6.35417 0 6C0 4.33333 0.583333 2.91667 1.75 1.75ZM6 14.8125C6.4375 14.1667 6.91667 13.4688 7.4375 12.7188C7.97917 11.9688 8.375 11.4167 8.625 11.0625C8.875 10.6875 9.15625 10.2708 9.46875 9.8125C9.80208 9.35417 10.0312 9.01042 10.1562 8.78125C10.2812 8.55208 10.4167 8.30208 10.5625 8.03125C10.7083 7.76042 10.8021 7.53125 10.8438 7.34375C10.8854 7.13542 10.9167 6.92708 10.9375 6.71875C10.9792 6.51042 11 6.27083 11 6C11 4.625 10.5104 3.44792 9.53125 2.46875C8.55208 1.48958 7.375 1 6 1C4.625 1 3.44792 1.48958 2.46875 2.46875C1.48958 3.44792 1 4.625 1 6C1 6.27083 1.01042 6.51042 1.03125 6.71875C1.07292 6.92708 1.11458 7.13542 1.15625 7.34375C1.19792 7.53125 1.29167 7.76042 1.4375 8.03125C1.58333 8.30208 1.71875 8.55208 1.84375 8.78125C1.96875 9.01042 2.1875 9.35417 2.5 9.8125C2.83333 10.2708 3.125 10.6875 3.375 11.0625C3.625 11.4167 4.01042 11.9688 4.53125 12.7188C5.07292 13.4688 5.5625 14.1667 6 14.8125Z" fill="#31BF5C"/>
</svg>
