<svg width="14" height="17" viewBox="0 0 14 17" fill="none" xmlns="http://www.w3.org/2000/svg">
<path d="M11 10.5C11.8333 10.5 12.5417 10.7917 13.125 11.375C13.7083 11.9583 14 12.6667 14 13.5C14 14.3333 13.7083 15.0417 13.125 15.625C12.5417 16.2083 11.8333 16.5 11 16.5C10.1667 16.5 9.45833 16.2083 8.875 15.625C8.29167 15.0417 8 14.3333 8 13.5C8 13.1042 8.07292 12.7188 8.21875 12.3438L5.25 10.5C4.64583 11.1667 3.89583 11.5 3 11.5C2.16667 11.5 1.45833 11.2083 0.875 10.625C0.291667 10.0417 0 9.33333 0 8.5C0 7.66667 0.291667 6.95833 0.875 6.375C1.45833 5.79167 2.16667 5.5 3 5.5C3.89583 5.5 4.64583 5.83333 5.25 6.5L8.21875 4.65625C8.07292 4.28125 8 3.89583 8 3.5C8 2.66667 8.29167 1.95833 8.875 1.375C9.45833 0.791667 10.1667 0.5 11 0.5C11.8333 0.5 12.5417 0.791667 13.125 1.375C13.7083 1.95833 14 2.66667 14 3.5C14 4.33333 13.7083 5.04167 13.125 5.625C12.5417 6.20833 11.8333 6.5 11 6.5C10.1042 6.5 9.35417 6.16667 8.75 5.5L5.78125 7.34375C6.09375 8.11458 6.09375 8.88542 5.78125 9.65625L8.75 11.5C9.35417 10.8333 10.1042 10.5 11 10.5ZM12.4062 2.09375C12.0104 1.69792 11.5417 1.5 11 1.5C10.4583 1.5 9.98958 1.69792 9.59375 2.09375C9.19792 2.48958 9 2.95833 9 3.5C9 4.04167 9.19792 4.51042 9.59375 4.90625C9.98958 5.30208 10.4583 5.5 11 5.5C11.5417 5.5 12.0104 5.30208 12.4062 4.90625C12.8021 4.51042 13 4.04167 13 3.5C13 2.95833 12.8021 2.48958 12.4062 2.09375ZM1.59375 9.90625C1.98958 10.3021 2.45833 10.5 3 10.5C3.54167 10.5 4.01042 10.3021 4.40625 9.90625C4.80208 9.51042 5 9.04167 5 8.5C5 7.95833 4.80208 7.48958 4.40625 7.09375C4.01042 6.69792 3.54167 6.5 3 6.5C2.45833 6.5 1.98958 6.69792 1.59375 7.09375C1.19792 7.48958 1 7.95833 1 8.5C1 9.04167 1.19792 9.51042 1.59375 9.90625ZM9.59375 14.9062C9.98958 15.3021 10.4583 15.5 11 15.5C11.5417 15.5 12.0104 15.3021 12.4062 14.9062C12.8021 14.5104 13 14.0417 13 13.5C13 12.9583 12.8021 12.4896 12.4062 12.0938C12.0104 11.6979 11.5417 11.5 11 11.5C10.4583 11.5 9.98958 11.6979 9.59375 12.0938C9.19792 12.4896 9 12.9583 9 13.5C9 14.0417 9.19792 14.5104 9.59375 14.9062Z" fill="#31BF5C"/>
</svg>
