<svg width="80" height="80" viewBox="0 0 80 80" fill="none" xmlns="http://www.w3.org/2000/svg">
<path fill-rule="evenodd" clip-rule="evenodd" d="M36.8557 23.0866C35.9941 23.0866 35.1518 23.3421 34.4354 23.8208C33.719 24.2995 33.1607 24.9799 32.8309 25.776C32.5012 26.572 32.4149 27.448 32.583 28.2931C32.7511 29.1382 33.166 29.9145 33.7753 30.5237C34.3845 31.133 35.1608 31.548 36.0058 31.7161C36.8509 31.8842 37.7268 31.7979 38.5228 31.4681C39.3188 31.1384 39.9992 30.58 40.4779 29.8636C40.9566 29.1471 41.2121 28.3048 41.2121 27.4432C41.2121 26.871 41.0994 26.3045 40.8805 25.776C40.6615 25.2474 40.3406 24.7671 39.9361 24.3626C39.5316 23.958 39.0513 23.6371 38.5228 23.4182C37.9943 23.1992 37.4278 23.0866 36.8557 23.0866ZM57.3749 47.5535C57.5777 47.3575 57.8494 47.2491 58.1315 47.2515C58.4135 47.254 58.6833 47.3671 58.8827 47.5666C59.0822 47.766 59.1953 48.0358 59.1977 48.3179C59.2002 48.5999 59.0918 48.8716 58.8958 49.0745L51.7326 56.2382C51.5309 56.4398 51.2573 56.5531 50.9721 56.5531C50.6869 56.5531 50.4133 56.4398 50.2116 56.2382L46.63 52.6563C46.434 52.4535 46.3256 52.1817 46.3281 51.8997C46.3305 51.6176 46.4436 51.3478 46.6431 51.1484C46.8425 50.9489 47.1123 50.8358 47.3943 50.8334C47.6763 50.8309 47.9481 50.9393 48.1509 51.1353L50.9721 53.9565L57.3749 47.5535ZM52.763 40.9681C50.6019 40.9681 48.4892 41.609 46.6923 42.8098C44.8953 44.0105 43.4948 45.7172 42.6677 47.714C41.8407 49.7107 41.6243 51.9079 42.0459 54.0277C42.4675 56.1475 43.5082 58.0946 45.0364 59.6228C46.5646 61.1511 48.5116 62.1919 50.6313 62.6135C52.7509 63.0352 54.948 62.8188 56.9447 61.9917C58.9413 61.1646 60.6479 59.764 61.8486 57.9669C63.0493 56.1699 63.6901 54.0571 63.6901 51.8958C63.6901 48.9976 62.5388 46.2181 60.4895 44.1688C58.4403 42.1195 55.6609 40.9682 52.7629 40.9681H52.763ZM58.9686 45.6901C57.7413 44.4626 56.1776 43.6267 54.4752 43.288C52.7729 42.9493 51.0083 43.123 49.4047 43.7872C47.8011 44.4515 46.4304 45.5764 45.4661 47.0196C44.5018 48.4629 43.9871 50.1597 43.9871 51.8955C43.9871 53.6314 44.5018 55.3282 45.4661 56.7715C46.4304 58.2147 47.8011 59.3396 49.4047 60.0038C51.0083 60.6681 52.7729 60.8418 54.4752 60.5031C56.1776 60.1644 57.7413 59.3285 58.9686 58.101C60.6141 56.4551 61.5385 54.223 61.5385 51.8955C61.5385 49.5681 60.6141 47.3359 58.9686 45.6901ZM53.4765 32.0628C53.2814 31.8888 53.0294 31.7921 52.768 31.7908C52.5066 31.7896 52.2537 31.8839 52.057 32.0561C50.3015 33.5948 48.3661 34.9152 46.293 35.9884C44.8451 34.3888 43.015 33.1828 40.9739 32.4835C41.9645 31.674 42.6946 30.5906 43.0731 29.3686C43.4517 28.1466 43.4619 26.8402 43.1025 25.6124C45.0093 24.197 47.2718 23.3391 49.6376 23.1345C52.0035 22.9299 54.3796 23.3866 56.5011 24.4536C58.6226 25.5206 60.4059 27.1561 61.6522 29.1775C62.8986 31.1989 63.5588 33.5269 63.5594 35.9017L63.4906 37.7761C59.8022 36.5648 56.3962 34.6217 53.4765 32.063V32.0628ZM65.5933 38.3786C67.3265 38.8051 69.0954 39.0702 70.8775 39.1705C71.1377 39.1848 71.3838 39.2934 71.5699 39.4759C71.756 39.6584 71.8694 39.9024 71.8888 40.1623H71.89C72.4732 47.8354 70.688 54.2593 67.695 59.3464C63.9767 65.6662 58.3848 69.9131 53.1452 71.9291C52.8961 72.0248 52.6201 72.0236 52.3719 71.9257C49.8204 70.9244 47.4305 69.5522 45.2795 67.8533C42.7393 69.4726 40.0458 70.8378 37.2381 71.9291C36.9891 72.0247 36.7134 72.0236 36.4652 71.9258C22.4736 66.5843 8 51.9261 8 35.9014C8.00034 32.7136 9.01801 29.609 10.9049 27.0396C12.7918 24.4703 15.4494 22.5702 18.4909 21.6159C17.212 20.6733 16.2634 19.351 15.7803 17.8374C15.2972 16.3239 15.3042 14.6965 15.8005 13.1872C16.2968 11.6779 17.2569 10.3639 18.5439 9.43244C19.831 8.50101 21.3792 7.99976 22.9679 8.00017C24.5566 8.00057 26.1046 8.50261 27.3912 9.4347C28.6778 10.3668 29.6372 11.6813 30.1327 13.1908C30.6282 14.7004 30.6345 16.3278 30.1506 17.8411C29.6667 19.3544 28.7174 20.6763 27.438 21.6182C28.9104 22.0794 30.3025 22.7659 31.5647 23.6533C32.1677 22.8132 32.9621 22.1287 33.8822 21.6566C34.8022 21.1845 35.8215 20.9382 36.8556 20.9382C37.8897 20.9382 38.9089 21.1845 39.829 21.6566C40.749 22.1287 41.5434 22.8132 42.1464 23.6533C43.4087 22.7658 44.8009 22.0792 46.2734 21.6181C44.994 20.6761 44.0447 19.3543 43.5608 17.841C43.0769 16.3277 43.0831 14.7002 43.5786 13.1907C44.0741 11.6811 45.0336 10.3666 46.3202 9.43449C47.6068 8.50241 49.1548 8.00038 50.7435 8C52.3322 7.99962 53.8805 8.5009 55.1675 9.43236C56.4546 10.3638 57.4147 11.6779 57.9109 13.1872C58.4072 14.6965 58.4142 16.324 57.931 17.8375C57.4479 19.351 56.4992 20.6734 55.2202 21.6159C58.2616 22.5703 60.9191 24.4704 62.8059 27.0398C64.6926 29.6092 65.7102 32.7137 65.7105 35.9014C65.7105 36.6948 65.6701 37.5579 65.5931 38.3786H65.5933ZM43.556 66.3962C42.5915 66.9889 41.6215 67.5379 40.646 68.0431C39.3774 68.7001 38.1102 69.2809 36.8562 69.7791C29.8442 66.9956 22.809 61.8502 17.7077 55.4181C13.1464 49.6661 10.1513 42.897 10.1513 35.9014C10.1513 32.5029 11.5013 29.2435 13.9043 26.8403C16.3073 24.4372 19.5665 23.0871 22.9649 23.0871C25.7191 23.079 28.4015 23.9652 30.6089 25.6124C30.2496 26.8398 30.2596 28.1458 30.6378 29.3675C31.016 30.5892 31.7455 31.6725 32.7354 32.4822C30.2199 33.3426 28.0362 34.968 26.49 37.1309C24.9438 39.2938 24.1125 41.8861 24.1124 44.5448V48.9149C24.1124 49.2002 24.2257 49.4738 24.4274 49.6755C24.6292 49.8773 24.9027 49.9906 25.188 49.9906H34.2299C35.5255 56.3079 38.7905 62.0518 43.5556 66.3967L43.556 66.3962ZM33.8559 47.8392H26.2637V44.5448C26.264 42.4621 26.878 40.4256 28.0292 38.6898C29.1803 36.9541 30.8175 35.5962 32.736 34.7857C34.6545 33.9753 36.7694 33.7482 38.8162 34.133C40.863 34.5178 42.751 35.4973 44.2443 36.9492C44.1457 36.9906 44.0471 37.0315 43.9485 37.0718C41.0016 38.2755 37.8759 38.9837 34.698 39.1677C34.4284 39.17 34.1695 39.2736 33.9727 39.4579C33.776 39.6423 33.6557 39.8938 33.6358 40.1627C33.4331 42.722 33.5069 45.2957 33.8559 47.8392ZM60.7706 39.0557C57.8756 37.8731 55.1761 36.2597 52.7633 34.2703C47.9179 38.2646 41.9758 40.6965 35.7205 41.2454C35.4139 47.3051 36.6688 53.1454 39.6798 58.2628C41.3294 61.0656 43.4501 63.5629 45.9485 65.6448C46.004 65.6824 46.0559 65.7253 46.1033 65.7727C48.1105 67.4333 50.3555 68.7834 52.7633 69.7779C57.4917 67.8586 62.4845 63.9768 65.8468 58.2629C68.5143 53.7295 70.1494 48.0365 69.8061 41.2455C66.7014 40.9736 63.6554 40.2354 60.7707 39.0558L60.7706 39.0557ZM22.966 10.1515C21.536 10.1515 20.1647 10.7196 19.1535 11.7307C18.1424 12.7419 17.5743 14.1134 17.5743 15.5434C17.5743 18.5059 19.926 20.8959 22.966 20.9354C23.6741 20.9354 24.3752 20.7959 25.0293 20.525C25.6835 20.254 26.2778 19.8568 26.7785 19.3561C27.2792 18.8555 27.6763 18.261 27.9473 17.6069C28.2182 16.9527 28.3577 16.2515 28.3577 15.5434C28.3577 14.8354 28.2182 14.1342 27.9473 13.48C27.6763 12.8258 27.2792 12.2314 26.7785 11.7307C26.2778 11.2301 25.6835 10.8329 25.0293 10.5619C24.3752 10.2909 23.6741 10.1515 22.966 10.1515ZM50.743 20.9354C51.8095 20.9359 52.8521 20.6201 53.7391 20.0279C54.6261 19.4358 55.3176 18.5938 55.7261 17.6086C56.1345 16.6234 56.2417 15.5392 56.0339 14.4931C55.8262 13.447 55.3129 12.486 54.5589 11.7317C53.805 10.9773 52.8443 10.4635 51.7983 10.2553C50.7524 10.047 49.6682 10.1536 48.6828 10.5617C47.6975 10.9697 46.8552 11.6608 46.2627 12.5476C45.6701 13.4343 45.3538 14.4769 45.3538 15.5434C45.3539 16.9731 45.9217 18.3442 46.9324 19.3553C47.9431 20.3663 49.3139 20.9346 50.7435 20.9351L50.743 20.9354Z" fill="#FA7223"/>
</svg>
