<svg width="80" height="80" viewBox="0 0 80 80" fill="none" xmlns="http://www.w3.org/2000/svg">
<path d="M39.9999 46.5453C39.7575 46.5453 39.6363 46.5453 39.3939 46.4241C29.8181 40.8484 23.8787 30.4241 23.8787 19.3938C23.8787 18.6665 24.3636 18.1817 25.0909 18.1817C27.5151 18.1817 32.3636 17.212 32.3636 17.212C34.6666 16.7272 37.0909 15.7575 39.5151 14.3029C39.8787 14.0605 40.3636 14.0605 40.7272 14.3029C43.0302 15.6362 45.4545 16.6059 47.7575 17.212C50.0606 17.8181 52.606 18.1817 54.909 18.1817C55.6363 18.1817 56.1212 18.6665 56.1212 19.3938C56.1212 30.4241 50.1818 40.7272 40.606 46.4241C40.4848 46.5453 40.2424 46.5453 39.9999 46.5453ZM26.303 20.6059C26.6666 30.0605 31.8787 38.909 39.9999 43.8787C48.1212 38.7878 53.3333 30.0605 53.6969 20.4847C51.5151 20.3635 49.3333 19.9999 47.2727 19.515C44.9696 19.0302 42.5454 18.0605 40.2424 16.7272C37.8181 18.0605 35.3939 19.0302 32.9696 19.515C32.606 19.6362 28.9696 20.3635 26.303 20.6059ZM15.5151 24.8484C14.909 24.8484 14.1818 24.7272 13.5757 24.3635L11.0302 22.7878C9.21206 21.6968 8.72721 19.515 9.81812 17.6969L10.7878 15.9999C11.2727 15.1514 12.1212 14.5453 13.0909 14.3029C14.0605 14.0605 15.0302 14.1817 15.8787 14.7878L18.4242 16.3635C19.9999 17.4544 20.606 19.515 19.7575 21.3332L18.6666 23.0302C17.9393 24.2423 16.7272 24.8484 15.5151 24.8484ZM13.8181 16.6059H13.5757C13.2121 16.7272 12.9696 16.8484 12.8484 17.212L11.8787 18.909C11.5151 19.515 11.6363 20.2423 12.2424 20.6059L14.7878 22.1817C15.3939 22.5453 16.1212 22.4241 16.4848 21.6969L17.4545 19.9999C17.8181 19.3938 17.5757 18.5453 16.9696 18.1817L14.5454 16.8484C14.303 16.6059 14.0605 16.6059 13.8181 16.6059Z" fill="#FA7223"/>
<path d="M11.2727 18.6673C11.0303 18.6673 10.7878 18.6673 10.6666 18.546L4.60602 14.9097C3.99996 14.546 3.87875 13.8188 4.24239 13.2127C4.60602 12.6067 5.3333 12.4854 5.93936 12.8491L12 16.4854C12.606 16.8491 12.7272 17.5763 12.3636 18.1824C12.1212 18.4248 11.6363 18.6673 11.2727 18.6673ZM25.6969 30.7885C24.9697 30.7885 24.3636 30.546 23.7575 30.3036L21.2121 28.7279C20.3636 28.243 19.7575 27.3945 19.5151 26.4248C19.2727 25.4551 19.3939 24.4854 20 23.637L20.9697 21.94C21.8181 20.3642 24 19.7582 25.6969 20.4854C26.303 20.7279 26.5454 21.4551 26.303 22.0612C26.0606 22.6673 25.3333 22.9097 24.7272 22.6673C24.2424 22.4248 23.3939 22.546 23.1515 23.1521L22.1818 24.8491C21.8181 25.4551 21.9394 26.1824 22.5454 26.546L25.0909 28.1218C25.4545 28.3642 25.8181 28.3642 26.0606 28.243C26.6666 28.0006 27.3939 28.243 27.6363 28.9703C27.8788 29.5763 27.6363 30.3036 26.9091 30.546C26.5454 30.6673 26.0606 30.7885 25.6969 30.7885Z" fill="#FA7223"/>
<path d="M21.4544 24.7282C21.212 24.7282 20.9696 24.7282 20.8484 24.607L17.4544 22.5464C16.8484 22.1828 16.7271 21.4555 17.0908 20.8494C17.4544 20.2434 18.1817 20.1222 18.7877 20.4858L22.1817 22.5464C22.7877 22.91 22.909 23.6373 22.5453 24.2434C22.3029 24.4858 21.818 24.7282 21.4544 24.7282ZM56.1211 48.8494C55.515 48.8494 54.7877 48.607 54.1817 48.2434L51.6362 46.6676C50.7877 46.1828 50.1817 45.3343 49.9393 44.3646C49.6968 43.3949 49.818 42.4252 50.4241 41.5767L51.3938 39.8797C51.8787 39.0313 52.7271 38.4252 53.6968 38.1828C54.6665 37.9403 55.6362 38.0616 56.4847 38.6676L59.0302 40.2434C59.0302 40.2434 59.1514 40.2434 59.1514 40.3646C60.7271 41.5767 61.212 43.6373 60.3635 45.3343V45.4555L59.3938 47.0312C58.909 47.8797 58.0605 48.4858 57.0908 48.7282C56.7271 48.8494 56.3635 48.8494 56.1211 48.8494ZM54.4241 40.607H54.1817C53.8181 40.7282 53.5756 40.8494 53.4544 41.2131L52.4847 42.91C52.2423 43.2737 52.2423 43.6373 52.3635 43.8797C52.4847 44.2434 52.6059 44.4858 52.9696 44.607L55.515 46.1828C55.7574 46.304 56.1211 46.4252 56.4847 46.304C56.8484 46.1828 57.0908 46.0616 57.212 45.6979L58.1817 44.1222C58.5453 43.5161 58.3029 42.6676 57.6968 42.1828L55.2726 40.607H54.4241Z" fill="#FA7223"/>
<path d="M51.8787 42.7868C51.6363 42.7868 51.3939 42.7868 51.2727 42.6656L47.8787 40.605C47.2727 40.2414 47.1515 39.5141 47.5151 38.908C47.8787 38.302 48.606 38.1808 49.2121 38.5444L52.606 40.605C53.2121 40.9686 53.3333 41.6959 52.9696 42.302C52.7272 42.5444 52.2424 42.7868 51.8787 42.7868ZM66.1818 54.908C65.5757 54.908 64.8484 54.6656 64.2424 54.302L61.6969 52.7262C59.8787 51.6353 59.3939 49.4535 60.4848 47.6353L61.4545 45.9383C61.9393 45.0898 62.7878 44.4838 63.7575 44.2414C64.7272 43.9989 65.6969 44.1202 66.5454 44.7262L69.0909 46.302C69.9393 46.7868 70.5454 47.6353 70.7878 48.7262C71.0302 49.6959 70.7878 50.6656 70.303 51.3929L69.3333 53.0898C68.8484 53.9383 67.9999 54.5444 67.0302 54.7868C66.7878 54.908 66.4242 54.908 66.1818 54.908ZM64.4848 46.6656H64.2424C63.8787 46.7868 63.6363 46.908 63.5151 47.2717L62.5454 48.9686C62.303 49.3323 62.303 49.6959 62.4242 49.9383C62.5454 50.302 62.6666 50.5444 63.0302 50.6656L65.5757 52.2414C65.8181 52.3626 66.1818 52.4838 66.5454 52.3626C66.909 52.2414 67.1515 52.1201 67.2727 51.7565L68.2424 50.0595V49.9383C68.3636 49.6959 68.4848 49.4535 68.3636 49.0898C68.2424 48.7262 68.1212 48.4838 67.7575 48.2414L65.2121 46.6656H64.4848Z" fill="#FA7223"/>
<path d="M62.0605 48.8493C61.8181 48.8493 61.5757 48.8493 61.4545 48.7281L58.0605 46.6675C57.4545 46.3039 57.3333 45.5766 57.6969 44.9705C58.0605 44.3645 58.7878 44.2433 59.3939 44.6069L62.7878 46.6675C63.3939 47.0311 63.5151 47.7584 63.1514 48.3645C62.909 48.6069 62.4242 48.8493 62.0605 48.8493ZM75.1514 56.6069C74.909 56.6069 74.7878 56.6069 74.5454 56.4857L68.9696 53.213C68.3636 52.8493 68.2423 52.122 68.4848 51.516C68.8484 50.9099 69.5757 50.7887 70.1817 51.0311L75.7575 54.3039C76.3636 54.6675 76.4848 55.3948 76.2423 56.0008C75.9999 56.3645 75.5151 56.6069 75.1514 56.6069ZM14.3029 55.6372C14.0605 55.6372 13.8181 55.6372 13.4545 55.516C12.4848 55.2736 11.6363 54.6675 11.1514 53.9402L10.1817 52.3645C9.21203 50.7887 9.69688 48.4857 11.2726 47.3948L13.8181 45.819C14.5454 45.3342 15.6363 45.0917 16.606 45.3342C17.5757 45.5766 18.4242 46.0614 18.909 46.9099L19.8787 48.4857C20.3636 49.213 20.606 50.3039 20.3636 51.2736C20.1211 52.2433 19.6363 53.0917 18.7878 53.5766L16.2423 55.1523C15.7575 55.516 15.0302 55.6372 14.3029 55.6372ZM15.8787 47.6372C15.6363 47.6372 15.3939 47.6372 15.2726 47.7584L12.7272 49.3342C12.2423 49.6978 11.9999 50.5463 12.3635 51.0311L13.3332 52.6069C13.5757 52.9705 13.8181 53.0917 14.0605 53.0917C14.4242 53.213 14.7878 53.0917 15.0302 52.9705L17.5757 51.3948C17.8181 51.2736 18.0605 50.9099 18.0605 50.5463C18.1817 50.1826 18.0605 49.9402 17.9393 49.6978L16.9696 48.122C16.8484 47.8796 16.4848 47.6372 16.1211 47.6372H15.8787Z" fill="#FA7223"/>
<path d="M5.6969 57.4556C5.33326 57.4556 4.84842 57.2132 4.60599 56.8495C4.24236 56.2435 4.48478 55.5162 4.96963 55.1526L11.0302 51.395C11.6363 51.0314 12.3636 51.2738 12.7272 51.7586C13.0908 52.3647 12.8484 53.092 12.3636 53.4556L6.30296 57.2132C6.18175 57.4556 5.93933 57.4556 5.6969 57.4556ZM24.2424 49.3344C23.0302 49.3344 21.8181 48.7283 21.0908 47.6374L20.1211 46.0617C19.6363 45.3344 19.3939 44.2435 19.6363 43.2738C19.8787 42.3041 20.3636 41.4556 21.2121 40.9708L23.7575 39.395C25.5757 38.3041 27.6363 38.7889 28.8484 40.4859L29.8181 42.0617C30.303 42.7889 30.5454 43.8798 30.303 44.8495C30.0605 45.8192 29.5757 46.6677 28.7272 47.1526L26.1818 48.7283C25.6969 49.2132 24.9696 49.3344 24.2424 49.3344ZM25.8181 41.3344C25.5757 41.3344 25.3333 41.4556 25.0908 41.5768L22.5454 43.1526C22.303 43.2738 22.0605 43.6374 22.0605 44.0011C21.9393 44.3647 22.0605 44.6071 22.1817 44.8495L23.1514 46.4253C23.5151 46.9102 24.3636 47.1526 24.8484 46.7889L27.3939 45.2132C27.6363 45.092 27.8787 44.7283 27.8787 44.3647C27.9999 44.0011 27.8787 43.7586 27.7575 43.5162L26.7878 41.9405C26.6666 41.4556 26.1817 41.3344 25.8181 41.3344Z" fill="#FA7223"/>
<path d="M18.4241 49.5755C18.0605 49.5755 17.6968 49.333 17.4544 49.0906C17.0908 48.4845 17.212 47.7573 17.8181 47.3936L21.0908 45.2118C21.6968 44.8482 22.4241 44.9694 22.7878 45.5755C23.1514 46.1815 23.0302 46.9088 22.4241 47.2724L19.1514 49.4542C18.909 49.4542 18.6665 49.5755 18.4241 49.5755ZM28.3635 43.2724C27.9999 43.2724 27.515 43.03 27.3938 42.6664C27.0302 42.0603 27.1514 41.333 27.7575 40.9694L31.1514 38.7876C31.7575 38.4239 32.4847 38.5452 32.8484 39.1512C33.212 39.7573 33.0908 40.4845 32.4847 40.8482L29.0908 43.03C28.8484 43.1512 28.6059 43.2724 28.3635 43.2724ZM54.3029 30.4239C53.9393 30.4239 53.5756 30.3027 53.212 30.1815C52.6059 29.9391 52.2423 29.333 52.4847 28.6058C52.7272 27.9997 53.3332 27.6361 54.0605 27.8785C54.4241 27.9997 54.6665 27.9997 55.0302 27.7573L57.5756 26.1815C58.0605 25.8179 58.3029 24.9694 57.9393 24.4845L56.8484 23.03C56.4847 22.5452 55.8787 22.3027 55.2726 22.5452C54.6665 22.7876 53.9393 22.4239 53.6968 21.8179C53.4544 21.2118 53.8181 20.4845 54.4241 20.2421C56.1211 19.6361 57.8181 20.2421 58.7878 21.6967L59.2726 22.4239L59.7575 23.3936C60.8484 24.9694 60.3635 27.2724 58.6665 28.3633L56.1211 29.9391C55.515 30.3027 54.909 30.4239 54.3029 30.4239ZM64.2423 24.1209C63.0302 24.1209 61.8181 23.5148 61.0908 22.4239L60.1211 20.8482C59.0302 19.2724 59.515 16.9694 61.212 15.7573L63.7575 14.1815C64.4847 13.6967 65.5756 13.4542 66.5453 13.6967C67.515 13.9391 68.3635 14.4239 68.8484 15.2724L69.8181 16.8482C70.3029 17.5755 70.5453 18.6664 70.3029 19.6361C70.0605 20.6058 69.5756 21.4542 68.7272 21.9391L66.1817 23.5148C65.6968 23.9997 64.9696 24.1209 64.2423 24.1209ZM65.8181 16.1209C65.5756 16.1209 65.3332 16.1209 65.212 16.2421L62.6665 17.8179C62.1817 18.1815 61.9393 19.03 62.3029 19.5148L63.2726 21.0906C63.6362 21.5755 64.4847 21.8179 64.9696 21.4542L67.515 19.8785C67.7575 19.7573 67.9999 19.3936 67.9999 19.03C68.1211 18.6664 67.9999 18.4239 67.8787 18.1815L66.909 16.6058C66.7878 16.3633 66.4241 16.1209 66.0605 16.1209H65.8181Z" fill="#FA7223"/>
<path d="M58.3029 24.3629C57.9393 24.3629 57.4545 24.1205 57.212 23.7569C56.8484 23.1508 57.0908 22.4235 57.5757 22.0599L60.9696 19.9993C61.5757 19.6357 62.3029 19.8781 62.6666 20.3629C63.0302 20.969 62.7878 21.6963 62.3029 22.0599L58.909 24.2417C58.7878 24.3629 58.5454 24.3629 58.3029 24.3629ZM69.0908 17.5751C68.7272 17.5751 68.2423 17.3326 68.1211 16.969C67.7575 16.3629 67.9999 15.6357 68.4848 15.272L73.9393 11.9993C74.5454 11.6357 75.2726 11.8781 75.6363 12.3629C75.9999 12.969 75.7575 13.6963 75.2726 14.0599L69.8181 17.4538C69.5757 17.5751 69.3333 17.5751 69.0908 17.5751ZM67.8787 71.5145H12.1211C6.06052 71.5145 1.21204 66.666 1.21204 60.6054C1.21204 59.8781 1.69688 59.3932 2.42416 59.3932H77.5757C78.3029 59.3932 78.7878 59.8781 78.7878 60.6054C78.7878 66.666 73.9393 71.5145 67.8787 71.5145ZM3.75749 61.8175C4.36355 65.9387 7.8787 69.0902 12.1211 69.0902H67.8787C72.1211 69.0902 75.6363 65.9387 76.2423 61.8175H3.75749Z" fill="#FA7223"/>
<path d="M41.9393 66.7884H38.1817C34.7878 66.7884 32.1211 64.1217 32.1211 60.7277C32.1211 60.0005 32.6059 59.5156 33.3332 59.5156H46.909C47.2726 59.5156 47.515 59.6368 47.7575 59.8793C47.9999 60.1217 48.1211 60.4853 48.1211 60.7277C47.9999 64.1217 45.212 66.7884 41.9393 66.7884ZM34.7878 61.9399C35.2726 63.3944 36.6059 64.3641 38.1817 64.3641H41.9393C43.515 64.3641 44.8484 63.3944 45.4544 61.9399H34.7878Z" fill="#FA7223"/>
<path d="M75.1514 61.8177H4.84835C4.12108 61.8177 3.63623 61.3329 3.63623 60.6056V14.1813C3.63623 11.2723 5.93926 8.84801 8.84835 8.48438H71.2726C74.1817 8.84801 76.3635 11.2723 76.3635 14.1813V60.6056C76.3635 61.3329 75.8787 61.8177 75.1514 61.8177ZM6.06047 59.3935H73.9393V14.1813C73.9393 12.4844 72.7271 11.151 71.0302 10.9086H9.09078C7.39381 11.151 6.06047 12.4844 6.06047 14.1813V59.3935Z" fill="#FA7223"/>
<path d="M39.9999 31.5154C38.7878 31.5154 37.5757 30.9094 36.8484 29.9397C35.9999 28.8487 35.7575 27.5154 36.1212 26.3033C36.4848 24.8487 37.6969 23.6366 39.1515 23.5154C40.4848 23.1518 41.8181 23.5154 42.7878 24.3639C43.7575 25.2124 44.3636 26.4245 44.2424 27.7578C44.2424 28.4851 43.6363 28.97 42.909 28.8487C42.1818 28.8487 41.6969 28.2427 41.8181 27.5154C41.8181 26.7881 41.4545 26.4245 41.2121 26.1821C40.7272 25.8184 40.2424 25.6972 39.6363 25.8184H39.5151C39.0302 25.8184 38.6666 26.3033 38.4242 26.9094C38.303 27.5154 38.4242 28.0003 38.7878 28.4851C39.1515 28.8487 39.6363 29.0912 40.1212 29.0912C40.8484 29.0912 41.3333 29.576 41.3333 30.3033C41.3333 31.0306 40.7272 31.5154 39.9999 31.5154Z" fill="#FA7223"/>
<path d="M39.9999 37.3321C39.0302 37.3321 38.0605 36.9685 37.3332 36.3625C36.3635 35.514 35.7574 34.3018 35.8787 32.9685C35.8787 32.2412 36.4847 31.7564 37.212 31.8776C37.9393 31.8776 38.4241 32.4837 38.3029 33.2109C38.3029 33.9382 38.6665 34.3018 38.909 34.5443C39.3938 34.9079 39.8787 35.0291 40.4847 34.9079H40.6059C41.0908 34.9079 41.4544 34.4231 41.6968 33.817C41.818 33.2109 41.6968 32.7261 41.3332 32.2412C40.9696 31.7564 40.4847 31.514 39.9999 31.514C39.2726 31.514 38.7877 31.0291 38.7877 30.3018C38.7877 29.5746 39.2726 29.0897 39.9999 29.0897C41.212 29.0897 42.4241 29.6958 43.1514 30.6655C43.9999 31.7564 44.2423 33.0897 43.8787 34.3018C43.515 35.7564 42.3029 36.9685 40.8483 37.0897C40.6059 37.2109 40.2423 37.3321 39.9999 37.3321ZM39.9999 25.6958C39.2726 25.6958 38.7877 25.2109 38.7877 24.4837V22.4231C38.7877 21.6958 39.2726 21.2109 39.9999 21.2109C40.7271 21.2109 41.212 21.6958 41.212 22.4231V24.4837C41.212 25.2109 40.7271 25.6958 39.9999 25.6958Z" fill="#FA7223"/>
<path d="M40 39.395C39.2727 39.395 38.7878 38.9102 38.7878 38.1829V36.1223C38.7878 35.395 39.2727 34.9102 40 34.9102C40.7272 34.9102 41.2121 35.395 41.2121 36.1223V38.1829C41.2121 38.9102 40.7272 39.395 40 39.395Z" fill="#FA7223"/>
</svg>
