<svg width="80" height="80" viewBox="0 0 80 80" fill="none" xmlns="http://www.w3.org/2000/svg">
<g clip-path="url(#clip0_522_1105)">
<mask id="mask0_522_1105" style="mask-type:luminance" maskUnits="userSpaceOnUse" x="0" y="0" width="80" height="80">
<path d="M0 0H80V80H0V0Z" fill="white"/>
</mask>
<g mask="url(#mask0_522_1105)">
<path d="M68.5 76H38.5C36.5116 75.9976 34.6053 75.2067 33.1993 73.8007C31.7933 72.3947 31.0024 70.4884 31 68.5V56.5C31 56.1022 31.158 55.7206 31.4393 55.4393C31.7206 55.158 32.1022 55 32.5 55C32.8978 55 33.2794 55.158 33.5607 55.4393C33.842 55.7206 34 56.1022 34 56.5V68.5C34 70.981 36.019 73 38.5 73H68.5C70.981 73 73 70.981 73 68.5V38.5C73 36.019 70.981 34 68.5 34H53.5C53.1022 34 52.7206 33.842 52.4393 33.5607C52.158 33.2794 52 32.8978 52 32.5C52 32.1022 52.158 31.7206 52.4393 31.4393C52.7206 31.158 53.1022 31 53.5 31H68.5C72.634 31 76 34.366 76 38.5V68.5C76 72.634 72.634 76 68.5 76ZM26.5 49H25C24.6022 49 24.2206 48.842 23.9393 48.5607C23.658 48.2794 23.5 47.8978 23.5 47.5C23.5 47.1022 23.658 46.7206 23.9393 46.4393C24.2206 46.158 24.6022 46 25 46H26.5C26.8978 46 27.2794 46.158 27.5607 46.4393C27.842 46.7206 28 47.1022 28 47.5C28 47.8978 27.842 48.2794 27.5607 48.5607C27.2794 48.842 26.8978 49 26.5 49ZM18.937 49H15.904C15.5062 49 15.1246 48.842 14.8433 48.5607C14.562 48.2794 14.404 47.8978 14.404 47.5C14.404 47.1022 14.562 46.7206 14.8433 46.4393C15.1246 46.158 15.5062 46 15.904 46H18.937C19.3348 46 19.7164 46.158 19.9977 46.4393C20.279 46.7206 20.437 47.1022 20.437 47.5C20.437 47.8978 20.279 48.2794 19.9977 48.5607C19.7164 48.842 19.3348 49 18.937 49ZM9.862 48.772C9.72303 48.772 9.58472 48.7528 9.451 48.715C8.22973 48.3673 7.11688 47.7149 6.217 46.819C6.0734 46.681 5.95871 46.5158 5.87962 46.3331C5.80053 46.1503 5.75863 45.9536 5.75636 45.7545C5.75409 45.5553 5.79149 45.3577 5.86639 45.1732C5.94129 44.9887 6.05219 44.8209 6.19261 44.6797C6.33303 44.5385 6.50016 44.4267 6.68426 44.3507C6.86836 44.2748 7.06574 44.2362 7.26488 44.2374C7.46402 44.2385 7.66095 44.2793 7.84416 44.3574C8.02737 44.4354 8.19321 44.5492 8.332 44.692C8.872 45.229 9.544 45.622 10.27 45.829C10.6181 45.9278 10.9188 46.1491 11.1166 46.4522C11.3143 46.7552 11.3959 47.1195 11.3462 47.478C11.2965 47.8364 11.1189 48.1648 10.8462 48.4026C10.5734 48.6404 10.2239 48.7716 9.862 48.772ZM5.5 41.671C5.10218 41.671 4.72064 41.513 4.43934 41.2317C4.15804 40.9504 4 40.5688 4 40.171V37.138C4 36.7402 4.15804 36.3586 4.43934 36.0773C4.72064 35.796 5.10218 35.638 5.5 35.638C5.89782 35.638 6.27936 35.796 6.56066 36.0773C6.84196 36.3586 7 36.7402 7 37.138V40.171C7 40.5688 6.84196 40.9504 6.56066 41.2317C6.27936 41.513 5.89782 41.671 5.5 41.671ZM5.5 32.572C5.10218 32.572 4.72064 32.414 4.43934 32.1327C4.15804 31.8514 4 31.4698 4 31.072V28.039C4 27.6412 4.15804 27.2596 4.43934 26.9783C4.72064 26.697 5.10218 26.539 5.5 26.539C5.89782 26.539 6.27936 26.697 6.56066 26.9783C6.84196 27.2596 7 27.6412 7 28.039V31.072C7 31.4698 6.84196 31.8514 6.56066 32.1327C6.27936 32.414 5.89782 32.572 5.5 32.572ZM5.5 23.476C5.10218 23.476 4.72064 23.318 4.43934 23.0367C4.15804 22.7554 4 22.3738 4 21.976V18.943C4 18.5452 4.15804 18.1636 4.43934 17.8823C4.72064 17.601 5.10218 17.443 5.5 17.443C5.89782 17.443 6.27936 17.601 6.56066 17.8823C6.84196 18.1636 7 18.5452 7 18.943V21.976C7 22.3738 6.84196 22.7554 6.56066 23.0367C6.27936 23.318 5.89782 23.476 5.5 23.476ZM47.5 20.383C47.1022 20.383 46.7206 20.225 46.4393 19.9437C46.158 19.6624 46 19.2808 46 18.883V15.85C46 15.4522 46.158 15.0706 46.4393 14.7893C46.7206 14.508 47.1022 14.35 47.5 14.35C47.8978 14.35 48.2794 14.508 48.5607 14.7893C48.842 15.0706 49 15.4522 49 15.85V18.883C49 19.2808 48.842 19.6624 48.5607 19.9437C48.2794 20.225 47.8978 20.383 47.5 20.383ZM5.5 14.377C5.10218 14.377 4.72064 14.219 4.43934 13.9377C4.15804 13.6564 4 13.2748 4 12.877V11.5C4 10.81 4.096 10.123 4.282 9.46C4.3318 9.2663 4.41983 9.08451 4.54092 8.92533C4.66201 8.76615 4.81371 8.63279 4.98709 8.5331C5.16048 8.43341 5.35205 8.3694 5.55054 8.34483C5.74902 8.32027 5.95042 8.33565 6.14288 8.39007C6.33533 8.44448 6.51497 8.53684 6.67121 8.6617C6.82744 8.78656 6.95714 8.9414 7.05265 9.11712C7.14817 9.29284 7.20758 9.48589 7.22739 9.68491C7.24719 9.88393 7.227 10.0849 7.168 10.276C7.05636 10.6744 6.99984 11.0862 7 11.5V12.877C7 13.2748 6.84196 13.6564 6.56066 13.9377C6.27936 14.219 5.89782 14.377 5.5 14.377ZM47.257 11.308C46.9324 11.308 46.6166 11.2027 46.357 11.008C46.0974 10.8133 45.9079 10.5396 45.817 10.228C45.6011 9.49846 45.2049 8.83506 44.665 8.299C44.3897 8.01773 44.236 7.63955 44.237 7.24599C44.238 6.85244 44.3937 6.47504 44.6704 6.19519C44.9471 5.91533 45.3227 5.75543 45.7162 5.74997C46.1097 5.74451 46.4896 5.89393 46.774 6.166C47.677 7.06 48.343 8.173 48.697 9.385C48.7628 9.60874 48.7755 9.84473 48.7341 10.0742C48.6927 10.3037 48.5983 10.5204 48.4585 10.7071C48.3188 10.8938 48.1374 11.0453 47.9288 11.1496C47.7202 11.2539 47.4902 11.3081 47.257 11.308ZM9.814 7.24C9.45293 7.24 9.10397 7.10976 8.8312 6.87318C8.55842 6.63661 8.38014 6.30958 8.32908 5.95213C8.27801 5.59469 8.3576 5.23082 8.55322 4.92733C8.74884 4.62384 9.04737 4.4011 9.394 4.3C10.075 4.102 10.783 4 11.5 4H12.823C13.2208 4 13.6024 4.15804 13.8837 4.43934C14.165 4.72064 14.323 5.10218 14.323 5.5C14.323 5.89782 14.165 6.27936 13.8837 6.56066C13.6024 6.84196 13.2208 7 12.823 7H11.5C11.068 7 10.645 7.06 10.237 7.18C10.0997 7.22049 9.95717 7.24071 9.814 7.24ZM40.117 7H37.084C36.6862 7 36.3046 6.84196 36.0233 6.56066C35.742 6.27936 35.584 5.89782 35.584 5.5C35.584 5.10218 35.742 4.72064 36.0233 4.43934C36.3046 4.15804 36.6862 4 37.084 4H40.117C40.5148 4 40.8964 4.15804 41.1777 4.43934C41.459 4.72064 41.617 5.10218 41.617 5.5C41.617 5.89782 41.459 6.27936 41.1777 6.56066C40.8964 6.84196 40.5148 7 40.117 7ZM31.018 7H27.988C27.5902 7 27.2086 6.84196 26.9273 6.56066C26.646 6.27936 26.488 5.89782 26.488 5.5C26.488 5.10218 26.646 4.72064 26.9273 4.43934C27.2086 4.15804 27.5902 4 27.988 4H31.021C31.4188 4.0004 31.8002 4.15881 32.0812 4.4404C32.3622 4.72199 32.5199 5.10368 32.5195 5.5015C32.5191 5.89932 32.3607 6.2807 32.0791 6.56172C31.7975 6.84274 31.4158 7.0004 31.018 7ZM21.922 7H18.889C18.4912 7 18.1096 6.84196 17.8283 6.56066C17.547 6.27936 17.389 5.89782 17.389 5.5C17.389 5.10218 17.547 4.72064 17.8283 4.43934C18.1096 4.15804 18.4912 4 18.889 4H21.922C22.3198 4 22.7014 4.15804 22.9827 4.43934C23.264 4.72064 23.422 5.10218 23.422 5.5C23.422 5.89782 23.264 6.27936 22.9827 6.56066C22.7014 6.84196 22.3198 7 21.922 7ZM47.5 28C47.1022 28 46.7206 27.842 46.4393 27.5607C46.158 27.2794 46 26.8978 46 26.5V25C46 24.6022 46.158 24.2206 46.4393 23.9393C46.7206 23.658 47.1022 23.5 47.5 23.5C47.8978 23.5 48.2794 23.658 48.5607 23.9393C48.842 24.2206 49 24.6022 49 25V26.5C49 26.8978 48.842 27.2794 48.5607 27.5607C48.2794 27.842 47.8978 28 47.5 28Z" fill="#FA7223"/>
<path d="M41.647 58.0008H35.497C33.5086 57.9984 31.6024 57.2074 30.1964 55.8014C28.7904 54.3954 27.9994 52.4892 27.997 50.5008V45.1218L26.653 43.7778C25.768 42.8958 25.282 41.7168 25.282 40.4658C25.282 39.2148 25.768 38.0358 26.653 37.1538C27.385 36.4218 28.318 35.9628 29.329 35.8248C29.2784 35.1283 29.3846 34.4293 29.6397 33.7793C29.8948 33.1293 30.2925 32.5447 30.8034 32.0687C31.3143 31.5926 31.9254 31.2372 32.5918 31.0285C33.2582 30.8198 33.9629 30.7632 34.654 30.8628C34.825 29.9748 35.251 29.1228 35.938 28.4388C36.5658 27.8247 37.3509 27.3958 38.2069 27.1994C39.0628 27.003 39.9564 27.0468 40.789 27.3258C41.035 26.5621 41.4727 25.8744 42.0604 25.3283C42.6481 24.7822 43.3661 24.396 44.1457 24.2067C44.9253 24.0173 45.7404 24.0312 46.5131 24.2469C47.2858 24.4626 47.9903 24.873 48.559 25.4388L53.209 30.0888C54.7315 31.604 55.9385 33.406 56.7604 35.3905C57.5822 37.375 58.0025 39.5028 57.997 41.6508C57.9923 45.9856 56.2682 50.1415 53.203 53.2067C50.1378 56.2719 45.9819 57.996 41.647 58.0008ZM30.997 48.1218V50.5008C30.997 52.9818 33.016 55.0008 35.497 55.0008H41.647C45.1865 54.9968 48.5798 53.589 51.0825 51.0863C53.5853 48.5835 54.9931 45.1902 54.997 41.6508C55.0017 39.8973 54.6586 38.1603 53.9877 36.5403C53.3167 34.9203 52.3311 33.4494 51.088 32.2128L46.438 27.5628C46.123 27.2469 45.6953 27.0691 45.2492 27.0686C44.803 27.068 44.3749 27.2447 44.059 27.5598C43.7432 27.8748 43.5654 28.3025 43.5648 28.7486C43.5643 29.1948 43.741 29.6229 44.056 29.9388C44.1995 30.0769 44.314 30.2423 44.3928 30.4252C44.4717 30.6081 44.5134 30.8048 44.5154 31.004C44.5174 31.2032 44.4797 31.4007 44.4045 31.5852C44.3294 31.7696 44.2182 31.9372 44.0776 32.0783C43.937 32.2193 43.7697 32.3309 43.5854 32.4066C43.4012 32.4823 43.2037 32.5205 43.0046 32.5191C42.8054 32.5176 42.6085 32.4765 42.4254 32.3982C42.2423 32.3198 42.0766 32.2058 41.938 32.0628L40.438 30.5628C40.1177 30.2567 39.6916 30.0859 39.2485 30.0859C38.8055 30.0859 38.3794 30.2567 38.059 30.5628C37.9026 30.7188 37.7784 30.9042 37.6937 31.1083C37.609 31.3124 37.5654 31.5313 37.5654 31.7523C37.5654 31.9733 37.609 32.1921 37.6937 32.3962C37.7784 32.6003 37.9026 32.7857 38.059 32.9418L39.559 34.4418C39.699 34.5806 39.8101 34.7458 39.8859 34.9279C39.9617 35.1099 40.0007 35.3051 40.0007 35.5023C40.0007 35.6994 39.9617 35.8947 39.8859 36.0767C39.8101 36.2587 39.699 36.4239 39.559 36.5628C39.2778 36.844 38.8963 37.0019 38.4985 37.0019C38.1008 37.0019 37.7193 36.844 37.438 36.5628L35.188 34.3128C34.8677 34.0067 34.4416 33.8359 33.9985 33.8359C33.5555 33.8359 33.1294 34.0067 32.809 34.3128C32.6526 34.4688 32.5284 34.6542 32.4437 34.8583C32.359 35.0624 32.3154 35.2813 32.3154 35.5023C32.3154 35.7233 32.359 35.9421 32.4437 36.1462C32.5284 36.3503 32.6526 36.5357 32.809 36.6918L36.559 40.4418C36.699 40.5806 36.8101 40.7458 36.8859 40.9279C36.9617 41.1099 37.0007 41.3051 37.0007 41.5023C37.0007 41.6994 36.9617 41.8946 36.8859 42.0767C36.8101 42.2587 36.699 42.4239 36.559 42.5628C36.2778 42.844 35.8963 43.0019 35.4985 43.0019C35.1008 43.0019 34.7193 42.844 34.438 42.5628L31.15 39.2778C30.8297 38.9717 30.4036 38.8009 29.9605 38.8009C29.5175 38.8009 29.0914 38.9717 28.771 39.2778C28.6139 39.4332 28.4892 39.6182 28.4041 39.8221C28.319 40.026 28.2752 40.2448 28.2752 40.4658C28.2752 40.6867 28.319 40.9055 28.4041 41.1094C28.4892 41.3134 28.6139 41.4984 28.771 41.6538L36.556 49.4388C36.8367 49.721 36.9942 50.1028 36.9942 50.5008C36.9942 50.8988 36.8367 51.2806 36.556 51.5628C36.2748 51.844 35.8933 52.0019 35.4955 52.0019C35.0978 52.0019 34.7163 51.844 34.435 51.5628L30.997 48.1218Z" fill="#FA7223"/>
</g>
</g>
<defs>
<clipPath id="clip0_522_1105">
<rect width="80" height="80" fill="white"/>
</clipPath>
</defs>
</svg>
