<svg width="80" height="80" viewBox="0 0 80 80" fill="none" xmlns="http://www.w3.org/2000/svg">
<path d="M74.0246 40.0069C70.5966 39.6848 67.2566 38.7376 64.1698 37.2123V34.3969L74.6798 23.8869C74.8848 23.6818 75 23.4037 75 23.1136C75 22.8236 74.8848 22.5455 74.6798 22.3403L57.6575 5.32024C57.4524 5.11519 57.1743 5 56.8843 5C56.5942 5 56.3161 5.11519 56.111 5.32024L45.601 15.8281H39.8642C39.5742 15.8281 39.296 15.9434 39.0909 16.1485L6.59967 48.6411C5.57529 49.6678 5 51.0589 5 52.5092C5 53.9595 5.57529 55.3506 6.59967 56.3773L23.6186 73.3963C24.6451 74.4209 26.0363 74.9964 27.4867 74.9964C28.9371 74.9964 30.3282 74.4209 31.3548 73.3963L43.4802 61.273C44.8948 64.8557 47.3895 67.9093 50.6181 70.01L57.9944 74.8226C58.1721 74.9384 58.3796 75 58.5916 75C58.8037 75 59.0112 74.9384 59.1888 74.8226L66.5662 70.01C69.1595 68.3242 71.2896 66.0162 72.7623 63.2962C74.2351 60.5763 75.0037 57.5311 74.998 54.438V41.0941C74.9981 40.8248 74.8988 40.565 74.7191 40.3644C74.5395 40.1638 74.2922 40.0365 74.0246 40.0069ZM57.6575 17.694L62.2995 13.0554L63.8471 14.6041L59.2052 19.2461L57.6575 17.694ZM60.7529 11.5055L56.111 16.1562L54.5633 14.603L59.2052 9.96109L60.7529 11.5055ZM65.3937 16.1562L66.9425 17.7039L62.3006 22.3458L60.7518 20.7981L65.3937 16.1562ZM68.4891 19.2505L70.0367 20.7981L65.3948 25.4346L63.8471 23.8869L68.4891 19.2505ZM56.8843 7.64012L57.6586 8.41451L52.2478 13.8297C52.0428 14.0349 51.9276 14.313 51.9276 14.603C51.9276 14.8931 52.0428 15.1712 52.2478 15.3763L58.4352 21.5649L64.6215 27.7501C64.8266 27.9552 65.1048 28.0704 65.3948 28.0704C65.6848 28.0704 65.963 27.9552 66.1681 27.7501L71.5833 22.3349L72.3577 23.1093L63.076 32.3975L47.6004 16.9218L56.8843 7.64012ZM29.8082 71.8519C29.5035 72.157 29.1416 72.399 28.7432 72.5641C28.3449 72.7293 27.9179 72.8143 27.4867 72.8143C27.0555 72.8143 26.6285 72.7293 26.2302 72.5641C25.8318 72.399 25.4699 72.157 25.1652 71.8519L8.14625 54.8329C7.5317 54.2166 7.1866 53.3817 7.1866 52.5114C7.1866 51.641 7.5317 50.8062 8.14625 50.1898L40.3171 18.0156H45.601L61.9823 34.3969V35.9096C61.0462 35.2745 60.1707 34.5543 59.3671 33.7582C59.162 33.5531 58.8838 33.4379 58.5938 33.4379C58.3038 33.4379 58.0256 33.5531 57.8205 33.7582C56.0216 35.5301 53.8982 36.9391 51.5664 37.9079L39.8631 26.2046C39.658 25.9996 39.3799 25.8844 39.0899 25.8844C38.7998 25.8844 38.5217 25.9996 38.3166 26.2046L16.6568 47.8754C16.4518 48.0805 16.3366 48.3587 16.3366 48.6487C16.3366 48.9388 16.4518 49.2169 16.6568 49.422L30.5815 63.3413C30.7866 63.5463 31.0647 63.6615 31.3548 63.6615C31.6448 63.6615 31.923 63.5463 32.1281 63.3413L42.1852 53.2852V54.438C42.1857 55.9495 42.3694 57.4552 42.7321 58.9225L29.8082 71.8519ZM43.1586 40.0069C42.891 40.0365 42.6437 40.1638 42.4641 40.3644C42.2845 40.565 42.1852 40.8248 42.1852 41.0941V50.1942L42.1775 50.1997L31.3493 61.0214L18.9767 48.6411L39.0909 28.5256L49.2946 38.7337C47.296 39.3584 45.2408 39.7849 43.1586 40.0069ZM72.8105 54.438C72.8154 57.1668 72.1374 59.8533 70.8384 62.253C69.5393 64.6527 67.6604 66.6891 65.3729 68.1768L58.5916 72.6011L51.8103 68.1779C49.5227 66.6901 47.6437 64.6535 46.3446 62.2536C45.0455 59.8537 44.3677 57.1669 44.3727 54.438V42.061C50.2615 41.2603 55.0358 39.238 58.5916 36.0387C62.1474 39.238 66.9217 41.2603 72.8105 42.061V54.438Z" fill="#FA7223"/>
<path d="M58.3695 39.2037C55.1957 41.3432 51.6187 42.79 47.8651 43.4526C47.6203 43.5052 47.4007 43.6416 47.2432 43.8389C47.0857 44.0363 46.9998 44.2827 47 44.5367V54.7242C46.9982 57.1242 47.5889 59.4863 48.7182 61.5948C49.8475 63.7033 51.4794 65.4909 53.4647 66.7942L58.436 69.8405C58.6062 69.9449 58.8012 70 59 70C59.1988 70 59.3938 69.9449 59.564 69.8405L64.5691 66.7732C66.5459 65.4685 68.1698 63.6827 69.293 61.5783C70.4162 59.4738 71.003 57.1176 71 54.7242V44.5367C71.0002 44.2827 70.9143 44.0363 70.7568 43.8389C70.5993 43.6416 70.3797 43.5052 70.1349 43.4526C66.3813 42.79 62.8043 41.3432 59.6305 39.2037C59.4462 39.0712 59.2259 39 59 39C58.7741 39 58.5538 39.0712 58.3695 39.2037ZM68.8182 45.4225V54.7242C68.823 56.7441 68.3309 58.7333 67.3863 60.5112C66.4418 62.2891 65.0748 63.7994 63.4094 64.9051L59 67.6048L54.6244 64.925C52.9506 63.8209 51.5757 62.309 50.625 60.5272C49.6744 58.7455 49.1782 56.7505 49.1818 54.7242V45.4225C52.6641 44.7075 55.9903 43.3592 59 41.4428C62.0096 43.3592 65.3359 44.7075 68.8182 45.4225Z" fill="#FA7223"/>
<path d="M54.8664 56.8859C54.6587 56.6907 54.3805 56.5827 54.0918 56.5852C53.803 56.5876 53.5268 56.7003 53.3226 56.8989C53.1184 57.0975 53.0026 57.3662 53 57.6471C52.9975 57.928 53.1085 58.1987 53.3092 58.4007L57.7145 62.6861C57.8472 62.8153 58.0117 62.9093 58.1924 62.9592C58.373 63.0091 58.5637 63.0133 58.7465 62.9713C58.9292 62.9294 59.0979 62.8426 59.2365 62.7194C59.3751 62.5961 59.479 62.4405 59.5383 62.2672L63.9436 49.4111C64.0359 49.1412 64.0142 48.8467 63.8833 48.5923C63.7523 48.338 63.5229 48.1446 63.2454 48.0548C62.9679 47.965 62.6651 47.9862 62.4036 48.1135C62.1422 48.2409 61.9434 48.4641 61.8511 48.7341L58.0119 59.9456L54.8664 56.8859Z" fill="#FA7223"/>
</svg>
