<svg width="706" height="317" viewBox="0 0 706 317" fill="none" xmlns="http://www.w3.org/2000/svg">
<g clip-path="url(#clip0_5_9)">
<g clip-path="url(#clip1_5_9)">
<path d="M140.05 72.8047C131.642 69.4729 123.085 66.4439 114.9 62.5063C113.114 61.6733 111.923 57.6599 112.072 55.1611C112.072 54.1009 116.09 52.7379 118.397 52.3593C120.257 52.1321 122.341 53.1922 124.35 53.7223C125.466 48.7245 126.508 43.7267 127.624 38.8047C128.814 38.8047 130.005 38.8047 131.121 38.8047C134.767 49.5575 138.413 60.2345 142.06 70.9873L140.05 72.8047Z" fill="#FBB130"/>
<path d="M296.128 19.1047C300.892 17.9047 304.825 16.8547 308.682 15.8047C308.833 16.4047 308.984 17.0047 309.06 17.5297C302.48 24.9547 295.901 32.3797 289.321 39.8047C288.036 39.3547 286.75 38.9047 285.464 38.4547C285.313 29.5297 284.859 20.6047 285.162 11.7547C285.162 10.0297 287.96 8.45469 289.473 6.80469C291.212 8.52969 293.481 9.95469 294.615 11.9797C295.674 13.9297 295.598 16.5547 296.128 19.1047Z" fill="#FBB130"/>
<path d="M233.001 99.8047C220.197 76.3347 208.665 55.0323 197.06 33.8047C207.243 36.346 234.498 87.098 233.001 99.8047Z" fill="#FBB130"/>
<path d="M262.405 97.8047C259.555 87.2002 275.038 49.5958 283.974 43.8047C285.36 49.8214 269.646 89.9078 262.405 97.8047Z" fill="#FBB130"/>
<path d="M201.726 107.805C187.43 107.064 150.911 87.138 149.06 77.8047C167.578 87.2121 185.356 96.1751 203.06 105.212C202.615 106.101 202.171 106.99 201.726 107.805Z" fill="#FBB130"/>
<path d="M289.06 106.65C306.145 98.1334 323.229 89.6912 341.06 80.8047C340.016 89.469 302.862 108.723 289.06 106.65Z" fill="#FBB130"/>
<path d="M362.984 77.6642C360.493 78.4838 357.777 80.123 355.513 79.7505C353.702 79.4524 350.985 76.6211 351.061 74.9819C351.061 73.1937 353.475 70.7349 355.437 69.8408C356.343 69.4682 358.682 72.076 360.342 73.3427C361.248 74.7584 362.153 76.2485 363.059 77.6642H362.984Z" fill="#FBB130"/>
<path d="M113.238 189.983C114.528 190.004 115.849 190.123 117.141 190.063C128.057 189.474 138.957 188.836 149.873 188.248C151.003 188.185 152.195 188.319 153.287 188.646C153.817 188.802 154.497 189.612 154.472 190.134C154.48 190.672 153.839 191.363 153.302 191.697C152.715 192.046 151.939 192.131 151.229 192.169C139.875 192.897 128.553 193.642 117.234 194.224C115.943 194.284 114.556 193.266 113.225 192.772L113.238 189.983Z" fill="#FBB130"/>
<path d="M134.799 233.152C135.069 232.39 135.117 231.428 135.642 230.882C142.736 223.267 149.814 215.602 157.13 208.186C158.443 206.821 160.772 206.484 162.608 205.682C161.595 207.492 160.851 209.568 159.503 211.079C153.817 217.462 148.084 223.778 142.143 229.945C140.387 231.775 138.044 233.009 135.971 234.509C135.591 234.062 135.194 233.648 134.814 233.201L134.799 233.152Z" fill="#FBB130"/>
<path d="M194.811 138.255C194.596 139.54 194.607 140.861 194.184 142.078C191.271 150.577 188.357 159.077 185.235 167.507C184.78 168.707 183.347 169.516 182.347 170.51C182.078 169.217 181.263 167.72 181.652 166.65C184.666 157.875 187.873 149.201 191.111 140.543C191.517 139.441 192.578 138.643 193.32 137.676C193.816 137.896 194.298 138.067 194.794 138.287L194.811 138.255Z" fill="#FBB130"/>
<path d="M146.109 142.891C152.291 153.627 159.812 162.395 165.376 173.381C159.168 172.171 143.811 148.301 146.109 142.891Z" fill="#FBB130"/>
</g>
</g>
<path d="M220.2 204.406C219.048 203.766 218.408 203.062 218.28 202.294C218.216 201.526 218.664 200.182 219.624 198.262C220.584 196.342 222.088 193.366 224.136 189.334C225.672 186.454 226.696 184.214 227.208 182.614C227.784 180.95 228.104 179.766 228.168 179.062C228.232 178.358 228.264 177.91 228.264 177.718C228.136 177.142 228.2 176.694 228.456 176.374C228.712 175.99 229.128 175.67 229.704 175.414C230.024 175.094 230.76 174.518 231.912 173.686C233.064 172.854 233.96 171.862 234.6 170.71C235.176 169.366 235.816 167.99 236.52 166.582C237.288 165.174 238.28 163.414 239.496 161.302C240.712 159.126 242.344 156.31 244.392 152.854C245.672 150.614 247.176 148.086 248.904 145.27C250.696 142.454 252.456 139.894 254.184 137.59C254.888 136.694 255.624 135.99 256.392 135.478C257.16 134.966 257.832 134.71 258.408 134.71C259.816 134.71 261.224 135.094 262.632 135.862C264.04 136.566 265.288 137.462 266.376 138.55C267.464 139.638 268.2 140.662 268.584 141.622C268.904 142.134 269.032 143.222 268.968 144.886C268.904 146.55 268.776 148.566 268.584 150.934C268.392 153.302 268.168 155.83 267.912 158.518C267.72 161.142 267.432 164.246 267.048 167.83C266.664 171.414 266.28 175.158 265.896 179.062C265.576 182.966 265.32 186.742 265.128 190.39C264.936 193.974 264.936 197.11 265.128 199.798C265.192 200.374 265.192 200.918 265.128 201.43C265.064 201.942 265.032 202.358 265.032 202.678C264.648 203.062 263.816 203.222 262.536 203.158C261.256 203.158 260.008 202.966 258.792 202.582C257.576 202.198 256.904 201.718 256.776 201.142C256.584 200.95 256.456 200.79 256.392 200.662C256.328 200.534 256.328 199.926 256.392 198.838C256.456 197.686 256.552 195.606 256.68 192.598L257.16 177.91L255.912 178.006C255.336 178.006 254.28 178.07 252.744 178.198C251.272 178.326 249.64 178.518 247.848 178.774C246.12 178.966 244.52 179.19 243.048 179.446C241.576 179.638 240.552 179.83 239.976 180.022C239.4 180.022 238.696 180.406 237.864 181.174C237.096 181.942 236.36 182.934 235.656 184.15C235.4 185.046 234.92 186.006 234.216 187.03C233.576 187.99 233.256 188.63 233.256 188.95C232.808 189.27 232.424 189.654 232.104 190.102C231.848 190.55 231.72 190.774 231.72 190.774C231.72 191.158 231.432 192.118 230.856 193.654C230.28 195.126 229.576 196.79 228.744 198.646C227.912 200.438 227.048 202.006 226.152 203.35L223.56 206.998L220.2 204.406ZM243.144 171.382C243.144 171.382 243.496 171.318 244.2 171.19C244.904 171.062 245.736 170.934 246.696 170.806C247.72 170.614 248.616 170.518 249.384 170.518C250.856 170.134 252.072 169.846 253.032 169.654C254.056 169.462 254.888 169.366 255.528 169.366C256.168 169.302 256.68 169.366 257.064 169.558C257.32 169.878 257.544 170.07 257.736 170.134C257.992 170.198 258.12 170.23 258.12 170.23C258.184 170.102 258.312 169.43 258.504 168.214C258.696 166.998 258.92 165.494 259.176 163.702C259.432 161.91 259.688 160.054 259.944 158.134C260.2 156.15 260.424 154.326 260.616 152.662C260.808 150.934 260.936 149.59 261 148.63C261.064 147.414 261.032 146.326 260.904 145.366C260.776 144.342 260.712 143.83 260.712 143.83C260.328 143.83 259.592 144.534 258.504 145.942C257.48 147.286 256.264 149.11 254.856 151.414C253.512 153.654 252.168 156.086 250.824 158.71C250.184 159.926 249.576 160.886 249 161.59C248.488 162.294 248.072 162.646 247.752 162.646C247.624 162.774 247.272 163.286 246.696 164.182C246.184 165.014 245.608 165.974 244.968 167.062C244.392 168.086 243.88 169.046 243.432 169.942C243.048 170.774 242.952 171.254 243.144 171.382ZM284.591 201.622C282.735 201.942 280.879 201.782 279.023 201.142C277.231 200.502 275.727 199.478 274.511 198.07C273.359 196.598 272.783 194.838 272.783 192.79C272.591 190.87 272.751 188.598 273.263 185.974C273.839 183.286 274.671 180.598 275.759 177.91C276.911 175.222 278.223 172.95 279.695 171.094C280.975 169.558 282.255 168.15 283.535 166.87C284.815 165.59 285.967 164.726 286.991 164.278C287.887 163.894 288.975 163.606 290.255 163.414C291.599 163.158 292.527 163.03 293.039 163.03C294.063 163.286 295.183 163.702 296.399 164.278C297.679 164.854 298.319 165.526 298.319 166.294C298.319 166.294 298.383 166.39 298.511 166.582C298.703 166.71 298.799 166.774 298.799 166.774C299.183 166.774 299.599 167.254 300.047 168.214C300.559 169.11 300.943 170.166 301.199 171.382C301.455 172.534 301.391 173.462 301.007 174.166C300.751 175.382 300.239 176.566 299.471 177.718C298.767 178.87 298.159 179.446 297.647 179.446C297.391 179.446 297.135 179.478 296.879 179.542C296.687 179.542 296.591 179.702 296.591 180.022C296.591 180.342 296.239 180.502 295.535 180.502C294.895 180.502 294.223 180.374 293.519 180.118C292.815 179.862 292.367 179.478 292.175 178.966C292.175 178.646 292.239 178.23 292.367 177.718C292.495 177.206 292.687 176.342 292.943 175.126C293.327 173.334 293.359 172.15 293.039 171.574C292.719 170.934 291.919 170.87 290.639 171.382C289.039 172.278 287.727 173.334 286.703 174.55C285.679 175.702 284.751 177.334 283.919 179.446C283.151 181.558 282.287 184.502 281.327 188.278C280.943 189.75 280.879 190.902 281.135 191.734C281.455 192.566 281.711 193.014 281.903 193.078C282.799 193.334 283.759 193.398 284.783 193.27C285.871 193.078 286.767 192.79 287.471 192.406C288.495 191.894 289.391 191.35 290.159 190.774C290.991 190.134 291.887 189.462 292.847 188.758C293.167 188.566 293.455 188.214 293.711 187.702C293.967 187.126 294.351 186.71 294.863 186.454C295.375 185.686 296.015 185.302 296.783 185.302C297.615 185.238 298.415 185.206 299.183 185.206C299.695 185.334 300.239 185.654 300.815 186.166C301.391 186.678 301.807 187.19 302.063 187.702C302.383 188.15 302.351 188.47 301.967 188.662C301.711 188.662 301.551 188.758 301.487 188.95C301.487 189.078 301.487 189.142 301.487 189.142C301.615 189.398 301.327 189.974 300.623 190.87C299.983 191.766 299.151 192.726 298.127 193.75C297.103 194.774 296.111 195.67 295.151 196.438C294.255 197.142 293.615 197.494 293.231 197.494C292.591 197.494 292.271 197.686 292.271 198.07C292.271 198.198 291.791 198.518 290.831 199.03C289.935 199.542 288.879 200.054 287.663 200.566C286.511 201.078 285.487 201.43 284.591 201.622ZM320.424 201.814C319.528 201.558 318.632 201.11 317.736 200.47C316.84 199.83 315.912 199.094 314.952 198.262C314.184 197.238 313.64 196.31 313.32 195.478C313 194.582 312.808 193.558 312.744 192.406C312.744 191.19 312.744 189.654 312.744 187.798C312.744 187.03 312.872 185.942 313.128 184.534C313.448 183.126 313.768 181.654 314.088 180.118C314.472 178.582 314.824 177.238 315.144 176.086C315.464 174.87 315.656 174.07 315.72 173.686C315.912 172.854 315.592 172.374 314.76 172.246C313.928 172.118 313 172.086 311.976 172.15C311.016 172.15 310.376 172.054 310.056 171.862C309.8 171.798 309.672 171.478 309.672 170.902C309.672 170.262 309.672 169.942 309.672 169.942C309.672 169.686 309.544 169.526 309.288 169.462C309.032 169.334 308.808 169.11 308.616 168.79C308.488 168.534 308.648 168.054 309.096 167.35C309.544 166.646 310.12 166.23 310.824 166.102C311.4 165.974 312.264 165.878 313.416 165.814C314.568 165.686 315.72 165.462 316.872 165.142C318.088 164.758 319.016 164.182 319.656 163.414C320.232 162.006 320.872 160.502 321.576 158.902C322.28 157.238 322.952 155.798 323.592 154.582C324.232 153.302 324.68 152.502 324.936 152.182C326.024 151.606 327.144 151.382 328.296 151.51C329.448 151.574 330.344 152.118 330.984 153.142C331.304 153.59 331.56 153.91 331.752 154.102C332.008 154.294 332.104 154.582 332.04 154.966C332.04 155.35 331.784 156.054 331.272 157.078C330.824 158.038 330.056 159.542 328.968 161.59C328.648 162.23 328.36 162.806 328.104 163.318C327.848 163.766 327.72 163.99 327.72 163.99C327.976 164.054 328.36 164.086 328.872 164.086C329.384 164.086 330.024 164.054 330.792 163.99C331.496 163.862 332.264 163.766 333.096 163.702C333.928 163.574 334.664 163.574 335.304 163.702C336.776 163.702 337.864 164.118 338.568 164.95C339.272 165.782 339.656 166.838 339.72 168.118C339.848 168.822 339.592 169.43 338.952 169.942C338.312 170.454 337.128 170.71 335.4 170.71C334.824 170.71 333.992 170.742 332.904 170.806C331.816 170.87 330.696 170.934 329.544 170.998C328.392 171.062 327.4 171.158 326.568 171.286C325.8 171.35 325.416 171.446 325.416 171.574C325.224 171.702 324.904 172.214 324.456 173.11C324.072 173.942 323.656 174.966 323.208 176.182C322.824 177.398 322.472 178.55 322.152 179.638C321.704 181.814 321.384 183.926 321.192 185.974C321 188.022 320.968 189.814 321.096 191.35C321.288 192.822 321.672 193.878 322.248 194.518C322.824 195.094 323.688 195.094 324.84 194.518C326.056 193.878 327.176 193.142 328.2 192.31C329.352 191.35 330.344 191.062 331.176 191.446C332.008 191.766 332.52 192.47 332.712 193.558C332.968 194.582 332.68 195.702 331.848 196.918C331.08 198.134 329.992 199.158 328.584 199.99C327.176 200.822 325.736 201.398 324.264 201.718C322.792 202.102 321.512 202.134 320.424 201.814ZM340.013 199.606C339.501 199.094 339.117 198.326 338.861 197.302C338.669 196.278 338.605 195.286 338.669 194.326C338.733 193.302 338.893 192.534 339.149 192.022C339.149 191.51 339.213 191.126 339.341 190.87C339.533 190.55 339.597 190.262 339.533 190.006C339.469 189.75 339.533 189.302 339.725 188.662C339.917 188.022 340.109 187.414 340.301 186.838C340.749 185.814 341.261 184.502 341.837 182.902C342.413 181.238 342.989 179.574 343.565 177.91C344.141 176.182 344.621 174.71 345.005 173.494C345.389 172.214 345.613 171.446 345.677 171.19C345.677 170.422 346.189 170.006 347.213 169.942C347.981 169.686 348.909 170.006 349.997 170.902C351.085 171.798 351.949 172.758 352.589 173.782C353.101 174.294 353.293 174.966 353.165 175.798C353.037 176.63 352.621 177.814 351.917 179.35C351.661 179.862 351.341 180.726 350.957 181.942C350.637 183.094 350.413 184.054 350.285 184.822C350.029 185.334 349.709 186.07 349.325 187.03C349.005 187.926 348.717 188.79 348.461 189.622C348.333 189.942 348.205 190.55 348.077 191.446C347.949 192.278 347.789 193.142 347.597 194.038C347.405 194.934 347.149 195.638 346.829 196.15C346.253 198.774 345.229 200.31 343.757 200.758C342.349 201.206 341.101 200.822 340.013 199.606ZM350.381 161.11C349.677 160.598 349.133 159.99 348.749 159.286C348.429 158.518 348.237 157.846 348.173 157.27C348.173 156.694 348.237 156.342 348.365 156.214C349.005 155.51 349.549 154.582 349.997 153.43C350.509 152.278 351.053 151.222 351.629 150.262C351.757 150.07 351.917 149.814 352.109 149.494C352.365 149.11 352.621 148.886 352.877 148.822C353.645 148.31 354.701 148.342 356.045 148.918C357.453 149.494 358.477 150.294 359.117 151.318C359.693 152.534 359.853 153.782 359.597 155.062C359.405 156.342 358.733 157.686 357.581 159.094C356.621 160.374 355.405 161.206 353.933 161.59C352.461 161.91 351.277 161.75 350.381 161.11ZM354.441 224.566C353.993 224.374 353.289 223.894 352.329 223.126C351.433 222.358 350.601 221.526 349.833 220.63C349.129 219.798 348.777 219.19 348.777 218.806C348.777 218.422 348.937 217.398 349.257 215.734C349.577 214.134 349.993 212.15 350.505 209.782C351.081 207.478 351.689 205.11 352.329 202.678C353.033 200.31 353.737 198.198 354.441 196.342C354.569 196.022 354.985 194.966 355.689 193.174C356.457 191.318 357.193 189.078 357.897 186.454C358.409 184.79 359.081 182.902 359.913 180.79C360.745 178.678 361.609 176.566 362.505 174.454C363.401 172.278 364.137 170.358 364.713 168.694C365.289 167.03 365.929 165.366 366.633 163.702C367.337 161.974 367.721 160.982 367.785 160.726C367.913 160.342 368.265 160.022 368.841 159.766C369.481 159.446 370.121 159.19 370.761 158.998C371.401 158.742 371.817 158.582 372.009 158.518C373.161 158.198 374.153 158.678 374.985 159.958C375.305 160.534 375.369 161.334 375.177 162.358C375.049 163.318 374.729 164.374 374.217 165.526L373.545 167.446L377.001 166.678C377.577 166.678 378.377 166.71 379.401 166.774C380.425 166.838 381.417 166.902 382.377 166.966C383.401 167.03 384.105 167.126 384.489 167.254C386.025 167.318 387.081 167.606 387.657 168.118C388.297 168.63 388.841 169.302 389.289 170.134C389.609 170.454 389.993 170.902 390.441 171.478C390.889 171.99 391.145 172.502 391.209 173.014C391.465 174.102 391.369 175.382 390.921 176.854C390.537 178.326 389.929 179.83 389.097 181.366C388.329 182.838 387.401 184.214 386.313 185.494C385.289 186.71 384.297 187.638 383.337 188.278C382.697 188.534 382.121 188.822 381.609 189.142C381.097 189.398 380.841 189.526 380.841 189.526C380.777 189.846 380.105 190.39 378.825 191.158C377.609 191.926 376.169 192.662 374.505 193.366C372.905 194.006 371.465 194.422 370.185 194.614C369.737 194.678 369.097 194.742 368.265 194.806C367.433 194.87 366.793 194.774 366.345 194.518C365.641 194.39 365.161 194.326 364.905 194.326C364.649 194.326 364.521 194.454 364.521 194.71C364.457 194.838 364.009 195.862 363.177 197.782C362.345 199.702 361.481 202.358 360.585 205.75C359.369 209.462 358.377 212.502 357.609 214.87C356.841 217.302 356.233 219.19 355.785 220.534C355.401 221.878 355.113 222.838 354.921 223.414C354.729 224.054 354.569 224.438 354.441 224.566ZM366.825 186.262C367.017 186.646 367.689 186.774 368.841 186.646C369.993 186.454 371.305 186.07 372.777 185.494C374.249 184.918 375.561 184.246 376.713 183.478C377.929 182.646 378.633 181.782 378.825 180.886C380.233 179.286 381.225 178.134 381.801 177.43C382.377 176.662 382.345 176.054 381.705 175.606C381.001 174.582 379.977 174.102 378.633 174.166C377.353 174.23 375.305 175.03 372.489 176.566C371.401 176.95 370.665 177.302 370.281 177.622C369.897 177.878 369.577 178.294 369.321 178.87C369.129 179.446 368.745 180.374 368.169 181.654C367.593 183.062 367.209 184.118 367.017 184.822C366.825 185.526 366.761 186.006 366.825 186.262ZM403.394 199.894C402.882 200.022 402.21 200.086 401.378 200.086C400.546 200.022 399.81 199.926 399.17 199.798C398.594 199.606 398.306 199.414 398.306 199.222C398.306 198.902 398.146 198.742 397.826 198.742C397.826 198.742 397.474 198.486 396.77 197.974C396.066 197.398 395.426 196.982 394.85 196.726C394.274 195.83 393.89 194.806 393.698 193.654C393.57 192.438 393.954 190.326 394.85 187.318C394.914 185.27 395.49 183.126 396.578 180.886C397.666 178.582 399.042 176.342 400.706 174.166C402.37 171.99 404.098 170.07 405.89 168.406C407.682 166.678 409.282 165.398 410.69 164.566C411.586 163.67 412.77 163.19 414.242 163.126C415.778 163.062 417.122 163.35 418.274 163.99C418.914 164.31 419.618 164.95 420.386 165.91C421.154 166.87 421.89 167.894 422.594 168.982C423.298 170.006 423.842 170.934 424.226 171.766C424.418 172.47 424.578 173.11 424.706 173.686C424.898 174.198 425.026 174.838 425.09 175.606C425.154 176.374 425.09 177.526 424.898 179.062C424.578 180.214 424.29 181.398 424.034 182.614C423.842 183.766 423.746 184.95 423.746 186.166C423.618 187.382 423.746 188.246 424.13 188.758C424.578 189.27 425.218 189.302 426.05 188.854C426.818 188.47 427.618 188.438 428.45 188.758C429.282 189.014 429.858 189.526 430.178 190.294C430.562 190.998 430.466 191.926 429.89 193.078C429.506 193.91 428.898 194.71 428.066 195.478C427.234 196.246 426.306 196.886 425.282 197.398C424.258 197.846 423.266 198.07 422.306 198.07C421.602 198.07 420.898 197.814 420.194 197.302C419.49 196.726 418.85 195.958 418.274 194.998C417.698 194.038 417.218 192.982 416.834 191.83L416.258 189.622L412.802 192.79C411.97 193.686 411.138 194.518 410.306 195.286C409.538 195.99 409.058 196.502 408.866 196.822C408.546 197.398 407.906 197.91 406.946 198.358C406.05 198.806 404.866 199.318 403.394 199.894ZM405.986 190.678C407.074 190.038 408.002 189.27 408.77 188.374C409.602 187.478 410.402 186.486 411.17 185.398C411.938 184.246 412.77 183.03 413.666 181.75C414.754 180.278 415.522 179.094 415.97 178.198C416.482 177.302 416.866 176.342 417.122 175.318C416.866 174.614 416.514 173.878 416.066 173.11C415.618 172.278 415.17 171.83 414.722 171.766C413.826 171.766 412.738 172.31 411.458 173.398C410.242 174.486 408.898 176.054 407.426 178.102C407.17 178.422 406.85 178.934 406.466 179.638C406.082 180.342 405.698 181.014 405.314 181.654C404.994 182.23 404.77 182.614 404.642 182.806C404.45 183.062 404.162 183.67 403.778 184.63C403.458 185.526 403.17 186.454 402.914 187.414C402.658 188.31 402.53 188.95 402.53 189.334C402.53 189.718 402.562 190.134 402.626 190.582C402.754 191.03 403.074 191.318 403.586 191.446C404.098 191.574 404.898 191.318 405.986 190.678ZM445.841 201.622C443.985 201.942 442.129 201.782 440.273 201.142C438.481 200.502 436.977 199.478 435.761 198.07C434.609 196.598 434.033 194.838 434.033 192.79C433.841 190.87 434.001 188.598 434.513 185.974C435.089 183.286 435.921 180.598 437.009 177.91C438.161 175.222 439.473 172.95 440.945 171.094C442.225 169.558 443.505 168.15 444.785 166.87C446.065 165.59 447.217 164.726 448.241 164.278C449.137 163.894 450.225 163.606 451.505 163.414C452.849 163.158 453.777 163.03 454.289 163.03C455.313 163.286 456.433 163.702 457.649 164.278C458.929 164.854 459.569 165.526 459.569 166.294C459.569 166.294 459.633 166.39 459.761 166.582C459.953 166.71 460.049 166.774 460.049 166.774C460.433 166.774 460.849 167.254 461.297 168.214C461.809 169.11 462.193 170.166 462.449 171.382C462.705 172.534 462.641 173.462 462.257 174.166C462.001 175.382 461.489 176.566 460.721 177.718C460.017 178.87 459.409 179.446 458.897 179.446C458.641 179.446 458.385 179.478 458.129 179.542C457.937 179.542 457.841 179.702 457.841 180.022C457.841 180.342 457.489 180.502 456.785 180.502C456.145 180.502 455.473 180.374 454.769 180.118C454.065 179.862 453.617 179.478 453.425 178.966C453.425 178.646 453.489 178.23 453.617 177.718C453.745 177.206 453.937 176.342 454.193 175.126C454.577 173.334 454.609 172.15 454.289 171.574C453.969 170.934 453.169 170.87 451.889 171.382C450.289 172.278 448.977 173.334 447.953 174.55C446.929 175.702 446.001 177.334 445.169 179.446C444.401 181.558 443.537 184.502 442.577 188.278C442.193 189.75 442.129 190.902 442.385 191.734C442.705 192.566 442.961 193.014 443.153 193.078C444.049 193.334 445.009 193.398 446.033 193.27C447.121 193.078 448.017 192.79 448.721 192.406C449.745 191.894 450.641 191.35 451.409 190.774C452.241 190.134 453.137 189.462 454.097 188.758C454.417 188.566 454.705 188.214 454.961 187.702C455.217 187.126 455.601 186.71 456.113 186.454C456.625 185.686 457.265 185.302 458.033 185.302C458.865 185.238 459.665 185.206 460.433 185.206C460.945 185.334 461.489 185.654 462.065 186.166C462.641 186.678 463.057 187.19 463.313 187.702C463.633 188.15 463.601 188.47 463.217 188.662C462.961 188.662 462.801 188.758 462.737 188.95C462.737 189.078 462.737 189.142 462.737 189.142C462.865 189.398 462.577 189.974 461.873 190.87C461.233 191.766 460.401 192.726 459.377 193.75C458.353 194.774 457.361 195.67 456.401 196.438C455.505 197.142 454.865 197.494 454.481 197.494C453.841 197.494 453.521 197.686 453.521 198.07C453.521 198.198 453.041 198.518 452.081 199.03C451.185 199.542 450.129 200.054 448.913 200.566C447.761 201.078 446.737 201.43 445.841 201.622ZM475.626 200.374C473.13 199.35 471.402 197.686 470.442 195.382C469.482 193.078 469.226 190.006 469.674 186.166C469.802 184.182 469.738 182.87 469.482 182.23C469.226 181.526 468.746 180.854 468.042 180.214C467.85 179.958 467.402 179.542 466.698 178.966C465.994 178.326 465.674 177.846 465.738 177.526C465.674 177.078 465.77 176.534 466.026 175.894C466.282 175.19 466.506 174.806 466.698 174.742C467.146 174.55 467.594 174.326 468.042 174.07C468.554 173.814 468.938 173.75 469.194 173.878C469.45 173.878 469.834 174.038 470.346 174.358C470.922 174.678 471.21 174.966 471.21 175.222C471.466 175.67 471.85 175.478 472.362 174.646C472.938 173.814 473.546 172.758 474.186 171.478C474.826 170.454 475.626 169.494 476.586 168.598C477.546 167.702 478.506 166.902 479.466 166.198C480.49 165.43 481.354 164.854 482.058 164.47C482.378 164.342 482.986 164.15 483.882 163.894C484.842 163.638 485.834 163.446 486.858 163.318C487.882 163.126 488.65 163.062 489.162 163.126C490.314 163.19 491.53 163.67 492.81 164.566C494.09 165.462 495.082 166.294 495.786 167.062C496.618 167.638 497.162 168.534 497.418 169.75C497.738 170.902 497.866 172.118 497.802 173.398C497.738 174.678 497.482 175.766 497.034 176.662C496.842 177.302 496.17 178.198 495.018 179.35C493.866 180.502 492.586 181.622 491.178 182.71C489.834 183.734 488.682 184.438 487.722 184.822C486.89 185.014 485.898 185.174 484.746 185.302C483.594 185.366 482.506 185.366 481.482 185.302C480.522 185.174 479.85 185.014 479.466 184.822C479.018 184.566 478.634 184.662 478.314 185.11C478.058 185.494 477.834 186.582 477.642 188.374C477.578 189.078 477.578 189.686 477.642 190.198C477.77 190.71 477.898 191.094 478.026 191.35C478.474 192.118 478.922 192.694 479.37 193.078C479.818 193.398 480.65 193.494 481.866 193.366C483.082 193.238 484.298 192.502 485.514 191.158C486.794 189.75 487.946 188.63 488.97 187.798C489.226 187.35 489.77 187.062 490.602 186.934C491.498 186.742 492.554 186.806 493.77 187.126C494.474 187.574 494.794 188.278 494.73 189.238C494.73 190.198 494.218 191.606 493.194 193.462C493.002 193.91 492.458 194.582 491.562 195.478C490.73 196.31 489.802 197.174 488.778 198.07C487.818 198.902 487.018 199.51 486.378 199.894C484.458 200.918 482.57 201.398 480.714 201.334C478.858 201.27 477.162 200.95 475.626 200.374ZM482.73 178.774C483.69 178.518 484.49 178.262 485.13 178.006C485.834 177.75 486.506 177.334 487.146 176.758C487.786 176.182 488.522 175.318 489.354 174.166C489.61 173.462 489.738 172.854 489.738 172.342C489.802 171.83 489.77 171.51 489.642 171.382C489.13 170.87 488.554 170.71 487.914 170.902C487.338 171.03 486.698 171.35 485.994 171.862C485.546 172.054 484.906 172.47 484.074 173.11C483.306 173.686 482.538 174.358 481.77 175.126C481.066 175.83 480.49 176.502 480.042 177.142C479.658 177.718 479.594 178.07 479.85 178.198C479.722 178.454 480.074 178.614 480.906 178.678C481.802 178.742 482.41 178.774 482.73 178.774Z" fill="#2B2A29"/>
<g clip-path="url(#clip2_5_9)">
<g clip-path="url(#clip3_5_9)">
<path d="M561.116 90.3208C560.16 91.769 559.072 93.1817 558.207 94.6895C550.981 107.489 543.821 120.305 536.595 133.104C535.849 134.431 534.838 135.687 533.682 136.691C533.124 137.181 531.724 137.373 531.156 136.972C530.547 136.596 530.234 135.376 530.249 134.527C530.28 133.613 530.745 132.672 531.217 131.84C538.602 118.444 545.946 105.073 553.471 91.8218C554.336 90.3138 556.48 89.4682 557.997 88.3125L561.116 90.3208Z" fill="#FBB130"/>
<path d="M497.108 83.9162C497.767 84.7678 498.812 85.5094 499.045 86.4952C502.464 99.9825 505.949 113.488 508.984 127.085C509.567 129.549 508.262 132.431 507.835 135.086C506.537 132.643 504.745 130.316 504.023 127.708C500.971 116.698 498.026 105.682 495.4 94.5374C494.615 91.2375 494.923 87.6982 494.739 84.2753C495.515 84.1637 496.266 84.0101 497.042 83.8984L497.108 83.9162Z" fill="#FBB130"/>
<path d="M560.215 219.797C558.928 218.636 557.438 217.703 556.379 216.354C548.948 206.976 541.518 197.597 534.315 188.031C533.298 186.657 533.426 184.455 533.032 182.609C534.677 183.228 536.946 183.374 537.866 184.58C545.533 194.27 552.948 204.106 560.32 213.967C561.265 215.214 561.393 216.989 561.942 218.52C561.336 218.926 560.796 219.35 560.191 219.755L560.215 219.797Z" fill="#FBB130"/>
<path d="M590.199 161.257C573.688 160.594 558.418 162.856 542.072 161.313C547.915 155.139 585.79 154.784 590.199 161.257Z" fill="#FBB130"/>
</g>
</g>
<path d="M149.016 292.479C147.864 292.543 146.904 291.999 146.136 290.847C145.368 289.695 145.016 288.735 145.08 287.967C145.144 286.943 145.432 285.471 145.944 283.551C146.456 281.631 147.032 279.679 147.672 277.695C148.312 275.711 148.888 274.143 149.4 272.991C149.656 271.967 149.88 271.071 150.072 270.303C150.328 269.471 150.488 268.927 150.552 268.671C150.744 268.415 151.032 267.743 151.416 266.655C151.864 265.567 152.216 264.511 152.472 263.487C152.6 262.975 152.856 262.015 153.24 260.607C153.688 259.135 154.2 257.439 154.776 255.519C155.416 253.599 156.024 251.711 156.6 249.855C157.24 247.999 157.784 246.367 158.232 244.959C158.68 243.551 158.968 242.623 159.096 242.175C159.608 241.407 159.992 240.671 160.248 239.967C160.504 239.263 160.664 238.783 160.728 238.527C161.112 238.271 161.336 237.951 161.4 237.567C161.464 237.119 161.496 236.767 161.496 236.511C161.496 236.191 161.592 235.935 161.784 235.743C162.04 235.551 162.168 235.327 162.168 235.071C162.424 234.879 162.584 234.847 162.648 234.975C162.712 235.103 162.904 235.007 163.224 234.687L163.704 231.423L172.248 231.327C172.12 232.095 171.928 233.055 171.672 234.207C171.416 235.295 170.808 236.767 169.848 238.623C169.528 239.903 169.144 241.055 168.696 242.079C168.312 243.103 168.152 243.775 168.216 244.095C168.088 244.223 167.8 244.863 167.352 246.015C166.968 247.167 166.488 248.575 165.912 250.239C165.4 251.903 164.856 253.567 164.28 255.231C163.768 256.895 163.288 258.367 162.84 259.647C162.456 260.863 162.2 261.631 162.072 261.951C161.56 262.975 160.984 264.479 160.344 266.463C159.704 268.447 158.744 271.135 157.464 274.527C156.952 275.551 156.312 277.087 155.544 279.135C154.84 281.183 154.264 283.039 153.816 284.703C153.112 287.199 152.472 288.991 151.896 290.079C151.384 291.167 150.904 291.807 150.456 291.999C150.008 292.255 149.528 292.415 149.016 292.479ZM149.88 236.031C147.256 236.287 145.464 235.967 144.504 235.071C143.608 234.175 143.288 233.215 143.544 232.191C143.736 231.423 144.184 230.783 144.888 230.271C145.656 229.695 147.032 229.215 149.016 228.831C149.72 228.703 150.616 228.543 151.704 228.351C152.856 228.159 153.944 227.967 154.968 227.775C157.08 227.519 158.808 227.295 160.152 227.103C161.56 226.911 163 226.751 164.472 226.623C165.944 226.495 167.8 226.367 170.04 226.239C171.896 226.111 173.464 226.015 174.744 225.951C176.088 225.823 176.76 225.759 176.76 225.759C176.952 225.759 177.624 225.823 178.776 225.951C179.928 226.079 181.176 226.239 182.52 226.431C183.864 226.623 184.856 226.847 185.496 227.103C186.968 227.423 188.152 227.999 189.048 228.831C189.944 229.663 190.52 230.623 190.776 231.711C190.968 232.479 190.968 233.087 190.776 233.535C190.584 233.919 190.232 234.239 189.72 234.495C188.248 234.943 187.032 235.327 186.072 235.647C185.176 235.903 184.28 235.871 183.384 235.551C183.064 235.231 182.68 234.943 182.232 234.687C181.848 234.431 181.144 234.239 180.12 234.111C179.16 233.919 177.624 233.759 175.512 233.631C173.72 233.823 172.152 233.919 170.808 233.919C169.464 233.919 168.792 234.079 168.792 234.399L163.128 234.687L158.424 235.167C157.784 235.231 156.888 235.327 155.736 235.455C154.584 235.519 153.464 235.615 152.376 235.743C151.288 235.807 150.456 235.903 149.88 236.031ZM178.984 286.719C178.152 286.719 177.48 286.559 176.968 286.239C176.52 285.919 175.944 285.471 175.24 284.895C174.024 283.615 173.032 282.239 172.264 280.767C171.56 279.295 171.304 278.015 171.496 276.927C171.688 276.415 171.752 275.935 171.688 275.487C171.688 274.975 171.688 274.719 171.688 274.719C171.368 274.399 171.272 274.207 171.4 274.143C171.528 274.015 171.656 273.823 171.784 273.567C172.168 273.567 172.296 273.215 172.168 272.511C172.04 271.999 172.232 270.911 172.744 269.247C173.32 267.519 174.088 265.887 175.048 264.351C175.432 263.711 176.008 262.879 176.776 261.855C177.544 260.767 178.376 259.711 179.272 258.687C180.232 257.599 181.096 256.735 181.864 256.095C183.464 254.751 184.936 253.663 186.28 252.831C187.688 251.999 189.096 251.423 190.504 251.103C191.912 250.783 193.352 250.623 194.824 250.623C196.36 250.623 197.608 251.135 198.568 252.159C200.04 252.799 201.064 253.663 201.64 254.751C202.28 255.839 202.696 257.247 202.888 258.975C203.08 260.895 202.888 263.263 202.312 266.079C201.736 268.831 200.168 272.031 197.608 275.679C196.008 277.983 194.44 279.775 192.904 281.055C191.368 282.335 189.672 283.519 187.816 284.607C186.472 285.503 185.032 286.047 183.496 286.239C181.96 286.431 180.456 286.591 178.984 286.719ZM188.776 275.007C190.184 273.791 191.176 272.447 191.752 270.975C192.392 269.503 193.064 267.775 193.768 265.791C194.024 265.407 194.184 264.767 194.248 263.871C194.376 262.975 194.408 262.111 194.344 261.279C194.28 260.383 194.056 259.871 193.672 259.743C193.096 259.295 192.52 259.199 191.944 259.455C191.368 259.647 190.632 260.063 189.736 260.703C187.816 262.303 186.024 264.159 184.36 266.271C182.76 268.319 181.64 270.847 181 273.855C180.808 275.455 180.968 276.671 181.48 277.503C182.056 278.271 182.952 278.495 184.168 278.175C185.448 277.791 186.984 276.735 188.776 275.007ZM214.053 287.487C213.349 287.359 212.581 286.943 211.749 286.239C210.917 285.471 210.149 284.639 209.445 283.743C208.805 282.783 208.389 281.983 208.197 281.343C208.197 281.215 208.101 281.055 207.909 280.863C207.781 280.671 207.717 280.575 207.717 280.575C207.461 280.383 207.301 279.551 207.237 278.079C207.237 276.543 207.333 274.847 207.525 272.991C207.717 271.135 207.941 269.663 208.197 268.575C208.517 267.551 208.997 266.175 209.637 264.447C210.277 262.655 210.821 261.055 211.269 259.647L213.861 254.079L210.021 253.023C209.573 252.895 209.189 252.639 208.869 252.255C208.613 251.871 208.485 251.551 208.485 251.295C208.485 250.783 208.773 250.047 209.349 249.087C209.925 248.127 210.341 247.647 210.597 247.647C210.917 247.711 211.493 247.743 212.325 247.743C213.221 247.743 214.085 247.711 214.917 247.647C215.749 247.583 216.261 247.519 216.453 247.455C216.709 247.327 216.965 247.167 217.221 246.975C217.477 246.719 217.669 246.367 217.797 245.919C218.117 245.215 218.405 244.671 218.661 244.287C218.917 243.903 219.269 243.327 219.717 242.559C220.165 241.727 220.517 241.023 220.773 240.447C221.093 239.871 221.573 239.071 222.213 238.047C222.533 237.599 222.885 237.055 223.269 236.415C223.653 235.775 224.133 235.231 224.709 234.783C225.285 234.271 226.213 233.919 227.493 233.727C228.837 233.471 229.989 233.759 230.949 234.591C231.461 235.231 231.749 235.839 231.813 236.415C231.877 236.991 231.621 237.727 231.045 238.623C230.533 239.711 229.925 240.703 229.221 241.599C228.581 242.431 227.973 243.391 227.397 244.479C226.373 245.887 226.181 246.687 226.821 246.879C227.461 247.071 229.253 246.943 232.197 246.495C234.053 246.175 235.397 246.367 236.229 247.071C237.061 247.775 237.541 248.671 237.669 249.759C237.861 251.295 237.701 252.223 237.189 252.543C236.677 252.863 235.205 253.023 232.773 253.023C231.237 253.279 229.925 253.439 228.837 253.503C227.749 253.503 226.949 253.503 226.437 253.503C225.605 253.567 225.061 253.599 224.805 253.599C224.549 253.599 224.165 253.663 223.653 253.791C223.141 253.919 222.757 254.143 222.501 254.463C222.309 254.719 222.085 255.103 221.829 255.615C221.573 255.871 221.189 256.543 220.677 257.631C220.165 258.719 219.525 259.903 218.757 261.183C217.861 263.871 217.093 266.463 216.453 268.959C215.877 271.391 215.365 273.823 214.917 276.255C214.725 277.471 214.757 278.367 215.013 278.943C215.333 279.455 216.165 279.775 217.509 279.903C218.213 279.967 219.237 279.967 220.581 279.903C221.925 279.775 223.045 279.583 223.941 279.327C224.645 279.007 225.381 278.687 226.149 278.367C226.917 277.983 227.621 277.599 228.261 277.215C228.837 276.895 229.413 276.575 229.989 276.255C230.565 275.871 230.853 275.679 230.853 275.679C231.173 275.167 231.621 275.263 232.197 275.967C232.837 276.607 233.285 277.311 233.541 278.079C233.541 278.847 233.381 279.775 233.061 280.863C232.741 281.887 231.557 282.975 229.509 284.127C226.629 285.919 223.749 287.007 220.869 287.391C217.989 287.775 215.717 287.807 214.053 287.487ZM247.562 286.047C247.05 286.175 246.378 286.239 245.546 286.239C244.714 286.175 243.978 286.079 243.338 285.951C242.762 285.759 242.474 285.567 242.474 285.375C242.474 285.055 242.314 284.895 241.994 284.895C241.994 284.895 241.642 284.639 240.938 284.127C240.234 283.551 239.594 283.135 239.018 282.879C238.442 281.983 238.058 280.959 237.866 279.807C237.738 278.591 238.122 276.479 239.018 273.471C239.082 271.423 239.658 269.279 240.746 267.039C241.834 264.735 243.21 262.495 244.874 260.319C246.538 258.143 248.266 256.223 250.058 254.559C251.85 252.831 253.45 251.551 254.858 250.719C255.754 249.823 256.938 249.343 258.41 249.279C259.946 249.215 261.29 249.503 262.442 250.143C263.082 250.463 263.786 251.103 264.554 252.063C265.322 253.023 266.058 254.047 266.762 255.135C267.466 256.159 268.01 257.087 268.394 257.919C268.586 258.623 268.746 259.263 268.874 259.839C269.066 260.351 269.194 260.991 269.258 261.759C269.322 262.527 269.258 263.679 269.066 265.215C268.746 266.367 268.458 267.551 268.202 268.767C268.01 269.919 267.914 271.103 267.914 272.319C267.786 273.535 267.914 274.399 268.298 274.911C268.746 275.423 269.386 275.455 270.218 275.007C270.986 274.623 271.786 274.591 272.618 274.911C273.45 275.167 274.026 275.679 274.346 276.447C274.73 277.151 274.634 278.079 274.058 279.231C273.674 280.063 273.066 280.863 272.234 281.631C271.402 282.399 270.474 283.039 269.45 283.551C268.426 283.999 267.434 284.223 266.474 284.223C265.77 284.223 265.066 283.967 264.362 283.455C263.658 282.879 263.018 282.111 262.442 281.151C261.866 280.191 261.386 279.135 261.002 277.983L260.426 275.775L256.97 278.943C256.138 279.839 255.306 280.671 254.474 281.439C253.706 282.143 253.226 282.655 253.034 282.975C252.714 283.551 252.074 284.063 251.114 284.511C250.218 284.959 249.034 285.471 247.562 286.047ZM250.154 276.831C251.242 276.191 252.17 275.423 252.938 274.527C253.77 273.631 254.57 272.639 255.338 271.551C256.106 270.399 256.938 269.183 257.834 267.903C258.922 266.431 259.69 265.247 260.138 264.351C260.65 263.455 261.034 262.495 261.29 261.471C261.034 260.767 260.682 260.031 260.234 259.263C259.786 258.431 259.338 257.983 258.89 257.919C257.994 257.919 256.906 258.463 255.626 259.551C254.41 260.639 253.066 262.207 251.594 264.255C251.338 264.575 251.018 265.087 250.634 265.791C250.25 266.495 249.866 267.167 249.482 267.807C249.162 268.383 248.938 268.767 248.81 268.959C248.618 269.215 248.33 269.823 247.946 270.783C247.626 271.679 247.338 272.607 247.082 273.567C246.826 274.463 246.698 275.103 246.698 275.487C246.698 275.871 246.73 276.287 246.794 276.735C246.922 277.183 247.242 277.471 247.754 277.599C248.266 277.727 249.066 277.471 250.154 276.831ZM280.889 285.087C280.249 284.703 279.545 284.159 278.777 283.455C278.009 282.687 277.625 281.951 277.625 281.247C277.625 280.287 277.753 279.103 278.009 277.695C278.265 276.223 278.521 274.975 278.777 273.951C278.905 272.799 279.065 271.647 279.257 270.495C279.513 269.279 279.961 268.159 280.601 267.135C281.305 264.703 282.041 262.303 282.809 259.935C283.577 257.503 284.249 255.007 284.825 252.447C285.657 250.079 286.393 247.999 287.033 246.207C287.737 244.351 288.601 242.015 289.625 239.199C290.201 237.599 290.681 235.903 291.065 234.111C291.513 232.255 292.185 230.591 293.081 229.119C293.465 228.543 293.753 228.063 293.945 227.679C294.201 227.231 294.457 226.815 294.713 226.431C294.777 226.175 295.097 225.951 295.673 225.759C296.313 225.567 296.953 225.471 297.593 225.471C298.297 225.407 298.777 225.535 299.033 225.855C299.225 225.791 299.545 226.047 299.993 226.623C300.441 227.135 300.857 227.743 301.241 228.447C301.689 229.087 301.881 229.599 301.817 229.983C301.817 230.239 301.753 230.591 301.625 231.039C301.561 231.487 301.401 231.903 301.145 232.287C300.889 232.543 300.633 232.927 300.377 233.439C300.185 233.887 299.865 234.527 299.417 235.359C299.161 236.191 298.937 237.055 298.745 237.951C298.553 238.783 298.297 239.551 297.977 240.255C297.721 241.023 297.401 241.759 297.017 242.463C296.697 243.167 296.473 243.743 296.345 244.191C295.897 245.663 295.353 247.103 294.713 248.511C294.137 249.919 293.625 251.423 293.177 253.023C292.729 254.559 292.281 256.159 291.833 257.823C291.385 259.423 290.745 260.959 289.913 262.431C289.465 263.135 289.145 264.031 288.953 265.119C288.761 266.207 288.569 267.295 288.377 268.383C287.993 269.535 287.641 270.623 287.321 271.647C287.065 272.607 286.937 273.215 286.937 273.471C286.553 274.879 286.265 276.287 286.073 277.695C285.945 279.039 285.625 280.223 285.113 281.247C285.049 281.887 284.825 282.591 284.441 283.359C284.057 284.127 283.545 284.703 282.905 285.087C282.329 285.471 281.657 285.471 280.889 285.087Z" fill="#2B2A29"/>
<path d="M320.242 292.287C319.666 292.031 318.994 291.519 318.226 290.751C316.946 289.663 316.082 288.287 315.634 286.623C315.25 284.895 315.218 283.231 315.538 281.631C316.306 279.711 317.138 278.399 318.034 277.695C318.994 276.927 319.986 276.607 321.01 276.735C322.098 276.799 323.122 277.183 324.082 277.887C323.634 279.231 323.282 280.447 323.026 281.535C322.77 282.623 322.866 283.551 323.314 284.319C323.762 285.087 324.818 285.695 326.482 286.143C327.762 286.271 328.85 286.335 329.746 286.335C330.706 286.271 331.826 286.207 333.106 286.143C334.578 286.015 335.73 285.855 336.562 285.663C337.458 285.471 338.258 285.279 338.962 285.087C340.754 284.575 342.29 283.871 343.57 282.975C344.85 282.015 345.906 280.927 346.738 279.711C347.25 278.815 347.602 278.015 347.794 277.311C347.986 276.543 348.082 275.743 348.082 274.911C348.082 273.951 347.986 273.119 347.794 272.415C347.602 271.647 347.25 270.751 346.738 269.727C346.29 268.639 345.554 267.135 344.53 265.215C344.466 264.767 343.954 263.999 342.994 262.911C342.098 261.823 341.202 260.767 340.306 259.743C339.858 258.719 339.282 257.567 338.578 256.287C337.874 254.943 337.074 253.983 336.178 253.407C335.922 253.023 335.634 252.415 335.314 251.583C335.058 250.751 334.834 250.303 334.642 250.239C334.642 250.239 334.546 250.079 334.354 249.759C334.226 249.439 334.066 249.055 333.874 248.607C333.042 246.751 333.01 244.447 333.778 241.695C334.546 238.879 335.954 236.255 338.002 233.823C338.706 232.671 339.602 231.519 340.69 230.367C341.778 229.151 342.77 228.159 343.666 227.391C344.626 226.559 345.234 226.143 345.49 226.143C345.49 226.143 345.682 226.079 346.066 225.951C346.514 225.759 347.058 225.439 347.698 224.991C348.402 224.543 349.074 224.191 349.714 223.935C350.354 223.615 351.282 223.327 352.498 223.071L353.074 222.975L353.458 222.879C354.546 222.559 355.442 222.335 356.146 222.207C356.85 222.015 357.522 221.919 358.162 221.919C358.802 221.919 359.57 221.951 360.466 222.015C363.346 222.783 365.554 223.839 367.09 225.183C368.69 226.463 369.554 228.799 369.682 232.191L368.914 234.879L367.282 236.703C367.09 236.639 366.578 236.831 365.746 237.279C364.978 237.727 363.89 238.079 362.482 238.335C361.138 238.527 359.41 238.207 357.298 237.375C357.042 237.311 356.946 237.151 357.01 236.895C357.074 236.575 357.33 236.383 357.778 236.319C357.97 236.191 358.258 235.903 358.642 235.455C359.09 235.007 359.506 234.495 359.89 233.919C360.722 232.767 360.914 231.903 360.466 231.327C360.082 230.687 359.314 230.367 358.162 230.367C355.986 230.431 353.906 230.847 351.922 231.615C349.938 232.319 348.114 233.599 346.45 235.455C345.106 237.183 344.114 238.719 343.474 240.063C342.834 241.343 342.514 242.527 342.514 243.615C342.642 244.063 342.706 244.735 342.706 245.631C342.77 246.463 343.026 247.327 343.474 248.223C345.586 251.167 347.218 253.439 348.37 255.039C349.586 256.639 350.418 257.791 350.866 258.495C350.994 258.687 351.09 258.847 351.154 258.975C351.218 259.103 351.25 259.231 351.25 259.359C351.506 259.807 351.858 260.447 352.306 261.279C352.754 262.111 353.17 262.911 353.554 263.679C353.938 264.447 354.13 264.959 354.13 265.215C354.13 265.215 354.226 265.407 354.418 265.791C354.61 266.111 354.834 266.591 355.09 267.231C355.41 267.807 355.698 268.639 355.954 269.727C356.274 270.751 356.53 271.871 356.722 273.087C356.914 274.239 357.01 275.295 357.01 276.255C357.01 277.023 356.818 278.015 356.434 279.231C356.05 280.383 355.538 281.567 354.898 282.783C354.322 283.935 353.586 284.895 352.69 285.663C351.794 286.431 350.482 287.359 348.754 288.447C347.026 289.535 345.138 290.527 343.09 291.423C341.042 292.319 339.058 292.927 337.138 293.247C335.218 293.567 333.394 293.823 331.666 294.015C330.002 294.207 328.434 294.271 326.962 294.207C325.554 294.207 324.274 294.047 323.122 293.727C321.97 293.407 321.01 292.927 320.242 292.287ZM372.669 286.527C370.173 285.503 368.445 283.839 367.485 281.535C366.525 279.231 366.269 276.159 366.717 272.319C366.845 270.335 366.781 269.023 366.525 268.383C366.269 267.679 365.789 267.007 365.085 266.367C364.893 266.111 364.445 265.695 363.741 265.119C363.037 264.479 362.717 263.999 362.781 263.679C362.717 263.231 362.813 262.687 363.069 262.047C363.325 261.343 363.549 260.959 363.741 260.895C364.189 260.703 364.637 260.479 365.085 260.223C365.597 259.967 365.981 259.903 366.237 260.031C366.493 260.031 366.877 260.191 367.389 260.511C367.965 260.831 368.253 261.119 368.253 261.375C368.509 261.823 368.893 261.631 369.405 260.799C369.981 259.967 370.589 258.911 371.229 257.631C371.869 256.607 372.669 255.647 373.629 254.751C374.589 253.855 375.549 253.055 376.509 252.351C377.533 251.583 378.397 251.007 379.101 250.623C379.421 250.495 380.029 250.303 380.925 250.047C381.885 249.791 382.877 249.599 383.901 249.471C384.925 249.279 385.693 249.215 386.205 249.279C387.357 249.343 388.573 249.823 389.853 250.719C391.133 251.615 392.125 252.447 392.829 253.215C393.661 253.791 394.205 254.687 394.461 255.903C394.781 257.055 394.909 258.271 394.845 259.551C394.781 260.831 394.525 261.919 394.077 262.815C393.885 263.455 393.213 264.351 392.061 265.503C390.909 266.655 389.629 267.775 388.221 268.863C386.877 269.887 385.725 270.591 384.765 270.975C383.933 271.167 382.941 271.327 381.789 271.455C380.637 271.519 379.549 271.519 378.525 271.455C377.565 271.327 376.893 271.167 376.509 270.975C376.061 270.719 375.677 270.815 375.357 271.263C375.101 271.647 374.877 272.735 374.685 274.527C374.621 275.231 374.621 275.839 374.685 276.351C374.813 276.863 374.941 277.247 375.069 277.503C375.517 278.271 375.965 278.847 376.413 279.231C376.861 279.551 377.693 279.647 378.909 279.519C380.125 279.391 381.341 278.655 382.557 277.311C383.837 275.903 384.989 274.783 386.013 273.951C386.269 273.503 386.813 273.215 387.645 273.087C388.541 272.895 389.597 272.959 390.813 273.279C391.517 273.727 391.837 274.431 391.773 275.391C391.773 276.351 391.261 277.759 390.237 279.615C390.045 280.063 389.501 280.735 388.605 281.631C387.773 282.463 386.845 283.327 385.821 284.223C384.861 285.055 384.061 285.663 383.421 286.047C381.501 287.071 379.613 287.551 377.757 287.487C375.901 287.423 374.205 287.103 372.669 286.527ZM379.773 264.927C380.733 264.671 381.533 264.415 382.173 264.159C382.877 263.903 383.549 263.487 384.189 262.911C384.829 262.335 385.565 261.471 386.397 260.319C386.653 259.615 386.781 259.007 386.781 258.495C386.845 257.983 386.813 257.663 386.685 257.535C386.173 257.023 385.597 256.863 384.957 257.055C384.381 257.183 383.741 257.503 383.037 258.015C382.589 258.207 381.949 258.623 381.117 259.263C380.349 259.839 379.581 260.511 378.813 261.279C378.109 261.983 377.533 262.655 377.085 263.295C376.701 263.871 376.637 264.223 376.893 264.351C376.765 264.607 377.117 264.767 377.949 264.831C378.845 264.895 379.453 264.927 379.773 264.927ZM412.508 286.527C411.676 286.911 410.716 287.071 409.628 287.007C408.54 286.943 407.068 286.591 405.212 285.951C405.084 285.951 404.636 285.663 403.868 285.087C403.1 284.511 402.332 283.839 401.564 283.071C400.796 282.303 400.284 281.663 400.028 281.151C399.004 279.679 398.684 277.503 399.068 274.623C399.516 271.743 400.54 268.287 402.14 264.255C402.588 263.295 403.26 262.079 404.156 260.607C405.116 259.135 406.044 257.791 406.94 256.575C407.9 255.295 408.572 254.559 408.956 254.367C408.956 254.367 409.308 254.239 410.012 253.983C410.716 253.727 411.612 253.311 412.7 252.735C413.02 252.607 413.564 252.447 414.332 252.255C415.164 252.063 415.996 251.903 416.828 251.775C417.724 251.583 418.332 251.519 418.652 251.583C419.932 251.647 421.244 252.127 422.588 253.023C423.996 253.855 425.148 254.847 426.044 255.999C426.94 257.087 427.228 258.047 426.908 258.879C426.908 259.007 426.716 259.423 426.332 260.127C426.012 260.767 425.66 261.439 425.276 262.143C424.892 262.783 424.572 263.263 424.316 263.583C423.996 263.967 423.42 264.127 422.588 264.063C421.82 263.999 421.116 263.743 420.476 263.295C419.836 262.847 419.484 262.239 419.42 261.471C419.292 260.959 418.812 260.479 417.98 260.031C417.212 259.583 416.828 259.359 416.828 259.359C416.316 259.359 415.644 259.871 414.812 260.895C413.98 261.919 413.116 263.071 412.22 264.351C411.068 265.503 410.236 266.751 409.724 268.095C409.276 269.375 408.956 270.591 408.764 271.743C408.636 272.831 408.476 273.663 408.284 274.239C408.028 274.879 408.028 275.679 408.284 276.639C408.54 277.599 408.86 278.143 409.244 278.271C409.82 278.335 410.588 278.303 411.548 278.175C412.572 277.983 413.628 277.759 414.716 277.503C415.868 277.183 417.02 276.863 418.172 276.543C419.324 276.159 420.348 275.775 421.244 275.391C422.46 274.623 423.516 274.335 424.412 274.527C425.308 274.655 425.98 274.783 426.428 274.911C427.132 275.167 427.484 275.711 427.484 276.543C427.484 277.375 427.196 278.271 426.62 279.231C426.044 280.127 425.212 280.863 424.124 281.439C423.1 281.951 422.172 282.527 421.34 283.167C420.572 283.743 420.188 284.191 420.188 284.511C419.932 284.511 419.644 284.607 419.324 284.799C419.068 284.927 418.844 284.959 418.652 284.895C418.524 284.895 418.012 284.991 417.116 285.183C416.22 285.375 415.292 285.599 414.332 285.855C413.436 286.111 412.828 286.335 412.508 286.527ZM457.612 287.199C456.972 286.559 456.46 285.695 456.076 284.607C455.692 283.455 455.308 282.143 454.924 280.671C454.796 280.159 454.732 279.583 454.732 278.943C454.796 278.303 454.796 277.791 454.732 277.407C454.54 277.855 454.22 278.431 453.772 279.135C453.388 279.839 453.004 280.351 452.62 280.671C452.364 280.927 451.788 281.439 450.892 282.207C449.996 282.911 449.1 283.487 448.204 283.935C446.092 285.279 444.204 285.919 442.54 285.855C440.94 285.727 439.532 284.895 438.316 283.359C437.292 282.527 436.46 281.471 435.82 280.191C435.18 278.911 435.052 277.375 435.436 275.583C435.564 273.343 435.884 271.167 436.396 269.055C436.908 266.879 437.964 263.999 439.564 260.415C440.908 257.791 441.932 255.743 442.636 254.271C443.34 252.799 443.788 251.935 443.98 251.679C444.94 251.359 446.124 251.391 447.532 251.775C448.94 252.095 449.708 252.703 449.836 253.599C450.22 254.239 450.22 255.455 449.836 257.247C449.452 258.975 448.684 260.959 447.532 263.199C446.636 265.375 445.772 267.487 444.94 269.535C444.172 271.583 443.692 273.311 443.5 274.719C443.372 276.127 443.756 276.991 444.652 277.311C445.228 277.631 446.06 277.599 447.148 277.215C448.3 276.831 449.644 275.679 451.18 273.759C452.716 271.839 454.348 268.799 456.076 264.639C456.588 263.359 456.972 262.239 457.228 261.279C457.484 260.255 457.644 259.135 457.708 257.919C457.58 257.151 457.772 256.351 458.284 255.519C458.86 254.687 459.532 254.047 460.3 253.599C460.556 253.279 460.908 252.991 461.356 252.735C461.804 252.415 462.092 252.415 462.22 252.735L463.756 252.639C464.012 252.575 464.3 252.831 464.62 253.407C464.94 253.983 465.26 254.399 465.58 254.655C466.284 255.231 466.604 256.479 466.54 258.399C466.476 260.319 465.708 263.007 464.236 266.463C463.02 269.087 462.188 271.071 461.74 272.415C461.356 273.759 461.132 275.071 461.068 276.351C461.068 277.503 461.164 278.495 461.356 279.327C461.548 280.095 462.124 280.895 463.084 281.727C463.788 282.175 464.172 282.943 464.236 284.031C464.364 285.055 464.396 285.951 464.332 286.719C464.204 287.295 463.692 287.679 462.796 287.871C461.964 288.127 461.036 288.191 460.012 288.063C459.052 287.935 458.252 287.647 457.612 287.199ZM472.311 284.799C471.735 284.351 471.095 283.775 470.391 283.071C469.751 282.367 469.527 281.375 469.719 280.095C469.911 278.303 470.167 276.735 470.487 275.391C470.807 273.983 471.191 272.383 471.639 270.591C471.767 269.823 472.087 268.511 472.599 266.655C473.175 264.799 473.847 262.783 474.615 260.607C475.383 258.431 476.183 256.383 477.015 254.463C477.847 252.479 478.583 251.007 479.223 250.047C479.927 249.407 480.951 249.087 482.295 249.087C483.703 249.087 484.663 249.343 485.175 249.855C485.879 250.431 486.103 251.455 485.847 252.927C485.591 254.335 484.695 256.543 483.159 259.551C482.839 260.319 482.423 261.151 481.911 262.047C481.463 262.879 481.143 263.583 480.951 264.159C480.759 264.671 480.823 264.895 481.143 264.831C481.527 264.127 482.231 263.327 483.255 262.431C484.279 261.471 485.367 260.543 486.519 259.647C487.671 258.751 488.759 257.951 489.783 257.247C490.807 256.543 491.511 256.095 491.895 255.903C492.407 255.583 492.983 255.327 493.623 255.135C494.327 254.879 494.807 254.687 495.063 254.559C496.535 253.855 498.135 253.599 499.863 253.791C501.655 253.919 502.743 254.463 503.127 255.423C503.191 255.935 503.383 256.319 503.703 256.575C504.087 256.831 504.279 256.959 504.279 256.959C504.535 256.959 504.663 257.055 504.663 257.247C504.727 257.439 504.759 257.535 504.759 257.535C504.759 257.983 504.311 258.623 503.415 259.455C502.583 260.287 501.655 260.735 500.631 260.799C499.799 260.863 499.063 261.023 498.423 261.279C497.783 261.535 497.015 261.855 496.119 262.239C493.687 263.647 491.479 264.895 489.495 265.983C487.575 267.071 485.591 268.735 483.543 270.975C483.095 271.487 482.615 271.967 482.103 272.415C481.591 272.863 481.079 273.503 480.567 274.335C480.247 274.655 479.927 275.359 479.607 276.447C479.287 277.535 478.999 278.591 478.743 279.615C478.551 280.575 478.455 281.151 478.455 281.343C478.455 281.343 478.359 281.663 478.167 282.303C477.975 282.879 477.655 283.455 477.207 284.031C476.439 285.055 475.671 285.695 474.903 285.951C474.199 286.207 473.335 285.823 472.311 284.799ZM511.897 287.295C510.361 287.295 509.017 286.495 507.865 284.895C506.777 283.231 506.105 281.247 505.849 278.943C505.913 278.431 505.977 277.695 506.041 276.735C506.169 275.775 506.297 274.783 506.425 273.759C506.681 272.543 507.033 270.975 507.481 269.055C507.929 267.135 508.409 265.215 508.921 263.295C509.433 261.311 509.881 259.615 510.265 258.207C510.649 256.735 510.873 255.871 510.937 255.615C511.321 254.719 512.185 254.495 513.529 254.943C514.873 255.391 516.025 256.351 516.985 257.823C517.369 258.335 517.593 258.943 517.657 259.647C517.785 260.351 517.689 261.375 517.369 262.719C517.113 264.063 516.601 266.047 515.833 268.671C515.129 271.231 514.585 273.311 514.201 274.911C513.881 276.447 513.753 278.079 513.817 279.807C513.561 282.751 513.305 284.767 513.049 285.855C512.793 286.879 512.409 287.359 511.897 287.295ZM520.729 247.455C520.473 247.647 520.217 247.743 519.961 247.743C519.769 247.679 519.417 247.487 518.905 247.167C518.457 247.103 517.881 246.815 517.177 246.303C516.537 245.727 515.961 245.151 515.449 244.575C515.001 243.999 514.777 243.647 514.777 243.519C514.713 242.879 514.745 241.855 514.873 240.447C515.065 239.039 515.417 237.727 515.929 236.511C516.505 235.231 517.273 234.559 518.233 234.495C518.489 234.495 519.033 234.623 519.865 234.879C520.761 235.135 521.689 235.455 522.649 235.839C523.161 236.799 523.641 238.047 524.089 239.583C524.537 241.119 524.569 242.623 524.185 244.095C523.865 245.503 522.713 246.623 520.729 247.455ZM536.405 287.967C535.509 287.711 534.613 287.263 533.717 286.623C532.821 285.983 531.893 285.247 530.933 284.415C530.165 283.391 529.621 282.463 529.301 281.631C528.981 280.735 528.789 279.711 528.725 278.559C528.725 277.343 528.725 275.807 528.725 273.951C528.725 273.183 528.853 272.095 529.109 270.687C529.429 269.279 529.749 267.807 530.069 266.271C530.453 264.735 530.805 263.391 531.125 262.239C531.445 261.023 531.637 260.223 531.701 259.839C531.893 259.007 531.573 258.527 530.741 258.399C529.909 258.271 528.981 258.239 527.957 258.303C526.997 258.303 526.357 258.207 526.037 258.015C525.781 257.951 525.653 257.631 525.653 257.055C525.653 256.415 525.653 256.095 525.653 256.095C525.653 255.839 525.525 255.679 525.269 255.615C525.013 255.487 524.789 255.263 524.597 254.943C524.469 254.687 524.629 254.207 525.077 253.503C525.525 252.799 526.101 252.383 526.805 252.255C527.381 252.127 528.245 252.031 529.397 251.967C530.549 251.839 531.701 251.615 532.853 251.295C534.069 250.911 534.997 250.335 535.637 249.567C536.213 248.159 536.853 246.655 537.557 245.055C538.261 243.391 538.933 241.951 539.573 240.735C540.213 239.455 540.661 238.655 540.917 238.335C542.005 237.759 543.125 237.535 544.277 237.663C545.429 237.727 546.325 238.271 546.965 239.295C547.285 239.743 547.541 240.063 547.733 240.255C547.989 240.447 548.085 240.735 548.021 241.119C548.021 241.503 547.765 242.207 547.253 243.231C546.805 244.191 546.037 245.695 544.949 247.743C544.629 248.383 544.341 248.959 544.085 249.471C543.829 249.919 543.701 250.143 543.701 250.143C543.957 250.207 544.341 250.239 544.853 250.239C545.365 250.239 546.005 250.207 546.773 250.143C547.477 250.015 548.245 249.919 549.077 249.855C549.909 249.727 550.645 249.727 551.285 249.855C552.757 249.855 553.845 250.271 554.549 251.103C555.253 251.935 555.637 252.991 555.701 254.271C555.829 254.975 555.573 255.583 554.933 256.095C554.293 256.607 553.109 256.863 551.381 256.863C550.805 256.863 549.973 256.895 548.885 256.959C547.797 257.023 546.677 257.087 545.525 257.151C544.373 257.215 543.381 257.311 542.549 257.439C541.781 257.503 541.397 257.599 541.397 257.727C541.205 257.855 540.885 258.367 540.437 259.263C540.053 260.095 539.637 261.119 539.189 262.335C538.805 263.551 538.453 264.703 538.133 265.791C537.685 267.967 537.365 270.079 537.173 272.127C536.981 274.175 536.949 275.967 537.077 277.503C537.269 278.975 537.653 280.031 538.229 280.671C538.805 281.247 539.669 281.247 540.821 280.671C542.037 280.031 543.157 279.295 544.181 278.463C545.333 277.503 546.325 277.215 547.157 277.599C547.989 277.919 548.501 278.623 548.693 279.711C548.949 280.735 548.661 281.855 547.829 283.071C547.061 284.287 545.973 285.311 544.565 286.143C543.157 286.975 541.717 287.551 540.245 287.871C538.773 288.255 537.493 288.287 536.405 287.967ZM561.082 310.239C560.826 310.303 560.442 310.207 559.93 309.951C559.482 309.695 559.098 309.247 558.778 308.607C558.458 307.967 558.362 307.135 558.49 306.111C558.234 305.215 558.266 304.095 558.586 302.751C558.97 301.471 559.77 299.551 560.986 296.991C561.626 295.967 562.202 294.751 562.714 293.343C563.29 291.935 563.93 290.527 564.634 289.119C564.954 288.543 565.498 287.551 566.266 286.143C567.098 284.735 567.994 283.071 568.954 281.151C569.978 279.167 570.906 277.119 571.738 275.007C570.074 276.735 568.634 278.367 567.418 279.903C566.266 281.375 565.21 282.559 564.25 283.455C563.354 284.287 562.394 284.671 561.37 284.607C560.538 284.415 559.546 283.871 558.394 282.975C557.242 282.079 556.506 281.087 556.186 279.999C555.93 278.591 555.834 276.799 555.898 274.623C556.026 272.447 556.442 269.151 557.146 264.735C557.658 262.559 557.882 260.895 557.818 259.743C557.818 258.527 557.658 257.631 557.338 257.055C557.018 256.479 556.602 255.967 556.09 255.519C555.258 254.751 555.194 253.919 555.898 253.023C556.602 252.127 557.402 251.455 558.298 251.007C559.642 250.687 560.698 250.623 561.466 250.815C562.298 250.943 563.13 251.487 563.962 252.447C564.474 253.279 564.986 254.175 565.498 255.135C566.01 256.095 566.266 257.471 566.266 259.263C566.266 260.031 566.234 260.895 566.17 261.855C566.106 262.751 566.042 263.583 565.978 264.351C565.914 265.119 565.85 265.727 565.786 266.175C565.146 268.543 564.57 270.591 564.058 272.319C563.546 274.047 563.45 274.911 563.77 274.911C565.05 273.887 566.138 272.895 567.034 271.935C567.994 270.975 569.018 269.823 570.106 268.479C571.194 267.135 572.538 265.375 574.138 263.199C574.714 262.111 575.29 261.055 575.866 260.031C576.442 259.007 576.922 257.951 577.306 256.863C577.69 256.031 578.202 255.167 578.842 254.271C579.482 253.311 579.93 252.799 580.186 252.735C580.506 252.607 580.954 252.639 581.53 252.831C582.106 253.023 582.65 253.247 583.162 253.503C583.738 253.695 584.026 253.855 584.026 253.983C584.09 254.047 584.41 254.111 584.986 254.175C585.562 254.239 586.138 254.303 586.714 254.367C587.29 254.367 587.578 254.463 587.578 254.655C587.578 254.783 587.386 255.263 587.002 256.095C586.682 256.927 586.298 257.855 585.85 258.879C585.402 259.903 584.986 260.831 584.602 261.663C584.282 262.431 584.154 262.879 584.218 263.007C584.346 263.135 584.25 263.615 583.93 264.447C583.61 265.215 583.226 266.079 582.778 267.039C582.394 267.999 582.042 268.863 581.722 269.631C581.082 271.743 580.346 273.855 579.514 275.967C578.682 278.015 577.69 280.063 576.538 282.111C576.154 282.879 575.578 284.063 574.81 285.663C574.106 287.263 573.402 288.831 572.698 290.367C572.058 291.967 571.546 293.183 571.162 294.015C570.906 294.527 570.522 295.327 570.01 296.415C569.562 297.567 569.05 298.815 568.474 300.159C567.962 301.503 567.45 302.751 566.938 303.903C566.426 305.119 566.042 306.047 565.786 306.687C565.658 307.903 565.37 308.799 564.922 309.375C564.346 309.951 563.546 310.239 562.522 310.239C561.562 310.239 561.082 310.239 561.082 310.239Z" fill="#FA7223"/>
<defs>
<clipPath id="clip0_5_9">
<rect width="251" height="245.39" fill="white" transform="translate(112.06 0.609375)"/>
</clipPath>
<clipPath id="clip1_5_9">
<rect width="251" height="233" fill="white" transform="translate(112.06 6.80469)"/>
</clipPath>
<clipPath id="clip2_5_9">
<rect width="109" height="153.39" fill="white" transform="translate(481.92 76.6094)"/>
</clipPath>
<clipPath id="clip3_5_9">
<rect width="109" height="141" fill="white" transform="translate(481.92 82.8047)"/>
</clipPath>
</defs>
</svg>
