<svg width="1920" height="1593" viewBox="0 0 1920 1593" fill="none" xmlns="http://www.w3.org/2000/svg">
<rect width="1920" height="1593" fill="#FFF9F5"/>
<g clip-path="url(#clip0_1_183)">
<path d="M960 3.6C1297.2 3.6 1620.48 63.12 1920 172.08V0H0V172.08C299.52 63.12 622.8 3.6 960 3.6Z" fill="white"/>
</g>
<path d="M467.875 510.5V556H458.531V510.5H467.875ZM492.656 522.188V528.562H472.969V522.188H492.656ZM477.844 513.844H486.844V545.812C486.844 546.792 486.969 547.542 487.219 548.062C487.49 548.583 487.885 548.948 488.406 549.156C488.927 549.344 489.583 549.438 490.375 549.438C490.938 549.438 491.438 549.417 491.875 549.375C492.333 549.312 492.719 549.25 493.031 549.188L493.062 555.812C492.292 556.062 491.458 556.26 490.562 556.406C489.667 556.552 488.677 556.625 487.594 556.625C485.615 556.625 483.885 556.302 482.406 555.656C480.948 554.99 479.823 553.927 479.031 552.469C478.24 551.01 477.844 549.094 477.844 546.719V513.844ZM506.5 508V512.75C506.5 514.104 506.24 515.5 505.719 516.938C505.219 518.375 504.542 519.74 503.688 521.031C502.833 522.302 501.896 523.385 500.875 524.281L496.656 521.844C497.427 520.615 498.083 519.281 498.625 517.844C499.167 516.385 499.438 514.698 499.438 512.781V508H506.5ZM525.188 546.656C525.188 546.01 525 545.427 524.625 544.906C524.25 544.385 523.552 543.906 522.531 543.469C521.531 543.01 520.083 542.594 518.188 542.219C516.479 541.844 514.885 541.375 513.406 540.812C511.948 540.229 510.677 539.531 509.594 538.719C508.531 537.906 507.698 536.948 507.094 535.844C506.49 534.719 506.188 533.438 506.188 532C506.188 530.583 506.49 529.25 507.094 528C507.719 526.75 508.604 525.646 509.75 524.688C510.917 523.708 512.333 522.948 514 522.406C515.688 521.844 517.583 521.562 519.688 521.562C522.625 521.562 525.146 522.031 527.25 522.969C529.375 523.906 531 525.198 532.125 526.844C533.271 528.469 533.844 530.323 533.844 532.406H524.844C524.844 531.531 524.656 530.75 524.281 530.062C523.927 529.354 523.365 528.802 522.594 528.406C521.844 527.99 520.865 527.781 519.656 527.781C518.656 527.781 517.792 527.958 517.062 528.312C516.333 528.646 515.771 529.104 515.375 529.688C515 530.25 514.812 530.875 514.812 531.562C514.812 532.083 514.917 532.552 515.125 532.969C515.354 533.365 515.719 533.729 516.219 534.062C516.719 534.396 517.365 534.708 518.156 535C518.969 535.271 519.969 535.521 521.156 535.75C523.594 536.25 525.771 536.906 527.688 537.719C529.604 538.51 531.125 539.594 532.25 540.969C533.375 542.323 533.938 544.104 533.938 546.312C533.938 547.812 533.604 549.188 532.938 550.438C532.271 551.688 531.312 552.781 530.062 553.719C528.812 554.635 527.312 555.354 525.562 555.875C523.833 556.375 521.885 556.625 519.719 556.625C516.573 556.625 513.906 556.062 511.719 554.938C509.552 553.812 507.906 552.385 506.781 550.656C505.677 548.906 505.125 547.115 505.125 545.281H513.656C513.698 546.51 514.01 547.5 514.594 548.25C515.198 549 515.958 549.542 516.875 549.875C517.812 550.208 518.823 550.375 519.906 550.375C521.073 550.375 522.042 550.219 522.812 549.906C523.583 549.573 524.167 549.135 524.562 548.594C524.979 548.031 525.188 547.385 525.188 546.656ZM574 546.656C574 546.01 573.812 545.427 573.438 544.906C573.062 544.385 572.365 543.906 571.344 543.469C570.344 543.01 568.896 542.594 567 542.219C565.292 541.844 563.698 541.375 562.219 540.812C560.76 540.229 559.49 539.531 558.406 538.719C557.344 537.906 556.51 536.948 555.906 535.844C555.302 534.719 555 533.438 555 532C555 530.583 555.302 529.25 555.906 528C556.531 526.75 557.417 525.646 558.562 524.688C559.729 523.708 561.146 522.948 562.812 522.406C564.5 521.844 566.396 521.562 568.5 521.562C571.438 521.562 573.958 522.031 576.062 522.969C578.188 523.906 579.812 525.198 580.938 526.844C582.083 528.469 582.656 530.323 582.656 532.406H573.656C573.656 531.531 573.469 530.75 573.094 530.062C572.74 529.354 572.177 528.802 571.406 528.406C570.656 527.99 569.677 527.781 568.469 527.781C567.469 527.781 566.604 527.958 565.875 528.312C565.146 528.646 564.583 529.104 564.188 529.688C563.812 530.25 563.625 530.875 563.625 531.562C563.625 532.083 563.729 532.552 563.938 532.969C564.167 533.365 564.531 533.729 565.031 534.062C565.531 534.396 566.177 534.708 566.969 535C567.781 535.271 568.781 535.521 569.969 535.75C572.406 536.25 574.583 536.906 576.5 537.719C578.417 538.51 579.938 539.594 581.062 540.969C582.188 542.323 582.75 544.104 582.75 546.312C582.75 547.812 582.417 549.188 581.75 550.438C581.083 551.688 580.125 552.781 578.875 553.719C577.625 554.635 576.125 555.354 574.375 555.875C572.646 556.375 570.698 556.625 568.531 556.625C565.385 556.625 562.719 556.062 560.531 554.938C558.365 553.812 556.719 552.385 555.594 550.656C554.49 548.906 553.938 547.115 553.938 545.281H562.469C562.51 546.51 562.823 547.5 563.406 548.25C564.01 549 564.771 549.542 565.688 549.875C566.625 550.208 567.635 550.375 568.719 550.375C569.885 550.375 570.854 550.219 571.625 549.906C572.396 549.573 572.979 549.135 573.375 548.594C573.792 548.031 574 547.385 574 546.656ZM587.156 539.438V538.781C587.156 536.302 587.51 534.021 588.219 531.938C588.927 529.833 589.958 528.01 591.312 526.469C592.667 524.927 594.333 523.729 596.312 522.875C598.292 522 600.562 521.562 603.125 521.562C605.688 521.562 607.969 522 609.969 522.875C611.969 523.729 613.646 524.927 615 526.469C616.375 528.01 617.417 529.833 618.125 531.938C618.833 534.021 619.188 536.302 619.188 538.781V539.438C619.188 541.896 618.833 544.177 618.125 546.281C617.417 548.365 616.375 550.188 615 551.75C613.646 553.292 611.979 554.49 610 555.344C608.021 556.198 605.75 556.625 603.188 556.625C600.625 556.625 598.344 556.198 596.344 555.344C594.365 554.49 592.688 553.292 591.312 551.75C589.958 550.188 588.927 548.365 588.219 546.281C587.51 544.177 587.156 541.896 587.156 539.438ZM596.156 538.781V539.438C596.156 540.854 596.281 542.177 596.531 543.406C596.781 544.635 597.177 545.719 597.719 546.656C598.281 547.573 599.01 548.292 599.906 548.812C600.802 549.333 601.896 549.594 603.188 549.594C604.438 549.594 605.51 549.333 606.406 548.812C607.302 548.292 608.021 547.573 608.562 546.656C609.104 545.719 609.5 544.635 609.75 543.406C610.021 542.177 610.156 540.854 610.156 539.438V538.781C610.156 537.406 610.021 536.115 609.75 534.906C609.5 533.677 609.094 532.594 608.531 531.656C607.99 530.698 607.271 529.948 606.375 529.406C605.479 528.865 604.396 528.594 603.125 528.594C601.854 528.594 600.771 528.865 599.875 529.406C599 529.948 598.281 530.698 597.719 531.656C597.177 532.594 596.781 533.677 596.531 534.906C596.281 536.115 596.156 537.406 596.156 538.781ZM656.219 556.625C653.594 556.625 651.24 556.208 649.156 555.375C647.073 554.521 645.302 553.344 643.844 551.844C642.406 550.344 641.302 548.604 640.531 546.625C639.76 544.625 639.375 542.5 639.375 540.25V539C639.375 536.438 639.74 534.094 640.469 531.969C641.198 529.844 642.24 528 643.594 526.438C644.969 524.875 646.635 523.677 648.594 522.844C650.552 521.99 652.76 521.562 655.219 521.562C657.615 521.562 659.74 521.958 661.594 522.75C663.448 523.542 665 524.667 666.25 526.125C667.521 527.583 668.479 529.333 669.125 531.375C669.771 533.396 670.094 535.646 670.094 538.125V541.875H643.219V535.875H661.25V535.188C661.25 533.938 661.021 532.823 660.562 531.844C660.125 530.844 659.458 530.052 658.562 529.469C657.667 528.885 656.521 528.594 655.125 528.594C653.938 528.594 652.917 528.854 652.062 529.375C651.208 529.896 650.51 530.625 649.969 531.562C649.448 532.5 649.052 533.604 648.781 534.875C648.531 536.125 648.406 537.5 648.406 539V540.25C648.406 541.604 648.594 542.854 648.969 544C649.365 545.146 649.917 546.135 650.625 546.969C651.354 547.802 652.229 548.448 653.25 548.906C654.292 549.365 655.469 549.594 656.781 549.594C658.406 549.594 659.917 549.281 661.312 548.656C662.729 548.01 663.948 547.042 664.969 545.75L669.344 550.5C668.635 551.521 667.667 552.5 666.438 553.438C665.229 554.375 663.771 555.146 662.062 555.75C660.354 556.333 658.406 556.625 656.219 556.625ZM693.469 548.375V533.312C693.469 532.229 693.292 531.302 692.938 530.531C692.583 529.74 692.031 529.125 691.281 528.688C690.552 528.25 689.604 528.031 688.438 528.031C687.438 528.031 686.573 528.208 685.844 528.562C685.115 528.896 684.552 529.385 684.156 530.031C683.76 530.656 683.562 531.396 683.562 532.25H674.562C674.562 530.812 674.896 529.448 675.562 528.156C676.229 526.865 677.198 525.729 678.469 524.75C679.74 523.75 681.25 522.969 683 522.406C684.771 521.844 686.75 521.562 688.938 521.562C691.562 521.562 693.896 522 695.938 522.875C697.979 523.75 699.583 525.062 700.75 526.812C701.938 528.562 702.531 530.75 702.531 533.375V547.844C702.531 549.698 702.646 551.219 702.875 552.406C703.104 553.573 703.438 554.594 703.875 555.469V556H694.781C694.344 555.083 694.01 553.938 693.781 552.562C693.573 551.167 693.469 549.771 693.469 548.375ZM694.656 535.406L694.719 540.5H689.688C688.5 540.5 687.469 540.635 686.594 540.906C685.719 541.177 685 541.562 684.438 542.062C683.875 542.542 683.458 543.104 683.188 543.75C682.938 544.396 682.812 545.104 682.812 545.875C682.812 546.646 682.99 547.344 683.344 547.969C683.698 548.573 684.208 549.052 684.875 549.406C685.542 549.74 686.323 549.906 687.219 549.906C688.573 549.906 689.75 549.635 690.75 549.094C691.75 548.552 692.521 547.885 693.062 547.094C693.625 546.302 693.917 545.552 693.938 544.844L696.312 548.656C695.979 549.51 695.521 550.396 694.938 551.312C694.375 552.229 693.656 553.094 692.781 553.906C691.906 554.698 690.854 555.354 689.625 555.875C688.396 556.375 686.938 556.625 685.25 556.625C683.104 556.625 681.156 556.198 679.406 555.344C677.677 554.469 676.302 553.271 675.281 551.75C674.281 550.208 673.781 548.458 673.781 546.5C673.781 544.729 674.115 543.156 674.781 541.781C675.448 540.406 676.427 539.25 677.719 538.312C679.031 537.354 680.667 536.635 682.625 536.156C684.583 535.656 686.854 535.406 689.438 535.406H694.656ZM727.75 546.656C727.75 546.01 727.562 545.427 727.188 544.906C726.812 544.385 726.115 543.906 725.094 543.469C724.094 543.01 722.646 542.594 720.75 542.219C719.042 541.844 717.448 541.375 715.969 540.812C714.51 540.229 713.24 539.531 712.156 538.719C711.094 537.906 710.26 536.948 709.656 535.844C709.052 534.719 708.75 533.438 708.75 532C708.75 530.583 709.052 529.25 709.656 528C710.281 526.75 711.167 525.646 712.312 524.688C713.479 523.708 714.896 522.948 716.562 522.406C718.25 521.844 720.146 521.562 722.25 521.562C725.188 521.562 727.708 522.031 729.812 522.969C731.938 523.906 733.562 525.198 734.688 526.844C735.833 528.469 736.406 530.323 736.406 532.406H727.406C727.406 531.531 727.219 530.75 726.844 530.062C726.49 529.354 725.927 528.802 725.156 528.406C724.406 527.99 723.427 527.781 722.219 527.781C721.219 527.781 720.354 527.958 719.625 528.312C718.896 528.646 718.333 529.104 717.938 529.688C717.562 530.25 717.375 530.875 717.375 531.562C717.375 532.083 717.479 532.552 717.688 532.969C717.917 533.365 718.281 533.729 718.781 534.062C719.281 534.396 719.927 534.708 720.719 535C721.531 535.271 722.531 535.521 723.719 535.75C726.156 536.25 728.333 536.906 730.25 537.719C732.167 538.51 733.688 539.594 734.812 540.969C735.938 542.323 736.5 544.104 736.5 546.312C736.5 547.812 736.167 549.188 735.5 550.438C734.833 551.688 733.875 552.781 732.625 553.719C731.375 554.635 729.875 555.354 728.125 555.875C726.396 556.375 724.448 556.625 722.281 556.625C719.135 556.625 716.469 556.062 714.281 554.938C712.115 553.812 710.469 552.385 709.344 550.656C708.24 548.906 707.688 547.115 707.688 545.281H716.219C716.26 546.51 716.573 547.5 717.156 548.25C717.76 549 718.521 549.542 719.438 549.875C720.375 550.208 721.385 550.375 722.469 550.375C723.635 550.375 724.604 550.219 725.375 549.906C726.146 549.573 726.729 549.135 727.125 548.594C727.542 548.031 727.75 547.385 727.75 546.656ZM752.375 552.188L761.344 522.188H771L757.406 561.094C757.115 561.948 756.719 562.865 756.219 563.844C755.74 564.823 755.083 565.75 754.25 566.625C753.438 567.521 752.406 568.25 751.156 568.812C749.927 569.375 748.417 569.656 746.625 569.656C745.771 569.656 745.073 569.604 744.531 569.5C743.99 569.396 743.344 569.25 742.594 569.062V562.469C742.823 562.469 743.062 562.469 743.312 562.469C743.562 562.49 743.802 562.5 744.031 562.5C745.219 562.5 746.188 562.365 746.938 562.094C747.688 561.823 748.292 561.406 748.75 560.844C749.208 560.302 749.573 559.594 749.844 558.719L752.375 552.188ZM748.625 522.188L755.969 546.688L757.25 556.219L751.125 556.875L738.969 522.188H748.625ZM807.094 522.188V528.562H787.406V522.188H807.094ZM792.281 513.844H801.281V545.812C801.281 546.792 801.406 547.542 801.656 548.062C801.927 548.583 802.323 548.948 802.844 549.156C803.365 549.344 804.021 549.438 804.812 549.438C805.375 549.438 805.875 549.417 806.312 549.375C806.771 549.312 807.156 549.25 807.469 549.188L807.5 555.812C806.729 556.062 805.896 556.26 805 556.406C804.104 556.552 803.115 556.625 802.031 556.625C800.052 556.625 798.323 556.302 796.844 555.656C795.385 554.99 794.26 553.927 793.469 552.469C792.677 551.01 792.281 549.094 792.281 546.719V513.844ZM809.969 539.438V538.781C809.969 536.302 810.323 534.021 811.031 531.938C811.74 529.833 812.771 528.01 814.125 526.469C815.479 524.927 817.146 523.729 819.125 522.875C821.104 522 823.375 521.562 825.938 521.562C828.5 521.562 830.781 522 832.781 522.875C834.781 523.729 836.458 524.927 837.812 526.469C839.188 528.01 840.229 529.833 840.938 531.938C841.646 534.021 842 536.302 842 538.781V539.438C842 541.896 841.646 544.177 840.938 546.281C840.229 548.365 839.188 550.188 837.812 551.75C836.458 553.292 834.792 554.49 832.812 555.344C830.833 556.198 828.562 556.625 826 556.625C823.438 556.625 821.156 556.198 819.156 555.344C817.177 554.49 815.5 553.292 814.125 551.75C812.771 550.188 811.74 548.365 811.031 546.281C810.323 544.177 809.969 541.896 809.969 539.438ZM818.969 538.781V539.438C818.969 540.854 819.094 542.177 819.344 543.406C819.594 544.635 819.99 545.719 820.531 546.656C821.094 547.573 821.823 548.292 822.719 548.812C823.615 549.333 824.708 549.594 826 549.594C827.25 549.594 828.323 549.333 829.219 548.812C830.115 548.292 830.833 547.573 831.375 546.656C831.917 545.719 832.312 544.635 832.562 543.406C832.833 542.177 832.969 540.854 832.969 539.438V538.781C832.969 537.406 832.833 536.115 832.562 534.906C832.312 533.677 831.906 532.594 831.344 531.656C830.802 530.698 830.083 529.948 829.188 529.406C828.292 528.865 827.208 528.594 825.938 528.594C824.667 528.594 823.583 528.865 822.688 529.406C821.812 529.948 821.094 530.698 820.531 531.656C819.99 532.594 819.594 533.677 819.344 534.906C819.094 536.115 818.969 537.406 818.969 538.781ZM872.969 522.188V556H863.938V522.188H872.969ZM863.375 513.375C863.375 512.062 863.833 510.979 864.75 510.125C865.667 509.271 866.896 508.844 868.438 508.844C869.958 508.844 871.177 509.271 872.094 510.125C873.031 510.979 873.5 512.062 873.5 513.375C873.5 514.688 873.031 515.771 872.094 516.625C871.177 517.479 869.958 517.906 868.438 517.906C866.896 517.906 865.667 517.479 864.75 516.625C863.833 515.771 863.375 514.688 863.375 513.375ZM889.219 529.406V556H880.219V522.188H888.656L889.219 529.406ZM887.906 537.906H885.469C885.469 535.406 885.792 533.156 886.438 531.156C887.083 529.135 887.99 527.417 889.156 526C890.323 524.562 891.708 523.469 893.312 522.719C894.938 521.948 896.75 521.562 898.75 521.562C900.333 521.562 901.781 521.792 903.094 522.25C904.406 522.708 905.531 523.438 906.469 524.438C907.427 525.438 908.156 526.76 908.656 528.406C909.177 530.052 909.438 532.062 909.438 534.438V556H900.375V534.406C900.375 532.906 900.167 531.74 899.75 530.906C899.333 530.073 898.719 529.49 897.906 529.156C897.115 528.802 896.135 528.625 894.969 528.625C893.76 528.625 892.708 528.865 891.812 529.344C890.938 529.823 890.208 530.49 889.625 531.344C889.062 532.177 888.635 533.156 888.344 534.281C888.052 535.406 887.906 536.615 887.906 537.906ZM934.562 546.656C934.562 546.01 934.375 545.427 934 544.906C933.625 544.385 932.927 543.906 931.906 543.469C930.906 543.01 929.458 542.594 927.562 542.219C925.854 541.844 924.26 541.375 922.781 540.812C921.323 540.229 920.052 539.531 918.969 538.719C917.906 537.906 917.073 536.948 916.469 535.844C915.865 534.719 915.562 533.438 915.562 532C915.562 530.583 915.865 529.25 916.469 528C917.094 526.75 917.979 525.646 919.125 524.688C920.292 523.708 921.708 522.948 923.375 522.406C925.062 521.844 926.958 521.562 929.062 521.562C932 521.562 934.521 522.031 936.625 522.969C938.75 523.906 940.375 525.198 941.5 526.844C942.646 528.469 943.219 530.323 943.219 532.406H934.219C934.219 531.531 934.031 530.75 933.656 530.062C933.302 529.354 932.74 528.802 931.969 528.406C931.219 527.99 930.24 527.781 929.031 527.781C928.031 527.781 927.167 527.958 926.438 528.312C925.708 528.646 925.146 529.104 924.75 529.688C924.375 530.25 924.188 530.875 924.188 531.562C924.188 532.083 924.292 532.552 924.5 532.969C924.729 533.365 925.094 533.729 925.594 534.062C926.094 534.396 926.74 534.708 927.531 535C928.344 535.271 929.344 535.521 930.531 535.75C932.969 536.25 935.146 536.906 937.062 537.719C938.979 538.51 940.5 539.594 941.625 540.969C942.75 542.323 943.312 544.104 943.312 546.312C943.312 547.812 942.979 549.188 942.312 550.438C941.646 551.688 940.688 552.781 939.438 553.719C938.188 554.635 936.688 555.354 934.938 555.875C933.208 556.375 931.26 556.625 929.094 556.625C925.948 556.625 923.281 556.062 921.094 554.938C918.927 553.812 917.281 552.385 916.156 550.656C915.052 548.906 914.5 547.115 914.5 545.281H923.031C923.073 546.51 923.385 547.5 923.969 548.25C924.573 549 925.333 549.542 926.25 549.875C927.188 550.208 928.198 550.375 929.281 550.375C930.448 550.375 931.417 550.219 932.188 549.906C932.958 549.573 933.542 549.135 933.938 548.594C934.354 548.031 934.562 547.385 934.562 546.656ZM965.719 522.188V528.562H946.031V522.188H965.719ZM950.906 513.844H959.906V545.812C959.906 546.792 960.031 547.542 960.281 548.062C960.552 548.583 960.948 548.948 961.469 549.156C961.99 549.344 962.646 549.438 963.438 549.438C964 549.438 964.5 549.417 964.938 549.375C965.396 549.312 965.781 549.25 966.094 549.188L966.125 555.812C965.354 556.062 964.521 556.26 963.625 556.406C962.729 556.552 961.74 556.625 960.656 556.625C958.677 556.625 956.948 556.302 955.469 555.656C954.01 554.99 952.885 553.927 952.094 552.469C951.302 551.01 950.906 549.094 950.906 546.719V513.844ZM989.094 548.375V533.312C989.094 532.229 988.917 531.302 988.562 530.531C988.208 529.74 987.656 529.125 986.906 528.688C986.177 528.25 985.229 528.031 984.062 528.031C983.062 528.031 982.198 528.208 981.469 528.562C980.74 528.896 980.177 529.385 979.781 530.031C979.385 530.656 979.188 531.396 979.188 532.25H970.188C970.188 530.812 970.521 529.448 971.188 528.156C971.854 526.865 972.823 525.729 974.094 524.75C975.365 523.75 976.875 522.969 978.625 522.406C980.396 521.844 982.375 521.562 984.562 521.562C987.188 521.562 989.521 522 991.562 522.875C993.604 523.75 995.208 525.062 996.375 526.812C997.562 528.562 998.156 530.75 998.156 533.375V547.844C998.156 549.698 998.271 551.219 998.5 552.406C998.729 553.573 999.062 554.594 999.5 555.469V556H990.406C989.969 555.083 989.635 553.938 989.406 552.562C989.198 551.167 989.094 549.771 989.094 548.375ZM990.281 535.406L990.344 540.5H985.312C984.125 540.5 983.094 540.635 982.219 540.906C981.344 541.177 980.625 541.562 980.062 542.062C979.5 542.542 979.083 543.104 978.812 543.75C978.562 544.396 978.438 545.104 978.438 545.875C978.438 546.646 978.615 547.344 978.969 547.969C979.323 548.573 979.833 549.052 980.5 549.406C981.167 549.74 981.948 549.906 982.844 549.906C984.198 549.906 985.375 549.635 986.375 549.094C987.375 548.552 988.146 547.885 988.688 547.094C989.25 546.302 989.542 545.552 989.562 544.844L991.938 548.656C991.604 549.51 991.146 550.396 990.562 551.312C990 552.229 989.281 553.094 988.406 553.906C987.531 554.698 986.479 555.354 985.25 555.875C984.021 556.375 982.562 556.625 980.875 556.625C978.729 556.625 976.781 556.198 975.031 555.344C973.302 554.469 971.927 553.271 970.906 551.75C969.906 550.208 969.406 548.458 969.406 546.5C969.406 544.729 969.74 543.156 970.406 541.781C971.073 540.406 972.052 539.25 973.344 538.312C974.656 537.354 976.292 536.635 978.25 536.156C980.208 535.656 982.479 535.406 985.062 535.406H990.281ZM1014.59 508V556H1005.56V508H1014.59ZM1031.53 508V556H1022.5V508H1031.53ZM1097.91 530.094V537.188H1054.69V530.094H1097.91ZM1137.88 546.656C1137.88 546.01 1137.69 545.427 1137.31 544.906C1136.94 544.385 1136.24 543.906 1135.22 543.469C1134.22 543.01 1132.77 542.594 1130.88 542.219C1129.17 541.844 1127.57 541.375 1126.09 540.812C1124.64 540.229 1123.36 539.531 1122.28 538.719C1121.22 537.906 1120.39 536.948 1119.78 535.844C1119.18 534.719 1118.88 533.438 1118.88 532C1118.88 530.583 1119.18 529.25 1119.78 528C1120.41 526.75 1121.29 525.646 1122.44 524.688C1123.6 523.708 1125.02 522.948 1126.69 522.406C1128.38 521.844 1130.27 521.562 1132.38 521.562C1135.31 521.562 1137.83 522.031 1139.94 522.969C1142.06 523.906 1143.69 525.198 1144.81 526.844C1145.96 528.469 1146.53 530.323 1146.53 532.406H1137.53C1137.53 531.531 1137.34 530.75 1136.97 530.062C1136.61 529.354 1136.05 528.802 1135.28 528.406C1134.53 527.99 1133.55 527.781 1132.34 527.781C1131.34 527.781 1130.48 527.958 1129.75 528.312C1129.02 528.646 1128.46 529.104 1128.06 529.688C1127.69 530.25 1127.5 530.875 1127.5 531.562C1127.5 532.083 1127.6 532.552 1127.81 532.969C1128.04 533.365 1128.41 533.729 1128.91 534.062C1129.41 534.396 1130.05 534.708 1130.84 535C1131.66 535.271 1132.66 535.521 1133.84 535.75C1136.28 536.25 1138.46 536.906 1140.38 537.719C1142.29 538.51 1143.81 539.594 1144.94 540.969C1146.06 542.323 1146.62 544.104 1146.62 546.312C1146.62 547.812 1146.29 549.188 1145.62 550.438C1144.96 551.688 1144 552.781 1142.75 553.719C1141.5 554.635 1140 555.354 1138.25 555.875C1136.52 556.375 1134.57 556.625 1132.41 556.625C1129.26 556.625 1126.59 556.062 1124.41 554.938C1122.24 553.812 1120.59 552.385 1119.47 550.656C1118.36 548.906 1117.81 547.115 1117.81 545.281H1126.34C1126.39 546.51 1126.7 547.5 1127.28 548.25C1127.89 549 1128.65 549.542 1129.56 549.875C1130.5 550.208 1131.51 550.375 1132.59 550.375C1133.76 550.375 1134.73 550.219 1135.5 549.906C1136.27 549.573 1136.85 549.135 1137.25 548.594C1137.67 548.031 1137.88 547.385 1137.88 546.656ZM1162.12 547.25L1169.16 522.188H1174.88L1173.03 532.031L1166 556H1161.22L1162.12 547.25ZM1158.56 522.188L1163.59 547.219L1164.06 556H1158.44L1149.88 522.188H1158.56ZM1181.31 546.812L1186.22 522.188H1194.94L1186.38 556H1180.78L1181.31 546.812ZM1175.66 522.188L1182.66 547.062L1183.62 556H1178.81L1171.78 532.062L1170 522.188H1175.66ZM1208.97 522.188V556H1199.94V522.188H1208.97ZM1199.38 513.375C1199.38 512.062 1199.83 510.979 1200.75 510.125C1201.67 509.271 1202.9 508.844 1204.44 508.844C1205.96 508.844 1207.18 509.271 1208.09 510.125C1209.03 510.979 1209.5 512.062 1209.5 513.375C1209.5 514.688 1209.03 515.771 1208.09 516.625C1207.18 517.479 1205.96 517.906 1204.44 517.906C1202.9 517.906 1201.67 517.479 1200.75 516.625C1199.83 515.771 1199.38 514.688 1199.38 513.375ZM1232.97 522.188V528.562H1213.28V522.188H1232.97ZM1218.16 513.844H1227.16V545.812C1227.16 546.792 1227.28 547.542 1227.53 548.062C1227.8 548.583 1228.2 548.948 1228.72 549.156C1229.24 549.344 1229.9 549.438 1230.69 549.438C1231.25 549.438 1231.75 549.417 1232.19 549.375C1232.65 549.312 1233.03 549.25 1233.34 549.188L1233.38 555.812C1232.6 556.062 1231.77 556.26 1230.88 556.406C1229.98 556.552 1228.99 556.625 1227.91 556.625C1225.93 556.625 1224.2 556.302 1222.72 555.656C1221.26 554.99 1220.14 553.927 1219.34 552.469C1218.55 551.01 1218.16 549.094 1218.16 546.719V513.844ZM1252.06 549.594C1253.17 549.594 1254.15 549.385 1255 548.969C1255.85 548.531 1256.52 547.927 1257 547.156C1257.5 546.365 1257.76 545.438 1257.78 544.375H1266.25C1266.23 546.75 1265.59 548.865 1264.34 550.719C1263.09 552.552 1261.42 554 1259.31 555.062C1257.21 556.104 1254.85 556.625 1252.25 556.625C1249.62 556.625 1247.33 556.188 1245.38 555.312C1243.44 554.438 1241.82 553.229 1240.53 551.688C1239.24 550.125 1238.27 548.312 1237.62 546.25C1236.98 544.167 1236.66 541.938 1236.66 539.562V538.656C1236.66 536.26 1236.98 534.031 1237.62 531.969C1238.27 529.885 1239.24 528.073 1240.53 526.531C1241.82 524.969 1243.44 523.75 1245.38 522.875C1247.31 522 1249.58 521.562 1252.19 521.562C1254.96 521.562 1257.39 522.094 1259.47 523.156C1261.57 524.219 1263.22 525.74 1264.41 527.719C1265.61 529.677 1266.23 532 1266.25 534.688H1257.78C1257.76 533.562 1257.52 532.542 1257.06 531.625C1256.62 530.708 1255.98 529.979 1255.12 529.438C1254.29 528.875 1253.26 528.594 1252.03 528.594C1250.72 528.594 1249.65 528.875 1248.81 529.438C1247.98 529.979 1247.33 530.729 1246.88 531.688C1246.42 532.625 1246.09 533.698 1245.91 534.906C1245.74 536.094 1245.66 537.344 1245.66 538.656V539.562C1245.66 540.875 1245.74 542.135 1245.91 543.344C1246.07 544.552 1246.39 545.625 1246.84 546.562C1247.32 547.5 1247.98 548.24 1248.81 548.781C1249.65 549.323 1250.73 549.594 1252.06 549.594ZM1280.25 508V556H1271.25V508H1280.25ZM1278.97 537.906H1276.5C1276.52 535.552 1276.83 533.385 1277.44 531.406C1278.04 529.406 1278.91 527.677 1280.03 526.219C1281.16 524.74 1282.5 523.594 1284.06 522.781C1285.65 521.969 1287.4 521.562 1289.31 521.562C1290.98 521.562 1292.49 521.802 1293.84 522.281C1295.22 522.74 1296.4 523.49 1297.38 524.531C1298.38 525.552 1299.15 526.896 1299.69 528.562C1300.23 530.229 1300.5 532.25 1300.5 534.625V556H1291.44V534.562C1291.44 533.062 1291.22 531.885 1290.78 531.031C1290.36 530.156 1289.75 529.542 1288.94 529.188C1288.15 528.812 1287.17 528.625 1286 528.625C1284.71 528.625 1283.6 528.865 1282.69 529.344C1281.79 529.823 1281.07 530.49 1280.53 531.344C1279.99 532.177 1279.59 533.156 1279.34 534.281C1279.09 535.406 1278.97 536.615 1278.97 537.906ZM1316.84 522.188V556H1307.81V522.188H1316.84ZM1307.25 513.375C1307.25 512.062 1307.71 510.979 1308.62 510.125C1309.54 509.271 1310.77 508.844 1312.31 508.844C1313.83 508.844 1315.05 509.271 1315.97 510.125C1316.91 510.979 1317.38 512.062 1317.38 513.375C1317.38 514.688 1316.91 515.771 1315.97 516.625C1315.05 517.479 1313.83 517.906 1312.31 517.906C1310.77 517.906 1309.54 517.479 1308.62 516.625C1307.71 515.771 1307.25 514.688 1307.25 513.375ZM1333.09 529.406V556H1324.09V522.188H1332.53L1333.09 529.406ZM1331.78 537.906H1329.34C1329.34 535.406 1329.67 533.156 1330.31 531.156C1330.96 529.135 1331.86 527.417 1333.03 526C1334.2 524.562 1335.58 523.469 1337.19 522.719C1338.81 521.948 1340.62 521.562 1342.62 521.562C1344.21 521.562 1345.66 521.792 1346.97 522.25C1348.28 522.708 1349.41 523.438 1350.34 524.438C1351.3 525.438 1352.03 526.76 1352.53 528.406C1353.05 530.052 1353.31 532.062 1353.31 534.438V556H1344.25V534.406C1344.25 532.906 1344.04 531.74 1343.62 530.906C1343.21 530.073 1342.59 529.49 1341.78 529.156C1340.99 528.802 1340.01 528.625 1338.84 528.625C1337.64 528.625 1336.58 528.865 1335.69 529.344C1334.81 529.823 1334.08 530.49 1333.5 531.344C1332.94 532.177 1332.51 533.156 1332.22 534.281C1331.93 535.406 1331.78 536.615 1331.78 537.906ZM1381.56 522.188H1389.72V554.875C1389.72 557.958 1389.03 560.573 1387.66 562.719C1386.3 564.885 1384.41 566.521 1381.97 567.625C1379.53 568.75 1376.7 569.312 1373.47 569.312C1372.05 569.312 1370.55 569.125 1368.97 568.75C1367.41 568.375 1365.91 567.792 1364.47 567C1363.05 566.208 1361.86 565.208 1360.91 564L1364.88 558.688C1365.92 559.896 1367.12 560.833 1368.5 561.5C1369.88 562.188 1371.4 562.531 1373.06 562.531C1374.69 562.531 1376.06 562.229 1377.19 561.625C1378.31 561.042 1379.18 560.177 1379.78 559.031C1380.39 557.906 1380.69 556.542 1380.69 554.938V530L1381.56 522.188ZM1358.81 539.5V538.844C1358.81 536.26 1359.12 533.917 1359.75 531.812C1360.4 529.688 1361.3 527.865 1362.47 526.344C1363.66 524.823 1365.09 523.646 1366.78 522.812C1368.47 521.979 1370.38 521.562 1372.5 521.562C1374.75 521.562 1376.64 521.979 1378.16 522.812C1379.68 523.646 1380.93 524.833 1381.91 526.375C1382.89 527.896 1383.65 529.698 1384.19 531.781C1384.75 533.844 1385.19 536.104 1385.5 538.562V540C1385.19 542.354 1384.72 544.542 1384.09 546.562C1383.47 548.583 1382.65 550.354 1381.62 551.875C1380.6 553.375 1379.33 554.542 1377.81 555.375C1376.31 556.208 1374.52 556.625 1372.44 556.625C1370.35 556.625 1368.47 556.198 1366.78 555.344C1365.11 554.49 1363.69 553.292 1362.5 551.75C1361.31 550.208 1360.4 548.396 1359.75 546.312C1359.12 544.229 1358.81 541.958 1358.81 539.5ZM1367.81 538.844V539.5C1367.81 540.896 1367.95 542.198 1368.22 543.406C1368.49 544.615 1368.91 545.688 1369.47 546.625C1370.05 547.542 1370.77 548.26 1371.62 548.781C1372.5 549.281 1373.53 549.531 1374.72 549.531C1376.36 549.531 1377.71 549.188 1378.75 548.5C1379.79 547.792 1380.57 546.823 1381.09 545.594C1381.61 544.365 1381.92 542.948 1382 541.344V537.25C1381.96 535.938 1381.78 534.76 1381.47 533.719C1381.16 532.656 1380.72 531.75 1380.16 531C1379.59 530.25 1378.86 529.667 1377.97 529.25C1377.07 528.833 1376.01 528.625 1374.78 528.625C1373.59 528.625 1372.56 528.896 1371.69 529.438C1370.83 529.958 1370.11 530.677 1369.53 531.594C1368.97 532.51 1368.54 533.594 1368.25 534.844C1367.96 536.073 1367.81 537.406 1367.81 538.844ZM1429.22 522.188V528.562H1409.53V522.188H1429.22ZM1414.41 513.844H1423.41V545.812C1423.41 546.792 1423.53 547.542 1423.78 548.062C1424.05 548.583 1424.45 548.948 1424.97 549.156C1425.49 549.344 1426.15 549.438 1426.94 549.438C1427.5 549.438 1428 549.417 1428.44 549.375C1428.9 549.312 1429.28 549.25 1429.59 549.188L1429.62 555.812C1428.85 556.062 1428.02 556.26 1427.12 556.406C1426.23 556.552 1425.24 556.625 1424.16 556.625C1422.18 556.625 1420.45 556.302 1418.97 555.656C1417.51 554.99 1416.39 553.927 1415.59 552.469C1414.8 551.01 1414.41 549.094 1414.41 546.719V513.844ZM1432.09 539.438V538.781C1432.09 536.302 1432.45 534.021 1433.16 531.938C1433.86 529.833 1434.9 528.01 1436.25 526.469C1437.6 524.927 1439.27 523.729 1441.25 522.875C1443.23 522 1445.5 521.562 1448.06 521.562C1450.62 521.562 1452.91 522 1454.91 522.875C1456.91 523.729 1458.58 524.927 1459.94 526.469C1461.31 528.01 1462.35 529.833 1463.06 531.938C1463.77 534.021 1464.12 536.302 1464.12 538.781V539.438C1464.12 541.896 1463.77 544.177 1463.06 546.281C1462.35 548.365 1461.31 550.188 1459.94 551.75C1458.58 553.292 1456.92 554.49 1454.94 555.344C1452.96 556.198 1450.69 556.625 1448.12 556.625C1445.56 556.625 1443.28 556.198 1441.28 555.344C1439.3 554.49 1437.62 553.292 1436.25 551.75C1434.9 550.188 1433.86 548.365 1433.16 546.281C1432.45 544.177 1432.09 541.896 1432.09 539.438ZM1441.09 538.781V539.438C1441.09 540.854 1441.22 542.177 1441.47 543.406C1441.72 544.635 1442.11 545.719 1442.66 546.656C1443.22 547.573 1443.95 548.292 1444.84 548.812C1445.74 549.333 1446.83 549.594 1448.12 549.594C1449.38 549.594 1450.45 549.333 1451.34 548.812C1452.24 548.292 1452.96 547.573 1453.5 546.656C1454.04 545.719 1454.44 544.635 1454.69 543.406C1454.96 542.177 1455.09 540.854 1455.09 539.438V538.781C1455.09 537.406 1454.96 536.115 1454.69 534.906C1454.44 533.677 1454.03 532.594 1453.47 531.656C1452.93 530.698 1452.21 529.948 1451.31 529.406C1450.42 528.865 1449.33 528.594 1448.06 528.594C1446.79 528.594 1445.71 528.865 1444.81 529.406C1443.94 529.948 1443.22 530.698 1442.66 531.656C1442.11 532.594 1441.72 533.677 1441.47 534.906C1441.22 536.115 1441.09 537.406 1441.09 538.781ZM517.219 594.281L504.844 632H494.875L511.781 586.5H518.125L517.219 594.281ZM527.5 632L515.094 594.281L514.094 586.5H520.5L537.5 632H527.5ZM526.938 615.062V622.406H502.906V615.062H526.938ZM555.125 625.594C556.229 625.594 557.208 625.385 558.062 624.969C558.917 624.531 559.583 623.927 560.062 623.156C560.562 622.365 560.823 621.438 560.844 620.375H569.312C569.292 622.75 568.656 624.865 567.406 626.719C566.156 628.552 564.479 630 562.375 631.062C560.271 632.104 557.917 632.625 555.312 632.625C552.688 632.625 550.396 632.188 548.438 631.312C546.5 630.438 544.885 629.229 543.594 627.688C542.302 626.125 541.333 624.312 540.688 622.25C540.042 620.167 539.719 617.938 539.719 615.562V614.656C539.719 612.26 540.042 610.031 540.688 607.969C541.333 605.885 542.302 604.073 543.594 602.531C544.885 600.969 546.5 599.75 548.438 598.875C550.375 598 552.646 597.562 555.25 597.562C558.021 597.562 560.448 598.094 562.531 599.156C564.635 600.219 566.281 601.74 567.469 603.719C568.677 605.677 569.292 608 569.312 610.688H560.844C560.823 609.562 560.583 608.542 560.125 607.625C559.688 606.708 559.042 605.979 558.188 605.438C557.354 604.875 556.323 604.594 555.094 604.594C553.781 604.594 552.708 604.875 551.875 605.438C551.042 605.979 550.396 606.729 549.938 607.688C549.479 608.625 549.156 609.698 548.969 610.906C548.802 612.094 548.719 613.344 548.719 614.656V615.562C548.719 616.875 548.802 618.135 548.969 619.344C549.135 620.552 549.448 621.625 549.906 622.562C550.385 623.5 551.042 624.24 551.875 624.781C552.708 625.323 553.792 625.594 555.125 625.594ZM591.094 598.188V604.562H571.406V598.188H591.094ZM576.281 589.844H585.281V621.812C585.281 622.792 585.406 623.542 585.656 624.062C585.927 624.583 586.323 624.948 586.844 625.156C587.365 625.344 588.021 625.438 588.812 625.438C589.375 625.438 589.875 625.417 590.312 625.375C590.771 625.312 591.156 625.25 591.469 625.188L591.5 631.812C590.729 632.062 589.896 632.26 589 632.406C588.104 632.552 587.115 632.625 586.031 632.625C584.052 632.625 582.323 632.302 580.844 631.656C579.385 630.99 578.26 629.927 577.469 628.469C576.677 627.01 576.281 625.094 576.281 622.719V589.844ZM605.719 598.188V632H596.688V598.188H605.719ZM596.125 589.375C596.125 588.062 596.583 586.979 597.5 586.125C598.417 585.271 599.646 584.844 601.188 584.844C602.708 584.844 603.927 585.271 604.844 586.125C605.781 586.979 606.25 588.062 606.25 589.375C606.25 590.688 605.781 591.771 604.844 592.625C603.927 593.479 602.708 593.906 601.188 593.906C599.646 593.906 598.417 593.479 597.5 592.625C596.583 591.771 596.125 590.688 596.125 589.375ZM622.156 604.688V645H613.156V598.188H621.5L622.156 604.688ZM643.562 614.719V615.375C643.562 617.833 643.271 620.115 642.688 622.219C642.125 624.323 641.292 626.156 640.188 627.719C639.083 629.26 637.708 630.469 636.062 631.344C634.438 632.198 632.562 632.625 630.438 632.625C628.375 632.625 626.583 632.208 625.062 631.375C623.542 630.542 622.26 629.375 621.219 627.875C620.198 626.354 619.375 624.594 618.75 622.594C618.125 620.594 617.646 618.448 617.312 616.156V614.438C617.646 611.979 618.125 609.729 618.75 607.688C619.375 605.625 620.198 603.844 621.219 602.344C622.26 600.823 623.531 599.646 625.031 598.812C626.552 597.979 628.333 597.562 630.375 597.562C632.521 597.562 634.406 597.969 636.031 598.781C637.677 599.594 639.052 600.76 640.156 602.281C641.281 603.802 642.125 605.615 642.688 607.719C643.271 609.823 643.562 612.156 643.562 614.719ZM634.531 615.375V614.719C634.531 613.281 634.406 611.958 634.156 610.75C633.927 609.521 633.552 608.448 633.031 607.531C632.531 606.615 631.865 605.906 631.031 605.406C630.219 604.885 629.229 604.625 628.062 604.625C626.833 604.625 625.781 604.823 624.906 605.219C624.052 605.615 623.354 606.188 622.812 606.938C622.271 607.688 621.865 608.583 621.594 609.625C621.323 610.667 621.156 611.844 621.094 613.156V617.5C621.198 619.042 621.49 620.427 621.969 621.656C622.448 622.865 623.188 623.823 624.188 624.531C625.188 625.24 626.5 625.594 628.125 625.594C629.312 625.594 630.312 625.333 631.125 624.812C631.938 624.271 632.594 623.531 633.094 622.594C633.615 621.656 633.979 620.573 634.188 619.344C634.417 618.115 634.531 616.792 634.531 615.375ZM667.406 624.375V609.312C667.406 608.229 667.229 607.302 666.875 606.531C666.521 605.74 665.969 605.125 665.219 604.688C664.49 604.25 663.542 604.031 662.375 604.031C661.375 604.031 660.51 604.208 659.781 604.562C659.052 604.896 658.49 605.385 658.094 606.031C657.698 606.656 657.5 607.396 657.5 608.25H648.5C648.5 606.812 648.833 605.448 649.5 604.156C650.167 602.865 651.135 601.729 652.406 600.75C653.677 599.75 655.188 598.969 656.938 598.406C658.708 597.844 660.688 597.562 662.875 597.562C665.5 597.562 667.833 598 669.875 598.875C671.917 599.75 673.521 601.062 674.688 602.812C675.875 604.562 676.469 606.75 676.469 609.375V623.844C676.469 625.698 676.583 627.219 676.812 628.406C677.042 629.573 677.375 630.594 677.812 631.469V632H668.719C668.281 631.083 667.948 629.938 667.719 628.562C667.51 627.167 667.406 625.771 667.406 624.375ZM668.594 611.406L668.656 616.5H663.625C662.438 616.5 661.406 616.635 660.531 616.906C659.656 617.177 658.938 617.562 658.375 618.062C657.812 618.542 657.396 619.104 657.125 619.75C656.875 620.396 656.75 621.104 656.75 621.875C656.75 622.646 656.927 623.344 657.281 623.969C657.635 624.573 658.146 625.052 658.812 625.406C659.479 625.74 660.26 625.906 661.156 625.906C662.51 625.906 663.688 625.635 664.688 625.094C665.688 624.552 666.458 623.885 667 623.094C667.562 622.302 667.854 621.552 667.875 620.844L670.25 624.656C669.917 625.51 669.458 626.396 668.875 627.312C668.312 628.229 667.594 629.094 666.719 629.906C665.844 630.698 664.792 631.354 663.562 631.875C662.333 632.375 660.875 632.625 659.188 632.625C657.042 632.625 655.094 632.198 653.344 631.344C651.615 630.469 650.24 629.271 649.219 627.75C648.219 626.208 647.719 624.458 647.719 622.5C647.719 620.729 648.052 619.156 648.719 617.781C649.385 616.406 650.365 615.25 651.656 614.312C652.969 613.354 654.604 612.635 656.562 612.156C658.521 611.656 660.792 611.406 663.375 611.406H668.594ZM697.375 625.594C698.479 625.594 699.458 625.385 700.312 624.969C701.167 624.531 701.833 623.927 702.312 623.156C702.812 622.365 703.073 621.438 703.094 620.375H711.562C711.542 622.75 710.906 624.865 709.656 626.719C708.406 628.552 706.729 630 704.625 631.062C702.521 632.104 700.167 632.625 697.562 632.625C694.938 632.625 692.646 632.188 690.688 631.312C688.75 630.438 687.135 629.229 685.844 627.688C684.552 626.125 683.583 624.312 682.938 622.25C682.292 620.167 681.969 617.938 681.969 615.562V614.656C681.969 612.26 682.292 610.031 682.938 607.969C683.583 605.885 684.552 604.073 685.844 602.531C687.135 600.969 688.75 599.75 690.688 598.875C692.625 598 694.896 597.562 697.5 597.562C700.271 597.562 702.698 598.094 704.781 599.156C706.885 600.219 708.531 601.74 709.719 603.719C710.927 605.677 711.542 608 711.562 610.688H703.094C703.073 609.562 702.833 608.542 702.375 607.625C701.938 606.708 701.292 605.979 700.438 605.438C699.604 604.875 698.573 604.594 697.344 604.594C696.031 604.594 694.958 604.875 694.125 605.438C693.292 605.979 692.646 606.729 692.188 607.688C691.729 608.625 691.406 609.698 691.219 610.906C691.052 612.094 690.969 613.344 690.969 614.656V615.562C690.969 616.875 691.052 618.135 691.219 619.344C691.385 620.552 691.698 621.625 692.156 622.562C692.635 623.5 693.292 624.24 694.125 624.781C694.958 625.323 696.042 625.594 697.375 625.594ZM732.344 632.625C729.719 632.625 727.365 632.208 725.281 631.375C723.198 630.521 721.427 629.344 719.969 627.844C718.531 626.344 717.427 624.604 716.656 622.625C715.885 620.625 715.5 618.5 715.5 616.25V615C715.5 612.438 715.865 610.094 716.594 607.969C717.323 605.844 718.365 604 719.719 602.438C721.094 600.875 722.76 599.677 724.719 598.844C726.677 597.99 728.885 597.562 731.344 597.562C733.74 597.562 735.865 597.958 737.719 598.75C739.573 599.542 741.125 600.667 742.375 602.125C743.646 603.583 744.604 605.333 745.25 607.375C745.896 609.396 746.219 611.646 746.219 614.125V617.875H719.344V611.875H737.375V611.188C737.375 609.938 737.146 608.823 736.688 607.844C736.25 606.844 735.583 606.052 734.688 605.469C733.792 604.885 732.646 604.594 731.25 604.594C730.062 604.594 729.042 604.854 728.188 605.375C727.333 605.896 726.635 606.625 726.094 607.562C725.573 608.5 725.177 609.604 724.906 610.875C724.656 612.125 724.531 613.5 724.531 615V616.25C724.531 617.604 724.719 618.854 725.094 620C725.49 621.146 726.042 622.135 726.75 622.969C727.479 623.802 728.354 624.448 729.375 624.906C730.417 625.365 731.594 625.594 732.906 625.594C734.531 625.594 736.042 625.281 737.438 624.656C738.854 624.01 740.073 623.042 741.094 621.75L745.469 626.5C744.76 627.521 743.792 628.5 742.562 629.438C741.354 630.375 739.896 631.146 738.188 631.75C736.479 632.333 734.531 632.625 732.344 632.625ZM785.562 622.656C785.562 622.01 785.375 621.427 785 620.906C784.625 620.385 783.927 619.906 782.906 619.469C781.906 619.01 780.458 618.594 778.562 618.219C776.854 617.844 775.26 617.375 773.781 616.812C772.323 616.229 771.052 615.531 769.969 614.719C768.906 613.906 768.073 612.948 767.469 611.844C766.865 610.719 766.562 609.438 766.562 608C766.562 606.583 766.865 605.25 767.469 604C768.094 602.75 768.979 601.646 770.125 600.688C771.292 599.708 772.708 598.948 774.375 598.406C776.062 597.844 777.958 597.562 780.062 597.562C783 597.562 785.521 598.031 787.625 598.969C789.75 599.906 791.375 601.198 792.5 602.844C793.646 604.469 794.219 606.323 794.219 608.406H785.219C785.219 607.531 785.031 606.75 784.656 606.062C784.302 605.354 783.74 604.802 782.969 604.406C782.219 603.99 781.24 603.781 780.031 603.781C779.031 603.781 778.167 603.958 777.438 604.312C776.708 604.646 776.146 605.104 775.75 605.688C775.375 606.25 775.188 606.875 775.188 607.562C775.188 608.083 775.292 608.552 775.5 608.969C775.729 609.365 776.094 609.729 776.594 610.062C777.094 610.396 777.74 610.708 778.531 611C779.344 611.271 780.344 611.521 781.531 611.75C783.969 612.25 786.146 612.906 788.062 613.719C789.979 614.51 791.5 615.594 792.625 616.969C793.75 618.323 794.312 620.104 794.312 622.312C794.312 623.812 793.979 625.188 793.312 626.438C792.646 627.688 791.688 628.781 790.438 629.719C789.188 630.635 787.688 631.354 785.938 631.875C784.208 632.375 782.26 632.625 780.094 632.625C776.948 632.625 774.281 632.062 772.094 630.938C769.927 629.812 768.281 628.385 767.156 626.656C766.052 624.906 765.5 623.115 765.5 621.281H774.031C774.073 622.51 774.385 623.5 774.969 624.25C775.573 625 776.333 625.542 777.25 625.875C778.188 626.208 779.198 626.375 780.281 626.375C781.448 626.375 782.417 626.219 783.188 625.906C783.958 625.573 784.542 625.135 784.938 624.594C785.354 624.031 785.562 623.385 785.562 622.656ZM815.719 632.625C813.094 632.625 810.74 632.208 808.656 631.375C806.573 630.521 804.802 629.344 803.344 627.844C801.906 626.344 800.802 624.604 800.031 622.625C799.26 620.625 798.875 618.5 798.875 616.25V615C798.875 612.438 799.24 610.094 799.969 607.969C800.698 605.844 801.74 604 803.094 602.438C804.469 600.875 806.135 599.677 808.094 598.844C810.052 597.99 812.26 597.562 814.719 597.562C817.115 597.562 819.24 597.958 821.094 598.75C822.948 599.542 824.5 600.667 825.75 602.125C827.021 603.583 827.979 605.333 828.625 607.375C829.271 609.396 829.594 611.646 829.594 614.125V617.875H802.719V611.875H820.75V611.188C820.75 609.938 820.521 608.823 820.062 607.844C819.625 606.844 818.958 606.052 818.062 605.469C817.167 604.885 816.021 604.594 814.625 604.594C813.438 604.594 812.417 604.854 811.562 605.375C810.708 605.896 810.01 606.625 809.469 607.562C808.948 608.5 808.552 609.604 808.281 610.875C808.031 612.125 807.906 613.5 807.906 615V616.25C807.906 617.604 808.094 618.854 808.469 620C808.865 621.146 809.417 622.135 810.125 622.969C810.854 623.802 811.729 624.448 812.75 624.906C813.792 625.365 814.969 625.594 816.281 625.594C817.906 625.594 819.417 625.281 820.812 624.656C822.229 624.01 823.448 623.042 824.469 621.75L828.844 626.5C828.135 627.521 827.167 628.5 825.938 629.438C824.729 630.375 823.271 631.146 821.562 631.75C819.854 632.333 817.906 632.625 815.719 632.625ZM848.688 625.594C849.792 625.594 850.771 625.385 851.625 624.969C852.479 624.531 853.146 623.927 853.625 623.156C854.125 622.365 854.385 621.438 854.406 620.375H862.875C862.854 622.75 862.219 624.865 860.969 626.719C859.719 628.552 858.042 630 855.938 631.062C853.833 632.104 851.479 632.625 848.875 632.625C846.25 632.625 843.958 632.188 842 631.312C840.062 630.438 838.448 629.229 837.156 627.688C835.865 626.125 834.896 624.312 834.25 622.25C833.604 620.167 833.281 617.938 833.281 615.562V614.656C833.281 612.26 833.604 610.031 834.25 607.969C834.896 605.885 835.865 604.073 837.156 602.531C838.448 600.969 840.062 599.75 842 598.875C843.938 598 846.208 597.562 848.812 597.562C851.583 597.562 854.01 598.094 856.094 599.156C858.198 600.219 859.844 601.74 861.031 603.719C862.24 605.677 862.854 608 862.875 610.688H854.406C854.385 609.562 854.146 608.542 853.688 607.625C853.25 606.708 852.604 605.979 851.75 605.438C850.917 604.875 849.885 604.594 848.656 604.594C847.344 604.594 846.271 604.875 845.438 605.438C844.604 605.979 843.958 606.729 843.5 607.688C843.042 608.625 842.719 609.698 842.531 610.906C842.365 612.094 842.281 613.344 842.281 614.656V615.562C842.281 616.875 842.365 618.135 842.531 619.344C842.698 620.552 843.01 621.625 843.469 622.562C843.948 623.5 844.604 624.24 845.438 624.781C846.271 625.323 847.354 625.594 848.688 625.594ZM888.094 623.906V598.188H897.094V632H888.625L888.094 623.906ZM889.094 616.969L891.75 616.906C891.75 619.156 891.49 621.25 890.969 623.188C890.448 625.104 889.667 626.771 888.625 628.188C887.583 629.583 886.271 630.677 884.688 631.469C883.104 632.24 881.24 632.625 879.094 632.625C877.448 632.625 875.927 632.396 874.531 631.938C873.156 631.458 871.969 630.719 870.969 629.719C869.99 628.698 869.219 627.396 868.656 625.812C868.115 624.208 867.844 622.281 867.844 620.031V598.188H876.844V620.094C876.844 621.094 876.958 621.938 877.188 622.625C877.438 623.312 877.781 623.875 878.219 624.312C878.656 624.75 879.167 625.062 879.75 625.25C880.354 625.438 881.021 625.531 881.75 625.531C883.604 625.531 885.062 625.156 886.125 624.406C887.208 623.656 887.969 622.635 888.406 621.344C888.865 620.031 889.094 618.573 889.094 616.969ZM912.969 605.562V632H903.969V598.188H912.438L912.969 605.562ZM923.156 597.969L923 606.312C922.562 606.25 922.031 606.198 921.406 606.156C920.802 606.094 920.25 606.062 919.75 606.062C918.479 606.062 917.375 606.229 916.438 606.562C915.521 606.875 914.75 607.344 914.125 607.969C913.521 608.594 913.062 609.354 912.75 610.25C912.458 611.146 912.292 612.167 912.25 613.312L910.438 612.75C910.438 610.562 910.656 608.552 911.094 606.719C911.531 604.865 912.167 603.25 913 601.875C913.854 600.5 914.896 599.438 916.125 598.688C917.354 597.938 918.76 597.562 920.344 597.562C920.844 597.562 921.354 597.604 921.875 597.688C922.396 597.75 922.823 597.844 923.156 597.969ZM936.906 598.188V632H927.875V598.188H936.906ZM927.312 589.375C927.312 588.062 927.771 586.979 928.688 586.125C929.604 585.271 930.833 584.844 932.375 584.844C933.896 584.844 935.115 585.271 936.031 586.125C936.969 586.979 937.438 588.062 937.438 589.375C937.438 590.688 936.969 591.771 936.031 592.625C935.115 593.479 933.896 593.906 932.375 593.906C930.833 593.906 929.604 593.479 928.688 592.625C927.771 591.771 927.312 590.688 927.312 589.375ZM960.906 598.188V604.562H941.219V598.188H960.906ZM946.094 589.844H955.094V621.812C955.094 622.792 955.219 623.542 955.469 624.062C955.74 624.583 956.135 624.948 956.656 625.156C957.177 625.344 957.833 625.438 958.625 625.438C959.188 625.438 959.688 625.417 960.125 625.375C960.583 625.312 960.969 625.25 961.281 625.188L961.312 631.812C960.542 632.062 959.708 632.26 958.812 632.406C957.917 632.552 956.927 632.625 955.844 632.625C953.865 632.625 952.135 632.302 950.656 631.656C949.198 630.99 948.073 629.927 947.281 628.469C946.49 627.01 946.094 625.094 946.094 622.719V589.844ZM976.062 628.188L985.031 598.188H994.688L981.094 637.094C980.802 637.948 980.406 638.865 979.906 639.844C979.427 640.823 978.771 641.75 977.938 642.625C977.125 643.521 976.094 644.25 974.844 644.812C973.615 645.375 972.104 645.656 970.312 645.656C969.458 645.656 968.76 645.604 968.219 645.5C967.677 645.396 967.031 645.25 966.281 645.062V638.469C966.51 638.469 966.75 638.469 967 638.469C967.25 638.49 967.49 638.5 967.719 638.5C968.906 638.5 969.875 638.365 970.625 638.094C971.375 637.823 971.979 637.406 972.438 636.844C972.896 636.302 973.26 635.594 973.531 634.719L976.062 628.188ZM972.312 598.188L979.656 622.688L980.938 632.219L974.812 632.875L962.656 598.188H972.312ZM1030.78 598.188V604.562H1011.09V598.188H1030.78ZM1015.97 589.844H1024.97V621.812C1024.97 622.792 1025.09 623.542 1025.34 624.062C1025.61 624.583 1026.01 624.948 1026.53 625.156C1027.05 625.344 1027.71 625.438 1028.5 625.438C1029.06 625.438 1029.56 625.417 1030 625.375C1030.46 625.312 1030.84 625.25 1031.16 625.188L1031.19 631.812C1030.42 632.062 1029.58 632.26 1028.69 632.406C1027.79 632.552 1026.8 632.625 1025.72 632.625C1023.74 632.625 1022.01 632.302 1020.53 631.656C1019.07 630.99 1017.95 629.927 1017.16 628.469C1016.36 627.01 1015.97 625.094 1015.97 622.719V589.844ZM1054.16 624.375V609.312C1054.16 608.229 1053.98 607.302 1053.62 606.531C1053.27 605.74 1052.72 605.125 1051.97 604.688C1051.24 604.25 1050.29 604.031 1049.12 604.031C1048.12 604.031 1047.26 604.208 1046.53 604.562C1045.8 604.896 1045.24 605.385 1044.84 606.031C1044.45 606.656 1044.25 607.396 1044.25 608.25H1035.25C1035.25 606.812 1035.58 605.448 1036.25 604.156C1036.92 602.865 1037.89 601.729 1039.16 600.75C1040.43 599.75 1041.94 598.969 1043.69 598.406C1045.46 597.844 1047.44 597.562 1049.62 597.562C1052.25 597.562 1054.58 598 1056.62 598.875C1058.67 599.75 1060.27 601.062 1061.44 602.812C1062.62 604.562 1063.22 606.75 1063.22 609.375V623.844C1063.22 625.698 1063.33 627.219 1063.56 628.406C1063.79 629.573 1064.12 630.594 1064.56 631.469V632H1055.47C1055.03 631.083 1054.7 629.938 1054.47 628.562C1054.26 627.167 1054.16 625.771 1054.16 624.375ZM1055.34 611.406L1055.41 616.5H1050.38C1049.19 616.5 1048.16 616.635 1047.28 616.906C1046.41 617.177 1045.69 617.562 1045.12 618.062C1044.56 618.542 1044.15 619.104 1043.88 619.75C1043.62 620.396 1043.5 621.104 1043.5 621.875C1043.5 622.646 1043.68 623.344 1044.03 623.969C1044.39 624.573 1044.9 625.052 1045.56 625.406C1046.23 625.74 1047.01 625.906 1047.91 625.906C1049.26 625.906 1050.44 625.635 1051.44 625.094C1052.44 624.552 1053.21 623.885 1053.75 623.094C1054.31 622.302 1054.6 621.552 1054.62 620.844L1057 624.656C1056.67 625.51 1056.21 626.396 1055.62 627.312C1055.06 628.229 1054.34 629.094 1053.47 629.906C1052.59 630.698 1051.54 631.354 1050.31 631.875C1049.08 632.375 1047.62 632.625 1045.94 632.625C1043.79 632.625 1041.84 632.198 1040.09 631.344C1038.36 630.469 1036.99 629.271 1035.97 627.75C1034.97 626.208 1034.47 624.458 1034.47 622.5C1034.47 620.729 1034.8 619.156 1035.47 617.781C1036.14 616.406 1037.11 615.25 1038.41 614.312C1039.72 613.354 1041.35 612.635 1043.31 612.156C1045.27 611.656 1047.54 611.406 1050.12 611.406H1055.34ZM1079.16 583.969V632H1070.16V583.969H1079.16ZM1100.47 598.188L1085.78 614.938L1077.91 622.906L1074.62 616.406L1080.88 608.469L1089.66 598.188H1100.47ZM1091.12 632L1081.12 616.375L1087.34 610.938L1101.5 632H1091.12ZM1119.28 632.625C1116.66 632.625 1114.3 632.208 1112.22 631.375C1110.14 630.521 1108.36 629.344 1106.91 627.844C1105.47 626.344 1104.36 624.604 1103.59 622.625C1102.82 620.625 1102.44 618.5 1102.44 616.25V615C1102.44 612.438 1102.8 610.094 1103.53 607.969C1104.26 605.844 1105.3 604 1106.66 602.438C1108.03 600.875 1109.7 599.677 1111.66 598.844C1113.61 597.99 1115.82 597.562 1118.28 597.562C1120.68 597.562 1122.8 597.958 1124.66 598.75C1126.51 599.542 1128.06 600.667 1129.31 602.125C1130.58 603.583 1131.54 605.333 1132.19 607.375C1132.83 609.396 1133.16 611.646 1133.16 614.125V617.875H1106.28V611.875H1124.31V611.188C1124.31 609.938 1124.08 608.823 1123.62 607.844C1123.19 606.844 1122.52 606.052 1121.62 605.469C1120.73 604.885 1119.58 604.594 1118.19 604.594C1117 604.594 1115.98 604.854 1115.12 605.375C1114.27 605.896 1113.57 606.625 1113.03 607.562C1112.51 608.5 1112.11 609.604 1111.84 610.875C1111.59 612.125 1111.47 613.5 1111.47 615V616.25C1111.47 617.604 1111.66 618.854 1112.03 620C1112.43 621.146 1112.98 622.135 1113.69 622.969C1114.42 623.802 1115.29 624.448 1116.31 624.906C1117.35 625.365 1118.53 625.594 1119.84 625.594C1121.47 625.594 1122.98 625.281 1124.38 624.656C1125.79 624.01 1127.01 623.042 1128.03 621.75L1132.41 626.5C1131.7 627.521 1130.73 628.5 1129.5 629.438C1128.29 630.375 1126.83 631.146 1125.12 631.75C1123.42 632.333 1121.47 632.625 1119.28 632.625ZM1156.56 622.656C1156.56 622.01 1156.38 621.427 1156 620.906C1155.62 620.385 1154.93 619.906 1153.91 619.469C1152.91 619.01 1151.46 618.594 1149.56 618.219C1147.85 617.844 1146.26 617.375 1144.78 616.812C1143.32 616.229 1142.05 615.531 1140.97 614.719C1139.91 613.906 1139.07 612.948 1138.47 611.844C1137.86 610.719 1137.56 609.438 1137.56 608C1137.56 606.583 1137.86 605.25 1138.47 604C1139.09 602.75 1139.98 601.646 1141.12 600.688C1142.29 599.708 1143.71 598.948 1145.38 598.406C1147.06 597.844 1148.96 597.562 1151.06 597.562C1154 597.562 1156.52 598.031 1158.62 598.969C1160.75 599.906 1162.38 601.198 1163.5 602.844C1164.65 604.469 1165.22 606.323 1165.22 608.406H1156.22C1156.22 607.531 1156.03 606.75 1155.66 606.062C1155.3 605.354 1154.74 604.802 1153.97 604.406C1153.22 603.99 1152.24 603.781 1151.03 603.781C1150.03 603.781 1149.17 603.958 1148.44 604.312C1147.71 604.646 1147.15 605.104 1146.75 605.688C1146.38 606.25 1146.19 606.875 1146.19 607.562C1146.19 608.083 1146.29 608.552 1146.5 608.969C1146.73 609.365 1147.09 609.729 1147.59 610.062C1148.09 610.396 1148.74 610.708 1149.53 611C1150.34 611.271 1151.34 611.521 1152.53 611.75C1154.97 612.25 1157.15 612.906 1159.06 613.719C1160.98 614.51 1162.5 615.594 1163.62 616.969C1164.75 618.323 1165.31 620.104 1165.31 622.312C1165.31 623.812 1164.98 625.188 1164.31 626.438C1163.65 627.688 1162.69 628.781 1161.44 629.719C1160.19 630.635 1158.69 631.354 1156.94 631.875C1155.21 632.375 1153.26 632.625 1151.09 632.625C1147.95 632.625 1145.28 632.062 1143.09 630.938C1140.93 629.812 1139.28 628.385 1138.16 626.656C1137.05 624.906 1136.5 623.115 1136.5 621.281H1145.03C1145.07 622.51 1145.39 623.5 1145.97 624.25C1146.57 625 1147.33 625.542 1148.25 625.875C1149.19 626.208 1150.2 626.375 1151.28 626.375C1152.45 626.375 1153.42 626.219 1154.19 625.906C1154.96 625.573 1155.54 625.135 1155.94 624.594C1156.35 624.031 1156.56 623.385 1156.56 622.656ZM1205.38 622.656C1205.38 622.01 1205.19 621.427 1204.81 620.906C1204.44 620.385 1203.74 619.906 1202.72 619.469C1201.72 619.01 1200.27 618.594 1198.38 618.219C1196.67 617.844 1195.07 617.375 1193.59 616.812C1192.14 616.229 1190.86 615.531 1189.78 614.719C1188.72 613.906 1187.89 612.948 1187.28 611.844C1186.68 610.719 1186.38 609.438 1186.38 608C1186.38 606.583 1186.68 605.25 1187.28 604C1187.91 602.75 1188.79 601.646 1189.94 600.688C1191.1 599.708 1192.52 598.948 1194.19 598.406C1195.88 597.844 1197.77 597.562 1199.88 597.562C1202.81 597.562 1205.33 598.031 1207.44 598.969C1209.56 599.906 1211.19 601.198 1212.31 602.844C1213.46 604.469 1214.03 606.323 1214.03 608.406H1205.03C1205.03 607.531 1204.84 606.75 1204.47 606.062C1204.11 605.354 1203.55 604.802 1202.78 604.406C1202.03 603.99 1201.05 603.781 1199.84 603.781C1198.84 603.781 1197.98 603.958 1197.25 604.312C1196.52 604.646 1195.96 605.104 1195.56 605.688C1195.19 606.25 1195 606.875 1195 607.562C1195 608.083 1195.1 608.552 1195.31 608.969C1195.54 609.365 1195.91 609.729 1196.41 610.062C1196.91 610.396 1197.55 610.708 1198.34 611C1199.16 611.271 1200.16 611.521 1201.34 611.75C1203.78 612.25 1205.96 612.906 1207.88 613.719C1209.79 614.51 1211.31 615.594 1212.44 616.969C1213.56 618.323 1214.12 620.104 1214.12 622.312C1214.12 623.812 1213.79 625.188 1213.12 626.438C1212.46 627.688 1211.5 628.781 1210.25 629.719C1209 630.635 1207.5 631.354 1205.75 631.875C1204.02 632.375 1202.07 632.625 1199.91 632.625C1196.76 632.625 1194.09 632.062 1191.91 630.938C1189.74 629.812 1188.09 628.385 1186.97 626.656C1185.86 624.906 1185.31 623.115 1185.31 621.281H1193.84C1193.89 622.51 1194.2 623.5 1194.78 624.25C1195.39 625 1196.15 625.542 1197.06 625.875C1198 626.208 1199.01 626.375 1200.09 626.375C1201.26 626.375 1202.23 626.219 1203 625.906C1203.77 625.573 1204.35 625.135 1204.75 624.594C1205.17 624.031 1205.38 623.385 1205.38 622.656ZM1235.53 632.625C1232.91 632.625 1230.55 632.208 1228.47 631.375C1226.39 630.521 1224.61 629.344 1223.16 627.844C1221.72 626.344 1220.61 624.604 1219.84 622.625C1219.07 620.625 1218.69 618.5 1218.69 616.25V615C1218.69 612.438 1219.05 610.094 1219.78 607.969C1220.51 605.844 1221.55 604 1222.91 602.438C1224.28 600.875 1225.95 599.677 1227.91 598.844C1229.86 597.99 1232.07 597.562 1234.53 597.562C1236.93 597.562 1239.05 597.958 1240.91 598.75C1242.76 599.542 1244.31 600.667 1245.56 602.125C1246.83 603.583 1247.79 605.333 1248.44 607.375C1249.08 609.396 1249.41 611.646 1249.41 614.125V617.875H1222.53V611.875H1240.56V611.188C1240.56 609.938 1240.33 608.823 1239.88 607.844C1239.44 606.844 1238.77 606.052 1237.88 605.469C1236.98 604.885 1235.83 604.594 1234.44 604.594C1233.25 604.594 1232.23 604.854 1231.38 605.375C1230.52 605.896 1229.82 606.625 1229.28 607.562C1228.76 608.5 1228.36 609.604 1228.09 610.875C1227.84 612.125 1227.72 613.5 1227.72 615V616.25C1227.72 617.604 1227.91 618.854 1228.28 620C1228.68 621.146 1229.23 622.135 1229.94 622.969C1230.67 623.802 1231.54 624.448 1232.56 624.906C1233.6 625.365 1234.78 625.594 1236.09 625.594C1237.72 625.594 1239.23 625.281 1240.62 624.656C1242.04 624.01 1243.26 623.042 1244.28 621.75L1248.66 626.5C1247.95 627.521 1246.98 628.5 1245.75 629.438C1244.54 630.375 1243.08 631.146 1241.38 631.75C1239.67 632.333 1237.72 632.625 1235.53 632.625ZM1268.5 625.594C1269.6 625.594 1270.58 625.385 1271.44 624.969C1272.29 624.531 1272.96 623.927 1273.44 623.156C1273.94 622.365 1274.2 621.438 1274.22 620.375H1282.69C1282.67 622.75 1282.03 624.865 1280.78 626.719C1279.53 628.552 1277.85 630 1275.75 631.062C1273.65 632.104 1271.29 632.625 1268.69 632.625C1266.06 632.625 1263.77 632.188 1261.81 631.312C1259.88 630.438 1258.26 629.229 1256.97 627.688C1255.68 626.125 1254.71 624.312 1254.06 622.25C1253.42 620.167 1253.09 617.938 1253.09 615.562V614.656C1253.09 612.26 1253.42 610.031 1254.06 607.969C1254.71 605.885 1255.68 604.073 1256.97 602.531C1258.26 600.969 1259.88 599.75 1261.81 598.875C1263.75 598 1266.02 597.562 1268.62 597.562C1271.4 597.562 1273.82 598.094 1275.91 599.156C1278.01 600.219 1279.66 601.74 1280.84 603.719C1282.05 605.677 1282.67 608 1282.69 610.688H1274.22C1274.2 609.562 1273.96 608.542 1273.5 607.625C1273.06 606.708 1272.42 605.979 1271.56 605.438C1270.73 604.875 1269.7 604.594 1268.47 604.594C1267.16 604.594 1266.08 604.875 1265.25 605.438C1264.42 605.979 1263.77 606.729 1263.31 607.688C1262.85 608.625 1262.53 609.698 1262.34 610.906C1262.18 612.094 1262.09 613.344 1262.09 614.656V615.562C1262.09 616.875 1262.18 618.135 1262.34 619.344C1262.51 620.552 1262.82 621.625 1263.28 622.562C1263.76 623.5 1264.42 624.24 1265.25 624.781C1266.08 625.323 1267.17 625.594 1268.5 625.594ZM1286.47 615.438V614.781C1286.47 612.302 1286.82 610.021 1287.53 607.938C1288.24 605.833 1289.27 604.01 1290.62 602.469C1291.98 600.927 1293.65 599.729 1295.62 598.875C1297.6 598 1299.88 597.562 1302.44 597.562C1305 597.562 1307.28 598 1309.28 598.875C1311.28 599.729 1312.96 600.927 1314.31 602.469C1315.69 604.01 1316.73 605.833 1317.44 607.938C1318.15 610.021 1318.5 612.302 1318.5 614.781V615.438C1318.5 617.896 1318.15 620.177 1317.44 622.281C1316.73 624.365 1315.69 626.188 1314.31 627.75C1312.96 629.292 1311.29 630.49 1309.31 631.344C1307.33 632.198 1305.06 632.625 1302.5 632.625C1299.94 632.625 1297.66 632.198 1295.66 631.344C1293.68 630.49 1292 629.292 1290.62 627.75C1289.27 626.188 1288.24 624.365 1287.53 622.281C1286.82 620.177 1286.47 617.896 1286.47 615.438ZM1295.47 614.781V615.438C1295.47 616.854 1295.59 618.177 1295.84 619.406C1296.09 620.635 1296.49 621.719 1297.03 622.656C1297.59 623.573 1298.32 624.292 1299.22 624.812C1300.11 625.333 1301.21 625.594 1302.5 625.594C1303.75 625.594 1304.82 625.333 1305.72 624.812C1306.61 624.292 1307.33 623.573 1307.88 622.656C1308.42 621.719 1308.81 620.635 1309.06 619.406C1309.33 618.177 1309.47 616.854 1309.47 615.438V614.781C1309.47 613.406 1309.33 612.115 1309.06 610.906C1308.81 609.677 1308.41 608.594 1307.84 607.656C1307.3 606.698 1306.58 605.948 1305.69 605.406C1304.79 604.865 1303.71 604.594 1302.44 604.594C1301.17 604.594 1300.08 604.865 1299.19 605.406C1298.31 605.948 1297.59 606.698 1297.03 607.656C1296.49 608.594 1296.09 609.677 1295.84 610.906C1295.59 612.115 1295.47 613.406 1295.47 614.781ZM1332.84 605.406V632H1323.84V598.188H1332.28L1332.84 605.406ZM1331.53 613.906H1329.09C1329.09 611.406 1329.42 609.156 1330.06 607.156C1330.71 605.135 1331.61 603.417 1332.78 602C1333.95 600.562 1335.33 599.469 1336.94 598.719C1338.56 597.948 1340.38 597.562 1342.38 597.562C1343.96 597.562 1345.41 597.792 1346.72 598.25C1348.03 598.708 1349.16 599.438 1350.09 600.438C1351.05 601.438 1351.78 602.76 1352.28 604.406C1352.8 606.052 1353.06 608.062 1353.06 610.438V632H1344V610.406C1344 608.906 1343.79 607.74 1343.38 606.906C1342.96 606.073 1342.34 605.49 1341.53 605.156C1340.74 604.802 1339.76 604.625 1338.59 604.625C1337.39 604.625 1336.33 604.865 1335.44 605.344C1334.56 605.823 1333.83 606.49 1333.25 607.344C1332.69 608.177 1332.26 609.156 1331.97 610.281C1331.68 611.406 1331.53 612.615 1331.53 613.906ZM1379.88 624.625V584H1388.94V632H1380.78L1379.88 624.625ZM1358.5 615.5V614.844C1358.5 612.26 1358.79 609.917 1359.38 607.812C1359.96 605.688 1360.81 603.865 1361.94 602.344C1363.06 600.823 1364.45 599.646 1366.09 598.812C1367.74 597.979 1369.61 597.562 1371.72 597.562C1373.7 597.562 1375.43 597.979 1376.91 598.812C1378.41 599.646 1379.68 600.833 1380.72 602.375C1381.78 603.896 1382.64 605.698 1383.28 607.781C1383.93 609.844 1384.4 612.104 1384.69 614.562V616C1384.4 618.354 1383.93 620.542 1383.28 622.562C1382.64 624.583 1381.78 626.354 1380.72 627.875C1379.68 629.375 1378.41 630.542 1376.91 631.375C1375.41 632.208 1373.66 632.625 1371.66 632.625C1369.55 632.625 1367.68 632.198 1366.03 631.344C1364.41 630.49 1363.03 629.292 1361.91 627.75C1360.8 626.208 1359.96 624.396 1359.38 622.312C1358.79 620.229 1358.5 617.958 1358.5 615.5ZM1367.5 614.844V615.5C1367.5 616.896 1367.6 618.198 1367.81 619.406C1368.04 620.615 1368.41 621.688 1368.91 622.625C1369.43 623.542 1370.09 624.26 1370.91 624.781C1371.74 625.281 1372.75 625.531 1373.94 625.531C1375.48 625.531 1376.75 625.188 1377.75 624.5C1378.75 623.792 1379.51 622.823 1380.03 621.594C1380.57 620.365 1380.89 618.948 1380.97 617.344V613.25C1380.91 611.938 1380.72 610.76 1380.41 609.719C1380.11 608.656 1379.68 607.75 1379.09 607C1378.53 606.25 1377.82 605.667 1376.97 605.25C1376.14 604.833 1375.15 604.625 1374 604.625C1372.83 604.625 1371.83 604.896 1371 605.438C1370.17 605.958 1369.49 606.677 1368.97 607.594C1368.47 608.51 1368.09 609.594 1367.84 610.844C1367.61 612.073 1367.5 613.406 1367.5 614.844ZM1414.25 622.656C1414.25 622.01 1414.06 621.427 1413.69 620.906C1413.31 620.385 1412.61 619.906 1411.59 619.469C1410.59 619.01 1409.15 618.594 1407.25 618.219C1405.54 617.844 1403.95 617.375 1402.47 616.812C1401.01 616.229 1399.74 615.531 1398.66 614.719C1397.59 613.906 1396.76 612.948 1396.16 611.844C1395.55 610.719 1395.25 609.438 1395.25 608C1395.25 606.583 1395.55 605.25 1396.16 604C1396.78 602.75 1397.67 601.646 1398.81 600.688C1399.98 599.708 1401.4 598.948 1403.06 598.406C1404.75 597.844 1406.65 597.562 1408.75 597.562C1411.69 597.562 1414.21 598.031 1416.31 598.969C1418.44 599.906 1420.06 601.198 1421.19 602.844C1422.33 604.469 1422.91 606.323 1422.91 608.406H1413.91C1413.91 607.531 1413.72 606.75 1413.34 606.062C1412.99 605.354 1412.43 604.802 1411.66 604.406C1410.91 603.99 1409.93 603.781 1408.72 603.781C1407.72 603.781 1406.85 603.958 1406.12 604.312C1405.4 604.646 1404.83 605.104 1404.44 605.688C1404.06 606.25 1403.88 606.875 1403.88 607.562C1403.88 608.083 1403.98 608.552 1404.19 608.969C1404.42 609.365 1404.78 609.729 1405.28 610.062C1405.78 610.396 1406.43 610.708 1407.22 611C1408.03 611.271 1409.03 611.521 1410.22 611.75C1412.66 612.25 1414.83 612.906 1416.75 613.719C1418.67 614.51 1420.19 615.594 1421.31 616.969C1422.44 618.323 1423 620.104 1423 622.312C1423 623.812 1422.67 625.188 1422 626.438C1421.33 627.688 1420.38 628.781 1419.12 629.719C1417.88 630.635 1416.38 631.354 1414.62 631.875C1412.9 632.375 1410.95 632.625 1408.78 632.625C1405.64 632.625 1402.97 632.062 1400.78 630.938C1398.61 629.812 1396.97 628.385 1395.84 626.656C1394.74 624.906 1394.19 623.115 1394.19 621.281H1402.72C1402.76 622.51 1403.07 623.5 1403.66 624.25C1404.26 625 1405.02 625.542 1405.94 625.875C1406.88 626.208 1407.89 626.375 1408.97 626.375C1410.14 626.375 1411.1 626.219 1411.88 625.906C1412.65 625.573 1413.23 625.135 1413.62 624.594C1414.04 624.031 1414.25 623.385 1414.25 622.656Z" fill="#151C26"/>
<defs>
<clipPath id="clip0_1_183">
<rect width="1920" height="171.6" fill="white"/>
</clipPath>
</defs>
</svg>
