<svg width="605" height="91" viewBox="0 0 605 91" fill="none" xmlns="http://www.w3.org/2000/svg">
<path d="M2.59038 70.168C1.43838 69.528 0.798375 68.824 0.670375 68.056C0.606375 67.288 1.05438 65.944 2.01438 64.024C2.97438 62.104 4.47838 59.128 6.52638 55.096C8.06238 52.216 9.08638 49.976 9.59838 48.376C10.1744 46.712 10.4944 45.528 10.5584 44.824C10.6224 44.12 10.6544 43.672 10.6544 43.48C10.5264 42.904 10.5904 42.456 10.8464 42.136C11.1024 41.752 11.5184 41.432 12.0944 41.176C12.4144 40.856 13.1504 40.28 14.3024 39.448C15.4544 38.616 16.3504 37.624 16.9904 36.472C17.5664 35.128 18.2064 33.752 18.9104 32.344C19.6784 30.936 20.6704 29.176 21.8864 27.064C23.1024 24.888 24.7344 22.072 26.7824 18.616C28.0624 16.376 29.5664 13.848 31.2944 11.032C33.0864 8.216 34.8464 5.656 36.5744 3.352C37.2784 2.456 38.0144 1.752 38.7824 1.23999C39.5504 0.727997 40.2224 0.471998 40.7984 0.471998C42.2064 0.471998 43.6144 0.855997 45.0224 1.62399C46.4304 2.328 47.6784 3.224 48.7664 4.31199C49.8544 5.4 50.5904 6.424 50.9744 7.384C51.2944 7.896 51.4224 8.984 51.3584 10.648C51.2944 12.312 51.1664 14.328 50.9744 16.696C50.7824 19.064 50.5584 21.592 50.3024 24.28C50.1104 26.904 49.8224 30.008 49.4384 33.592C49.0544 37.176 48.6704 40.92 48.2864 44.824C47.9664 48.728 47.7104 52.504 47.5184 56.152C47.3264 59.736 47.3264 62.872 47.5184 65.56C47.5824 66.136 47.5824 66.68 47.5184 67.192C47.4544 67.704 47.4224 68.12 47.4224 68.44C47.0384 68.824 46.2064 68.984 44.9264 68.92C43.6464 68.92 42.3984 68.728 41.1824 68.344C39.9664 67.96 39.2944 67.48 39.1664 66.904C38.9744 66.712 38.8464 66.552 38.7824 66.424C38.7184 66.296 38.7184 65.688 38.7824 64.6C38.8464 63.448 38.9424 61.368 39.0704 58.36L39.5504 43.672L38.3024 43.768C37.7264 43.768 36.6704 43.832 35.1344 43.96C33.6624 44.088 32.0304 44.28 30.2384 44.536C28.5104 44.728 26.9104 44.952 25.4384 45.208C23.9664 45.4 22.9424 45.592 22.3664 45.784C21.7904 45.784 21.0864 46.168 20.2544 46.936C19.4864 47.704 18.7504 48.696 18.0464 49.912C17.7904 50.808 17.3104 51.768 16.6064 52.792C15.9664 53.752 15.6464 54.392 15.6464 54.712C15.1984 55.032 14.8144 55.416 14.4944 55.864C14.2384 56.312 14.1104 56.536 14.1104 56.536C14.1104 56.92 13.8224 57.88 13.2464 59.416C12.6704 60.888 11.9664 62.552 11.1344 64.408C10.3024 66.2 9.43838 67.768 8.54238 69.112L5.95038 72.76L2.59038 70.168ZM25.5344 37.144C25.5344 37.144 25.8864 37.08 26.5904 36.952C27.2944 36.824 28.1264 36.696 29.0864 36.568C30.1104 36.376 31.0064 36.28 31.7744 36.28C33.2464 35.896 34.4624 35.608 35.4224 35.416C36.4464 35.224 37.2784 35.128 37.9184 35.128C38.5584 35.064 39.0704 35.128 39.4544 35.32C39.7104 35.64 39.9344 35.832 40.1264 35.896C40.3824 35.96 40.5104 35.992 40.5104 35.992C40.5744 35.864 40.7024 35.192 40.8944 33.976C41.0864 32.76 41.3104 31.256 41.5664 29.464C41.8224 27.672 42.0784 25.816 42.3344 23.896C42.5904 21.912 42.8144 20.088 43.0064 18.424C43.1984 16.696 43.3264 15.352 43.3904 14.392C43.4544 13.176 43.4224 12.088 43.2944 11.128C43.1664 10.104 43.1024 9.592 43.1024 9.592C42.7184 9.592 41.9824 10.296 40.8944 11.704C39.8704 13.048 38.6544 14.872 37.2464 17.176C35.9024 19.416 34.5584 21.848 33.2144 24.472C32.5744 25.688 31.9664 26.648 31.3904 27.352C30.8784 28.056 30.4624 28.408 30.1424 28.408C30.0144 28.536 29.6624 29.048 29.0864 29.944C28.5744 30.776 27.9984 31.736 27.3584 32.824C26.7824 33.848 26.2704 34.808 25.8224 35.704C25.4384 36.536 25.3424 37.016 25.5344 37.144ZM66.9816 67.384C65.1256 67.704 63.2696 67.544 61.4136 66.904C59.6216 66.264 58.1176 65.24 56.9016 63.832C55.7496 62.36 55.1736 60.6 55.1736 58.552C54.9816 56.632 55.1416 54.36 55.6536 51.736C56.2296 49.048 57.0616 46.36 58.1496 43.672C59.3016 40.984 60.6136 38.712 62.0856 36.856C63.3656 35.32 64.6456 33.912 65.9256 32.632C67.2056 31.352 68.3576 30.488 69.3816 30.04C70.2776 29.656 71.3656 29.368 72.6456 29.176C73.9896 28.92 74.9176 28.792 75.4296 28.792C76.4536 29.048 77.5736 29.464 78.7896 30.04C80.0696 30.616 80.7096 31.288 80.7096 32.056C80.7096 32.056 80.7736 32.152 80.9016 32.344C81.0936 32.472 81.1896 32.536 81.1896 32.536C81.5736 32.536 81.9896 33.016 82.4376 33.976C82.9496 34.872 83.3336 35.928 83.5896 37.144C83.8456 38.296 83.7816 39.224 83.3976 39.928C83.1416 41.144 82.6296 42.328 81.8616 43.48C81.1576 44.632 80.5496 45.208 80.0376 45.208C79.7816 45.208 79.5256 45.24 79.2696 45.304C79.0776 45.304 78.9816 45.464 78.9816 45.784C78.9816 46.104 78.6296 46.264 77.9256 46.264C77.2856 46.264 76.6136 46.136 75.9096 45.88C75.2056 45.624 74.7576 45.24 74.5656 44.728C74.5656 44.408 74.6296 43.992 74.7576 43.48C74.8856 42.968 75.0776 42.104 75.3336 40.888C75.7176 39.096 75.7496 37.912 75.4296 37.336C75.1096 36.696 74.3096 36.632 73.0296 37.144C71.4296 38.04 70.1176 39.096 69.0936 40.312C68.0696 41.464 67.1416 43.096 66.3096 45.208C65.5416 47.32 64.6776 50.264 63.7176 54.04C63.3336 55.512 63.2696 56.664 63.5256 57.496C63.8456 58.328 64.1016 58.776 64.2936 58.84C65.1896 59.096 66.1496 59.16 67.1736 59.032C68.2616 58.84 69.1576 58.552 69.8616 58.168C70.8856 57.656 71.7816 57.112 72.5496 56.536C73.3816 55.896 74.2776 55.224 75.2376 54.52C75.5576 54.328 75.8456 53.976 76.1016 53.464C76.3576 52.888 76.7416 52.472 77.2536 52.216C77.7656 51.448 78.4056 51.064 79.1736 51.064C80.0056 51 80.8056 50.968 81.5736 50.968C82.0856 51.096 82.6296 51.416 83.2056 51.928C83.7816 52.44 84.1976 52.952 84.4536 53.464C84.7736 53.912 84.7416 54.232 84.3576 54.424C84.1016 54.424 83.9416 54.52 83.8776 54.712C83.8776 54.84 83.8776 54.904 83.8776 54.904C84.0056 55.16 83.7176 55.736 83.0136 56.632C82.3736 57.528 81.5416 58.488 80.5176 59.512C79.4936 60.536 78.5016 61.432 77.5416 62.2C76.6456 62.904 76.0056 63.256 75.6216 63.256C74.9816 63.256 74.6616 63.448 74.6616 63.832C74.6616 63.96 74.1816 64.28 73.2216 64.792C72.3256 65.304 71.2696 65.816 70.0536 66.328C68.9016 66.84 67.8776 67.192 66.9816 67.384ZM102.814 67.576C101.918 67.32 101.022 66.872 100.126 66.232C99.2304 65.592 98.3024 64.856 97.3424 64.024C96.5744 63 96.0304 62.072 95.7104 61.24C95.3904 60.344 95.1984 59.32 95.1344 58.168C95.1344 56.952 95.1344 55.416 95.1344 53.56C95.1344 52.792 95.2624 51.704 95.5184 50.296C95.8384 48.888 96.1584 47.416 96.4784 45.88C96.8624 44.344 97.2144 43 97.5344 41.848C97.8544 40.632 98.0464 39.832 98.1104 39.448C98.3024 38.616 97.9824 38.136 97.1504 38.008C96.3184 37.88 95.3904 37.848 94.3664 37.912C93.4064 37.912 92.7664 37.816 92.4464 37.624C92.1904 37.56 92.0624 37.24 92.0624 36.664C92.0624 36.024 92.0624 35.704 92.0624 35.704C92.0624 35.448 91.9344 35.288 91.6784 35.224C91.4224 35.096 91.1984 34.872 91.0064 34.552C90.8784 34.296 91.0384 33.816 91.4864 33.112C91.9344 32.408 92.5104 31.992 93.2144 31.864C93.7904 31.736 94.6544 31.64 95.8064 31.576C96.9584 31.448 98.1104 31.224 99.2624 30.904C100.478 30.52 101.406 29.944 102.046 29.176C102.622 27.768 103.262 26.264 103.966 24.664C104.67 23 105.342 21.56 105.982 20.344C106.622 19.064 107.07 18.264 107.326 17.944C108.414 17.368 109.534 17.144 110.686 17.272C111.838 17.336 112.734 17.88 113.374 18.904C113.694 19.352 113.95 19.672 114.142 19.864C114.398 20.056 114.494 20.344 114.43 20.728C114.43 21.112 114.174 21.816 113.662 22.84C113.214 23.8 112.446 25.304 111.358 27.352C111.038 27.992 110.75 28.568 110.494 29.08C110.238 29.528 110.11 29.752 110.11 29.752C110.366 29.816 110.75 29.848 111.262 29.848C111.774 29.848 112.414 29.816 113.182 29.752C113.886 29.624 114.654 29.528 115.486 29.464C116.318 29.336 117.054 29.336 117.694 29.464C119.166 29.464 120.254 29.88 120.958 30.712C121.662 31.544 122.046 32.6 122.11 33.88C122.238 34.584 121.982 35.192 121.342 35.704C120.702 36.216 119.518 36.472 117.79 36.472C117.214 36.472 116.382 36.504 115.294 36.568C114.206 36.632 113.086 36.696 111.934 36.76C110.782 36.824 109.79 36.92 108.958 37.048C108.19 37.112 107.806 37.208 107.806 37.336C107.614 37.464 107.294 37.976 106.846 38.872C106.462 39.704 106.046 40.728 105.598 41.944C105.214 43.16 104.862 44.312 104.542 45.4C104.094 47.576 103.774 49.688 103.582 51.736C103.39 53.784 103.358 55.576 103.486 57.112C103.678 58.584 104.062 59.64 104.638 60.28C105.214 60.856 106.078 60.856 107.23 60.28C108.446 59.64 109.566 58.904 110.59 58.072C111.742 57.112 112.734 56.824 113.566 57.208C114.398 57.528 114.91 58.232 115.102 59.32C115.358 60.344 115.07 61.464 114.238 62.68C113.47 63.896 112.382 64.92 110.974 65.752C109.566 66.584 108.126 67.16 106.654 67.48C105.182 67.864 103.902 67.896 102.814 67.576ZM122.404 65.368C121.892 64.856 121.508 64.088 121.252 63.064C121.06 62.04 120.996 61.048 121.06 60.088C121.124 59.064 121.284 58.296 121.54 57.784C121.54 57.272 121.604 56.888 121.732 56.632C121.924 56.312 121.988 56.024 121.924 55.768C121.86 55.512 121.924 55.064 122.116 54.424C122.308 53.784 122.5 53.176 122.692 52.6C123.14 51.576 123.652 50.264 124.228 48.664C124.804 47 125.38 45.336 125.956 43.672C126.532 41.944 127.012 40.472 127.396 39.256C127.78 37.976 128.004 37.208 128.068 36.952C128.068 36.184 128.58 35.768 129.604 35.704C130.372 35.448 131.3 35.768 132.388 36.664C133.476 37.56 134.34 38.52 134.98 39.544C135.492 40.056 135.684 40.728 135.556 41.56C135.428 42.392 135.012 43.576 134.308 45.112C134.052 45.624 133.732 46.488 133.348 47.704C133.028 48.856 132.804 49.816 132.676 50.584C132.42 51.096 132.1 51.832 131.716 52.792C131.396 53.688 131.108 54.552 130.852 55.384C130.724 55.704 130.596 56.312 130.468 57.208C130.34 58.04 130.18 58.904 129.988 59.8C129.796 60.696 129.54 61.4 129.22 61.912C128.644 64.536 127.62 66.072 126.148 66.52C124.74 66.968 123.492 66.584 122.404 65.368ZM132.772 26.872C132.068 26.36 131.524 25.752 131.14 25.048C130.82 24.28 130.628 23.608 130.564 23.032C130.564 22.456 130.628 22.104 130.756 21.976C131.396 21.272 131.94 20.344 132.388 19.192C132.9 18.04 133.444 16.984 134.02 16.024C134.148 15.832 134.308 15.576 134.5 15.256C134.756 14.872 135.012 14.648 135.268 14.584C136.036 14.072 137.092 14.104 138.436 14.68C139.844 15.256 140.868 16.056 141.508 17.08C142.084 18.296 142.244 19.544 141.988 20.824C141.796 22.104 141.124 23.448 139.972 24.856C139.012 26.136 137.796 26.968 136.324 27.352C134.852 27.672 133.668 27.512 132.772 26.872ZM136.831 90.328C136.383 90.136 135.679 89.656 134.719 88.888C133.823 88.12 132.991 87.288 132.223 86.392C131.519 85.56 131.167 84.952 131.167 84.568C131.167 84.184 131.327 83.16 131.647 81.496C131.967 79.896 132.383 77.912 132.895 75.544C133.471 73.24 134.079 70.872 134.719 68.44C135.423 66.072 136.127 63.96 136.831 62.104C136.959 61.784 137.375 60.728 138.079 58.936C138.847 57.08 139.583 54.84 140.287 52.216C140.799 50.552 141.471 48.664 142.303 46.552C143.135 44.44 143.999 42.328 144.895 40.216C145.791 38.04 146.527 36.12 147.103 34.456C147.679 32.792 148.319 31.128 149.023 29.464C149.727 27.736 150.111 26.744 150.175 26.488C150.303 26.104 150.655 25.784 151.231 25.528C151.871 25.208 152.511 24.952 153.151 24.76C153.791 24.504 154.207 24.344 154.399 24.28C155.551 23.96 156.543 24.44 157.375 25.72C157.695 26.296 157.759 27.096 157.567 28.12C157.439 29.08 157.119 30.136 156.607 31.288L155.935 33.208L159.391 32.44C159.967 32.44 160.767 32.472 161.791 32.536C162.815 32.6 163.807 32.664 164.767 32.728C165.791 32.792 166.495 32.888 166.879 33.016C168.415 33.08 169.471 33.368 170.047 33.88C170.687 34.392 171.231 35.064 171.679 35.896C171.999 36.216 172.383 36.664 172.831 37.24C173.279 37.752 173.535 38.264 173.599 38.776C173.855 39.864 173.759 41.144 173.311 42.616C172.927 44.088 172.319 45.592 171.487 47.128C170.719 48.6 169.791 49.976 168.703 51.256C167.679 52.472 166.687 53.4 165.727 54.04C165.087 54.296 164.511 54.584 163.999 54.904C163.487 55.16 163.231 55.288 163.231 55.288C163.167 55.608 162.495 56.152 161.215 56.92C159.999 57.688 158.559 58.424 156.895 59.128C155.295 59.768 153.855 60.184 152.575 60.376C152.127 60.44 151.487 60.504 150.655 60.568C149.823 60.632 149.183 60.536 148.735 60.28C148.031 60.152 147.551 60.088 147.295 60.088C147.039 60.088 146.911 60.216 146.911 60.472C146.847 60.6 146.399 61.624 145.567 63.544C144.735 65.464 143.871 68.12 142.975 71.512C141.759 75.224 140.767 78.264 139.999 80.632C139.231 83.064 138.623 84.952 138.175 86.296C137.791 87.64 137.503 88.6 137.311 89.176C137.119 89.816 136.959 90.2 136.831 90.328ZM149.215 52.024C149.407 52.408 150.079 52.536 151.231 52.408C152.383 52.216 153.695 51.832 155.167 51.256C156.639 50.68 157.951 50.008 159.103 49.24C160.319 48.408 161.023 47.544 161.215 46.648C162.623 45.048 163.615 43.896 164.191 43.192C164.767 42.424 164.735 41.816 164.095 41.368C163.391 40.344 162.367 39.864 161.023 39.928C159.743 39.992 157.695 40.792 154.879 42.328C153.791 42.712 153.055 43.064 152.671 43.384C152.287 43.64 151.967 44.056 151.711 44.632C151.519 45.208 151.135 46.136 150.559 47.416C149.983 48.824 149.599 49.88 149.407 50.584C149.215 51.288 149.151 51.768 149.215 52.024ZM185.785 65.656C185.273 65.784 184.601 65.848 183.769 65.848C182.937 65.784 182.201 65.688 181.561 65.56C180.985 65.368 180.697 65.176 180.697 64.984C180.697 64.664 180.537 64.504 180.217 64.504C180.217 64.504 179.865 64.248 179.161 63.736C178.457 63.16 177.817 62.744 177.241 62.488C176.665 61.592 176.281 60.568 176.089 59.416C175.961 58.2 176.345 56.088 177.241 53.08C177.305 51.032 177.881 48.888 178.969 46.648C180.057 44.344 181.433 42.104 183.097 39.928C184.761 37.752 186.489 35.832 188.281 34.168C190.073 32.44 191.673 31.16 193.081 30.328C193.977 29.432 195.161 28.952 196.633 28.888C198.169 28.824 199.513 29.112 200.665 29.752C201.305 30.072 202.009 30.712 202.777 31.672C203.545 32.632 204.281 33.656 204.985 34.744C205.689 35.768 206.233 36.696 206.617 37.528C206.809 38.232 206.969 38.872 207.097 39.448C207.289 39.96 207.417 40.6 207.481 41.368C207.545 42.136 207.481 43.288 207.289 44.824C206.969 45.976 206.681 47.16 206.425 48.376C206.233 49.528 206.137 50.712 206.137 51.928C206.009 53.144 206.137 54.008 206.521 54.52C206.969 55.032 207.609 55.064 208.441 54.616C209.209 54.232 210.009 54.2 210.841 54.52C211.673 54.776 212.249 55.288 212.569 56.056C212.953 56.76 212.857 57.688 212.281 58.84C211.897 59.672 211.289 60.472 210.457 61.24C209.625 62.008 208.697 62.648 207.673 63.16C206.649 63.608 205.657 63.832 204.697 63.832C203.993 63.832 203.289 63.576 202.585 63.064C201.881 62.488 201.241 61.72 200.665 60.76C200.089 59.8 199.609 58.744 199.225 57.592L198.649 55.384L195.193 58.552C194.361 59.448 193.529 60.28 192.697 61.048C191.929 61.752 191.449 62.264 191.257 62.584C190.937 63.16 190.297 63.672 189.337 64.12C188.441 64.568 187.257 65.08 185.785 65.656ZM188.377 56.44C189.465 55.8 190.393 55.032 191.161 54.136C191.993 53.24 192.793 52.248 193.561 51.16C194.329 50.008 195.161 48.792 196.057 47.512C197.145 46.04 197.913 44.856 198.361 43.96C198.873 43.064 199.257 42.104 199.513 41.08C199.257 40.376 198.905 39.64 198.457 38.872C198.009 38.04 197.561 37.592 197.113 37.528C196.217 37.528 195.129 38.072 193.849 39.16C192.633 40.248 191.289 41.816 189.817 43.864C189.561 44.184 189.241 44.696 188.857 45.4C188.473 46.104 188.089 46.776 187.705 47.416C187.385 47.992 187.161 48.376 187.033 48.568C186.841 48.824 186.553 49.432 186.169 50.392C185.849 51.288 185.561 52.216 185.305 53.176C185.049 54.072 184.921 54.712 184.921 55.096C184.921 55.48 184.953 55.896 185.017 56.344C185.145 56.792 185.465 57.08 185.977 57.208C186.489 57.336 187.289 57.08 188.377 56.44ZM228.232 67.384C226.376 67.704 224.52 67.544 222.664 66.904C220.872 66.264 219.368 65.24 218.152 63.832C217 62.36 216.424 60.6 216.424 58.552C216.232 56.632 216.392 54.36 216.904 51.736C217.48 49.048 218.312 46.36 219.4 43.672C220.552 40.984 221.864 38.712 223.336 36.856C224.616 35.32 225.896 33.912 227.176 32.632C228.456 31.352 229.608 30.488 230.632 30.04C231.528 29.656 232.616 29.368 233.896 29.176C235.24 28.92 236.168 28.792 236.68 28.792C237.704 29.048 238.824 29.464 240.04 30.04C241.32 30.616 241.96 31.288 241.96 32.056C241.96 32.056 242.024 32.152 242.152 32.344C242.344 32.472 242.44 32.536 242.44 32.536C242.824 32.536 243.24 33.016 243.688 33.976C244.2 34.872 244.584 35.928 244.84 37.144C245.096 38.296 245.032 39.224 244.648 39.928C244.392 41.144 243.88 42.328 243.112 43.48C242.408 44.632 241.8 45.208 241.288 45.208C241.032 45.208 240.776 45.24 240.52 45.304C240.328 45.304 240.232 45.464 240.232 45.784C240.232 46.104 239.88 46.264 239.176 46.264C238.536 46.264 237.864 46.136 237.16 45.88C236.456 45.624 236.008 45.24 235.816 44.728C235.816 44.408 235.88 43.992 236.008 43.48C236.136 42.968 236.328 42.104 236.584 40.888C236.968 39.096 237 37.912 236.68 37.336C236.36 36.696 235.56 36.632 234.28 37.144C232.68 38.04 231.368 39.096 230.344 40.312C229.32 41.464 228.392 43.096 227.56 45.208C226.792 47.32 225.928 50.264 224.968 54.04C224.584 55.512 224.52 56.664 224.776 57.496C225.096 58.328 225.352 58.776 225.544 58.84C226.44 59.096 227.4 59.16 228.424 59.032C229.512 58.84 230.408 58.552 231.112 58.168C232.136 57.656 233.032 57.112 233.8 56.536C234.632 55.896 235.528 55.224 236.488 54.52C236.808 54.328 237.096 53.976 237.352 53.464C237.608 52.888 237.992 52.472 238.504 52.216C239.016 51.448 239.656 51.064 240.424 51.064C241.256 51 242.056 50.968 242.824 50.968C243.336 51.096 243.88 51.416 244.456 51.928C245.032 52.44 245.448 52.952 245.704 53.464C246.024 53.912 245.992 54.232 245.608 54.424C245.352 54.424 245.192 54.52 245.128 54.712C245.128 54.84 245.128 54.904 245.128 54.904C245.256 55.16 244.968 55.736 244.264 56.632C243.624 57.528 242.792 58.488 241.768 59.512C240.744 60.536 239.752 61.432 238.792 62.2C237.896 62.904 237.256 63.256 236.872 63.256C236.232 63.256 235.912 63.448 235.912 63.832C235.912 63.96 235.432 64.28 234.472 64.792C233.576 65.304 232.52 65.816 231.304 66.328C230.152 66.84 229.128 67.192 228.232 67.384ZM258.016 66.136C255.52 65.112 253.792 63.448 252.832 61.144C251.872 58.84 251.616 55.768 252.064 51.928C252.192 49.944 252.128 48.632 251.872 47.992C251.616 47.288 251.136 46.616 250.432 45.976C250.24 45.72 249.792 45.304 249.088 44.728C248.384 44.088 248.064 43.608 248.128 43.288C248.064 42.84 248.16 42.296 248.416 41.656C248.672 40.952 248.896 40.568 249.088 40.504C249.536 40.312 249.984 40.088 250.432 39.832C250.944 39.576 251.328 39.512 251.584 39.64C251.84 39.64 252.224 39.8 252.736 40.12C253.312 40.44 253.6 40.728 253.6 40.984C253.856 41.432 254.24 41.24 254.752 40.408C255.328 39.576 255.936 38.52 256.576 37.24C257.216 36.216 258.016 35.256 258.976 34.36C259.936 33.464 260.896 32.664 261.856 31.96C262.88 31.192 263.744 30.616 264.448 30.232C264.768 30.104 265.376 29.912 266.272 29.656C267.232 29.4 268.224 29.208 269.248 29.08C270.272 28.888 271.04 28.824 271.552 28.888C272.704 28.952 273.92 29.432 275.2 30.328C276.48 31.224 277.472 32.056 278.176 32.824C279.008 33.4 279.552 34.296 279.808 35.512C280.128 36.664 280.256 37.88 280.192 39.16C280.128 40.44 279.872 41.528 279.424 42.424C279.232 43.064 278.56 43.96 277.408 45.112C276.256 46.264 274.976 47.384 273.568 48.472C272.224 49.496 271.072 50.2 270.112 50.584C269.28 50.776 268.288 50.936 267.136 51.064C265.984 51.128 264.896 51.128 263.872 51.064C262.912 50.936 262.24 50.776 261.856 50.584C261.408 50.328 261.024 50.424 260.704 50.872C260.448 51.256 260.224 52.344 260.032 54.136C259.968 54.84 259.968 55.448 260.032 55.96C260.16 56.472 260.288 56.856 260.416 57.112C260.864 57.88 261.312 58.456 261.76 58.84C262.208 59.16 263.04 59.256 264.256 59.128C265.472 59 266.688 58.264 267.904 56.92C269.184 55.512 270.336 54.392 271.36 53.56C271.616 53.112 272.16 52.824 272.992 52.696C273.888 52.504 274.944 52.568 276.16 52.888C276.864 53.336 277.184 54.04 277.12 55C277.12 55.96 276.608 57.368 275.584 59.224C275.392 59.672 274.848 60.344 273.952 61.24C273.12 62.072 272.192 62.936 271.168 63.832C270.208 64.664 269.408 65.272 268.768 65.656C266.848 66.68 264.96 67.16 263.104 67.096C261.248 67.032 259.552 66.712 258.016 66.136ZM265.12 44.536C266.08 44.28 266.88 44.024 267.52 43.768C268.224 43.512 268.896 43.096 269.536 42.52C270.176 41.944 270.912 41.08 271.744 39.928C272 39.224 272.128 38.616 272.128 38.104C272.192 37.592 272.16 37.272 272.032 37.144C271.52 36.632 270.944 36.472 270.304 36.664C269.728 36.792 269.088 37.112 268.384 37.624C267.936 37.816 267.296 38.232 266.464 38.872C265.696 39.448 264.928 40.12 264.16 40.888C263.456 41.592 262.88 42.264 262.432 42.904C262.048 43.48 261.984 43.832 262.24 43.96C262.112 44.216 262.464 44.376 263.296 44.44C264.192 44.504 264.8 44.536 265.12 44.536ZM303.153 70.168C302.001 69.528 301.361 68.824 301.233 68.056C301.169 67.288 301.617 65.944 302.577 64.024C303.537 62.104 305.041 59.128 307.089 55.096C308.625 52.216 309.649 49.976 310.161 48.376C310.737 46.712 311.057 45.528 311.121 44.824C311.185 44.12 311.217 43.672 311.217 43.48C311.089 42.904 311.153 42.456 311.409 42.136C311.665 41.752 312.081 41.432 312.657 41.176C312.977 40.856 313.713 40.28 314.865 39.448C316.017 38.616 316.913 37.624 317.553 36.472C318.129 35.128 318.769 33.752 319.473 32.344C320.241 30.936 321.233 29.176 322.449 27.064C323.665 24.888 325.297 22.072 327.345 18.616C328.625 16.376 330.129 13.848 331.857 11.032C333.649 8.216 335.409 5.656 337.137 3.352C337.841 2.456 338.577 1.752 339.345 1.23999C340.113 0.727997 340.785 0.471998 341.361 0.471998C342.769 0.471998 344.177 0.855997 345.585 1.62399C346.993 2.328 348.241 3.224 349.329 4.31199C350.417 5.4 351.153 6.424 351.537 7.384C351.857 7.896 351.985 8.984 351.921 10.648C351.857 12.312 351.729 14.328 351.537 16.696C351.345 19.064 351.121 21.592 350.865 24.28C350.673 26.904 350.385 30.008 350.001 33.592C349.617 37.176 349.233 40.92 348.849 44.824C348.529 48.728 348.273 52.504 348.081 56.152C347.889 59.736 347.889 62.872 348.081 65.56C348.145 66.136 348.145 66.68 348.081 67.192C348.017 67.704 347.985 68.12 347.985 68.44C347.601 68.824 346.769 68.984 345.489 68.92C344.209 68.92 342.961 68.728 341.745 68.344C340.529 67.96 339.857 67.48 339.729 66.904C339.537 66.712 339.409 66.552 339.345 66.424C339.281 66.296 339.281 65.688 339.345 64.6C339.409 63.448 339.505 61.368 339.633 58.36L340.113 43.672L338.865 43.768C338.289 43.768 337.233 43.832 335.697 43.96C334.225 44.088 332.593 44.28 330.801 44.536C329.073 44.728 327.473 44.952 326.001 45.208C324.529 45.4 323.505 45.592 322.929 45.784C322.353 45.784 321.649 46.168 320.817 46.936C320.049 47.704 319.313 48.696 318.609 49.912C318.353 50.808 317.873 51.768 317.169 52.792C316.529 53.752 316.209 54.392 316.209 54.712C315.761 55.032 315.377 55.416 315.057 55.864C314.801 56.312 314.673 56.536 314.673 56.536C314.673 56.92 314.385 57.88 313.809 59.416C313.233 60.888 312.529 62.552 311.697 64.408C310.865 66.2 310.001 67.768 309.105 69.112L306.513 72.76L303.153 70.168ZM326.097 37.144C326.097 37.144 326.449 37.08 327.153 36.952C327.857 36.824 328.689 36.696 329.649 36.568C330.673 36.376 331.569 36.28 332.337 36.28C333.809 35.896 335.025 35.608 335.985 35.416C337.009 35.224 337.841 35.128 338.481 35.128C339.121 35.064 339.633 35.128 340.017 35.32C340.273 35.64 340.497 35.832 340.689 35.896C340.945 35.96 341.073 35.992 341.073 35.992C341.137 35.864 341.265 35.192 341.457 33.976C341.649 32.76 341.873 31.256 342.129 29.464C342.385 27.672 342.641 25.816 342.897 23.896C343.153 21.912 343.377 20.088 343.569 18.424C343.761 16.696 343.889 15.352 343.953 14.392C344.017 13.176 343.985 12.088 343.857 11.128C343.729 10.104 343.665 9.592 343.665 9.592C343.281 9.592 342.545 10.296 341.457 11.704C340.433 13.048 339.217 14.872 337.809 17.176C336.465 19.416 335.121 21.848 333.777 24.472C333.137 25.688 332.529 26.648 331.953 27.352C331.441 28.056 331.025 28.408 330.705 28.408C330.577 28.536 330.225 29.048 329.649 29.944C329.137 30.776 328.561 31.736 327.921 32.824C327.345 33.848 326.833 34.808 326.385 35.704C326.001 36.536 325.905 37.016 326.097 37.144ZM386.552 66.616C385.592 66.616 384.664 66.328 383.768 65.752C382.872 65.112 382.136 64.248 381.56 63.16C380.984 62.008 380.696 60.664 380.696 59.128C380.696 58.168 380.856 56.824 381.176 55.096C381.56 53.304 382.104 51.064 382.808 48.376C382.936 47.48 383.032 46.904 383.096 46.648C383.224 46.392 383.288 46.136 383.288 45.88C383.288 45.752 383.256 45.656 383.192 45.592C383.192 45.464 383.128 45.4 383 45.4C382.488 45.4 381.784 45.752 380.888 46.456C380.056 47.096 379.096 47.864 378.008 48.76C377.816 48.888 377.592 49.048 377.336 49.24C377.144 49.432 376.92 49.624 376.664 49.816C376.472 50.008 376.248 50.2 375.992 50.392C375.352 50.776 374.36 51.512 373.016 52.6C371.736 53.688 370.392 54.84 368.984 56.056C367.64 57.272 366.456 58.296 365.432 59.128C364.92 59.512 364.472 59.832 364.088 60.088C363.768 60.344 363.544 60.472 363.416 60.472C363.288 60.472 362.776 60.312 361.88 59.992C361.048 59.608 360.216 59.096 359.384 58.456C358.616 57.752 358.232 56.952 358.232 56.056C358.232 55.48 358.456 54.328 358.904 52.6C359.416 50.872 360.12 48.824 361.016 46.456C361.912 44.088 362.936 41.688 364.088 39.256C364.344 38.68 364.536 37.912 364.664 36.952C364.792 35.992 364.92 35.064 365.048 34.168C365.24 33.208 365.56 32.504 366.008 32.056C366.2 31.736 366.424 31.512 366.68 31.384C367 31.192 367.32 31.096 367.64 31.096C368.28 31.096 368.888 31.256 369.464 31.576C370.04 31.832 370.584 32.28 371.096 32.92C372.056 33.944 372.568 35.16 372.632 36.568C372.76 37.912 372.664 39.224 372.344 40.504C372.024 41.784 371.672 42.84 371.288 43.672C370.904 44.44 370.712 44.76 370.712 44.632C370.968 44.504 371.32 44.184 371.768 43.672C372.28 43.16 373.144 42.552 374.36 41.848C376.024 40.568 377.304 39.672 378.2 39.16C379.096 38.584 379.768 38.168 380.216 37.912C380.728 37.656 381.176 37.368 381.56 37.048C381.88 36.792 382.104 36.632 382.232 36.568C382.424 36.504 382.52 36.472 382.52 36.472C382.712 36.472 383.032 36.344 383.48 36.088C383.992 35.832 384.472 35.704 384.92 35.704C385.56 35.704 386.232 35.864 386.936 36.184C387.64 36.44 388.248 36.824 388.76 37.336C389.272 37.784 389.528 38.264 389.528 38.776C389.528 38.968 389.592 39.128 389.72 39.256C389.848 39.384 389.976 39.544 390.104 39.736C390.424 40.12 390.776 40.664 391.16 41.368C391.608 42.008 391.832 43.064 391.832 44.536C391.832 45.56 391.608 47.064 391.16 49.048C390.712 51.032 390.232 52.984 389.72 54.904C389.208 56.888 388.952 58.488 388.952 59.704C389.016 60.856 389.144 61.752 389.336 62.392C389.528 62.968 389.624 63.448 389.624 63.832C389.624 64.344 389.368 64.952 388.856 65.656C388.344 66.296 387.576 66.616 386.552 66.616ZM408.919 72.76C405.783 72.696 403.767 71.8 402.871 70.072C402.039 68.408 401.815 66.296 402.199 63.736C402.583 62.52 402.807 61.432 402.871 60.472C402.999 59.448 403.287 58.808 403.735 58.552C403.735 58.552 403.767 58.456 403.831 58.264C403.959 58.072 403.927 57.88 403.735 57.688C403.735 56.856 404.023 55.704 404.599 54.232C404.727 53.848 404.887 53.4 405.079 52.888C405.335 52.312 405.463 52.024 405.463 52.024C405.143 51.512 405.143 51.096 405.463 50.776C405.783 50.456 406.103 50.168 406.423 49.912C406.807 49.592 406.839 49.24 406.519 48.856C406.391 48.6 406.551 48.024 406.999 47.128C407.447 46.168 407.959 45.176 408.535 44.152C409.111 43.128 409.495 42.328 409.687 41.752C409.687 41.624 409.847 41.176 410.167 40.408C410.487 39.64 410.871 38.744 411.319 37.72C411.767 36.696 412.183 35.768 412.567 34.936C413.015 34.104 413.303 33.56 413.431 33.304C414.071 32.984 413.815 32.76 412.663 32.632C411.511 32.504 410.295 32.472 409.015 32.536C407.031 32.472 405.431 32.376 404.215 32.248C403.063 32.12 402.103 31.832 401.335 31.384C400.567 30.488 400.471 29.432 401.047 28.216C401.623 26.936 402.551 26.264 403.831 26.2C404.663 26.136 405.303 26.104 405.751 26.104C406.263 26.104 406.903 26.072 407.671 26.008C408.503 25.88 409.783 25.72 411.511 25.528L416.407 25.144L416.695 23.512C417.207 22.68 417.559 22.136 417.751 21.88C417.943 21.624 418.071 21.368 418.135 21.112C418.199 20.792 418.295 20.248 418.423 19.48C418.423 19.48 418.711 18.968 419.287 17.944C419.863 16.856 420.215 15.736 420.343 14.584C421.111 13.304 421.783 12.152 422.359 11.128C422.935 10.04 423.287 9.368 423.415 9.112C424.503 7.512 425.559 6.648 426.583 6.51999C427.671 6.392 428.695 6.648 429.655 7.288C430.231 7.608 430.775 8.024 431.287 8.536C431.799 8.984 432.119 9.592 432.247 10.36C432.375 11.064 432.087 11.992 431.383 13.144C431.255 13.4 431.063 13.88 430.807 14.584C430.551 15.224 430.359 15.768 430.231 16.216C429.847 16.664 429.367 17.4 428.791 18.424C428.279 19.384 427.927 20.376 427.735 21.4C427.223 22.488 426.903 23.16 426.775 23.416C426.647 23.672 426.455 23.8 426.199 23.8C426.327 24.44 426.711 24.76 427.351 24.76C427.991 24.696 429.047 24.632 430.519 24.568C431.735 24.44 432.567 24.312 433.015 24.184C433.527 23.992 434.103 24.056 434.743 24.376C435.063 24.824 435.223 25.496 435.223 26.392C435.287 27.224 435.191 28.056 434.935 28.888C434.679 29.656 434.327 30.136 433.879 30.328C433.559 30.328 432.887 30.52 431.863 30.904C430.903 31.224 429.687 31.416 428.215 31.48L423.127 31.96L421.495 35.224C421.047 36.056 420.663 36.824 420.343 37.528C420.023 38.168 419.799 38.552 419.671 38.68C419.671 39.064 419.447 39.64 418.999 40.408C418.615 41.176 418.199 42.008 417.751 42.904C417.367 43.992 416.919 44.984 416.407 45.88C415.959 46.776 415.735 47.224 415.735 47.224C415.479 47.224 415.351 47.416 415.351 47.8C415.671 48.568 415.575 49.144 415.063 49.528C414.743 49.72 414.455 50.008 414.199 50.392C414.007 50.712 413.911 50.872 413.911 50.872C414.167 51.128 414.199 51.448 414.007 51.832C413.879 52.216 413.687 52.632 413.431 53.08C413.431 53.592 413.271 54.328 412.951 55.288C412.695 56.248 412.407 57.144 412.087 57.976C412.151 59.128 412.215 59.864 412.279 60.184C412.343 60.504 412.503 60.632 412.759 60.568C413.079 60.632 413.527 60.632 414.103 60.568C414.679 60.504 415.095 60.472 415.351 60.472C416.311 60.024 415.863 62.264 414.007 67.192C412.983 68.792 411.959 70.104 410.935 71.128C409.911 72.216 409.239 72.76 408.919 72.76ZM432.06 65.368C431.548 64.856 431.164 64.088 430.908 63.064C430.716 62.04 430.652 61.048 430.716 60.088C430.78 59.064 430.94 58.296 431.196 57.784C431.196 57.272 431.26 56.888 431.388 56.632C431.58 56.312 431.644 56.024 431.58 55.768C431.516 55.512 431.58 55.064 431.772 54.424C431.964 53.784 432.156 53.176 432.348 52.6C432.796 51.576 433.308 50.264 433.884 48.664C434.46 47 435.036 45.336 435.612 43.672C436.188 41.944 436.668 40.472 437.052 39.256C437.436 37.976 437.66 37.208 437.724 36.952C437.724 36.184 438.236 35.768 439.26 35.704C440.028 35.448 440.956 35.768 442.044 36.664C443.132 37.56 443.996 38.52 444.636 39.544C445.148 40.056 445.34 40.728 445.212 41.56C445.084 42.392 444.668 43.576 443.964 45.112C443.708 45.624 443.388 46.488 443.004 47.704C442.684 48.856 442.46 49.816 442.332 50.584C442.076 51.096 441.756 51.832 441.372 52.792C441.052 53.688 440.764 54.552 440.508 55.384C440.38 55.704 440.252 56.312 440.124 57.208C439.996 58.04 439.836 58.904 439.644 59.8C439.452 60.696 439.196 61.4 438.876 61.912C438.3 64.536 437.276 66.072 435.804 66.52C434.396 66.968 433.148 66.584 432.06 65.368ZM442.428 26.872C441.724 26.36 441.18 25.752 440.796 25.048C440.476 24.28 440.284 23.608 440.22 23.032C440.22 22.456 440.284 22.104 440.412 21.976C441.052 21.272 441.596 20.344 442.044 19.192C442.556 18.04 443.1 16.984 443.676 16.024C443.804 15.832 443.964 15.576 444.156 15.256C444.412 14.872 444.668 14.648 444.924 14.584C445.692 14.072 446.748 14.104 448.092 14.68C449.5 15.256 450.524 16.056 451.164 17.08C451.74 18.296 451.9 19.544 451.644 20.824C451.452 22.104 450.78 23.448 449.628 24.856C448.668 26.136 447.452 26.968 445.98 27.352C444.508 27.672 443.324 27.512 442.428 26.872ZM459.137 61.912C458.689 61.528 458.081 60.376 457.313 58.456C456.609 56.536 455.905 54.296 455.201 51.736C454.561 49.176 454.049 46.808 453.665 44.632C453.409 43.352 453.121 42.264 452.801 41.368C452.545 40.472 452.321 39.736 452.129 39.16C451.809 38.008 451.905 36.792 452.417 35.512C452.993 34.232 453.665 33.368 454.433 32.92C454.753 32.728 455.329 32.6 456.161 32.536C457.057 32.408 457.633 32.376 457.889 32.44C458.657 32.696 459.361 33.88 460.001 35.992C460.641 38.04 461.217 40.76 461.729 44.152C461.985 46.136 462.177 47.608 462.305 48.568C462.497 49.464 462.593 50.04 462.593 50.296C462.849 50.808 463.009 51.448 463.073 52.216C463.201 52.92 463.521 53.016 464.033 52.504C464.289 52.248 464.673 51.8 465.185 51.16C465.761 50.52 466.433 49.688 467.201 48.664C468.545 46.872 469.601 45.4 470.369 44.248C471.201 43.032 472.129 41.784 473.153 40.504C473.601 39.864 474.209 39.16 474.977 38.392C475.745 37.624 476.513 36.92 477.281 36.28C478.049 35.576 478.689 35.16 479.201 35.032C480.737 34.776 481.665 35.352 481.985 36.76C482.369 38.104 481.921 39.672 480.641 41.464C480.129 42.232 479.713 42.968 479.393 43.672C479.137 44.312 478.881 44.76 478.625 45.016C478.113 46.04 477.313 47.352 476.225 48.952C475.137 50.488 474.081 51.928 473.057 53.272C472.033 54.552 471.329 55.384 470.945 55.768C470.689 56.024 470.113 56.504 469.217 57.208C468.385 57.912 467.585 58.808 466.817 59.896C465.281 61.368 463.809 62.264 462.401 62.584C460.993 62.904 459.905 62.68 459.137 61.912ZM490.15 66.904C488.614 66.904 487.27 66.104 486.118 64.504C485.03 62.84 484.358 60.856 484.102 58.552C484.166 58.04 484.23 57.304 484.294 56.344C484.422 55.384 484.55 54.392 484.678 53.368C484.934 52.152 485.286 50.584 485.734 48.664C486.182 46.744 486.662 44.824 487.174 42.904C487.686 40.92 488.134 39.224 488.518 37.816C488.902 36.344 489.126 35.48 489.19 35.224C489.574 34.328 490.438 34.104 491.782 34.552C493.126 35 494.278 35.96 495.238 37.432C495.622 37.944 495.846 38.552 495.91 39.256C496.038 39.96 495.942 40.984 495.622 42.328C495.366 43.672 494.854 45.656 494.086 48.28C493.382 50.84 492.838 52.92 492.454 54.52C492.134 56.056 492.006 57.688 492.07 59.416C491.814 62.36 491.558 64.376 491.302 65.464C491.046 66.488 490.662 66.968 490.15 66.904ZM498.982 27.064C498.726 27.256 498.47 27.352 498.214 27.352C498.022 27.288 497.67 27.096 497.158 26.776C496.71 26.712 496.134 26.424 495.43 25.912C494.79 25.336 494.214 24.76 493.702 24.184C493.254 23.608 493.03 23.256 493.03 23.128C492.966 22.488 492.998 21.464 493.126 20.056C493.318 18.648 493.67 17.336 494.182 16.12C494.758 14.84 495.526 14.168 496.486 14.104C496.742 14.104 497.286 14.232 498.118 14.488C499.014 14.744 499.942 15.064 500.902 15.448C501.414 16.408 501.894 17.656 502.342 19.192C502.79 20.728 502.822 22.232 502.438 23.704C502.118 25.112 500.966 26.232 498.982 27.064ZM509.858 64.984C509.666 65.048 509.25 65.016 508.61 64.888C508.034 64.76 507.426 64.6 506.786 64.408C506.21 64.216 505.858 64.056 505.73 63.928C505.474 63.672 505.122 63.224 504.674 62.584C504.226 61.88 503.97 60.952 503.906 59.8C503.906 58.648 504.45 57.272 505.538 55.672C505.858 55.032 506.242 54.072 506.69 52.792C507.138 51.512 507.586 50.168 508.034 48.76C508.546 47.288 508.994 45.976 509.378 44.824C509.826 43.672 510.146 42.872 510.338 42.424C510.466 41.336 510.402 40.568 510.146 40.12C509.954 39.608 509.41 39.32 508.514 39.256C507.874 39.256 507.362 39.032 506.978 38.584C506.658 38.136 506.498 37.336 506.498 36.184C506.626 35.288 506.85 34.52 507.17 33.88C507.554 33.176 508.066 32.6 508.706 32.152C509.346 31.832 510.146 31.608 511.106 31.48C512.13 31.352 513.122 31.32 514.082 31.384C515.042 31.448 515.714 31.672 516.098 32.056C516.546 32.312 516.898 32.888 517.154 33.784C517.474 34.616 517.73 35.48 517.922 36.376C518.114 37.272 518.242 37.944 518.306 38.392C518.946 37.88 519.65 37.176 520.418 36.28C521.25 35.32 522.082 34.424 522.914 33.592C523.938 32.888 525.154 32.184 526.562 31.48C527.97 30.712 528.994 30.328 529.634 30.328C530.338 30.328 531.202 30.68 532.226 31.384C533.25 32.024 533.89 32.6 534.146 33.112C534.786 34.2 535.234 35.352 535.49 36.568C535.81 37.72 535.618 38.744 534.914 39.64C534.274 40.472 533.378 41.304 532.226 42.136C531.074 42.904 529.634 43.128 527.906 42.808C527.522 42.68 527.106 42.2 526.658 41.368C526.274 40.536 526.05 39.928 525.986 39.544C525.986 39.352 525.698 39.544 525.122 40.12C524.61 40.632 523.97 41.272 523.202 42.04C522.498 42.808 521.826 43.512 521.186 44.152C520.098 45.496 518.946 47.32 517.73 49.624C516.514 51.928 515.074 54.712 513.41 57.976C512.642 59.576 512.002 61.112 511.49 62.584C510.978 63.992 510.434 64.792 509.858 64.984ZM543.492 63.64C542.276 62.552 541.22 61.432 540.324 60.28C539.428 59.064 538.82 57.208 538.5 54.712C538.372 53.56 538.5 51.96 538.884 49.912C539.268 47.864 539.844 45.72 540.612 43.48C541.38 41.176 542.212 39.064 543.108 37.144C544.004 35.224 544.9 33.816 545.796 32.92C546.564 31.96 547.524 31.192 548.676 30.616C549.892 30.04 551.14 30.04 552.42 30.616C553.124 31.448 553.476 32.6 553.476 34.072C553.54 35.48 553.188 36.792 552.42 38.008C551.14 39.736 550.02 41.912 549.06 44.536C548.164 47.096 547.556 49.4 547.236 51.448C546.788 52.92 546.596 54.072 546.66 54.904C546.724 55.672 547.172 56.152 548.004 56.344C549.22 56.664 550.468 56.312 551.748 55.288C553.092 54.264 554.372 52.76 555.588 50.776C556.868 48.792 557.988 46.52 558.948 43.96C559.332 43.064 559.62 42.008 559.812 40.792C560.068 39.576 560.324 38.68 560.58 38.104C560.9 36.824 561.444 35.832 562.212 35.128C563.044 34.36 563.908 33.88 564.804 33.688C565.7 33.496 566.372 33.592 566.82 33.976C567.396 34.232 568.004 34.648 568.644 35.224C569.284 35.8 569.54 36.824 569.412 38.296C569.412 40.664 568.9 42.68 567.876 44.344C566.852 46.008 565.988 47.768 565.284 49.624C564.708 50.968 563.78 52.536 562.5 54.328C561.22 56.12 559.844 57.752 558.372 59.224C556.964 60.696 555.652 61.688 554.436 62.2C552.644 63.352 550.82 64.056 548.964 64.312C547.108 64.504 545.284 64.28 543.492 63.64ZM581.807 67.672C578.415 67.672 575.919 66.584 574.319 64.408C573.871 63.384 573.647 62.36 573.647 61.336C573.711 60.248 573.967 59.48 574.415 59.032C574.863 58.52 575.407 58.616 576.047 59.32C576.879 59.832 578.063 60.088 579.599 60.088C580.367 60.088 581.039 60.088 581.615 60.088C582.255 60.024 582.991 59.96 583.823 59.896C585.295 59.768 586.223 59.32 586.607 58.552C587.055 57.784 586.959 57.144 586.319 56.632H586.415C584.687 56.184 582.991 55.544 581.327 54.712C579.663 53.88 578.255 52.952 577.103 51.928C575.951 50.84 575.279 49.816 575.087 48.856C574.575 46.744 574.703 44.568 575.471 42.328C576.239 40.088 577.359 38.136 578.831 36.472C579.407 36.088 580.207 35.544 581.231 34.84C582.255 34.072 582.991 33.656 583.439 33.592V33.688C584.655 32.408 586.031 31.384 587.567 30.616C589.103 29.784 590.895 29.016 592.943 28.312L594.479 28.12C595.247 27.992 595.919 27.928 596.495 27.928C596.431 27.928 596.591 27.992 596.975 28.12C597.359 28.248 597.679 28.344 597.935 28.408C598.319 28.6 598.703 28.696 599.087 28.696C599.983 28.824 600.847 29.304 601.679 30.136C602.575 30.904 603.279 31.832 603.791 32.92C604.367 33.944 604.591 34.904 604.463 35.8C604.271 37.272 603.727 38.744 602.831 40.216C601.935 41.624 600.975 42.424 599.951 42.616C600.079 42.552 599.951 42.424 599.567 42.232C599.183 42.04 598.831 41.848 598.511 41.656L598.127 41.848C598.127 41.848 598.095 41.752 598.031 41.56C598.031 41.368 597.967 41.144 597.839 40.888C597.583 40.44 597.391 39.96 597.263 39.448C597.199 38.936 597.199 38.36 597.263 37.72C597.391 37.016 597.423 36.6 597.359 36.472C597.295 36.344 596.911 36.248 596.207 36.184C595.375 35.992 594.319 36.088 593.039 36.472C591.759 36.792 590.575 37.368 589.487 38.2C588.207 39.032 587.247 39.704 586.607 40.216C586.031 40.728 585.583 41.24 585.263 41.752C584.943 42.2 584.591 42.872 584.207 43.768C583.951 44.216 583.727 44.632 583.535 45.016C583.343 45.336 583.247 45.656 583.247 45.976C583.247 46.616 583.791 47.288 584.879 47.992C585.967 48.632 587.599 49.4 589.775 50.296C591.503 51 592.623 51.96 593.135 53.176C593.711 54.392 594.223 55.544 594.671 56.632C594.799 56.888 594.927 57.368 595.055 58.072C595.247 58.712 595.279 59.096 595.151 59.224C595.279 59.352 595.343 59.48 595.343 59.608V59.512C595.855 60.472 595.759 61.496 595.055 62.584C594.415 63.608 593.391 64.568 591.983 65.464C590.575 66.296 588.975 66.904 587.183 67.288H587.279C586.319 67.416 585.359 67.512 584.399 67.576C583.503 67.64 582.639 67.672 581.807 67.672Z" fill="#111827"/>
</svg>
